ISO-10303-21;
HEADER;
FILE_DESCRIPTION (( 'STEP AP214' ),
    '1' );
FILE_NAME ('.25in 2.0cm x 2.STEP',
    '2026-08-28T18:58:42',
    ( '' ),
    ( '' ),
    'SwSTEP 2.0',
    'SolidWorks 2025',
    '' );
FILE_SCHEMA (( 'AUTOMOTIVE_DESIGN' ));
ENDSEC;

DATA;
#1 = ORIENTED_EDGE ( 'NONE', *, *, #225, .T. ) ;
#2 = ORIENTED_EDGE ( 'NONE', *, *, #33, .T. ) ;
#3 = AXIS2_PLACEMENT_3D ( 'NONE', #204, #302, #175 ) ;
#4 = PLANE ( 'NONE',  #96 ) ;
#5 = STYLED_ITEM ( 'NONE', ( #106 ), #183 ) ;
#6 = CARTESIAN_POINT ( 'NONE',  ( 0.000000000000000000, 0.000000000000000000, 2.250000000000000000 ) ) ;
#7 = CARTESIAN_POINT ( 'NONE',  ( -0.3125000000000000000, 0.000000000000000000, 2.187500000000000000 ) ) ;
#8 = CARTESIAN_POINT ( 'NONE',  ( -0.3125000000000000000, 0.000000000000000000, 0.000000000000000000 ) ) ;
#9 = AXIS2_PLACEMENT_3D ( 'NONE', #291, #55, #100 ) ;
#10 = DIRECTION ( 'NONE',  ( 0.000000000000000000, 0.000000000000000000, 1.000000000000000000 ) ) ;
#11 = DIRECTION ( 'NONE',  ( -0.000000000000000000, 0.000000000000000000, 1.000000000000000000 ) ) ;
#12 = AXIS2_PLACEMENT_3D ( 'NONE', #6, #289, #287 ) ;
#13 = SURFACE_SIDE_STYLE ('',( #104 ) ) ;
#14 = ORIENTED_EDGE ( 'NONE', *, *, #45, .T. ) ;
#15 = DIRECTION ( 'NONE',  ( 1.000000000000000000, 0.000000000000000000, 0.000000000000000000 ) ) ;
#16 = ORIENTED_EDGE ( 'NONE', *, *, #307, .F. ) ;
#17 = CARTESIAN_POINT ( 'NONE',  ( 0.000000000000000000, 0.000000000000000000, -0.5000000000000000000 ) ) ;
#18 = AXIS2_PLACEMENT_3D ( 'NONE', #111, #212, #305 ) ;
#19 = VERTEX_POINT ( 'NONE', #97 ) ;
#20 = VERTEX_POINT ( 'NONE', #25 ) ;
#21 = VERTEX_POINT ( 'NONE', #8 ) ;
#22 = AXIS2_PLACEMENT_3D ( 'NONE', #99, #192, #272 ) ;
#23 = ORIENTED_EDGE ( 'NONE', *, *, #288, .F. ) ;
#24 = DIRECTION ( 'NONE',  ( 0.000000000000000000, 0.000000000000000000, -1.000000000000000000 ) ) ;
#25 = CARTESIAN_POINT ( 'NONE',  ( 0.3125000000000000000, 3.827021247335478310E-17, 2.187500000000000000 ) ) ;
#26 = CARTESIAN_POINT ( 'NONE',  ( -0.8125000000000000000, 9.950255243072245579E-17, -0.4375000000000000555 ) ) ;
#27 = AXIS2_PLACEMENT_3D ( 'NONE', #29, #198, #247 ) ;
#28 = EDGE_CURVE ( 'NONE', #20, #92, #308, .T. ) ;
#29 = CARTESIAN_POINT ( 'NONE',  ( 0.000000000000000000, 0.000000000000000000, 2.250000000000000000 ) ) ;
#30 = ORIENTED_EDGE ( 'NONE', *, *, #211, .T. ) ;
#31 = DIRECTION ( 'NONE',  ( -0.000000000000000000, -0.000000000000000000, -1.000000000000000000 ) ) ;
#32 = VECTOR ( 'NONE', #270, 100.0000000000000000 ) ;
#33 = EDGE_CURVE ( 'NONE', #42, #163, #249, .T. ) ;
#34 = LINE ( 'NONE', #230, #258 ) ;
#35 = ORIENTED_EDGE ( 'NONE', *, *, #93, .F. ) ;
#36 = CLOSED_SHELL ( 'NONE', ( #83, #137, #278, #57, #201, #88, #188, #107, #63, #197, #127 ) ) ;
#37 = EDGE_CURVE ( 'NONE', #293, #40, #301, .T. ) ;
#38 = CYLINDRICAL_SURFACE ( 'NONE', #119, 0.8125000000000000000 ) ;
#39 = VERTEX_POINT ( 'NONE', #72 ) ;
#40 = VERTEX_POINT ( 'NONE', #268 ) ;
#41 = AXIS2_PLACEMENT_3D ( 'NONE', #141, #222, #24 ) ;
#42 = VERTEX_POINT ( 'NONE', #26 ) ;
#43 = CIRCLE ( 'NONE', #116, 0.8125000000000000000 ) ;
#44 = DIRECTION ( 'NONE',  ( 1.000000000000000000, 0.000000000000000000, 0.000000000000000000 ) ) ;
#45 = EDGE_CURVE ( 'NONE', #20, #293, #74, .T. ) ;
#46 = DIRECTION ( 'NONE',  ( 0.000000000000000000, -1.000000000000000000, 0.000000000000000000 ) ) ;
#47 = CARTESIAN_POINT ( 'NONE',  ( 0.000000000000000000, 0.000000000000000000, 2.187500000000000000 ) ) ;
#48 = FACE_OUTER_BOUND ( 'NONE', #255, .T. ) ;
#49 = CIRCLE ( 'NONE', #3, 0.7500000000000001110 ) ;
#50 =( GEOMETRIC_REPRESENTATION_CONTEXT ( 3 ) GLOBAL_UNCERTAINTY_ASSIGNED_CONTEXT ( ( #195 ) ) GLOBAL_UNIT_ASSIGNED_CONTEXT ( ( #213, #77, #86 ) ) REPRESENTATION_CONTEXT ( 'NONE', 'WORKASPACE' ) );
#51 = FACE_OUTER_BOUND ( 'NONE', #261, .T. ) ;
#52 = DIRECTION ( 'NONE',  ( 1.000000000000000000, 0.000000000000000000, 0.000000000000000000 ) ) ;
#53 = DIRECTION ( 'NONE',  ( -0.000000000000000000, -0.000000000000000000, -1.000000000000000000 ) ) ;
#54 = ORIENTED_EDGE ( 'NONE', *, *, #45, .F. ) ;
#55 = DIRECTION ( 'NONE',  ( -0.000000000000000000, 0.000000000000000000, 1.000000000000000000 ) ) ;
#56 = ORIENTED_EDGE ( 'NONE', *, *, #170, .F. ) ;
#57 = ADVANCED_FACE ( 'NONE', ( #145 ), #167, .T. ) ;
#58 =( LENGTH_UNIT ( ) NAMED_UNIT ( * ) SI_UNIT ( .CENTI., .METRE. ) );
#59 = DIRECTION ( 'NONE',  ( 0.000000000000000000, 0.000000000000000000, 1.000000000000000000 ) ) ;
#60 = COLOUR_RGB ( '',0.7921568627450980005, 0.8196078431372548767, 0.9333333333333333481 ) ;
#61 = ORIENTED_EDGE ( 'NONE', *, *, #115, .F. ) ;
#62 = DIRECTION ( 'NONE',  ( 1.000000000000000000, 0.000000000000000000, 0.000000000000000000 ) ) ;
#63 = ADVANCED_FACE ( 'NONE', ( #73, #48 ), #4, .T. ) ;
#64 = EDGE_LOOP ( 'NONE', ( #56, #304, #82, #263 ) ) ;
#65 = AXIS2_PLACEMENT_3D ( 'NONE', #257, #109, #277 ) ;
#66 = APPLICATION_CONTEXT ( 'automotive_design' ) ;
#67 = ORIENTED_EDGE ( 'NONE', *, *, #224, .T. ) ;
#68 = DIRECTION ( 'NONE',  ( 1.000000000000000000, 0.000000000000000000, 0.000000000000000000 ) ) ;
#69 = DIRECTION ( 'NONE',  ( -0.000000000000000000, 0.000000000000000000, 1.000000000000000000 ) ) ;
#70 = FACE_OUTER_BOUND ( 'NONE', #281, .T. ) ;
#71 = EDGE_CURVE ( 'NONE', #39, #133, #267, .T. ) ;
#72 = CARTESIAN_POINT ( 'NONE',  ( 0.7500000000000001110, 0.000000000000000000, -0.5000000000000000000 ) ) ;
#73 = FACE_BOUND ( 'NONE', #309, .T. ) ;
#74 = CIRCLE ( 'NONE', #87, 0.06250000000000005551 ) ;
#75 = CARTESIAN_POINT ( 'NONE',  ( 0.000000000000000000, 0.000000000000000000, 0.000000000000000000 ) ) ;
#76 = CARTESIAN_POINT ( 'NONE',  ( -0.8125000000000000000, 9.950255243072245579E-17, 0.000000000000000000 ) ) ;
#77 =( NAMED_UNIT ( * ) PLANE_ANGLE_UNIT ( ) SI_UNIT ( $, .RADIAN. ) );
#78 = LINE ( 'NONE', #154, #91 ) ;
#79 = AXIS2_PLACEMENT_3D ( 'NONE', #151, #233, #298 ) ;
#80 = DIRECTION ( 'NONE',  ( -0.000000000000000000, 0.000000000000000000, 1.000000000000000000 ) ) ;
#81 = CARTESIAN_POINT ( 'NONE',  ( 0.000000000000000000, 0.000000000000000000, 0.000000000000000000 ) ) ;
#82 = ORIENTED_EDGE ( 'NONE', *, *, #307, .T. ) ;
#83 = ADVANCED_FACE ( 'NONE', ( #70 ), #276, .T. ) ;
#84 = CARTESIAN_POINT ( 'NONE',  ( 0.000000000000000000, 0.000000000000000000, -0.5000000000000000000 ) ) ;
#85 = CARTESIAN_POINT ( 'NONE',  ( 0.3125000000000000000, 3.827021247335478310E-17, 0.000000000000000000 ) ) ;
#86 =( NAMED_UNIT ( * ) SI_UNIT ( $, .STERADIAN. ) SOLID_ANGLE_UNIT ( ) );
#87 = AXIS2_PLACEMENT_3D ( 'NONE', #221, #46, #118 ) ;
#88 = ADVANCED_FACE ( 'NONE', ( #173 ), #226, .T. ) ;
#89 = ORIENTED_EDGE ( 'NONE', *, *, #215, .T. ) ;
#90 = ORIENTED_EDGE ( 'NONE', *, *, #71, .T. ) ;
#91 = VECTOR ( 'NONE', #53, 100.0000000000000000 ) ;
#92 = VERTEX_POINT ( 'NONE', #7 ) ;
#93 = EDGE_CURVE ( 'NONE', #92, #20, #165, .T. ) ;
#94 = EDGE_LOOP ( 'NONE', ( #35, #139, #136, #54 ) ) ;
#95 = ORIENTED_EDGE ( 'NONE', *, *, #279, .F. ) ;
#96 = AXIS2_PLACEMENT_3D ( 'NONE', #123, #69, #68 ) ;
#97 = CARTESIAN_POINT ( 'NONE',  ( -0.7500000000000001110, 9.567553118338698241E-17, -0.5000000000000000000 ) ) ;
#98 = DIRECTION ( 'NONE',  ( 1.000000000000000000, 0.000000000000000000, 0.000000000000000000 ) ) ;
#99 = CARTESIAN_POINT ( 'NONE',  ( 0.000000000000000000, 0.000000000000000000, 2.187500000000000000 ) ) ;
#100 = DIRECTION ( 'NONE',  ( 1.000000000000000000, 0.000000000000000000, 0.000000000000000000 ) ) ;
#101 = AXIS2_PLACEMENT_3D ( 'NONE', #259, #296, #234 ) ;
#102 = CARTESIAN_POINT ( 'NONE',  ( 0.000000000000000000, 0.000000000000000000, -0.4375000000000000555 ) ) ;
#103 = PRODUCT_CONTEXT ( 'NONE', #160, 'mechanical' ) ;
#104 = SURFACE_STYLE_FILL_AREA ( #280 ) ;
#105 = DIRECTION ( 'NONE',  ( 1.000000000000000000, 0.000000000000000000, 0.000000000000000000 ) ) ;
#106 = PRESENTATION_STYLE_ASSIGNMENT (( #256 ) ) ;
#107 = ADVANCED_FACE ( 'NONE', ( #51 ), #251, .F. ) ;
#108 = MECHANICAL_DESIGN_GEOMETRIC_PRESENTATION_REPRESENTATION (  '', ( #5 ), #290 ) ;
#109 = DIRECTION ( 'NONE',  ( 0.000000000000000000, -0.000000000000000000, -1.000000000000000000 ) ) ;
#110 = CARTESIAN_POINT ( 'NONE',  ( -0.2500000000000000000, 3.061616997868383018E-17, 2.187500000000000000 ) ) ;
#111 = CARTESIAN_POINT ( 'NONE',  ( -0.7500000000000001110, 9.184850993605149670E-17, -0.4375000000000000555 ) ) ;
#112 = CARTESIAN_POINT ( 'NONE',  ( 0.000000000000000000, 0.000000000000000000, 0.000000000000000000 ) ) ;
#113 = CIRCLE ( 'NONE', #125, 0.8125000000000000000 ) ;
#114 = ORIENTED_EDGE ( 'NONE', *, *, #162, .T. ) ;
#115 = EDGE_CURVE ( 'NONE', #42, #133, #43, .T. ) ;
#116 = AXIS2_PLACEMENT_3D ( 'NONE', #246, #266, #44 ) ;
#117 = DIRECTION ( 'NONE',  ( 0.000000000000000000, -0.000000000000000000, -1.000000000000000000 ) ) ;
#118 = DIRECTION ( 'NONE',  ( 0.000000000000000000, 0.000000000000000000, -1.000000000000000000 ) ) ;
#119 = AXIS2_PLACEMENT_3D ( 'NONE', #17, #59, #105 ) ;
#120 = CIRCLE ( 'NONE', #271, 0.3125000000000000000 ) ;
#121 = DIRECTION ( 'NONE',  ( -0.000000000000000000, 0.000000000000000000, 1.000000000000000000 ) ) ;
#122 = CARTESIAN_POINT ( 'NONE',  ( 0.000000000000000000, 0.000000000000000000, 2.250000000000000000 ) ) ;
#123 = CARTESIAN_POINT ( 'NONE',  ( 0.000000000000000000, 0.000000000000000000, 0.000000000000000000 ) ) ;
#124 = DIRECTION ( 'NONE',  ( -1.000000000000000000, 0.000000000000000000, 0.000000000000000000 ) ) ;
#125 = AXIS2_PLACEMENT_3D ( 'NONE', #75, #180, #202 ) ;
#126 = FACE_OUTER_BOUND ( 'NONE', #265, .T. ) ;
#127 = ADVANCED_FACE ( 'NONE', ( #166 ), #206, .T. ) ;
#128 =( NAMED_UNIT ( * ) PLANE_ANGLE_UNIT ( ) SI_UNIT ( $, .RADIAN. ) );
#129 = ORIENTED_EDGE ( 'NONE', *, *, #243, .F. ) ;
#130 = PRODUCT_DEFINITION_FORMATION_WITH_SPECIFIED_SOURCE ( 'ANY', '', #135, .NOT_KNOWN. ) ;
#131 = DIRECTION ( 'NONE',  ( 1.000000000000000000, 0.000000000000000000, 0.000000000000000000 ) ) ;
#132 = ORIENTED_EDGE ( 'NONE', *, *, #115, .T. ) ;
#133 = VERTEX_POINT ( 'NONE', #194 ) ;
#134 = APPLICATION_PROTOCOL_DEFINITION ( 'draft international standard', 'automotive_design', 1998, #160 ) ;
#135 = PRODUCT ( '.25in 2.0cm x 2', '.25in 2.0cm x 2', '', ( #103 ) ) ;
#136 = ORIENTED_EDGE ( 'NONE', *, *, #37, .F. ) ;
#137 = ADVANCED_FACE ( 'NONE', ( #152 ), #218, .T. ) ;
#138 = AXIS2_PLACEMENT_3D ( 'NONE', #122, #292, #168 ) ;
#139 = ORIENTED_EDGE ( 'NONE', *, *, #288, .T. ) ;
#140 = EDGE_CURVE ( 'NONE', #163, #150, #113, .T. ) ;
#141 = CARTESIAN_POINT ( 'NONE',  ( 0.7500000000000001110, 0.000000000000000000, -0.4375000000000000555 ) ) ;
#142 = EDGE_LOOP ( 'NONE', ( #153, #132, #114, #219 ) ) ;
#143 = AXIS2_PLACEMENT_3D ( 'NONE', #112, #260, #131 ) ;
#144 = EDGE_CURVE ( 'NONE', #39, #19, #161, .T. ) ;
#145 = FACE_OUTER_BOUND ( 'NONE', #208, .T. ) ;
#146 = FACE_OUTER_BOUND ( 'NONE', #64, .T. ) ;
#147 = ADVANCED_BREP_SHAPE_REPRESENTATION ( '.25in 2.0cm x 2', ( #183, #143 ), #50 ) ;
#148 = DIRECTION ( 'NONE',  ( 1.000000000000000000, 0.000000000000000000, 0.000000000000000000 ) ) ;
#149 = TOROIDAL_SURFACE ( 'NONE', #177, 0.2500000000000000000, 0.06250000000000000000 ) ;
#150 = VERTEX_POINT ( 'NONE', #252 ) ;
#151 = CARTESIAN_POINT ( 'NONE',  ( 0.000000000000000000, 0.000000000000000000, 2.250000000000000000 ) ) ;
#152 = FACE_OUTER_BOUND ( 'NONE', #94, .T. ) ;
#153 = ORIENTED_EDGE ( 'NONE', *, *, #33, .F. ) ;
#154 = CARTESIAN_POINT ( 'NONE',  ( 0.3125000000000000000, 3.827021247335478310E-17, 2.250000000000000000 ) ) ;
#155 = DIRECTION ( 'NONE',  ( -0.000000000000000000, 0.000000000000000000, 1.000000000000000000 ) ) ;
#156 = ORIENTED_EDGE ( 'NONE', *, *, #225, .F. ) ;
#157 = AXIS2_PLACEMENT_3D ( 'NONE', #47, #117, #98 ) ;
#158 = ORIENTED_EDGE ( 'NONE', *, *, #243, .T. ) ;
#159 = PRODUCT_DEFINITION_SHAPE ( 'NONE', 'NONE',  #295 ) ;
#160 = APPLICATION_CONTEXT ( 'automotive_design' ) ;
#161 = CIRCLE ( 'NONE', #65, 0.7500000000000001110 ) ;
#162 = EDGE_CURVE ( 'NONE', #133, #150, #34, .T. ) ;
#163 = VERTEX_POINT ( 'NONE', #76 ) ;
#164 = ORIENTED_EDGE ( 'NONE', *, *, #170, .T. ) ;
#165 = CIRCLE ( 'NONE', #22, 0.3125000000000000000 ) ;
#166 = FACE_OUTER_BOUND ( 'NONE', #284, .T. ) ;
#167 = CYLINDRICAL_SURFACE ( 'NONE', #138, 0.3125000000000000000 ) ;
#168 = DIRECTION ( 'NONE',  ( -1.000000000000000000, 0.000000000000000000, 0.000000000000000000 ) ) ;
#169 = PRODUCT_DEFINITION_CONTEXT ( 'detailed design', #66, 'design' ) ;
#170 = EDGE_CURVE ( 'NONE', #20, #239, #78, .T. ) ;
#171 = AXIS2_PLACEMENT_3D ( 'NONE', #269, #121, #227 ) ;
#172 = AXIS2_PLACEMENT_3D ( 'NONE', #110, #209, #205 ) ;
#173 = FACE_OUTER_BOUND ( 'NONE', #241, .T. ) ;
#174 = FACE_OUTER_BOUND ( 'NONE', #142, .T. ) ;
#175 = DIRECTION ( 'NONE',  ( 1.000000000000000000, 0.000000000000000000, 0.000000000000000000 ) ) ;
#176 = DIRECTION ( 'NONE',  ( 0.000000000000000000, 0.000000000000000000, 1.000000000000000000 ) ) ;
#177 = AXIS2_PLACEMENT_3D ( 'NONE', #181, #155, #52 ) ;
#178 = ORIENTED_EDGE ( 'NONE', *, *, #71, .F. ) ;
#179 = CARTESIAN_POINT ( 'NONE',  ( -0.3125000000000000000, 0.000000000000000000, 2.250000000000000000 ) ) ;
#180 = DIRECTION ( 'NONE',  ( -0.000000000000000000, 0.000000000000000000, 1.000000000000000000 ) ) ;
#181 = CARTESIAN_POINT ( 'NONE',  ( 0.000000000000000000, 0.000000000000000000, 2.187500000000000000 ) ) ;
#182 = CARTESIAN_POINT ( 'NONE',  ( 0.000000000000000000, 0.000000000000000000, 0.000000000000000000 ) ) ;
#183 = MANIFOLD_SOLID_BREP ( 'Fillet2', #36 ) ;
#184 = DIRECTION ( 'NONE',  ( -0.000000000000000000, 0.000000000000000000, 1.000000000000000000 ) ) ;
#185 = FACE_OUTER_BOUND ( 'NONE', #303, .T. ) ;
#186 = ORIENTED_EDGE ( 'NONE', *, *, #162, .F. ) ;
#187 = ORIENTED_EDGE ( 'NONE', *, *, #224, .F. ) ;
#188 = ADVANCED_FACE ( 'NONE', ( #174 ), #273, .T. ) ;
#189 = AXIS2_PLACEMENT_3D ( 'NONE', #102, #11, #297 ) ;
#190 = ORIENTED_EDGE ( 'NONE', *, *, #140, .T. ) ;
#191 = DIRECTION ( 'NONE',  ( 1.000000000000000000, 0.000000000000000000, 0.000000000000000000 ) ) ;
#192 = DIRECTION ( 'NONE',  ( 0.000000000000000000, -0.000000000000000000, -1.000000000000000000 ) ) ;
#193 = CIRCLE ( 'NONE', #79, 0.2500000000000000000 ) ;
#194 = CARTESIAN_POINT ( 'NONE',  ( 0.8125000000000000000, 0.000000000000000000, -0.4375000000000000555 ) ) ;
#195 = UNCERTAINTY_MEASURE_WITH_UNIT (LENGTH_MEASURE( 1.000000000000000082E-05 ), #213, 'distance_accuracy_value', 'NONE');
#196 = CARTESIAN_POINT ( 'NONE',  ( -0.8125000000000000000, 9.950255243072245579E-17, -0.5000000000000000000 ) ) ;
#197 = ADVANCED_FACE ( 'NONE', ( #126 ), #149, .T. ) ;
#198 = DIRECTION ( 'NONE',  ( -0.000000000000000000, 0.000000000000000000, 1.000000000000000000 ) ) ;
#199 = CIRCLE ( 'NONE', #244, 0.3125000000000000000 ) ;
#200 =( NAMED_UNIT ( * ) SI_UNIT ( $, .STERADIAN. ) SOLID_ANGLE_UNIT ( ) );
#201 = ADVANCED_FACE ( 'NONE', ( #146 ), #232, .T. ) ;
#202 = DIRECTION ( 'NONE',  ( 1.000000000000000000, 0.000000000000000000, 0.000000000000000000 ) ) ;
#203 = APPLICATION_PROTOCOL_DEFINITION ( 'draft international standard', 'automotive_design', 1998, #66 ) ;
#204 = CARTESIAN_POINT ( 'NONE',  ( 0.000000000000000000, 0.000000000000000000, -0.5000000000000000000 ) ) ;
#205 = DIRECTION ( 'NONE',  ( -1.000000000000000000, 1.224646799147353207E-16, 0.000000000000000000 ) ) ;
#206 = TOROIDAL_SURFACE ( 'NONE', #9, 0.7500000000000001110, 0.06250000000000000000 ) ;
#207 = FILL_AREA_STYLE_COLOUR ( '', #60 ) ;
#208 = EDGE_LOOP ( 'NONE', ( #217, #164, #275, #16 ) ) ;
#209 = DIRECTION ( 'NONE',  ( 1.224646799147353207E-16, 1.000000000000000000, 0.000000000000000000 ) ) ;
#210 = ORIENTED_EDGE ( 'NONE', *, *, #144, .T. ) ;
#211 = EDGE_CURVE ( 'NONE', #133, #42, #294, .T. ) ;
#212 = DIRECTION ( 'NONE',  ( 1.224646799147353207E-16, 1.000000000000000000, 0.000000000000000000 ) ) ;
#213 =( LENGTH_UNIT ( ) NAMED_UNIT ( * ) SI_UNIT ( .CENTI., .METRE. ) );
#214 = CIRCLE ( 'NONE', #223, 0.8125000000000000000 ) ;
#215 = EDGE_CURVE ( 'NONE', #19, #39, #49, .T. ) ;
#216 = ORIENTED_EDGE ( 'NONE', *, *, #28, .F. ) ;
#217 = ORIENTED_EDGE ( 'NONE', *, *, #93, .T. ) ;
#218 = TOROIDAL_SURFACE ( 'NONE', #101, 0.2500000000000000000, 0.06250000000000000000 ) ;
#219 = ORIENTED_EDGE ( 'NONE', *, *, #140, .F. ) ;
#220 = EDGE_CURVE ( 'NONE', #21, #239, #199, .T. ) ;
#221 = CARTESIAN_POINT ( 'NONE',  ( 0.2500000000000000000, 0.000000000000000000, 2.187500000000000000 ) ) ;
#222 = DIRECTION ( 'NONE',  ( 0.000000000000000000, -1.000000000000000000, 0.000000000000000000 ) ) ;
#223 = AXIS2_PLACEMENT_3D ( 'NONE', #299, #184, #15 ) ;
#224 = EDGE_CURVE ( 'NONE', #150, #163, #214, .T. ) ;
#225 = EDGE_CURVE ( 'NONE', #19, #42, #253, .T. ) ;
#226 = PLANE ( 'NONE',  #12 ) ;
#227 = DIRECTION ( 'NONE',  ( 1.000000000000000000, 0.000000000000000000, 0.000000000000000000 ) ) ;
#228 = CARTESIAN_POINT ( 'NONE',  ( 0.000000000000000000, 0.000000000000000000, -0.5000000000000000000 ) ) ;
#229 = AXIS2_PLACEMENT_3D ( 'NONE', #84, #10, #254 ) ;
#230 = CARTESIAN_POINT ( 'NONE',  ( 0.8125000000000000000, 0.000000000000000000, -0.5000000000000000000 ) ) ;
#231 = DIRECTION ( 'NONE',  ( -0.000000000000000000, 0.000000000000000000, 1.000000000000000000 ) ) ;
#232 = CYLINDRICAL_SURFACE ( 'NONE', #248, 0.3125000000000000000 ) ;
#233 = DIRECTION ( 'NONE',  ( -0.000000000000000000, 0.000000000000000000, 1.000000000000000000 ) ) ;
#234 = DIRECTION ( 'NONE',  ( 1.000000000000000000, 0.000000000000000000, 0.000000000000000000 ) ) ;
#235 = VECTOR ( 'NONE', #237, 100.0000000000000000 ) ;
#236 = ORIENTED_EDGE ( 'NONE', *, *, #220, .F. ) ;
#237 = DIRECTION ( 'NONE',  ( -0.000000000000000000, -0.000000000000000000, -1.000000000000000000 ) ) ;
#238 = ORIENTED_EDGE ( 'NONE', *, *, #37, .T. ) ;
#239 = VERTEX_POINT ( 'NONE', #85 ) ;
#240 = ORIENTED_EDGE ( 'NONE', *, *, #211, .F. ) ;
#241 = EDGE_LOOP ( 'NONE', ( #238, #158 ) ) ;
#242 = ORIENTED_EDGE ( 'NONE', *, *, #144, .F. ) ;
#243 = EDGE_CURVE ( 'NONE', #40, #293, #193, .T. ) ;
#244 = AXIS2_PLACEMENT_3D ( 'NONE', #81, #231, #148 ) ;
#245 = DIRECTION ( 'NONE',  ( -0.000000000000000000, 0.000000000000000000, 1.000000000000000000 ) ) ;
#246 = CARTESIAN_POINT ( 'NONE',  ( 0.000000000000000000, 0.000000000000000000, -0.4375000000000000555 ) ) ;
#247 = DIRECTION ( 'NONE',  ( 1.000000000000000000, 0.000000000000000000, 0.000000000000000000 ) ) ;
#248 = AXIS2_PLACEMENT_3D ( 'NONE', #274, #31, #124 ) ;
#249 = LINE ( 'NONE', #196, #32 ) ;
#250 = UNCERTAINTY_MEASURE_WITH_UNIT (LENGTH_MEASURE( 1.000000000000000082E-05 ), #58, 'distance_accuracy_value', 'NONE');
#251 = PLANE ( 'NONE',  #285 ) ;
#252 = CARTESIAN_POINT ( 'NONE',  ( 0.8125000000000000000, 0.000000000000000000, 0.000000000000000000 ) ) ;
#253 = CIRCLE ( 'NONE', #18, 0.06249999999999997224 ) ;
#254 = DIRECTION ( 'NONE',  ( 1.000000000000000000, 0.000000000000000000, 0.000000000000000000 ) ) ;
#255 = EDGE_LOOP ( 'NONE', ( #67, #190 ) ) ;
#256 = SURFACE_STYLE_USAGE ( .BOTH. , #13 ) ;
#257 = CARTESIAN_POINT ( 'NONE',  ( 0.000000000000000000, 0.000000000000000000, -0.5000000000000000000 ) ) ;
#258 = VECTOR ( 'NONE', #176, 100.0000000000000000 ) ;
#259 = CARTESIAN_POINT ( 'NONE',  ( 0.000000000000000000, 0.000000000000000000, 2.187500000000000000 ) ) ;
#260 = DIRECTION ( 'NONE',  ( 0.000000000000000000, 0.000000000000000000, 1.000000000000000000 ) ) ;
#261 = EDGE_LOOP ( 'NONE', ( #210, #89 ) ) ;
#262 = LINE ( 'NONE', #179, #235 ) ;
#263 = ORIENTED_EDGE ( 'NONE', *, *, #220, .T. ) ;
#264 = PRODUCT_RELATED_PRODUCT_CATEGORY ( 'part', '', ( #135 ) ) ;
#265 = EDGE_LOOP ( 'NONE', ( #23, #216, #14, #129 ) ) ;
#266 = DIRECTION ( 'NONE',  ( -0.000000000000000000, 0.000000000000000000, 1.000000000000000000 ) ) ;
#267 = CIRCLE ( 'NONE', #41, 0.06249999999999997224 ) ;
#268 = CARTESIAN_POINT ( 'NONE',  ( -0.2500000000000000000, 3.444319122601930972E-17, 2.250000000000000000 ) ) ;
#269 = CARTESIAN_POINT ( 'NONE',  ( 0.000000000000000000, 0.000000000000000000, -0.4375000000000000555 ) ) ;
#270 = DIRECTION ( 'NONE',  ( 0.000000000000000000, 0.000000000000000000, 1.000000000000000000 ) ) ;
#271 = AXIS2_PLACEMENT_3D ( 'NONE', #182, #80, #62 ) ;
#272 = DIRECTION ( 'NONE',  ( 1.000000000000000000, 0.000000000000000000, 0.000000000000000000 ) ) ;
#273 = CYLINDRICAL_SURFACE ( 'NONE', #229, 0.8125000000000000000 ) ;
#274 = CARTESIAN_POINT ( 'NONE',  ( 0.000000000000000000, 0.000000000000000000, 2.250000000000000000 ) ) ;
#275 = ORIENTED_EDGE ( 'NONE', *, *, #279, .T. ) ;
#276 = TOROIDAL_SURFACE ( 'NONE', #171, 0.7500000000000001110, 0.06250000000000000000 ) ;
#277 = DIRECTION ( 'NONE',  ( 1.000000000000000000, 0.000000000000000000, 0.000000000000000000 ) ) ;
#278 = ADVANCED_FACE ( 'NONE', ( #185 ), #38, .T. ) ;
#279 = EDGE_CURVE ( 'NONE', #239, #21, #120, .T. ) ;
#280 = FILL_AREA_STYLE ('',( #207 ) ) ;
#281 = EDGE_LOOP ( 'NONE', ( #283, #1, #240, #178 ) ) ;
#282 = PRESENTATION_LAYER_ASSIGNMENT (  '', '', ( #5 ) ) ;
#283 = ORIENTED_EDGE ( 'NONE', *, *, #215, .F. ) ;
#284 = EDGE_LOOP ( 'NONE', ( #156, #242, #90, #61 ) ) ;
#285 = AXIS2_PLACEMENT_3D ( 'NONE', #228, #245, #191 ) ;
#286 = CIRCLE ( 'NONE', #172, 0.06250000000000001388 ) ;
#287 = DIRECTION ( 'NONE',  ( 1.000000000000000000, 0.000000000000000000, 0.000000000000000000 ) ) ;
#288 = EDGE_CURVE ( 'NONE', #92, #40, #286, .T. ) ;
#289 = DIRECTION ( 'NONE',  ( -0.000000000000000000, 0.000000000000000000, 1.000000000000000000 ) ) ;
#290 =( GEOMETRIC_REPRESENTATION_CONTEXT ( 3 ) GLOBAL_UNCERTAINTY_ASSIGNED_CONTEXT ( ( #250 ) ) GLOBAL_UNIT_ASSIGNED_CONTEXT ( ( #58, #128, #200 ) ) REPRESENTATION_CONTEXT ( 'NONE', 'WORKASPACE' ) );
#291 = CARTESIAN_POINT ( 'NONE',  ( 0.000000000000000000, 0.000000000000000000, -0.4375000000000000555 ) ) ;
#292 = DIRECTION ( 'NONE',  ( -0.000000000000000000, -0.000000000000000000, -1.000000000000000000 ) ) ;
#293 = VERTEX_POINT ( 'NONE', #300 ) ;
#294 = CIRCLE ( 'NONE', #189, 0.8125000000000000000 ) ;
#295 = PRODUCT_DEFINITION ( 'UNKNOWN', '', #130, #169 ) ;
#296 = DIRECTION ( 'NONE',  ( -0.000000000000000000, 0.000000000000000000, 1.000000000000000000 ) ) ;
#297 = DIRECTION ( 'NONE',  ( 1.000000000000000000, 0.000000000000000000, 0.000000000000000000 ) ) ;
#298 = DIRECTION ( 'NONE',  ( 1.000000000000000000, 0.000000000000000000, 0.000000000000000000 ) ) ;
#299 = CARTESIAN_POINT ( 'NONE',  ( 0.000000000000000000, 0.000000000000000000, 0.000000000000000000 ) ) ;
#300 = CARTESIAN_POINT ( 'NONE',  ( 0.2500000000000000000, 0.000000000000000000, 2.250000000000000000 ) ) ;
#301 = CIRCLE ( 'NONE', #27, 0.2500000000000000000 ) ;
#302 = DIRECTION ( 'NONE',  ( 0.000000000000000000, -0.000000000000000000, -1.000000000000000000 ) ) ;
#303 = EDGE_LOOP ( 'NONE', ( #30, #2, #187, #186 ) ) ;
#304 = ORIENTED_EDGE ( 'NONE', *, *, #28, .T. ) ;
#305 = DIRECTION ( 'NONE',  ( -1.000000000000000000, 1.224646799147353947E-16, 0.000000000000000000 ) ) ;
#306 = SHAPE_DEFINITION_REPRESENTATION ( #159, #147 ) ;
#307 = EDGE_CURVE ( 'NONE', #92, #21, #262, .T. ) ;
#308 = CIRCLE ( 'NONE', #157, 0.3125000000000000000 ) ;
#309 = EDGE_LOOP ( 'NONE', ( #236, #95 ) ) ;
ENDSEC;
END-ISO-10303-21;
