ISO-10303-21;
HEADER;
FILE_DESCRIPTION (( 'STEP AP214' ),
    '1' );
FILE_NAME ('.25in 2.25cm x 1.STEP',
    '2026-08-28T18:59:01',
    ( '' ),
    ( '' ),
    'SwSTEP 2.0',
    'SolidWorks 2025',
    '' );
FILE_SCHEMA (( 'AUTOMOTIVE_DESIGN' ));
ENDSEC;

DATA;
#1 = EDGE_LOOP ( 'NONE', ( #147, #120 ) ) ;
#2 = EDGE_CURVE ( 'NONE', #173, #23, #265, .T. ) ;
#3 = ORIENTED_EDGE ( 'NONE', *, *, #97, .F. ) ;
#4 = EDGE_LOOP ( 'NONE', ( #216, #195, #54, #262 ) ) ;
#5 = ORIENTED_EDGE ( 'NONE', *, *, #166, .T. ) ;
#6 = UNCERTAINTY_MEASURE_WITH_UNIT (LENGTH_MEASURE( 1.000000000000000082E-05 ), #71, 'distance_accuracy_value', 'NONE');
#7 = EDGE_CURVE ( 'NONE', #218, #172, #224, .T. ) ;
#8 = CARTESIAN_POINT ( 'NONE',  ( 0.000000000000000000, 0.000000000000000000, 0.000000000000000000 ) ) ;
#9 = DIRECTION ( 'NONE',  ( 0.000000000000000000, -1.000000000000000000, 0.000000000000000000 ) ) ;
#10 = LINE ( 'NONE', #14, #27 ) ;
#11 = FACE_OUTER_BOUND ( 'NONE', #266, .T. ) ;
#12 = AXIS2_PLACEMENT_3D ( 'NONE', #227, #80, #296 ) ;
#13 = CARTESIAN_POINT ( 'NONE',  ( 0.8125000000000000000, 0.000000000000000000, -0.5000000000000000000 ) ) ;
#14 = CARTESIAN_POINT ( 'NONE',  ( 0.3125000000000000000, 3.827021247335478926E-17, 2.500000000000000000 ) ) ;
#15 = DIRECTION ( 'NONE',  ( 0.000000000000000000, -0.000000000000000000, -1.000000000000000000 ) ) ;
#16 = TOROIDAL_SURFACE ( 'NONE', #193, 0.7500000000000001110, 0.06250000000000000000 ) ;
#17 = ORIENTED_EDGE ( 'NONE', *, *, #39, .F. ) ;
#18 =( GEOMETRIC_REPRESENTATION_CONTEXT ( 3 ) GLOBAL_UNCERTAINTY_ASSIGNED_CONTEXT ( ( #6 ) ) GLOBAL_UNIT_ASSIGNED_CONTEXT ( ( #71, #101, #214 ) ) REPRESENTATION_CONTEXT ( 'NONE', 'WORKASPACE' ) );
#19 = CARTESIAN_POINT ( 'NONE',  ( 0.000000000000000000, 0.000000000000000000, -0.5000000000000000000 ) ) ;
#20 = DIRECTION ( 'NONE',  ( 0.000000000000000000, 0.000000000000000000, 1.000000000000000000 ) ) ;
#21 = ORIENTED_EDGE ( 'NONE', *, *, #251, .T. ) ;
#22 = PLANE ( 'NONE',  #158 ) ;
#23 = VERTEX_POINT ( 'NONE', #245 ) ;
#24 = ORIENTED_EDGE ( 'NONE', *, *, #238, .T. ) ;
#25 = DIRECTION ( 'NONE',  ( 0.000000000000000000, 0.000000000000000000, 1.000000000000000000 ) ) ;
#26 = VERTEX_POINT ( 'NONE', #155 ) ;
#27 = VECTOR ( 'NONE', #135, 100.0000000000000000 ) ;
#28 = DIRECTION ( 'NONE',  ( 0.000000000000000000, -1.000000000000000000, 0.000000000000000000 ) ) ;
#29 = ADVANCED_FACE ( 'NONE', ( #128 ), #109, .T. ) ;
#30 = ORIENTED_EDGE ( 'NONE', *, *, #164, .T. ) ;
#31 = ORIENTED_EDGE ( 'NONE', *, *, #61, .F. ) ;
#32 = CIRCLE ( 'NONE', #113, 0.8125000000000000000 ) ;
#33 = AXIS2_PLACEMENT_3D ( 'NONE', #237, #234, #309 ) ;
#34 = FACE_BOUND ( 'NONE', #51, .T. ) ;
#35 = CARTESIAN_POINT ( 'NONE',  ( 0.7500000000000001110, 0.000000000000000000, -0.5000000000000000000 ) ) ;
#36 = CARTESIAN_POINT ( 'NONE',  ( -0.2500000000000000000, 3.061616997868383018E-17, 2.437500000000000000 ) ) ;
#37 = AXIS2_PLACEMENT_3D ( 'NONE', #303, #116, #40 ) ;
#38 = DIRECTION ( 'NONE',  ( -0.000000000000000000, 0.000000000000000000, 1.000000000000000000 ) ) ;
#39 = EDGE_CURVE ( 'NONE', #76, #189, #32, .T. ) ;
#40 = DIRECTION ( 'NONE',  ( -1.000000000000000000, 0.000000000000000000, 0.000000000000000000 ) ) ;
#41 = VERTEX_POINT ( 'NONE', #103 ) ;
#42 = ADVANCED_FACE ( 'NONE', ( #199 ), #79, .T. ) ;
#43 = LINE ( 'NONE', #169, #114 ) ;
#44 = FACE_OUTER_BOUND ( 'NONE', #67, .T. ) ;
#45 = CARTESIAN_POINT ( 'NONE',  ( 0.000000000000000000, 0.000000000000000000, -0.5000000000000000000 ) ) ;
#46 = EDGE_CURVE ( 'NONE', #173, #144, #151, .T. ) ;
#47 = CIRCLE ( 'NONE', #247, 0.8125000000000000000 ) ;
#48 = APPLICATION_CONTEXT ( 'automotive_design' ) ;
#49 = ORIENTED_EDGE ( 'NONE', *, *, #251, .F. ) ;
#50 = DIRECTION ( 'NONE',  ( 1.000000000000000000, 0.000000000000000000, 0.000000000000000000 ) ) ;
#51 = EDGE_LOOP ( 'NONE', ( #220, #49 ) ) ;
#52 = UNCERTAINTY_MEASURE_WITH_UNIT (LENGTH_MEASURE( 1.000000000000000082E-05 ), #255, 'distance_accuracy_value', 'NONE');
#53 = ORIENTED_EDGE ( 'NONE', *, *, #85, .F. ) ;
#54 = ORIENTED_EDGE ( 'NONE', *, *, #294, .T. ) ;
#55 = DIRECTION ( 'NONE',  ( -0.000000000000000000, 0.000000000000000000, 1.000000000000000000 ) ) ;
#56 = ADVANCED_FACE ( 'NONE', ( #34, #223 ), #298, .T. ) ;
#57 = CIRCLE ( 'NONE', #146, 0.8125000000000000000 ) ;
#58 = AXIS2_PLACEMENT_3D ( 'NONE', #8, #25, #152 ) ;
#59 = DIRECTION ( 'NONE',  ( 1.000000000000000000, 0.000000000000000000, 0.000000000000000000 ) ) ;
#60 = CARTESIAN_POINT ( 'NONE',  ( -0.7500000000000001110, 9.567553118338698241E-17, -0.5000000000000000000 ) ) ;
#61 = EDGE_CURVE ( 'NONE', #264, #192, #88, .T. ) ;
#62 = DIRECTION ( 'NONE',  ( 0.000000000000000000, 0.000000000000000000, 1.000000000000000000 ) ) ;
#63 = LINE ( 'NONE', #13, #130 ) ;
#64 =( NAMED_UNIT ( * ) SI_UNIT ( $, .STERADIAN. ) SOLID_ANGLE_UNIT ( ) );
#65 = DIRECTION ( 'NONE',  ( -0.000000000000000000, 0.000000000000000000, 1.000000000000000000 ) ) ;
#66 = CIRCLE ( 'NONE', #200, 0.7500000000000001110 ) ;
#67 = EDGE_LOOP ( 'NONE', ( #307, #141, #242, #31 ) ) ;
#68 = CARTESIAN_POINT ( 'NONE',  ( 0.3125000000000000000, 3.827021247335478926E-17, 2.437500000000000000 ) ) ;
#69 = EDGE_LOOP ( 'NONE', ( #5, #241, #21, #75 ) ) ;
#70 = DIRECTION ( 'NONE',  ( 1.000000000000000000, 0.000000000000000000, 0.000000000000000000 ) ) ;
#71 =( LENGTH_UNIT ( ) NAMED_UNIT ( * ) SI_UNIT ( .CENTI., .METRE. ) );
#72 = EDGE_LOOP ( 'NONE', ( #30, #278, #17, #244 ) ) ;
#73 = AXIS2_PLACEMENT_3D ( 'NONE', #161, #274, #205 ) ;
#74 = STYLED_ITEM ( 'NONE', ( #191 ), #291 ) ;
#75 = ORIENTED_EDGE ( 'NONE', *, *, #294, .F. ) ;
#76 = VERTEX_POINT ( 'NONE', #179 ) ;
#77 = DIRECTION ( 'NONE',  ( 1.000000000000000000, 0.000000000000000000, 0.000000000000000000 ) ) ;
#78 = AXIS2_PLACEMENT_3D ( 'NONE', #257, #190, #208 ) ;
#79 = CYLINDRICAL_SURFACE ( 'NONE', #162, 0.3125000000000000000 ) ;
#80 = DIRECTION ( 'NONE',  ( -0.000000000000000000, 0.000000000000000000, 1.000000000000000000 ) ) ;
#81 = CARTESIAN_POINT ( 'NONE',  ( 0.3125000000000000000, 3.827021247335478926E-17, 0.000000000000000000 ) ) ;
#82 = CIRCLE ( 'NONE', #243, 0.8125000000000000000 ) ;
#83 =( GEOMETRIC_REPRESENTATION_CONTEXT ( 3 ) GLOBAL_UNCERTAINTY_ASSIGNED_CONTEXT ( ( #52 ) ) GLOBAL_UNIT_ASSIGNED_CONTEXT ( ( #255, #165, #64 ) ) REPRESENTATION_CONTEXT ( 'NONE', 'WORKASPACE' ) );
#84 = DIRECTION ( 'NONE',  ( -0.000000000000000000, 0.000000000000000000, 1.000000000000000000 ) ) ;
#85 = EDGE_CURVE ( 'NONE', #144, #178, #276, .T. ) ;
#86 = CARTESIAN_POINT ( 'NONE',  ( 0.2500000000000000000, 0.000000000000000000, 2.437500000000000000 ) ) ;
#87 = DIRECTION ( 'NONE',  ( 1.000000000000000000, 0.000000000000000000, 0.000000000000000000 ) ) ;
#88 = CIRCLE ( 'NONE', #134, 0.06250000000000005551 ) ;
#89 = FILL_AREA_STYLE_COLOUR ( '', #239 ) ;
#90 = CARTESIAN_POINT ( 'NONE',  ( 0.000000000000000000, 0.000000000000000000, -0.4375000000000000555 ) ) ;
#91 = ORIENTED_EDGE ( 'NONE', *, *, #299, .T. ) ;
#92 = FACE_OUTER_BOUND ( 'NONE', #69, .T. ) ;
#93 = EDGE_CURVE ( 'NONE', #178, #189, #250, .T. ) ;
#94 = CARTESIAN_POINT ( 'NONE',  ( 0.000000000000000000, 0.000000000000000000, -0.5000000000000000000 ) ) ;
#95 = EDGE_LOOP ( 'NONE', ( #102, #138, #124, #168 ) ) ;
#96 = ORIENTED_EDGE ( 'NONE', *, *, #175, .T. ) ;
#97 = EDGE_CURVE ( 'NONE', #178, #23, #47, .T. ) ;
#98 = CIRCLE ( 'NONE', #209, 0.2500000000000000000 ) ;
#99 = ADVANCED_BREP_SHAPE_REPRESENTATION ( '.25in 2.25cm x 1', ( #291, #58 ), #18 ) ;
#100 = DIRECTION ( 'NONE',  ( -0.000000000000000000, 0.000000000000000000, 1.000000000000000000 ) ) ;
#101 =( NAMED_UNIT ( * ) PLANE_ANGLE_UNIT ( ) SI_UNIT ( $, .RADIAN. ) );
#102 = ORIENTED_EDGE ( 'NONE', *, *, #93, .F. ) ;
#103 = CARTESIAN_POINT ( 'NONE',  ( -0.3125000000000000000, 0.000000000000000000, 2.437500000000000000 ) ) ;
#104 = AXIS2_PLACEMENT_3D ( 'NONE', #36, #133, #132 ) ;
#105 = DIRECTION ( 'NONE',  ( 0.000000000000000000, 0.000000000000000000, -1.000000000000000000 ) ) ;
#106 = DIRECTION ( 'NONE',  ( 1.000000000000000000, 0.000000000000000000, 0.000000000000000000 ) ) ;
#107 = CARTESIAN_POINT ( 'NONE',  ( -0.3125000000000000000, 0.000000000000000000, 0.000000000000000000 ) ) ;
#108 = EDGE_CURVE ( 'NONE', #264, #172, #10, .T. ) ;
#109 = TOROIDAL_SURFACE ( 'NONE', #261, 0.2500000000000000000, 0.06250000000000000000 ) ;
#110 = CARTESIAN_POINT ( 'NONE',  ( -0.8125000000000000000, 9.950255243072245579E-17, 0.000000000000000000 ) ) ;
#111 = DIRECTION ( 'NONE',  ( 1.000000000000000000, 0.000000000000000000, 0.000000000000000000 ) ) ;
#112 = DIRECTION ( 'NONE',  ( 1.000000000000000000, 0.000000000000000000, 0.000000000000000000 ) ) ;
#113 = AXIS2_PLACEMENT_3D ( 'NONE', #288, #100, #77 ) ;
#114 = VECTOR ( 'NONE', #140, 100.0000000000000000 ) ;
#115 = ORIENTED_EDGE ( 'NONE', *, *, #2, .T. ) ;
#116 = DIRECTION ( 'NONE',  ( -0.000000000000000000, -0.000000000000000000, -1.000000000000000000 ) ) ;
#117 = SURFACE_STYLE_USAGE ( .BOTH. , #304 ) ;
#118 = DIRECTION ( 'NONE',  ( -0.000000000000000000, 0.000000000000000000, 1.000000000000000000 ) ) ;
#119 = AXIS2_PLACEMENT_3D ( 'NONE', #292, #272, #254 ) ;
#120 = ORIENTED_EDGE ( 'NONE', *, *, #280, .T. ) ;
#121 = SHAPE_DEFINITION_REPRESENTATION ( #273, #99 ) ;
#122 = ORIENTED_EDGE ( 'NONE', *, *, #46, .F. ) ;
#123 = ADVANCED_FACE ( 'NONE', ( #160 ), #131, .T. ) ;
#124 = ORIENTED_EDGE ( 'NONE', *, *, #148, .T. ) ;
#125 = AXIS2_PLACEMENT_3D ( 'NONE', #306, #65, #188 ) ;
#126 = DIRECTION ( 'NONE',  ( -0.000000000000000000, 0.000000000000000000, 1.000000000000000000 ) ) ;
#127 = PRODUCT_DEFINITION_CONTEXT ( 'detailed design', #221, 'design' ) ;
#128 = FACE_OUTER_BOUND ( 'NONE', #282, .T. ) ;
#129 = CARTESIAN_POINT ( 'NONE',  ( -0.8125000000000000000, 9.950255243072245579E-17, -0.5000000000000000000 ) ) ;
#130 = VECTOR ( 'NONE', #275, 100.0000000000000000 ) ;
#131 = PLANE ( 'NONE',  #302 ) ;
#132 = DIRECTION ( 'NONE',  ( -1.000000000000000000, 1.224646799147353207E-16, 0.000000000000000000 ) ) ;
#133 = DIRECTION ( 'NONE',  ( 1.224646799147353207E-16, 1.000000000000000000, 0.000000000000000000 ) ) ;
#134 = AXIS2_PLACEMENT_3D ( 'NONE', #86, #9, #105 ) ;
#135 = DIRECTION ( 'NONE',  ( -0.000000000000000000, -0.000000000000000000, -1.000000000000000000 ) ) ;
#136 = CYLINDRICAL_SURFACE ( 'NONE', #37, 0.3125000000000000000 ) ;
#137 = DIRECTION ( 'NONE',  ( 1.000000000000000000, 0.000000000000000000, 0.000000000000000000 ) ) ;
#138 = ORIENTED_EDGE ( 'NONE', *, *, #97, .T. ) ;
#139 = CIRCLE ( 'NONE', #33, 0.2500000000000000000 ) ;
#140 = DIRECTION ( 'NONE',  ( -0.000000000000000000, -0.000000000000000000, -1.000000000000000000 ) ) ;
#141 = ORIENTED_EDGE ( 'NONE', *, *, #182, .T. ) ;
#142 = DIRECTION ( 'NONE',  ( -0.000000000000000000, 0.000000000000000000, 1.000000000000000000 ) ) ;
#143 = EDGE_CURVE ( 'NONE', #264, #41, #177, .T. ) ;
#144 = VERTEX_POINT ( 'NONE', #60 ) ;
#145 = PRODUCT_CONTEXT ( 'NONE', #48, 'mechanical' ) ;
#146 = AXIS2_PLACEMENT_3D ( 'NONE', #230, #202, #106 ) ;
#147 = ORIENTED_EDGE ( 'NONE', *, *, #46, .T. ) ;
#148 = EDGE_CURVE ( 'NONE', #23, #76, #63, .T. ) ;
#149 = ORIENTED_EDGE ( 'NONE', *, *, #280, .F. ) ;
#150 = ORIENTED_EDGE ( 'NONE', *, *, #182, .F. ) ;
#151 = CIRCLE ( 'NONE', #119, 0.7500000000000001110 ) ;
#152 = DIRECTION ( 'NONE',  ( 1.000000000000000000, 0.000000000000000000, 0.000000000000000000 ) ) ;
#153 = CARTESIAN_POINT ( 'NONE',  ( 0.000000000000000000, 0.000000000000000000, 0.000000000000000000 ) ) ;
#154 = ADVANCED_FACE ( 'NONE', ( #248 ), #207, .T. ) ;
#155 = CARTESIAN_POINT ( 'NONE',  ( -0.2500000000000000000, 3.444319122601930972E-17, 2.500000000000000000 ) ) ;
#156 = CARTESIAN_POINT ( 'NONE',  ( 0.000000000000000000, 0.000000000000000000, 2.437500000000000000 ) ) ;
#157 = CIRCLE ( 'NONE', #104, 0.06250000000000001388 ) ;
#158 = AXIS2_PLACEMENT_3D ( 'NONE', #19, #118, #70 ) ;
#159 = CARTESIAN_POINT ( 'NONE',  ( -0.8125000000000000000, 9.950255243072245579E-17, -0.4375000000000000555 ) ) ;
#160 = FACE_OUTER_BOUND ( 'NONE', #286, .T. ) ;
#161 = CARTESIAN_POINT ( 'NONE',  ( -0.7500000000000001110, 9.184850993605149670E-17, -0.4375000000000000555 ) ) ;
#162 = AXIS2_PLACEMENT_3D ( 'NONE', #246, #225, #203 ) ;
#163 = CARTESIAN_POINT ( 'NONE',  ( 0.000000000000000000, 0.000000000000000000, 2.437500000000000000 ) ) ;
#164 = EDGE_CURVE ( 'NONE', #23, #178, #57, .T. ) ;
#165 =( NAMED_UNIT ( * ) PLANE_ANGLE_UNIT ( ) SI_UNIT ( $, .RADIAN. ) );
#166 = EDGE_CURVE ( 'NONE', #41, #264, #301, .T. ) ;
#167 = AXIS2_PLACEMENT_3D ( 'NONE', #156, #252, #87 ) ;
#168 = ORIENTED_EDGE ( 'NONE', *, *, #238, .F. ) ;
#169 = CARTESIAN_POINT ( 'NONE',  ( -0.3125000000000000000, 0.000000000000000000, 2.500000000000000000 ) ) ;
#170 = AXIS2_PLACEMENT_3D ( 'NONE', #163, #183, #293 ) ;
#171 = AXIS2_PLACEMENT_3D ( 'NONE', #45, #20, #137 ) ;
#172 = VERTEX_POINT ( 'NONE', #81 ) ;
#173 = VERTEX_POINT ( 'NONE', #35 ) ;
#174 = ORIENTED_EDGE ( 'NONE', *, *, #39, .T. ) ;
#175 = EDGE_CURVE ( 'NONE', #26, #192, #98, .T. ) ;
#176 = EDGE_LOOP ( 'NONE', ( #149, #284, #290, #198 ) ) ;
#177 = CIRCLE ( 'NONE', #167, 0.3125000000000000000 ) ;
#178 = VERTEX_POINT ( 'NONE', #159 ) ;
#179 = CARTESIAN_POINT ( 'NONE',  ( 0.8125000000000000000, 0.000000000000000000, 0.000000000000000000 ) ) ;
#180 = CARTESIAN_POINT ( 'NONE',  ( 0.000000000000000000, 0.000000000000000000, 2.500000000000000000 ) ) ;
#181 = AXIS2_PLACEMENT_3D ( 'NONE', #153, #126, #50 ) ;
#182 = EDGE_CURVE ( 'NONE', #41, #26, #157, .T. ) ;
#183 = DIRECTION ( 'NONE',  ( 0.000000000000000000, -0.000000000000000000, -1.000000000000000000 ) ) ;
#184 = PRODUCT_DEFINITION ( 'UNKNOWN', '', #271, #127 ) ;
#185 = CARTESIAN_POINT ( 'NONE',  ( 0.000000000000000000, 0.000000000000000000, 2.500000000000000000 ) ) ;
#186 = DIRECTION ( 'NONE',  ( -0.000000000000000000, 0.000000000000000000, 1.000000000000000000 ) ) ;
#187 = EDGE_LOOP ( 'NONE', ( #174, #24 ) ) ;
#188 = DIRECTION ( 'NONE',  ( 1.000000000000000000, 0.000000000000000000, 0.000000000000000000 ) ) ;
#189 = VERTEX_POINT ( 'NONE', #110 ) ;
#190 = DIRECTION ( 'NONE',  ( -0.000000000000000000, 0.000000000000000000, 1.000000000000000000 ) ) ;
#191 = PRESENTATION_STYLE_ASSIGNMENT (( #117 ) ) ;
#192 = VERTEX_POINT ( 'NONE', #226 ) ;
#193 = AXIS2_PLACEMENT_3D ( 'NONE', #90, #235, #277 ) ;
#194 = MECHANICAL_DESIGN_GEOMETRIC_PRESENTATION_REPRESENTATION (  '', ( #74 ), #83 ) ;
#195 = ORIENTED_EDGE ( 'NONE', *, *, #143, .T. ) ;
#196 = APPLICATION_PROTOCOL_DEFINITION ( 'draft international standard', 'automotive_design', 1998, #48 ) ;
#197 = DIRECTION ( 'NONE',  ( -0.000000000000000000, 0.000000000000000000, 1.000000000000000000 ) ) ;
#198 = ORIENTED_EDGE ( 'NONE', *, *, #2, .F. ) ;
#199 = FACE_OUTER_BOUND ( 'NONE', #4, .T. ) ;
#200 = AXIS2_PLACEMENT_3D ( 'NONE', #94, #15, #112 ) ;
#201 = DIRECTION ( 'NONE',  ( 0.000000000000000000, 0.000000000000000000, 1.000000000000000000 ) ) ;
#202 = DIRECTION ( 'NONE',  ( -0.000000000000000000, 0.000000000000000000, 1.000000000000000000 ) ) ;
#203 = DIRECTION ( 'NONE',  ( -1.000000000000000000, 0.000000000000000000, 0.000000000000000000 ) ) ;
#204 = TOROIDAL_SURFACE ( 'NONE', #78, 0.7500000000000001110, 0.06250000000000000000 ) ;
#205 = DIRECTION ( 'NONE',  ( -1.000000000000000000, 1.224646799147353947E-16, 0.000000000000000000 ) ) ;
#206 = ADVANCED_FACE ( 'NONE', ( #11 ), #16, .T. ) ;
#207 = CYLINDRICAL_SURFACE ( 'NONE', #285, 0.8125000000000000000 ) ;
#208 = DIRECTION ( 'NONE',  ( 1.000000000000000000, 0.000000000000000000, 0.000000000000000000 ) ) ;
#209 = AXIS2_PLACEMENT_3D ( 'NONE', #180, #38, #270 ) ;
#210 = DIRECTION ( 'NONE',  ( 1.000000000000000000, 0.000000000000000000, 0.000000000000000000 ) ) ;
#211 = ORIENTED_EDGE ( 'NONE', *, *, #61, .T. ) ;
#212 = TOROIDAL_SURFACE ( 'NONE', #217, 0.2500000000000000000, 0.06250000000000000000 ) ;
#213 = SURFACE_STYLE_FILL_AREA ( #281 ) ;
#214 =( NAMED_UNIT ( * ) SI_UNIT ( $, .STERADIAN. ) SOLID_ANGLE_UNIT ( ) );
#215 = CARTESIAN_POINT ( 'NONE',  ( 0.7500000000000001110, 0.000000000000000000, -0.4375000000000000555 ) ) ;
#216 = ORIENTED_EDGE ( 'NONE', *, *, #108, .F. ) ;
#217 = AXIS2_PLACEMENT_3D ( 'NONE', #232, #142, #260 ) ;
#218 = VERTEX_POINT ( 'NONE', #107 ) ;
#219 = ADVANCED_FACE ( 'NONE', ( #92 ), #136, .T. ) ;
#220 = ORIENTED_EDGE ( 'NONE', *, *, #7, .F. ) ;
#221 = APPLICATION_CONTEXT ( 'automotive_design' ) ;
#222 = CARTESIAN_POINT ( 'NONE',  ( 0.000000000000000000, 0.000000000000000000, 2.437500000000000000 ) ) ;
#223 = FACE_OUTER_BOUND ( 'NONE', #187, .T. ) ;
#224 = CIRCLE ( 'NONE', #181, 0.3125000000000000000 ) ;
#225 = DIRECTION ( 'NONE',  ( -0.000000000000000000, -0.000000000000000000, -1.000000000000000000 ) ) ;
#226 = CARTESIAN_POINT ( 'NONE',  ( 0.2500000000000000000, 0.000000000000000000, 2.500000000000000000 ) ) ;
#227 = CARTESIAN_POINT ( 'NONE',  ( 0.000000000000000000, 0.000000000000000000, 0.000000000000000000 ) ) ;
#228 = PRODUCT ( '.25in 2.25cm x 1', '.25in 2.25cm x 1', '', ( #145 ) ) ;
#229 = ADVANCED_FACE ( 'NONE', ( #44 ), #212, .T. ) ;
#230 = CARTESIAN_POINT ( 'NONE',  ( 0.000000000000000000, 0.000000000000000000, -0.4375000000000000555 ) ) ;
#231 = CARTESIAN_POINT ( 'NONE',  ( 0.000000000000000000, 0.000000000000000000, 0.000000000000000000 ) ) ;
#232 = CARTESIAN_POINT ( 'NONE',  ( 0.000000000000000000, 0.000000000000000000, 2.437500000000000000 ) ) ;
#233 = CLOSED_SHELL ( 'NONE', ( #256, #229, #154, #219, #42, #123, #289, #305, #56, #29, #206 ) ) ;
#234 = DIRECTION ( 'NONE',  ( -0.000000000000000000, 0.000000000000000000, 1.000000000000000000 ) ) ;
#235 = DIRECTION ( 'NONE',  ( -0.000000000000000000, 0.000000000000000000, 1.000000000000000000 ) ) ;
#236 = ORIENTED_EDGE ( 'NONE', *, *, #175, .F. ) ;
#237 = CARTESIAN_POINT ( 'NONE',  ( 0.000000000000000000, 0.000000000000000000, 2.500000000000000000 ) ) ;
#238 = EDGE_CURVE ( 'NONE', #189, #76, #82, .T. ) ;
#239 = COLOUR_RGB ( '',0.7921568627450980005, 0.8196078431372548767, 0.9333333333333333481 ) ;
#240 = APPLICATION_PROTOCOL_DEFINITION ( 'draft international standard', 'automotive_design', 1998, #221 ) ;
#241 = ORIENTED_EDGE ( 'NONE', *, *, #108, .T. ) ;
#242 = ORIENTED_EDGE ( 'NONE', *, *, #299, .F. ) ;
#243 = AXIS2_PLACEMENT_3D ( 'NONE', #231, #186, #210 ) ;
#244 = ORIENTED_EDGE ( 'NONE', *, *, #148, .F. ) ;
#245 = CARTESIAN_POINT ( 'NONE',  ( 0.8125000000000000000, 0.000000000000000000, -0.4375000000000000555 ) ) ;
#246 = CARTESIAN_POINT ( 'NONE',  ( 0.000000000000000000, 0.000000000000000000, 2.500000000000000000 ) ) ;
#247 = AXIS2_PLACEMENT_3D ( 'NONE', #269, #55, #59 ) ;
#248 = FACE_OUTER_BOUND ( 'NONE', #72, .T. ) ;
#249 = PRESENTATION_LAYER_ASSIGNMENT (  '', '', ( #74 ) ) ;
#250 = LINE ( 'NONE', #129, #308 ) ;
#251 = EDGE_CURVE ( 'NONE', #172, #218, #258, .T. ) ;
#252 = DIRECTION ( 'NONE',  ( 0.000000000000000000, -0.000000000000000000, -1.000000000000000000 ) ) ;
#253 = CARTESIAN_POINT ( 'NONE',  ( 0.000000000000000000, 0.000000000000000000, -0.5000000000000000000 ) ) ;
#254 = DIRECTION ( 'NONE',  ( 1.000000000000000000, 0.000000000000000000, 0.000000000000000000 ) ) ;
#255 =( LENGTH_UNIT ( ) NAMED_UNIT ( * ) SI_UNIT ( .CENTI., .METRE. ) );
#256 = ADVANCED_FACE ( 'NONE', ( #279 ), #204, .T. ) ;
#257 = CARTESIAN_POINT ( 'NONE',  ( 0.000000000000000000, 0.000000000000000000, -0.4375000000000000555 ) ) ;
#258 = CIRCLE ( 'NONE', #125, 0.3125000000000000000 ) ;
#259 = CYLINDRICAL_SURFACE ( 'NONE', #171, 0.8125000000000000000 ) ;
#260 = DIRECTION ( 'NONE',  ( 1.000000000000000000, 0.000000000000000000, 0.000000000000000000 ) ) ;
#261 = AXIS2_PLACEMENT_3D ( 'NONE', #222, #197, #287 ) ;
#262 = ORIENTED_EDGE ( 'NONE', *, *, #7, .T. ) ;
#263 = ORIENTED_EDGE ( 'NONE', *, *, #143, .F. ) ;
#264 = VERTEX_POINT ( 'NONE', #68 ) ;
#265 = CIRCLE ( 'NONE', #295, 0.06249999999999997224 ) ;
#266 = EDGE_LOOP ( 'NONE', ( #53, #122, #115, #3 ) ) ;
#267 = DIRECTION ( 'NONE',  ( 0.000000000000000000, 0.000000000000000000, -1.000000000000000000 ) ) ;
#268 = PRODUCT_RELATED_PRODUCT_CATEGORY ( 'part', '', ( #228 ) ) ;
#269 = CARTESIAN_POINT ( 'NONE',  ( 0.000000000000000000, 0.000000000000000000, -0.4375000000000000555 ) ) ;
#270 = DIRECTION ( 'NONE',  ( 1.000000000000000000, 0.000000000000000000, 0.000000000000000000 ) ) ;
#271 = PRODUCT_DEFINITION_FORMATION_WITH_SPECIFIED_SOURCE ( 'ANY', '', #228, .NOT_KNOWN. ) ;
#272 = DIRECTION ( 'NONE',  ( 0.000000000000000000, -0.000000000000000000, -1.000000000000000000 ) ) ;
#273 = PRODUCT_DEFINITION_SHAPE ( 'NONE', 'NONE',  #184 ) ;
#274 = DIRECTION ( 'NONE',  ( 1.224646799147353207E-16, 1.000000000000000000, 0.000000000000000000 ) ) ;
#275 = DIRECTION ( 'NONE',  ( 0.000000000000000000, 0.000000000000000000, 1.000000000000000000 ) ) ;
#276 = CIRCLE ( 'NONE', #73, 0.06249999999999997224 ) ;
#277 = DIRECTION ( 'NONE',  ( 1.000000000000000000, 0.000000000000000000, 0.000000000000000000 ) ) ;
#278 = ORIENTED_EDGE ( 'NONE', *, *, #93, .T. ) ;
#279 = FACE_OUTER_BOUND ( 'NONE', #176, .T. ) ;
#280 = EDGE_CURVE ( 'NONE', #144, #173, #66, .T. ) ;
#281 = FILL_AREA_STYLE ('',( #89 ) ) ;
#282 = EDGE_LOOP ( 'NONE', ( #150, #263, #211, #236 ) ) ;
#283 = FACE_OUTER_BOUND ( 'NONE', #1, .T. ) ;
#284 = ORIENTED_EDGE ( 'NONE', *, *, #85, .T. ) ;
#285 = AXIS2_PLACEMENT_3D ( 'NONE', #253, #62, #297 ) ;
#286 = EDGE_LOOP ( 'NONE', ( #91, #96 ) ) ;
#287 = DIRECTION ( 'NONE',  ( 1.000000000000000000, 0.000000000000000000, 0.000000000000000000 ) ) ;
#288 = CARTESIAN_POINT ( 'NONE',  ( 0.000000000000000000, 0.000000000000000000, 0.000000000000000000 ) ) ;
#289 = ADVANCED_FACE ( 'NONE', ( #300 ), #259, .T. ) ;
#290 = ORIENTED_EDGE ( 'NONE', *, *, #164, .F. ) ;
#291 = MANIFOLD_SOLID_BREP ( 'Fillet2', #233 ) ;
#292 = CARTESIAN_POINT ( 'NONE',  ( 0.000000000000000000, 0.000000000000000000, -0.5000000000000000000 ) ) ;
#293 = DIRECTION ( 'NONE',  ( 1.000000000000000000, 0.000000000000000000, 0.000000000000000000 ) ) ;
#294 = EDGE_CURVE ( 'NONE', #41, #218, #43, .T. ) ;
#295 = AXIS2_PLACEMENT_3D ( 'NONE', #215, #28, #267 ) ;
#296 = DIRECTION ( 'NONE',  ( 1.000000000000000000, 0.000000000000000000, 0.000000000000000000 ) ) ;
#297 = DIRECTION ( 'NONE',  ( 1.000000000000000000, 0.000000000000000000, 0.000000000000000000 ) ) ;
#298 = PLANE ( 'NONE',  #12 ) ;
#299 = EDGE_CURVE ( 'NONE', #192, #26, #139, .T. ) ;
#300 = FACE_OUTER_BOUND ( 'NONE', #95, .T. ) ;
#301 = CIRCLE ( 'NONE', #170, 0.3125000000000000000 ) ;
#302 = AXIS2_PLACEMENT_3D ( 'NONE', #185, #84, #111 ) ;
#303 = CARTESIAN_POINT ( 'NONE',  ( 0.000000000000000000, 0.000000000000000000, 2.500000000000000000 ) ) ;
#304 = SURFACE_SIDE_STYLE ('',( #213 ) ) ;
#305 = ADVANCED_FACE ( 'NONE', ( #283 ), #22, .F. ) ;
#306 = CARTESIAN_POINT ( 'NONE',  ( 0.000000000000000000, 0.000000000000000000, 0.000000000000000000 ) ) ;
#307 = ORIENTED_EDGE ( 'NONE', *, *, #166, .F. ) ;
#308 = VECTOR ( 'NONE', #201, 100.0000000000000000 ) ;
#309 = DIRECTION ( 'NONE',  ( 1.000000000000000000, 0.000000000000000000, 0.000000000000000000 ) ) ;
ENDSEC;
END-ISO-10303-21;
