ISO-10303-21;
HEADER;
FILE_DESCRIPTION (( 'STEP AP214' ),
    '1' );
FILE_NAME ('.5in .5.5cm x 2.STEP',
    '2026-09-02T19:09:47',
    ( '' ),
    ( '' ),
    'SwSTEP 2.0',
    'SolidWorks 2025',
    '' );
FILE_SCHEMA (( 'AUTOMOTIVE_DESIGN' ));
ENDSEC;

DATA;
#1 = DIRECTION ( 'NONE',  ( 1.000000000000000000, 0.000000000000000000, 0.000000000000000000 ) ) ;
#2 = AXIS2_PLACEMENT_3D ( 'NONE', #155, #180, #204 ) ;
#3 = EDGE_CURVE ( 'NONE', #53, #187, #283, .T. ) ;
#4 = CARTESIAN_POINT ( 'NONE',  ( 0.000000000000000000, 0.000000000000000000, -0.5000000000000000000 ) ) ;
#5 = EDGE_LOOP ( 'NONE', ( #36, #108, #225, #171 ) ) ;
#6 = TOROIDAL_SURFACE ( 'NONE', #103, 0.5725000000000000089, 0.06250000000000000000 ) ;
#7 = ORIENTED_EDGE ( 'NONE', *, *, #75, .F. ) ;
#8 = AXIS2_PLACEMENT_3D ( 'NONE', #255, #137, #86 ) ;
#9 = PRESENTATION_LAYER_ASSIGNMENT (  '', '', ( #70 ) ) ;
#10 = ORIENTED_EDGE ( 'NONE', *, *, #261, .F. ) ;
#11 = AXIS2_PLACEMENT_3D ( 'NONE', #183, #276, #117 ) ;
#12 = DIRECTION ( 'NONE',  ( -0.000000000000000000, -0.000000000000000000, -1.000000000000000000 ) ) ;
#13 = ORIENTED_EDGE ( 'NONE', *, *, #38, .T. ) ;
#14 = CARTESIAN_POINT ( 'NONE',  ( 0.6350000000000000089, 7.776507174585692903E-17, 0.000000000000000000 ) ) ;
#15 = ADVANCED_FACE ( 'NONE', ( #241 ), #271, .T. ) ;
#16 = FACE_OUTER_BOUND ( 'NONE', #71, .T. ) ;
#17 = AXIS2_PLACEMENT_3D ( 'NONE', #257, #110, #206 ) ;
#18 = DIRECTION ( 'NONE',  ( -0.000000000000000000, -0.000000000000000000, -1.000000000000000000 ) ) ;
#19 = CYLINDRICAL_SURFACE ( 'NONE', #99, 0.6350000000000000089 ) ;
#20 = DIRECTION ( 'NONE',  ( -0.000000000000000000, 0.000000000000000000, 1.000000000000000000 ) ) ;
#21 = DIRECTION ( 'NONE',  ( 1.000000000000000000, 0.000000000000000000, 0.000000000000000000 ) ) ;
#22 = ORIENTED_EDGE ( 'NONE', *, *, #45, .F. ) ;
#23 = EDGE_CURVE ( 'NONE', #74, #168, #77, .T. ) ;
#24 = DIRECTION ( 'NONE',  ( 1.000000000000000000, 0.000000000000000000, 0.000000000000000000 ) ) ;
#25 = EDGE_LOOP ( 'NONE', ( #169, #102 ) ) ;
#26 = DIRECTION ( 'NONE',  ( -0.000000000000000000, 0.000000000000000000, 1.000000000000000000 ) ) ;
#27 = ORIENTED_EDGE ( 'NONE', *, *, #295, .T. ) ;
#28 = VERTEX_POINT ( 'NONE', #154 ) ;
#29 = CLOSED_SHELL ( 'NONE', ( #101, #208, #30, #190, #230, #15, #237, #265, #218, #248, #202 ) ) ;
#30 = ADVANCED_FACE ( 'NONE', ( #32 ), #292, .T. ) ;
#31 = FILL_AREA_STYLE ('',( #222 ) ) ;
#32 = FACE_OUTER_BOUND ( 'NONE', #95, .T. ) ;
#33 = DIRECTION ( 'NONE',  ( 0.000000000000000000, 0.000000000000000000, 1.000000000000000000 ) ) ;
#34 = DIRECTION ( 'NONE',  ( -0.000000000000000000, 0.000000000000000000, 1.000000000000000000 ) ) ;
#35 = AXIS2_PLACEMENT_3D ( 'NONE', #123, #291, #148 ) ;
#36 = ORIENTED_EDGE ( 'NONE', *, *, #38, .F. ) ;
#37 = CIRCLE ( 'NONE', #198, 0.6350000000000000089 ) ;
#38 = EDGE_CURVE ( 'NONE', #187, #93, #145, .T. ) ;
#39 = DIRECTION ( 'NONE',  ( 1.000000000000000000, 0.000000000000000000, 0.000000000000000000 ) ) ;
#40 = CARTESIAN_POINT ( 'NONE',  ( 1.135000000000000009, 0.000000000000000000, -0.4375000000000000555 ) ) ;
#41 = CARTESIAN_POINT ( 'NONE',  ( 1.135000000000000009, 0.000000000000000000, -0.5000000000000000000 ) ) ;
#42 = MANIFOLD_SOLID_BREP ( 'Fillet2', #29 ) ;
#43 =( LENGTH_UNIT ( ) NAMED_UNIT ( * ) SI_UNIT ( .CENTI., .METRE. ) );
#44 = PRESENTATION_STYLE_ASSIGNMENT (( #140 ) ) ;
#45 = EDGE_CURVE ( 'NONE', #106, #28, #94, .T. ) ;
#46 = CIRCLE ( 'NONE', #217, 0.06249999999999997224 ) ;
#47 = CARTESIAN_POINT ( 'NONE',  ( 0.5725000000000000089, 0.000000000000000000, 5.937500000000000000 ) ) ;
#48 = CARTESIAN_POINT ( 'NONE',  ( -0.6350000000000000089, 0.000000000000000000, 5.937500000000000000 ) ) ;
#49 = ORIENTED_EDGE ( 'NONE', *, *, #244, .T. ) ;
#50 = AXIS2_PLACEMENT_3D ( 'NONE', #134, #12, #281 ) ;
#51 = VECTOR ( 'NONE', #92, 100.0000000000000000 ) ;
#52 = DIRECTION ( 'NONE',  ( 1.000000000000000000, 0.000000000000000000, 0.000000000000000000 ) ) ;
#53 = VERTEX_POINT ( 'NONE', #256 ) ;
#54 = CIRCLE ( 'NONE', #191, 0.06250000000000005551 ) ;
#55 = COLOUR_RGB ( '',0.7921568627450980005, 0.8196078431372548767, 0.9333333333333333481 ) ;
#56 = EDGE_CURVE ( 'NONE', #53, #250, #259, .T. ) ;
#57 = ORIENTED_EDGE ( 'NONE', *, *, #240, .F. ) ;
#58 = ORIENTED_EDGE ( 'NONE', *, *, #150, .F. ) ;
#59 = CARTESIAN_POINT ( 'NONE',  ( 0.000000000000000000, 0.000000000000000000, 6.000000000000000000 ) ) ;
#60 = FACE_OUTER_BOUND ( 'NONE', #247, .T. ) ;
#61 = DIRECTION ( 'NONE',  ( 1.224646799147353207E-16, 1.000000000000000000, 0.000000000000000000 ) ) ;
#62 = CARTESIAN_POINT ( 'NONE',  ( 0.000000000000000000, 0.000000000000000000, -0.5000000000000000000 ) ) ;
#63 = CARTESIAN_POINT ( 'NONE',  ( -1.135000000000000009, 1.389974117032246140E-16, -0.4375000000000000555 ) ) ;
#64 = DIRECTION ( 'NONE',  ( -0.000000000000000000, 0.000000000000000000, 1.000000000000000000 ) ) ;
#65 = CARTESIAN_POINT ( 'NONE',  ( 0.000000000000000000, 0.000000000000000000, 6.000000000000000000 ) ) ;
#66 = LINE ( 'NONE', #89, #238 ) ;
#67 = VERTEX_POINT ( 'NONE', #63 ) ;
#68 =( NAMED_UNIT ( * ) SI_UNIT ( $, .STERADIAN. ) SOLID_ANGLE_UNIT ( ) );
#69 = DIRECTION ( 'NONE',  ( -0.000000000000000000, 0.000000000000000000, 1.000000000000000000 ) ) ;
#70 = STYLED_ITEM ( 'NONE', ( #44 ), #42 ) ;
#71 = EDGE_LOOP ( 'NONE', ( #80, #131, #121, #58 ) ) ;
#72 = DIRECTION ( 'NONE',  ( 1.224646799147353207E-16, 1.000000000000000000, 0.000000000000000000 ) ) ;
#73 = ORIENTED_EDGE ( 'NONE', *, *, #3, .T. ) ;
#74 = VERTEX_POINT ( 'NONE', #143 ) ;
#75 = EDGE_CURVE ( 'NONE', #187, #53, #138, .T. ) ;
#76 = VECTOR ( 'NONE', #228, 100.0000000000000000 ) ;
#77 = CIRCLE ( 'NONE', #251, 1.072500000000000009 ) ;
#78 = PRODUCT_DEFINITION_FORMATION_WITH_SPECIFIED_SOURCE ( 'ANY', '', #194, .NOT_KNOWN. ) ;
#79 = CARTESIAN_POINT ( 'NONE',  ( 0.000000000000000000, 0.000000000000000000, -0.5000000000000000000 ) ) ;
#80 = ORIENTED_EDGE ( 'NONE', *, *, #23, .F. ) ;
#81 = CARTESIAN_POINT ( 'NONE',  ( 0.000000000000000000, 0.000000000000000000, 0.000000000000000000 ) ) ;
#82 = AXIS2_PLACEMENT_3D ( 'NONE', #47, #144, #184 ) ;
#83 = FACE_OUTER_BOUND ( 'NONE', #25, .T. ) ;
#84 = ORIENTED_EDGE ( 'NONE', *, *, #182, .F. ) ;
#85 = CYLINDRICAL_SURFACE ( 'NONE', #50, 0.6350000000000000089 ) ;
#86 = DIRECTION ( 'NONE',  ( 1.000000000000000000, 0.000000000000000000, 0.000000000000000000 ) ) ;
#87 = LINE ( 'NONE', #91, #192 ) ;
#88 = AXIS2_PLACEMENT_3D ( 'NONE', #59, #129, #216 ) ;
#89 = CARTESIAN_POINT ( 'NONE',  ( -1.135000000000000009, 1.389974117032246140E-16, -0.5000000000000000000 ) ) ;
#90 = AXIS2_PLACEMENT_3D ( 'NONE', #109, #306, #114 ) ;
#91 = CARTESIAN_POINT ( 'NONE',  ( -0.6350000000000000089, 0.000000000000000000, 6.000000000000000000 ) ) ;
#92 = DIRECTION ( 'NONE',  ( -0.000000000000000000, -0.000000000000000000, -1.000000000000000000 ) ) ;
#93 = VERTEX_POINT ( 'NONE', #308 ) ;
#94 = CIRCLE ( 'NONE', #177, 1.135000000000000009 ) ;
#95 = EDGE_LOOP ( 'NONE', ( #296, #196, #22, #189 ) ) ;
#96 = FACE_OUTER_BOUND ( 'NONE', #100, .T. ) ;
#97 = EDGE_CURVE ( 'NONE', #67, #28, #66, .T. ) ;
#98 = EDGE_LOOP ( 'NONE', ( #84, #126, #174, #260 ) ) ;
#99 = AXIS2_PLACEMENT_3D ( 'NONE', #133, #227, #211 ) ;
#100 = EDGE_LOOP ( 'NONE', ( #7, #13, #215, #284 ) ) ;
#101 = ADVANCED_FACE ( 'NONE', ( #16 ), #285, .T. ) ;
#102 = ORIENTED_EDGE ( 'NONE', *, *, #105, .T. ) ;
#103 = AXIS2_PLACEMENT_3D ( 'NONE', #175, #303, #232 ) ;
#104 = TOROIDAL_SURFACE ( 'NONE', #2, 0.5725000000000000089, 0.06250000000000000000 ) ;
#105 = EDGE_CURVE ( 'NONE', #28, #106, #219, .T. ) ;
#106 = VERTEX_POINT ( 'NONE', #205 ) ;
#107 = ADVANCED_BREP_SHAPE_REPRESENTATION ( '.5in .5.5cm x 2', ( #42, #199 ), #299 ) ;
#108 = ORIENTED_EDGE ( 'NONE', *, *, #3, .F. ) ;
#109 = CARTESIAN_POINT ( 'NONE',  ( 0.000000000000000000, 0.000000000000000000, 6.000000000000000000 ) ) ;
#110 = DIRECTION ( 'NONE',  ( 0.000000000000000000, -0.000000000000000000, -1.000000000000000000 ) ) ;
#111 = DIRECTION ( 'NONE',  ( -0.000000000000000000, 0.000000000000000000, 1.000000000000000000 ) ) ;
#112 = DIRECTION ( 'NONE',  ( 1.000000000000000000, 0.000000000000000000, 0.000000000000000000 ) ) ;
#113 = DIRECTION ( 'NONE',  ( 1.000000000000000000, 0.000000000000000000, 0.000000000000000000 ) ) ;
#114 = DIRECTION ( 'NONE',  ( 1.000000000000000000, 0.000000000000000000, 0.000000000000000000 ) ) ;
#115 = AXIS2_PLACEMENT_3D ( 'NONE', #62, #139, #112 ) ;
#116 = CIRCLE ( 'NONE', #82, 0.06250000000000005551 ) ;
#117 = DIRECTION ( 'NONE',  ( 1.000000000000000000, 0.000000000000000000, 0.000000000000000000 ) ) ;
#118 = EDGE_LOOP ( 'NONE', ( #298, #289 ) ) ;
#119 =( NAMED_UNIT ( * ) PLANE_ANGLE_UNIT ( ) SI_UNIT ( $, .RADIAN. ) );
#120 = FACE_OUTER_BOUND ( 'NONE', #98, .T. ) ;
#121 = ORIENTED_EDGE ( 'NONE', *, *, #170, .F. ) ;
#122 = APPLICATION_PROTOCOL_DEFINITION ( 'draft international standard', 'automotive_design', 1998, #146 ) ;
#123 = CARTESIAN_POINT ( 'NONE',  ( 0.000000000000000000, 0.000000000000000000, 5.937500000000000000 ) ) ;
#124 = CIRCLE ( 'NONE', #8, 1.135000000000000009 ) ;
#125 = SURFACE_STYLE_FILL_AREA ( #31 ) ;
#126 = ORIENTED_EDGE ( 'NONE', *, *, #295, .F. ) ;
#127 = PRODUCT_DEFINITION_CONTEXT ( 'detailed design', #159, 'design' ) ;
#128 = EDGE_CURVE ( 'NONE', #67, #185, #262, .T. ) ;
#129 = DIRECTION ( 'NONE',  ( -0.000000000000000000, 0.000000000000000000, 1.000000000000000000 ) ) ;
#130 = CARTESIAN_POINT ( 'NONE',  ( 0.000000000000000000, 0.000000000000000000, 0.000000000000000000 ) ) ;
#131 = ORIENTED_EDGE ( 'NONE', *, *, #182, .T. ) ;
#132 = LINE ( 'NONE', #41, #76 ) ;
#133 = CARTESIAN_POINT ( 'NONE',  ( 0.000000000000000000, 0.000000000000000000, 6.000000000000000000 ) ) ;
#134 = CARTESIAN_POINT ( 'NONE',  ( 0.000000000000000000, 0.000000000000000000, 6.000000000000000000 ) ) ;
#135 = TOROIDAL_SURFACE ( 'NONE', #214, 1.072500000000000009, 0.06250000000000000000 ) ;
#136 = EDGE_CURVE ( 'NONE', #279, #93, #207, .T. ) ;
#137 = DIRECTION ( 'NONE',  ( -0.000000000000000000, 0.000000000000000000, 1.000000000000000000 ) ) ;
#138 = CIRCLE ( 'NONE', #242, 0.6350000000000000089 ) ;
#139 = DIRECTION ( 'NONE',  ( 0.000000000000000000, 0.000000000000000000, 1.000000000000000000 ) ) ;
#140 = SURFACE_STYLE_USAGE ( .BOTH. , #220 ) ;
#141 = AXIS2_PLACEMENT_3D ( 'NONE', #273, #181, #24 ) ;
#142 = PLANE ( 'NONE',  #239 ) ;
#143 = CARTESIAN_POINT ( 'NONE',  ( -1.072500000000000009, 1.351703904558891160E-16, -0.5000000000000000000 ) ) ;
#144 = DIRECTION ( 'NONE',  ( 0.000000000000000000, -1.000000000000000000, 0.000000000000000000 ) ) ;
#145 = CIRCLE ( 'NONE', #197, 0.06249999999999997224 ) ;
#146 = APPLICATION_CONTEXT ( 'automotive_design' ) ;
#147 = CARTESIAN_POINT ( 'NONE',  ( 0.000000000000000000, 0.000000000000000000, 0.000000000000000000 ) ) ;
#148 = DIRECTION ( 'NONE',  ( 1.000000000000000000, 0.000000000000000000, 0.000000000000000000 ) ) ;
#149 = UNCERTAINTY_MEASURE_WITH_UNIT (LENGTH_MEASURE( 1.000000000000000082E-05 ), #43, 'distance_accuracy_value', 'NONE');
#150 = EDGE_CURVE ( 'NONE', #168, #185, #46, .T. ) ;
#151 = ORIENTED_EDGE ( 'NONE', *, *, #75, .T. ) ;
#152 = EDGE_CURVE ( 'NONE', #53, #279, #116, .T. ) ;
#153 = DIRECTION ( 'NONE',  ( 0.000000000000000000, -0.000000000000000000, -1.000000000000000000 ) ) ;
#154 = CARTESIAN_POINT ( 'NONE',  ( -1.135000000000000009, 1.389974117032246140E-16, 0.000000000000000000 ) ) ;
#155 = CARTESIAN_POINT ( 'NONE',  ( 0.000000000000000000, 0.000000000000000000, 5.937500000000000000 ) ) ;
#156 = EDGE_LOOP ( 'NONE', ( #212, #73, #288, #188 ) ) ;
#157 = FACE_OUTER_BOUND ( 'NONE', #268, .T. ) ;
#158 = FACE_OUTER_BOUND ( 'NONE', #163, .T. ) ;
#159 = APPLICATION_CONTEXT ( 'automotive_design' ) ;
#160 = CARTESIAN_POINT ( 'NONE',  ( 0.000000000000000000, 0.000000000000000000, 0.000000000000000000 ) ) ;
#161 = CARTESIAN_POINT ( 'NONE',  ( 1.072500000000000009, 0.000000000000000000, -0.5000000000000000000 ) ) ;
#162 = FACE_OUTER_BOUND ( 'NONE', #156, .T. ) ;
#163 = EDGE_LOOP ( 'NONE', ( #151, #195, #309, #10 ) ) ;
#164 = CARTESIAN_POINT ( 'NONE',  ( 1.072500000000000009, 0.000000000000000000, -0.4375000000000000555 ) ) ;
#165 = DIRECTION ( 'NONE',  ( 0.000000000000000000, 0.000000000000000000, 1.000000000000000000 ) ) ;
#166 = PRODUCT_RELATED_PRODUCT_CATEGORY ( 'part', '', ( #194 ) ) ;
#167 = APPLICATION_PROTOCOL_DEFINITION ( 'draft international standard', 'automotive_design', 1998, #159 ) ;
#168 = VERTEX_POINT ( 'NONE', #161 ) ;
#169 = ORIENTED_EDGE ( 'NONE', *, *, #45, .T. ) ;
#170 = EDGE_CURVE ( 'NONE', #185, #67, #124, .T. ) ;
#171 = ORIENTED_EDGE ( 'NONE', *, *, #287, .F. ) ;
#172 = AXIS2_PLACEMENT_3D ( 'NONE', #130, #34, #277 ) ;
#173 = AXIS2_PLACEMENT_3D ( 'NONE', #65, #69, #234 ) ;
#174 = ORIENTED_EDGE ( 'NONE', *, *, #150, .T. ) ;
#175 = CARTESIAN_POINT ( 'NONE',  ( 0.000000000000000000, 0.000000000000000000, 5.937500000000000000 ) ) ;
#176 = VERTEX_POINT ( 'NONE', #229 ) ;
#177 = AXIS2_PLACEMENT_3D ( 'NONE', #81, #282, #1 ) ;
#178 = CARTESIAN_POINT ( 'NONE',  ( 0.000000000000000000, 0.000000000000000000, -0.5000000000000000000 ) ) ;
#179 = CARTESIAN_POINT ( 'NONE',  ( 0.000000000000000000, 0.000000000000000000, -0.4375000000000000555 ) ) ;
#180 = DIRECTION ( 'NONE',  ( -0.000000000000000000, 0.000000000000000000, 1.000000000000000000 ) ) ;
#181 = DIRECTION ( 'NONE',  ( -0.000000000000000000, 0.000000000000000000, 1.000000000000000000 ) ) ;
#182 = EDGE_CURVE ( 'NONE', #74, #67, #54, .T. ) ;
#183 = CARTESIAN_POINT ( 'NONE',  ( 0.000000000000000000, 0.000000000000000000, 0.000000000000000000 ) ) ;
#184 = DIRECTION ( 'NONE',  ( 0.000000000000000000, 0.000000000000000000, -1.000000000000000000 ) ) ;
#185 = VERTEX_POINT ( 'NONE', #40 ) ;
#186 = CARTESIAN_POINT ( 'NONE',  ( 0.000000000000000000, 0.000000000000000000, -0.4375000000000000555 ) ) ;
#187 = VERTEX_POINT ( 'NONE', #48 ) ;
#188 = ORIENTED_EDGE ( 'NONE', *, *, #297, .T. ) ;
#189 = ORIENTED_EDGE ( 'NONE', *, *, #244, .F. ) ;
#190 = ADVANCED_FACE ( 'NONE', ( #158 ), #19, .T. ) ;
#191 = AXIS2_PLACEMENT_3D ( 'NONE', #209, #72, #286 ) ;
#192 = VECTOR ( 'NONE', #18, 100.0000000000000000 ) ;
#193 = AXIS2_PLACEMENT_3D ( 'NONE', #178, #20, #249 ) ;
#194 = PRODUCT ( '.5in .5.5cm x 2', '.5in .5.5cm x 2', '', ( #290 ) ) ;
#195 = ORIENTED_EDGE ( 'NONE', *, *, #56, .T. ) ;
#196 = ORIENTED_EDGE ( 'NONE', *, *, #97, .T. ) ;
#197 = AXIS2_PLACEMENT_3D ( 'NONE', #201, #61, #266 ) ;
#198 = AXIS2_PLACEMENT_3D ( 'NONE', #160, #253, #226 ) ;
#199 = AXIS2_PLACEMENT_3D ( 'NONE', #147, #213, #52 ) ;
#200 = CARTESIAN_POINT ( 'NONE',  ( 0.5725000000000000089, 0.000000000000000000, 6.000000000000000000 ) ) ;
#201 = CARTESIAN_POINT ( 'NONE',  ( -0.5725000000000000089, 7.011102925118596994E-17, 5.937500000000000000 ) ) ;
#202 = ADVANCED_FACE ( 'NONE', ( #120 ), #135, .T. ) ;
#203 = DIRECTION ( 'NONE',  ( 0.000000000000000000, -1.000000000000000000, 0.000000000000000000 ) ) ;
#204 = DIRECTION ( 'NONE',  ( 1.000000000000000000, 0.000000000000000000, 0.000000000000000000 ) ) ;
#205 = CARTESIAN_POINT ( 'NONE',  ( 1.135000000000000009, 0.000000000000000000, 0.000000000000000000 ) ) ;
#206 = DIRECTION ( 'NONE',  ( 1.000000000000000000, 0.000000000000000000, 0.000000000000000000 ) ) ;
#207 = CIRCLE ( 'NONE', #173, 0.5725000000000000089 ) ;
#208 = ADVANCED_FACE ( 'NONE', ( #96 ), #6, .T. ) ;
#209 = CARTESIAN_POINT ( 'NONE',  ( -1.072500000000000009, 1.313433692085536180E-16, -0.4375000000000000555 ) ) ;
#210 = ORIENTED_EDGE ( 'NONE', *, *, #97, .F. ) ;
#211 = DIRECTION ( 'NONE',  ( -1.000000000000000000, 0.000000000000000000, 0.000000000000000000 ) ) ;
#212 = ORIENTED_EDGE ( 'NONE', *, *, #56, .F. ) ;
#213 = DIRECTION ( 'NONE',  ( 0.000000000000000000, 0.000000000000000000, 1.000000000000000000 ) ) ;
#214 = AXIS2_PLACEMENT_3D ( 'NONE', #186, #26, #39 ) ;
#215 = ORIENTED_EDGE ( 'NONE', *, *, #136, .F. ) ;
#216 = DIRECTION ( 'NONE',  ( 1.000000000000000000, 0.000000000000000000, 0.000000000000000000 ) ) ;
#217 = AXIS2_PLACEMENT_3D ( 'NONE', #164, #203, #258 ) ;
#218 = ADVANCED_FACE ( 'NONE', ( #224, #83 ), #142, .T. ) ;
#219 = CIRCLE ( 'NONE', #11, 1.135000000000000009 ) ;
#220 = SURFACE_SIDE_STYLE ('',( #125 ) ) ;
#221 = EDGE_LOOP ( 'NONE', ( #269, #57 ) ) ;
#222 = FILL_AREA_STYLE_COLOUR ( '', #55 ) ;
#223 = MECHANICAL_DESIGN_GEOMETRIC_PRESENTATION_REPRESENTATION (  '', ( #70 ), #294 ) ;
#224 = FACE_BOUND ( 'NONE', #221, .T. ) ;
#225 = ORIENTED_EDGE ( 'NONE', *, *, #152, .T. ) ;
#226 = DIRECTION ( 'NONE',  ( 1.000000000000000000, 0.000000000000000000, 0.000000000000000000 ) ) ;
#227 = DIRECTION ( 'NONE',  ( -0.000000000000000000, -0.000000000000000000, -1.000000000000000000 ) ) ;
#228 = DIRECTION ( 'NONE',  ( 0.000000000000000000, 0.000000000000000000, 1.000000000000000000 ) ) ;
#229 = CARTESIAN_POINT ( 'NONE',  ( -0.6350000000000000089, 0.000000000000000000, 0.000000000000000000 ) ) ;
#230 = ADVANCED_FACE ( 'NONE', ( #162 ), #85, .T. ) ;
#231 = CIRCLE ( 'NONE', #172, 0.6350000000000000089 ) ;
#232 = DIRECTION ( 'NONE',  ( 1.000000000000000000, 0.000000000000000000, 0.000000000000000000 ) ) ;
#233 = CARTESIAN_POINT ( 'NONE',  ( 0.000000000000000000, 0.000000000000000000, 5.937500000000000000 ) ) ;
#234 = DIRECTION ( 'NONE',  ( 1.000000000000000000, 0.000000000000000000, 0.000000000000000000 ) ) ;
#235 = ORIENTED_EDGE ( 'NONE', *, *, #128, .T. ) ;
#236 = CARTESIAN_POINT ( 'NONE',  ( 0.6350000000000000089, 7.776507174585692903E-17, 6.000000000000000000 ) ) ;
#237 = ADVANCED_FACE ( 'NONE', ( #157 ), #272, .T. ) ;
#238 = VECTOR ( 'NONE', #165, 100.0000000000000000 ) ;
#239 = AXIS2_PLACEMENT_3D ( 'NONE', #275, #64, #301 ) ;
#240 = EDGE_CURVE ( 'NONE', #250, #176, #37, .T. ) ;
#241 = FACE_OUTER_BOUND ( 'NONE', #118, .T. ) ;
#242 = AXIS2_PLACEMENT_3D ( 'NONE', #233, #302, #113 ) ;
#243 = PRODUCT_DEFINITION_SHAPE ( 'NONE', 'NONE',  #254 ) ;
#244 = EDGE_CURVE ( 'NONE', #185, #106, #132, .T. ) ;
#245 = DIRECTION ( 'NONE',  ( 1.000000000000000000, 0.000000000000000000, 0.000000000000000000 ) ) ;
#246 = DIRECTION ( 'NONE',  ( 1.000000000000000000, 0.000000000000000000, 0.000000000000000000 ) ) ;
#247 = EDGE_LOOP ( 'NONE', ( #27, #264 ) ) ;
#248 = ADVANCED_FACE ( 'NONE', ( #252 ), #104, .T. ) ;
#249 = DIRECTION ( 'NONE',  ( 1.000000000000000000, 0.000000000000000000, 0.000000000000000000 ) ) ;
#250 = VERTEX_POINT ( 'NONE', #14 ) ;
#251 = AXIS2_PLACEMENT_3D ( 'NONE', #4, #153, #246 ) ;
#252 = FACE_OUTER_BOUND ( 'NONE', #5, .T. ) ;
#253 = DIRECTION ( 'NONE',  ( -0.000000000000000000, 0.000000000000000000, 1.000000000000000000 ) ) ;
#254 = PRODUCT_DEFINITION ( 'UNKNOWN', '', #78, #127 ) ;
#255 = CARTESIAN_POINT ( 'NONE',  ( 0.000000000000000000, 0.000000000000000000, -0.4375000000000000555 ) ) ;
#256 = CARTESIAN_POINT ( 'NONE',  ( 0.6350000000000000089, 7.776507174585692903E-17, 5.937500000000000000 ) ) ;
#257 = CARTESIAN_POINT ( 'NONE',  ( 0.000000000000000000, 0.000000000000000000, -0.5000000000000000000 ) ) ;
#258 = DIRECTION ( 'NONE',  ( 0.000000000000000000, 0.000000000000000000, -1.000000000000000000 ) ) ;
#259 = LINE ( 'NONE', #236, #51 ) ;
#260 = ORIENTED_EDGE ( 'NONE', *, *, #128, .F. ) ;
#261 = EDGE_CURVE ( 'NONE', #187, #176, #87, .T. ) ;
#262 = CIRCLE ( 'NONE', #141, 1.135000000000000009 ) ;
#263 = SHAPE_DEFINITION_REPRESENTATION ( #243, #107 ) ;
#264 = ORIENTED_EDGE ( 'NONE', *, *, #23, .T. ) ;
#265 = ADVANCED_FACE ( 'NONE', ( #60 ), #270, .F. ) ;
#266 = DIRECTION ( 'NONE',  ( -1.000000000000000000, 1.224646799147353947E-16, 0.000000000000000000 ) ) ;
#267 = UNCERTAINTY_MEASURE_WITH_UNIT (LENGTH_MEASURE( 1.000000000000000082E-05 ), #278, 'distance_accuracy_value', 'NONE');
#268 = EDGE_LOOP ( 'NONE', ( #210, #235, #49, #300 ) ) ;
#269 = ORIENTED_EDGE ( 'NONE', *, *, #297, .F. ) ;
#270 = PLANE ( 'NONE',  #193 ) ;
#271 = PLANE ( 'NONE',  #88 ) ;
#272 = CYLINDRICAL_SURFACE ( 'NONE', #115, 1.135000000000000009 ) ;
#273 = CARTESIAN_POINT ( 'NONE',  ( 0.000000000000000000, 0.000000000000000000, -0.4375000000000000555 ) ) ;
#274 = AXIS2_PLACEMENT_3D ( 'NONE', #79, #33, #245 ) ;
#275 = CARTESIAN_POINT ( 'NONE',  ( 0.000000000000000000, 0.000000000000000000, 0.000000000000000000 ) ) ;
#276 = DIRECTION ( 'NONE',  ( -0.000000000000000000, 0.000000000000000000, 1.000000000000000000 ) ) ;
#277 = DIRECTION ( 'NONE',  ( 1.000000000000000000, 0.000000000000000000, 0.000000000000000000 ) ) ;
#278 =( LENGTH_UNIT ( ) NAMED_UNIT ( * ) SI_UNIT ( .CENTI., .METRE. ) );
#279 = VERTEX_POINT ( 'NONE', #200 ) ;
#280 = CIRCLE ( 'NONE', #17, 1.072500000000000009 ) ;
#281 = DIRECTION ( 'NONE',  ( -1.000000000000000000, 0.000000000000000000, 0.000000000000000000 ) ) ;
#282 = DIRECTION ( 'NONE',  ( -0.000000000000000000, 0.000000000000000000, 1.000000000000000000 ) ) ;
#283 = CIRCLE ( 'NONE', #35, 0.6350000000000000089 ) ;
#284 = ORIENTED_EDGE ( 'NONE', *, *, #152, .F. ) ;
#285 = TOROIDAL_SURFACE ( 'NONE', #305, 1.072500000000000009, 0.06250000000000000000 ) ;
#286 = DIRECTION ( 'NONE',  ( -1.000000000000000000, 1.224646799147352468E-16, 0.000000000000000000 ) ) ;
#287 = EDGE_CURVE ( 'NONE', #93, #279, #293, .T. ) ;
#288 = ORIENTED_EDGE ( 'NONE', *, *, #261, .T. ) ;
#289 = ORIENTED_EDGE ( 'NONE', *, *, #287, .T. ) ;
#290 = PRODUCT_CONTEXT ( 'NONE', #146, 'mechanical' ) ;
#291 = DIRECTION ( 'NONE',  ( 0.000000000000000000, -0.000000000000000000, -1.000000000000000000 ) ) ;
#292 = CYLINDRICAL_SURFACE ( 'NONE', #274, 1.135000000000000009 ) ;
#293 = CIRCLE ( 'NONE', #90, 0.5725000000000000089 ) ;
#294 =( GEOMETRIC_REPRESENTATION_CONTEXT ( 3 ) GLOBAL_UNCERTAINTY_ASSIGNED_CONTEXT ( ( #267 ) ) GLOBAL_UNIT_ASSIGNED_CONTEXT ( ( #278, #119, #304 ) ) REPRESENTATION_CONTEXT ( 'NONE', 'WORKASPACE' ) );
#295 = EDGE_CURVE ( 'NONE', #168, #74, #280, .T. ) ;
#296 = ORIENTED_EDGE ( 'NONE', *, *, #170, .T. ) ;
#297 = EDGE_CURVE ( 'NONE', #176, #250, #231, .T. ) ;
#298 = ORIENTED_EDGE ( 'NONE', *, *, #136, .T. ) ;
#299 =( GEOMETRIC_REPRESENTATION_CONTEXT ( 3 ) GLOBAL_UNCERTAINTY_ASSIGNED_CONTEXT ( ( #149 ) ) GLOBAL_UNIT_ASSIGNED_CONTEXT ( ( #43, #307, #68 ) ) REPRESENTATION_CONTEXT ( 'NONE', 'WORKASPACE' ) );
#300 = ORIENTED_EDGE ( 'NONE', *, *, #105, .F. ) ;
#301 = DIRECTION ( 'NONE',  ( 1.000000000000000000, 0.000000000000000000, 0.000000000000000000 ) ) ;
#302 = DIRECTION ( 'NONE',  ( 0.000000000000000000, -0.000000000000000000, -1.000000000000000000 ) ) ;
#303 = DIRECTION ( 'NONE',  ( -0.000000000000000000, 0.000000000000000000, 1.000000000000000000 ) ) ;
#304 =( NAMED_UNIT ( * ) SI_UNIT ( $, .STERADIAN. ) SOLID_ANGLE_UNIT ( ) );
#305 = AXIS2_PLACEMENT_3D ( 'NONE', #179, #111, #21 ) ;
#306 = DIRECTION ( 'NONE',  ( -0.000000000000000000, 0.000000000000000000, 1.000000000000000000 ) ) ;
#307 =( NAMED_UNIT ( * ) PLANE_ANGLE_UNIT ( ) SI_UNIT ( $, .RADIAN. ) );
#308 = CARTESIAN_POINT ( 'NONE',  ( -0.5725000000000000089, 7.393805049852145565E-17, 6.000000000000000000 ) ) ;
#309 = ORIENTED_EDGE ( 'NONE', *, *, #240, .T. ) ;
ENDSEC;
END-ISO-10303-21;
