ISO-10303-21;
HEADER;
FILE_DESCRIPTION (( 'STEP AP214' ),
    '1' );
FILE_NAME ('.5in 3.875cm x 1.STEP',
    '2026-08-28T18:59:46',
    ( '' ),
    ( '' ),
    'SwSTEP 2.0',
    'SolidWorks 2025',
    '' );
FILE_SCHEMA (( 'AUTOMOTIVE_DESIGN' ));
ENDSEC;

DATA;
#1 = CARTESIAN_POINT ( 'NONE',  ( -1.004999999999999893, 1.230770033143090083E-16, -0.5000000000000000000 ) ) ;
#2 = VERTEX_POINT ( 'NONE', #145 ) ;
#3 = CARTESIAN_POINT ( 'NONE',  ( 0.000000000000000000, 0.000000000000000000, 0.000000000000000000 ) ) ;
#4 = DIRECTION ( 'NONE',  ( -0.000000000000000000, -0.000000000000000000, -1.000000000000000000 ) ) ;
#5 = CIRCLE ( 'NONE', #202, 1.004999999999999893 ) ;
#6 = DIRECTION ( 'NONE',  ( 1.000000000000000000, 0.000000000000000000, 0.000000000000000000 ) ) ;
#7 =( NAMED_UNIT ( * ) SI_UNIT ( $, .STERADIAN. ) SOLID_ANGLE_UNIT ( ) );
#8 = FACE_OUTER_BOUND ( 'NONE', #101, .T. ) ;
#9 = CARTESIAN_POINT ( 'NONE',  ( 0.000000000000000000, 0.000000000000000000, 0.000000000000000000 ) ) ;
#10 = ORIENTED_EDGE ( 'NONE', *, *, #273, .F. ) ;
#11 = AXIS2_PLACEMENT_3D ( 'NONE', #240, #260, #52 ) ;
#12 = VERTEX_POINT ( 'NONE', #220 ) ;
#13 = ADVANCED_FACE ( 'NONE', ( #31, #8 ), #243, .T. ) ;
#14 = CIRCLE ( 'NONE', #11, 0.9424999999999998934 ) ;
#15 = FACE_OUTER_BOUND ( 'NONE', #244, .T. ) ;
#16 = PRESENTATION_STYLE_ASSIGNMENT (( #62 ) ) ;
#17 = CLOSED_SHELL ( 'NONE', ( #159, #278, #53, #58, #195, #191, #24, #212, #13, #25, #160 ) ) ;
#18 = DIRECTION ( 'NONE',  ( 1.000000000000000000, 0.000000000000000000, 0.000000000000000000 ) ) ;
#19 = UNCERTAINTY_MEASURE_WITH_UNIT (LENGTH_MEASURE( 1.000000000000000082E-05 ), #107, 'distance_accuracy_value', 'NONE');
#20 = CIRCLE ( 'NONE', #51, 0.9424999999999998934 ) ;
#21 = DIRECTION ( 'NONE',  ( 1.000000000000000000, 0.000000000000000000, 0.000000000000000000 ) ) ;
#22 =( NAMED_UNIT ( * ) SI_UNIT ( $, .STERADIAN. ) SOLID_ANGLE_UNIT ( ) );
#23 = DIRECTION ( 'NONE',  ( 1.224646799147353207E-16, 1.000000000000000000, 0.000000000000000000 ) ) ;
#24 = ADVANCED_FACE ( 'NONE', ( #140 ), #96, .T. ) ;
#25 = ADVANCED_FACE ( 'NONE', ( #55 ), #293, .T. ) ;
#26 = EDGE_LOOP ( 'NONE', ( #148, #269, #256, #197 ) ) ;
#27 = CARTESIAN_POINT ( 'NONE',  ( -0.6300000000000001155, 0.000000000000000000, 4.062500000000000000 ) ) ;
#28 = ORIENTED_EDGE ( 'NONE', *, *, #261, .F. ) ;
#29 = VERTEX_POINT ( 'NONE', #163 ) ;
#30 = DIRECTION ( 'NONE',  ( 1.000000000000000000, 0.000000000000000000, 0.000000000000000000 ) ) ;
#31 = FACE_BOUND ( 'NONE', #223, .T. ) ;
#32 = AXIS2_PLACEMENT_3D ( 'NONE', #91, #171, #284 ) ;
#33 = CYLINDRICAL_SURFACE ( 'NONE', #137, 0.6300000000000001155 ) ;
#34 = PRODUCT_CONTEXT ( 'NONE', #296, 'mechanical' ) ;
#35 = ORIENTED_EDGE ( 'NONE', *, *, #304, .F. ) ;
#36 = EDGE_LOOP ( 'NONE', ( #221, #82, #292, #39 ) ) ;
#37 = VERTEX_POINT ( 'NONE', #49 ) ;
#38 = CIRCLE ( 'NONE', #64, 1.004999999999999893 ) ;
#39 = ORIENTED_EDGE ( 'NONE', *, *, #308, .F. ) ;
#40 = CARTESIAN_POINT ( 'NONE',  ( 0.000000000000000000, 0.000000000000000000, 4.062500000000000000 ) ) ;
#41 = CIRCLE ( 'NONE', #285, 1.004999999999999893 ) ;
#42 = CARTESIAN_POINT ( 'NONE',  ( 0.000000000000000000, 0.000000000000000000, 4.125000000000000000 ) ) ;
#43 = CIRCLE ( 'NONE', #224, 0.5675000000000001155 ) ;
#44 = DIRECTION ( 'NONE',  ( 1.000000000000000000, 0.000000000000000000, 0.000000000000000000 ) ) ;
#45 = DIRECTION ( 'NONE',  ( -0.000000000000000000, 0.000000000000000000, 1.000000000000000000 ) ) ;
#46 = PRODUCT_DEFINITION_CONTEXT ( 'detailed design', #147, 'design' ) ;
#47 = CARTESIAN_POINT ( 'NONE',  ( -0.5675000000000001155, 7.332572709894779272E-17, 4.125000000000000000 ) ) ;
#48 = AXIS2_PLACEMENT_3D ( 'NONE', #151, #249, #153 ) ;
#49 = CARTESIAN_POINT ( 'NONE',  ( -1.004999999999999893, 1.230770033143090083E-16, 0.000000000000000000 ) ) ;
#50 = ORIENTED_EDGE ( 'NONE', *, *, #273, .T. ) ;
#51 = AXIS2_PLACEMENT_3D ( 'NONE', #69, #87, #116 ) ;
#52 = DIRECTION ( 'NONE',  ( 1.000000000000000000, 0.000000000000000000, 0.000000000000000000 ) ) ;
#53 = ADVANCED_FACE ( 'NONE', ( #78 ), #235, .T. ) ;
#54 = CARTESIAN_POINT ( 'NONE',  ( 0.000000000000000000, 0.000000000000000000, 4.062500000000000000 ) ) ;
#55 = FACE_OUTER_BOUND ( 'NONE', #76, .T. ) ;
#56 = CIRCLE ( 'NONE', #177, 0.06249999999999997224 ) ;
#57 = DIRECTION ( 'NONE',  ( -0.000000000000000000, -0.000000000000000000, -1.000000000000000000 ) ) ;
#58 = ADVANCED_FACE ( 'NONE', ( #211 ), #33, .T. ) ;
#59 = ORIENTED_EDGE ( 'NONE', *, *, #216, .T. ) ;
#60 = ORIENTED_EDGE ( 'NONE', *, *, #136, .T. ) ;
#61 = ORIENTED_EDGE ( 'NONE', *, *, #239, .F. ) ;
#62 = SURFACE_STYLE_USAGE ( .BOTH. , #270 ) ;
#63 = ORIENTED_EDGE ( 'NONE', *, *, #261, .T. ) ;
#64 = AXIS2_PLACEMENT_3D ( 'NONE', #301, #299, #66 ) ;
#65 = COLOUR_RGB ( '',0.7921568627450980005, 0.8196078431372548767, 0.9333333333333333481 ) ;
#66 = DIRECTION ( 'NONE',  ( 1.000000000000000000, 0.000000000000000000, 0.000000000000000000 ) ) ;
#67 = DIRECTION ( 'NONE',  ( -0.000000000000000000, 0.000000000000000000, 1.000000000000000000 ) ) ;
#68 = PRODUCT_DEFINITION ( 'UNKNOWN', '', #173, #46 ) ;
#69 = CARTESIAN_POINT ( 'NONE',  ( 0.000000000000000000, 0.000000000000000000, -0.5000000000000000000 ) ) ;
#70 = EDGE_LOOP ( 'NONE', ( #10, #200, #142, #166 ) ) ;
#71 = ORIENTED_EDGE ( 'NONE', *, *, #127, .T. ) ;
#72 = AXIS2_PLACEMENT_3D ( 'NONE', #161, #86, #134 ) ;
#73 = CARTESIAN_POINT ( 'NONE',  ( 0.000000000000000000, 0.000000000000000000, 4.062500000000000000 ) ) ;
#74 = VECTOR ( 'NONE', #139, 100.0000000000000000 ) ;
#75 = DIRECTION ( 'NONE',  ( 1.000000000000000000, 0.000000000000000000, 0.000000000000000000 ) ) ;
#76 = EDGE_LOOP ( 'NONE', ( #61, #162, #121, #236 ) ) ;
#77 = EDGE_CURVE ( 'NONE', #29, #37, #118, .T. ) ;
#78 = FACE_OUTER_BOUND ( 'NONE', #36, .T. ) ;
#79 = ORIENTED_EDGE ( 'NONE', *, *, #248, .T. ) ;
#80 = ORIENTED_EDGE ( 'NONE', *, *, #108, .F. ) ;
#81 = FILL_AREA_STYLE ('',( #205 ) ) ;
#82 = ORIENTED_EDGE ( 'NONE', *, *, #77, .T. ) ;
#83 = AXIS2_PLACEMENT_3D ( 'NONE', #227, #302, #230 ) ;
#84 = CYLINDRICAL_SURFACE ( 'NONE', #92, 0.6300000000000001155 ) ;
#85 = AXIS2_PLACEMENT_3D ( 'NONE', #54, #187, #75 ) ;
#86 = DIRECTION ( 'NONE',  ( -0.000000000000000000, 0.000000000000000000, 1.000000000000000000 ) ) ;
#87 = DIRECTION ( 'NONE',  ( 0.000000000000000000, -0.000000000000000000, -1.000000000000000000 ) ) ;
#88 = CARTESIAN_POINT ( 'NONE',  ( 0.000000000000000000, 0.000000000000000000, 4.125000000000000000 ) ) ;
#89 = CIRCLE ( 'NONE', #265, 0.5675000000000001155 ) ;
#90 = CARTESIAN_POINT ( 'NONE',  ( -0.5675000000000001155, 6.949870585161230702E-17, 4.062500000000000000 ) ) ;
#91 = CARTESIAN_POINT ( 'NONE',  ( 0.000000000000000000, 0.000000000000000000, -0.5000000000000000000 ) ) ;
#92 = AXIS2_PLACEMENT_3D ( 'NONE', #88, #233, #178 ) ;
#93 = DIRECTION ( 'NONE',  ( -1.000000000000000000, 1.224646799147352468E-16, 0.000000000000000000 ) ) ;
#94 = EDGE_LOOP ( 'NONE', ( #198, #59, #268, #138 ) ) ;
#95 =( GEOMETRIC_REPRESENTATION_CONTEXT ( 3 ) GLOBAL_UNCERTAINTY_ASSIGNED_CONTEXT ( ( #19 ) ) GLOBAL_UNIT_ASSIGNED_CONTEXT ( ( #107, #113, #22 ) ) REPRESENTATION_CONTEXT ( 'NONE', 'WORKASPACE' ) );
#96 = CYLINDRICAL_SURFACE ( 'NONE', #204, 1.004999999999999893 ) ;
#97 = CARTESIAN_POINT ( 'NONE',  ( -0.9424999999999998934, 1.154229608196380122E-16, -0.4375000000000000555 ) ) ;
#98 = VERTEX_POINT ( 'NONE', #190 ) ;
#99 = EDGE_CURVE ( 'NONE', #12, #29, #131, .T. ) ;
#100 = CARTESIAN_POINT ( 'NONE',  ( 0.000000000000000000, 0.000000000000000000, -0.5000000000000000000 ) ) ;
#101 = EDGE_LOOP ( 'NONE', ( #125, #71 ) ) ;
#102 = DIRECTION ( 'NONE',  ( 0.000000000000000000, -0.000000000000000000, -1.000000000000000000 ) ) ;
#103 = PRODUCT ( '.5in 3.875cm x 1', '.5in 3.875cm x 1', '', ( #34 ) ) ;
#104 = ORIENTED_EDGE ( 'NONE', *, *, #108, .T. ) ;
#105 = EDGE_CURVE ( 'NONE', #267, #98, #106, .T. ) ;
#106 = CIRCLE ( 'NONE', #255, 0.6300000000000001155 ) ;
#107 =( LENGTH_UNIT ( ) NAMED_UNIT ( * ) SI_UNIT ( .CENTI., .METRE. ) );
#108 = EDGE_CURVE ( 'NONE', #297, #12, #14, .T. ) ;
#109 = DIRECTION ( 'NONE',  ( -0.000000000000000000, 0.000000000000000000, 1.000000000000000000 ) ) ;
#110 = CARTESIAN_POINT ( 'NONE',  ( 0.000000000000000000, 0.000000000000000000, -0.4375000000000000555 ) ) ;
#111 = DIRECTION ( 'NONE',  ( -0.000000000000000000, 0.000000000000000000, 1.000000000000000000 ) ) ;
#112 = UNCERTAINTY_MEASURE_WITH_UNIT (LENGTH_MEASURE( 1.000000000000000082E-05 ), #186, 'distance_accuracy_value', 'NONE');
#113 =( NAMED_UNIT ( * ) PLANE_ANGLE_UNIT ( ) SI_UNIT ( $, .RADIAN. ) );
#114 = DIRECTION ( 'NONE',  ( 1.000000000000000000, 0.000000000000000000, 0.000000000000000000 ) ) ;
#115 = CARTESIAN_POINT ( 'NONE',  ( 0.9424999999999998934, 0.000000000000000000, -0.5000000000000000000 ) ) ;
#116 = DIRECTION ( 'NONE',  ( 1.000000000000000000, 0.000000000000000000, 0.000000000000000000 ) ) ;
#117 = DIRECTION ( 'NONE',  ( -0.000000000000000000, 0.000000000000000000, 1.000000000000000000 ) ) ;
#118 = LINE ( 'NONE', #1, #280 ) ;
#119 = CARTESIAN_POINT ( 'NONE',  ( 0.000000000000000000, 0.000000000000000000, 4.062500000000000000 ) ) ;
#120 = DIRECTION ( 'NONE',  ( 0.000000000000000000, 0.000000000000000000, 1.000000000000000000 ) ) ;
#121 = ORIENTED_EDGE ( 'NONE', *, *, #298, .T. ) ;
#122 = VERTEX_POINT ( 'NONE', #286 ) ;
#123 = AXIS2_PLACEMENT_3D ( 'NONE', #135, #109, #279 ) ;
#124 = ORIENTED_EDGE ( 'NONE', *, *, #99, .F. ) ;
#125 = ORIENTED_EDGE ( 'NONE', *, *, #132, .T. ) ;
#126 = FACE_OUTER_BOUND ( 'NONE', #282, .T. ) ;
#127 = EDGE_CURVE ( 'NONE', #37, #290, #179, .T. ) ;
#128 = CIRCLE ( 'NONE', #307, 0.06249999999999997224 ) ;
#129 = PLANE ( 'NONE',  #72 ) ;
#130 = ADVANCED_BREP_SHAPE_REPRESENTATION ( '.5in 3.875cm x 1', ( #294, #252 ), #192 ) ;
#131 = CIRCLE ( 'NONE', #274, 0.06250000000000005551 ) ;
#132 = EDGE_CURVE ( 'NONE', #290, #37, #41, .T. ) ;
#133 = CARTESIAN_POINT ( 'NONE',  ( 0.000000000000000000, 0.000000000000000000, 4.125000000000000000 ) ) ;
#134 = DIRECTION ( 'NONE',  ( 1.000000000000000000, 0.000000000000000000, 0.000000000000000000 ) ) ;
#135 = CARTESIAN_POINT ( 'NONE',  ( 0.000000000000000000, 0.000000000000000000, 4.125000000000000000 ) ) ;
#136 = EDGE_CURVE ( 'NONE', #174, #2, #257, .T. ) ;
#137 = AXIS2_PLACEMENT_3D ( 'NONE', #194, #4, #219 ) ;
#138 = ORIENTED_EDGE ( 'NONE', *, *, #127, .F. ) ;
#139 = DIRECTION ( 'NONE',  ( 0.000000000000000000, 0.000000000000000000, 1.000000000000000000 ) ) ;
#140 = FACE_OUTER_BOUND ( 'NONE', #94, .T. ) ;
#141 = APPLICATION_PROTOCOL_DEFINITION ( 'draft international standard', 'automotive_design', 1998, #147 ) ;
#142 = ORIENTED_EDGE ( 'NONE', *, *, #228, .T. ) ;
#143 = EDGE_CURVE ( 'NONE', #2, #174, #246, .T. ) ;
#144 = DIRECTION ( 'NONE',  ( 1.000000000000000000, 0.000000000000000000, 0.000000000000000000 ) ) ;
#145 = CARTESIAN_POINT ( 'NONE',  ( -0.6300000000000001155, 0.000000000000000000, 0.000000000000000000 ) ) ;
#146 = EDGE_LOOP ( 'NONE', ( #79, #150 ) ) ;
#147 = APPLICATION_CONTEXT ( 'automotive_design' ) ;
#148 = ORIENTED_EDGE ( 'NONE', *, *, #105, .F. ) ;
#149 = AXIS2_PLACEMENT_3D ( 'NONE', #40, #102, #250 ) ;
#150 = ORIENTED_EDGE ( 'NONE', *, *, #251, .T. ) ;
#151 = CARTESIAN_POINT ( 'NONE',  ( 0.000000000000000000, 0.000000000000000000, 0.000000000000000000 ) ) ;
#152 = EDGE_CURVE ( 'NONE', #98, #267, #208, .T. ) ;
#153 = DIRECTION ( 'NONE',  ( 1.000000000000000000, 0.000000000000000000, 0.000000000000000000 ) ) ;
#154 = LINE ( 'NONE', #232, #215 ) ;
#155 = CIRCLE ( 'NONE', #83, 0.06250000000000005551 ) ;
#156 = DIRECTION ( 'NONE',  ( 1.000000000000000000, 0.000000000000000000, 0.000000000000000000 ) ) ;
#157 = CARTESIAN_POINT ( 'NONE',  ( 0.000000000000000000, 0.000000000000000000, -0.4375000000000000555 ) ) ;
#158 = TOROIDAL_SURFACE ( 'NONE', #188, 0.9424999999999998934, 0.06250000000000000000 ) ;
#159 = ADVANCED_FACE ( 'NONE', ( #126 ), #183, .T. ) ;
#160 = ADVANCED_FACE ( 'NONE', ( #15 ), #158, .T. ) ;
#161 = CARTESIAN_POINT ( 'NONE',  ( 0.000000000000000000, 0.000000000000000000, -0.5000000000000000000 ) ) ;
#162 = ORIENTED_EDGE ( 'NONE', *, *, #152, .F. ) ;
#163 = CARTESIAN_POINT ( 'NONE',  ( -1.004999999999999893, 1.230770033143090083E-16, -0.4375000000000000555 ) ) ;
#164 = ORIENTED_EDGE ( 'NONE', *, *, #228, .F. ) ;
#165 = DIRECTION ( 'NONE',  ( 1.000000000000000000, 0.000000000000000000, 0.000000000000000000 ) ) ;
#166 = ORIENTED_EDGE ( 'NONE', *, *, #143, .T. ) ;
#167 = DIRECTION ( 'NONE',  ( 1.000000000000000000, 0.000000000000000000, 0.000000000000000000 ) ) ;
#168 = CARTESIAN_POINT ( 'NONE',  ( 0.000000000000000000, 0.000000000000000000, 0.000000000000000000 ) ) ;
#169 = ORIENTED_EDGE ( 'NONE', *, *, #216, .F. ) ;
#170 = VECTOR ( 'NONE', #57, 100.0000000000000000 ) ;
#171 = DIRECTION ( 'NONE',  ( 0.000000000000000000, 0.000000000000000000, 1.000000000000000000 ) ) ;
#172 = VERTEX_POINT ( 'NONE', #181 ) ;
#173 = PRODUCT_DEFINITION_FORMATION_WITH_SPECIFIED_SOURCE ( 'ANY', '', #103, .NOT_KNOWN. ) ;
#174 = VERTEX_POINT ( 'NONE', #231 ) ;
#175 = SURFACE_STYLE_FILL_AREA ( #81 ) ;
#176 = VERTEX_POINT ( 'NONE', #47 ) ;
#177 = AXIS2_PLACEMENT_3D ( 'NONE', #90, #23, #276 ) ;
#178 = DIRECTION ( 'NONE',  ( -1.000000000000000000, 0.000000000000000000, 0.000000000000000000 ) ) ;
#179 = CIRCLE ( 'NONE', #300, 1.004999999999999893 ) ;
#180 = DIRECTION ( 'NONE',  ( -0.000000000000000000, -0.000000000000000000, -1.000000000000000000 ) ) ;
#181 = CARTESIAN_POINT ( 'NONE',  ( 0.5675000000000001155, 0.000000000000000000, 4.125000000000000000 ) ) ;
#182 = PRODUCT_RELATED_PRODUCT_CATEGORY ( 'part', '', ( #103 ) ) ;
#183 = TOROIDAL_SURFACE ( 'NONE', #222, 0.9424999999999998934, 0.06250000000000000000 ) ;
#184 = TOROIDAL_SURFACE ( 'NONE', #225, 0.5675000000000001155, 0.06250000000000000000 ) ;
#185 = DIRECTION ( 'NONE',  ( 1.000000000000000000, 0.000000000000000000, 0.000000000000000000 ) ) ;
#186 =( LENGTH_UNIT ( ) NAMED_UNIT ( * ) SI_UNIT ( .CENTI., .METRE. ) );
#187 = DIRECTION ( 'NONE',  ( -0.000000000000000000, 0.000000000000000000, 1.000000000000000000 ) ) ;
#188 = AXIS2_PLACEMENT_3D ( 'NONE', #207, #111, #21 ) ;
#189 = DIRECTION ( 'NONE',  ( 0.000000000000000000, 0.000000000000000000, 1.000000000000000000 ) ) ;
#190 = CARTESIAN_POINT ( 'NONE',  ( 0.6300000000000001155, 7.715274834628326610E-17, 4.062500000000000000 ) ) ;
#191 = ADVANCED_FACE ( 'NONE', ( #305 ), #303, .T. ) ;
#192 =( GEOMETRIC_REPRESENTATION_CONTEXT ( 3 ) GLOBAL_UNCERTAINTY_ASSIGNED_CONTEXT ( ( #112 ) ) GLOBAL_UNIT_ASSIGNED_CONTEXT ( ( #186, #281, #7 ) ) REPRESENTATION_CONTEXT ( 'NONE', 'WORKASPACE' ) );
#193 = CARTESIAN_POINT ( 'NONE',  ( 0.9424999999999998934, 0.000000000000000000, -0.4375000000000000555 ) ) ;
#194 = CARTESIAN_POINT ( 'NONE',  ( 0.000000000000000000, 0.000000000000000000, 4.125000000000000000 ) ) ;
#195 = ADVANCED_FACE ( 'NONE', ( #203 ), #84, .T. ) ;
#196 = DIRECTION ( 'NONE',  ( 0.000000000000000000, -1.000000000000000000, 0.000000000000000000 ) ) ;
#197 = ORIENTED_EDGE ( 'NONE', *, *, #298, .F. ) ;
#198 = ORIENTED_EDGE ( 'NONE', *, *, #77, .F. ) ;
#199 = DIRECTION ( 'NONE',  ( 0.000000000000000000, 0.000000000000000000, 1.000000000000000000 ) ) ;
#200 = ORIENTED_EDGE ( 'NONE', *, *, #152, .T. ) ;
#201 = ORIENTED_EDGE ( 'NONE', *, *, #210, .F. ) ;
#202 = AXIS2_PLACEMENT_3D ( 'NONE', #157, #306, #185 ) ;
#203 = FACE_OUTER_BOUND ( 'NONE', #70, .T. ) ;
#204 = AXIS2_PLACEMENT_3D ( 'NONE', #100, #199, #114 ) ;
#205 = FILL_AREA_STYLE_COLOUR ( '', #65 ) ;
#206 = MECHANICAL_DESIGN_GEOMETRIC_PRESENTATION_REPRESENTATION (  '', ( #275 ), #95 ) ;
#207 = CARTESIAN_POINT ( 'NONE',  ( 0.000000000000000000, 0.000000000000000000, -0.4375000000000000555 ) ) ;
#208 = CIRCLE ( 'NONE', #149, 0.6300000000000001155 ) ;
#209 = ORIENTED_EDGE ( 'NONE', *, *, #105, .T. ) ;
#210 = EDGE_CURVE ( 'NONE', #122, #29, #38, .T. ) ;
#211 = FACE_OUTER_BOUND ( 'NONE', #245, .T. ) ;
#212 = ADVANCED_FACE ( 'NONE', ( #277 ), #129, .F. ) ;
#213 = DIRECTION ( 'NONE',  ( 0.000000000000000000, 0.000000000000000000, -1.000000000000000000 ) ) ;
#214 = DIRECTION ( 'NONE',  ( 1.000000000000000000, 0.000000000000000000, 0.000000000000000000 ) ) ;
#215 = VECTOR ( 'NONE', #180, 100.0000000000000000 ) ;
#216 = EDGE_CURVE ( 'NONE', #29, #122, #5, .T. ) ;
#217 = CARTESIAN_POINT ( 'NONE',  ( 0.000000000000000000, 0.000000000000000000, 0.000000000000000000 ) ) ;
#218 = CARTESIAN_POINT ( 'NONE',  ( 1.004999999999999893, 0.000000000000000000, -0.5000000000000000000 ) ) ;
#219 = DIRECTION ( 'NONE',  ( -1.000000000000000000, 0.000000000000000000, 0.000000000000000000 ) ) ;
#220 = CARTESIAN_POINT ( 'NONE',  ( -0.9424999999999998934, 1.192499820669735103E-16, -0.5000000000000000000 ) ) ;
#221 = ORIENTED_EDGE ( 'NONE', *, *, #210, .T. ) ;
#222 = AXIS2_PLACEMENT_3D ( 'NONE', #110, #45, #18 ) ;
#223 = EDGE_LOOP ( 'NONE', ( #234, #247 ) ) ;
#224 = AXIS2_PLACEMENT_3D ( 'NONE', #133, #67, #253 ) ;
#225 = AXIS2_PLACEMENT_3D ( 'NONE', #119, #288, #156 ) ;
#226 = PRODUCT_DEFINITION_SHAPE ( 'NONE', 'NONE',  #68 ) ;
#227 = CARTESIAN_POINT ( 'NONE',  ( 0.5675000000000001155, 0.000000000000000000, 4.062500000000000000 ) ) ;
#228 = EDGE_CURVE ( 'NONE', #267, #2, #154, .T. ) ;
#229 = AXIS2_PLACEMENT_3D ( 'NONE', #262, #238, #6 ) ;
#230 = DIRECTION ( 'NONE',  ( 0.000000000000000000, 0.000000000000000000, -1.000000000000000000 ) ) ;
#231 = CARTESIAN_POINT ( 'NONE',  ( 0.6300000000000001155, 7.715274834628326610E-17, 0.000000000000000000 ) ) ;
#232 = CARTESIAN_POINT ( 'NONE',  ( -0.6300000000000001155, 0.000000000000000000, 4.125000000000000000 ) ) ;
#233 = DIRECTION ( 'NONE',  ( -0.000000000000000000, -0.000000000000000000, -1.000000000000000000 ) ) ;
#234 = ORIENTED_EDGE ( 'NONE', *, *, #143, .F. ) ;
#235 = CYLINDRICAL_SURFACE ( 'NONE', #32, 1.004999999999999893 ) ;
#236 = ORIENTED_EDGE ( 'NONE', *, *, #251, .F. ) ;
#237 = DIRECTION ( 'NONE',  ( -0.000000000000000000, 0.000000000000000000, 1.000000000000000000 ) ) ;
#238 = DIRECTION ( 'NONE',  ( -0.000000000000000000, 0.000000000000000000, 1.000000000000000000 ) ) ;
#239 = EDGE_CURVE ( 'NONE', #267, #176, #56, .T. ) ;
#240 = CARTESIAN_POINT ( 'NONE',  ( 0.000000000000000000, 0.000000000000000000, -0.5000000000000000000 ) ) ;
#241 = APPLICATION_PROTOCOL_DEFINITION ( 'draft international standard', 'automotive_design', 1998, #296 ) ;
#242 = FACE_OUTER_BOUND ( 'NONE', #26, .T. ) ;
#243 = PLANE ( 'NONE',  #272 ) ;
#244 = EDGE_LOOP ( 'NONE', ( #124, #80, #63, #169 ) ) ;
#245 = EDGE_LOOP ( 'NONE', ( #209, #50, #60, #164 ) ) ;
#246 = CIRCLE ( 'NONE', #48, 0.6300000000000001155 ) ;
#247 = ORIENTED_EDGE ( 'NONE', *, *, #136, .F. ) ;
#248 = EDGE_CURVE ( 'NONE', #172, #176, #43, .T. ) ;
#249 = DIRECTION ( 'NONE',  ( -0.000000000000000000, 0.000000000000000000, 1.000000000000000000 ) ) ;
#250 = DIRECTION ( 'NONE',  ( 1.000000000000000000, 0.000000000000000000, 0.000000000000000000 ) ) ;
#251 = EDGE_CURVE ( 'NONE', #176, #172, #89, .T. ) ;
#252 = AXIS2_PLACEMENT_3D ( 'NONE', #3, #189, #167 ) ;
#253 = DIRECTION ( 'NONE',  ( 1.000000000000000000, 0.000000000000000000, 0.000000000000000000 ) ) ;
#254 = DIRECTION ( 'NONE',  ( -0.000000000000000000, 0.000000000000000000, 1.000000000000000000 ) ) ;
#255 = AXIS2_PLACEMENT_3D ( 'NONE', #73, #264, #165 ) ;
#256 = ORIENTED_EDGE ( 'NONE', *, *, #248, .F. ) ;
#257 = CIRCLE ( 'NONE', #229, 0.6300000000000001155 ) ;
#258 = ORIENTED_EDGE ( 'NONE', *, *, #304, .T. ) ;
#259 = PRESENTATION_LAYER_ASSIGNMENT (  '', '', ( #275 ) ) ;
#260 = DIRECTION ( 'NONE',  ( 0.000000000000000000, -0.000000000000000000, -1.000000000000000000 ) ) ;
#261 = EDGE_CURVE ( 'NONE', #297, #122, #128, .T. ) ;
#262 = CARTESIAN_POINT ( 'NONE',  ( 0.000000000000000000, 0.000000000000000000, 0.000000000000000000 ) ) ;
#263 = CARTESIAN_POINT ( 'NONE',  ( 0.6300000000000001155, 7.715274834628326610E-17, 4.125000000000000000 ) ) ;
#264 = DIRECTION ( 'NONE',  ( 0.000000000000000000, -0.000000000000000000, -1.000000000000000000 ) ) ;
#265 = AXIS2_PLACEMENT_3D ( 'NONE', #42, #254, #44 ) ;
#266 = LINE ( 'NONE', #263, #170 ) ;
#267 = VERTEX_POINT ( 'NONE', #27 ) ;
#268 = ORIENTED_EDGE ( 'NONE', *, *, #308, .T. ) ;
#269 = ORIENTED_EDGE ( 'NONE', *, *, #239, .T. ) ;
#270 = SURFACE_SIDE_STYLE ('',( #175 ) ) ;
#271 = ORIENTED_EDGE ( 'NONE', *, *, #99, .T. ) ;
#272 = AXIS2_PLACEMENT_3D ( 'NONE', #9, #291, #144 ) ;
#273 = EDGE_CURVE ( 'NONE', #98, #174, #266, .T. ) ;
#274 = AXIS2_PLACEMENT_3D ( 'NONE', #97, #289, #93 ) ;
#275 = STYLED_ITEM ( 'NONE', ( #16 ), #294 ) ;
#276 = DIRECTION ( 'NONE',  ( -1.000000000000000000, 1.224646799147353947E-16, 0.000000000000000000 ) ) ;
#277 = FACE_OUTER_BOUND ( 'NONE', #295, .T. ) ;
#278 = ADVANCED_FACE ( 'NONE', ( #242 ), #184, .T. ) ;
#279 = DIRECTION ( 'NONE',  ( 1.000000000000000000, 0.000000000000000000, 0.000000000000000000 ) ) ;
#280 = VECTOR ( 'NONE', #120, 100.0000000000000000 ) ;
#281 =( NAMED_UNIT ( * ) PLANE_ANGLE_UNIT ( ) SI_UNIT ( $, .RADIAN. ) );
#282 = EDGE_LOOP ( 'NONE', ( #35, #271, #201, #28 ) ) ;
#283 = CARTESIAN_POINT ( 'NONE',  ( 1.004999999999999893, 0.000000000000000000, 0.000000000000000000 ) ) ;
#284 = DIRECTION ( 'NONE',  ( 1.000000000000000000, 0.000000000000000000, 0.000000000000000000 ) ) ;
#285 = AXIS2_PLACEMENT_3D ( 'NONE', #168, #117, #214 ) ;
#286 = CARTESIAN_POINT ( 'NONE',  ( 1.004999999999999893, 0.000000000000000000, -0.4375000000000000555 ) ) ;
#287 = LINE ( 'NONE', #218, #74 ) ;
#288 = DIRECTION ( 'NONE',  ( -0.000000000000000000, 0.000000000000000000, 1.000000000000000000 ) ) ;
#289 = DIRECTION ( 'NONE',  ( 1.224646799147353207E-16, 1.000000000000000000, 0.000000000000000000 ) ) ;
#290 = VERTEX_POINT ( 'NONE', #283 ) ;
#291 = DIRECTION ( 'NONE',  ( -0.000000000000000000, 0.000000000000000000, 1.000000000000000000 ) ) ;
#292 = ORIENTED_EDGE ( 'NONE', *, *, #132, .F. ) ;
#293 = TOROIDAL_SURFACE ( 'NONE', #85, 0.5675000000000001155, 0.06250000000000000000 ) ;
#294 = MANIFOLD_SOLID_BREP ( 'Fillet2', #17 ) ;
#295 = EDGE_LOOP ( 'NONE', ( #104, #258 ) ) ;
#296 = APPLICATION_CONTEXT ( 'automotive_design' ) ;
#297 = VERTEX_POINT ( 'NONE', #115 ) ;
#298 = EDGE_CURVE ( 'NONE', #98, #172, #155, .T. ) ;
#299 = DIRECTION ( 'NONE',  ( -0.000000000000000000, 0.000000000000000000, 1.000000000000000000 ) ) ;
#300 = AXIS2_PLACEMENT_3D ( 'NONE', #217, #237, #30 ) ;
#301 = CARTESIAN_POINT ( 'NONE',  ( 0.000000000000000000, 0.000000000000000000, -0.4375000000000000555 ) ) ;
#302 = DIRECTION ( 'NONE',  ( 0.000000000000000000, -1.000000000000000000, 0.000000000000000000 ) ) ;
#303 = PLANE ( 'NONE',  #123 ) ;
#304 = EDGE_CURVE ( 'NONE', #12, #297, #20, .T. ) ;
#305 = FACE_OUTER_BOUND ( 'NONE', #146, .T. ) ;
#306 = DIRECTION ( 'NONE',  ( -0.000000000000000000, 0.000000000000000000, 1.000000000000000000 ) ) ;
#307 = AXIS2_PLACEMENT_3D ( 'NONE', #193, #196, #213 ) ;
#308 = EDGE_CURVE ( 'NONE', #122, #290, #287, .T. ) ;
#309 = SHAPE_DEFINITION_REPRESENTATION ( #226, #130 ) ;
ENDSEC;
END-ISO-10303-21;
