ISO-10303-21;
HEADER;
FILE_DESCRIPTION (( 'STEP AP214' ),
    '1' );
FILE_NAME ('.5in 2.5cm x 2.STEP',
    '2026-08-28T18:57:14',
    ( '' ),
    ( '' ),
    'SwSTEP 2.0',
    'SolidWorks 2025',
    '' );
FILE_SCHEMA (( 'AUTOMOTIVE_DESIGN' ));
ENDSEC;

DATA;
#1 = FACE_OUTER_BOUND ( 'NONE', #6, .T. ) ;
#2 = CIRCLE ( 'NONE', #285, 1.130000000000000115 ) ;
#3 = DIRECTION ( 'NONE',  ( 0.000000000000000000, 0.000000000000000000, 1.000000000000000000 ) ) ;
#4 = EDGE_CURVE ( 'NONE', #61, #58, #130, .T. ) ;
#5 = DIRECTION ( 'NONE',  ( -0.000000000000000000, 0.000000000000000000, 1.000000000000000000 ) ) ;
#6 = EDGE_LOOP ( 'NONE', ( #162, #88, #156, #271 ) ) ;
#7 = AXIS2_PLACEMENT_3D ( 'NONE', #71, #176, #200 ) ;
#8 = DIRECTION ( 'NONE',  ( -0.000000000000000000, -0.000000000000000000, -1.000000000000000000 ) ) ;
#9 = EDGE_CURVE ( 'NONE', #114, #131, #168, .T. ) ;
#10 = ORIENTED_EDGE ( 'NONE', *, *, #306, .T. ) ;
#11 = DIRECTION ( 'NONE',  ( 1.000000000000000000, 0.000000000000000000, 0.000000000000000000 ) ) ;
#12 = ORIENTED_EDGE ( 'NONE', *, *, #182, .T. ) ;
#13 = DIRECTION ( 'NONE',  ( -0.000000000000000000, 0.000000000000000000, 1.000000000000000000 ) ) ;
#14 = ORIENTED_EDGE ( 'NONE', *, *, #202, .T. ) ;
#15 = TOROIDAL_SURFACE ( 'NONE', #199, 1.067500000000000115, 0.06250000000000000000 ) ;
#16 = FACE_BOUND ( 'NONE', #229, .T. ) ;
#17 = AXIS2_PLACEMENT_3D ( 'NONE', #41, #191, #118 ) ;
#18 = VERTEX_POINT ( 'NONE', #172 ) ;
#19 = CARTESIAN_POINT ( 'NONE',  ( 0.000000000000000000, 0.000000000000000000, 0.000000000000000000 ) ) ;
#20 = CARTESIAN_POINT ( 'NONE',  ( 0.000000000000000000, 0.000000000000000000, -0.5000000000000000000 ) ) ;
#21 = EDGE_CURVE ( 'NONE', #43, #34, #155, .T. ) ;
#22 = FACE_OUTER_BOUND ( 'NONE', #140, .T. ) ;
#23 = AXIS2_PLACEMENT_3D ( 'NONE', #37, #68, #166 ) ;
#24 = DIRECTION ( 'NONE',  ( 0.000000000000000000, 0.000000000000000000, 1.000000000000000000 ) ) ;
#25 = SHAPE_DEFINITION_REPRESENTATION ( #76, #42 ) ;
#26 = DIRECTION ( 'NONE',  ( 1.000000000000000000, 0.000000000000000000, 0.000000000000000000 ) ) ;
#27 = PRODUCT_DEFINITION ( 'UNKNOWN', '', #195, #154 ) ;
#28 = DIRECTION ( 'NONE',  ( 0.000000000000000000, -0.000000000000000000, -1.000000000000000000 ) ) ;
#29 = CIRCLE ( 'NONE', #246, 0.6300000000000001155 ) ;
#30 = AXIS2_PLACEMENT_3D ( 'NONE', #301, #5, #97 ) ;
#31 = VECTOR ( 'NONE', #3, 100.0000000000000000 ) ;
#32 = CIRCLE ( 'NONE', #299, 0.06249999999999997224 ) ;
#33 = ADVANCED_FACE ( 'NONE', ( #50 ), #15, .T. ) ;
#34 = VERTEX_POINT ( 'NONE', #74 ) ;
#35 = PRODUCT ( '.5in 2.5cm x 2', '.5in 2.5cm x 2', '', ( #173 ) ) ;
#36 = ORIENTED_EDGE ( 'NONE', *, *, #109, .T. ) ;
#37 = CARTESIAN_POINT ( 'NONE',  ( 0.5675000000000001155, 0.000000000000000000, 2.687500000000000000 ) ) ;
#38 = DIRECTION ( 'NONE',  ( -0.000000000000000000, 0.000000000000000000, 1.000000000000000000 ) ) ;
#39 = EDGE_CURVE ( 'NONE', #43, #61, #29, .T. ) ;
#40 = ORIENTED_EDGE ( 'NONE', *, *, #21, .F. ) ;
#41 = CARTESIAN_POINT ( 'NONE',  ( 0.000000000000000000, 0.000000000000000000, -0.4375000000000000555 ) ) ;
#42 = ADVANCED_BREP_SHAPE_REPRESENTATION ( '.5in 2.5cm x 2', ( #177, #7 ), #281 ) ;
#43 = VERTEX_POINT ( 'NONE', #194 ) ;
#44 = DIRECTION ( 'NONE',  ( 1.000000000000000000, 0.000000000000000000, 0.000000000000000000 ) ) ;
#45 = ORIENTED_EDGE ( 'NONE', *, *, #83, .F. ) ;
#46 = AXIS2_PLACEMENT_3D ( 'NONE', #244, #145, #26 ) ;
#47 = ADVANCED_FACE ( 'NONE', ( #1 ), #175, .T. ) ;
#48 = CARTESIAN_POINT ( 'NONE',  ( 0.000000000000000000, 0.000000000000000000, 2.687500000000000000 ) ) ;
#49 = ADVANCED_FACE ( 'NONE', ( #280 ), #153, .T. ) ;
#50 = FACE_OUTER_BOUND ( 'NONE', #297, .T. ) ;
#51 = DIRECTION ( 'NONE',  ( -0.000000000000000000, 0.000000000000000000, 1.000000000000000000 ) ) ;
#52 = CIRCLE ( 'NONE', #93, 0.6300000000000001155 ) ;
#53 = DIRECTION ( 'NONE',  ( 1.000000000000000000, 0.000000000000000000, 0.000000000000000000 ) ) ;
#54 = DIRECTION ( 'NONE',  ( 1.000000000000000000, 0.000000000000000000, 0.000000000000000000 ) ) ;
#55 = CARTESIAN_POINT ( 'NONE',  ( 0.000000000000000000, 0.000000000000000000, -0.5000000000000000000 ) ) ;
#56 = EDGE_CURVE ( 'NONE', #252, #66, #32, .T. ) ;
#57 = AXIS2_PLACEMENT_3D ( 'NONE', #261, #243, #240 ) ;
#58 = VERTEX_POINT ( 'NONE', #303 ) ;
#59 = CARTESIAN_POINT ( 'NONE',  ( 0.6300000000000001155, 7.715274834628326610E-17, 2.750000000000000000 ) ) ;
#60 = APPLICATION_CONTEXT ( 'automotive_design' ) ;
#61 = VERTEX_POINT ( 'NONE', #241 ) ;
#62 = CARTESIAN_POINT ( 'NONE',  ( 0.000000000000000000, 0.000000000000000000, 0.000000000000000000 ) ) ;
#63 = ADVANCED_FACE ( 'NONE', ( #219 ), #149, .T. ) ;
#64 = ORIENTED_EDGE ( 'NONE', *, *, #39, .F. ) ;
#65 = CARTESIAN_POINT ( 'NONE',  ( 1.067500000000000115, 0.000000000000000000, -0.5000000000000000000 ) ) ;
#66 = VERTEX_POINT ( 'NONE', #125 ) ;
#67 = DIRECTION ( 'NONE',  ( -0.000000000000000000, 0.000000000000000000, 1.000000000000000000 ) ) ;
#68 = DIRECTION ( 'NONE',  ( 0.000000000000000000, -1.000000000000000000, 0.000000000000000000 ) ) ;
#69 =( NAMED_UNIT ( * ) PLANE_ANGLE_UNIT ( ) SI_UNIT ( $, .RADIAN. ) );
#70 = CARTESIAN_POINT ( 'NONE',  ( 1.067500000000000115, 0.000000000000000000, -0.4375000000000000555 ) ) ;
#71 = CARTESIAN_POINT ( 'NONE',  ( 0.000000000000000000, 0.000000000000000000, 0.000000000000000000 ) ) ;
#72 = DIRECTION ( 'NONE',  ( -1.000000000000000000, 1.224646799147352468E-16, 0.000000000000000000 ) ) ;
#73 = EDGE_CURVE ( 'NONE', #18, #136, #134, .T. ) ;
#74 = CARTESIAN_POINT ( 'NONE',  ( -0.5675000000000001155, 7.332572709894779272E-17, 2.750000000000000000 ) ) ;
#75 = ADVANCED_FACE ( 'NONE', ( #22 ), #307, .F. ) ;
#76 = PRODUCT_DEFINITION_SHAPE ( 'NONE', 'NONE',  #27 ) ;
#77 = DIRECTION ( 'NONE',  ( 0.000000000000000000, -0.000000000000000000, -1.000000000000000000 ) ) ;
#78 = AXIS2_PLACEMENT_3D ( 'NONE', #287, #152, #178 ) ;
#79 = DIRECTION ( 'NONE',  ( 0.000000000000000000, -1.000000000000000000, 0.000000000000000000 ) ) ;
#80 =( NAMED_UNIT ( * ) PLANE_ANGLE_UNIT ( ) SI_UNIT ( $, .RADIAN. ) );
#81 = CARTESIAN_POINT ( 'NONE',  ( 1.130000000000000115, 0.000000000000000000, -0.5000000000000000000 ) ) ;
#82 = UNCERTAINTY_MEASURE_WITH_UNIT (LENGTH_MEASURE( 1.000000000000000082E-05 ), #99, 'distance_accuracy_value', 'NONE');
#83 = EDGE_CURVE ( 'NONE', #18, #252, #304, .T. ) ;
#84 = EDGE_CURVE ( 'NONE', #136, #186, #103, .T. ) ;
#85 = VECTOR ( 'NONE', #212, 100.0000000000000000 ) ;
#86 = ORIENTED_EDGE ( 'NONE', *, *, #21, .T. ) ;
#87 = DIRECTION ( 'NONE',  ( 1.000000000000000000, 0.000000000000000000, 0.000000000000000000 ) ) ;
#88 = ORIENTED_EDGE ( 'NONE', *, *, #179, .T. ) ;
#89 = CARTESIAN_POINT ( 'NONE',  ( 0.000000000000000000, 0.000000000000000000, -0.5000000000000000000 ) ) ;
#90 = ORIENTED_EDGE ( 'NONE', *, *, #4, .T. ) ;
#91 = ADVANCED_FACE ( 'NONE', ( #198 ), #282, .T. ) ;
#92 = PLANE ( 'NONE',  #106 ) ;
#93 = AXIS2_PLACEMENT_3D ( 'NONE', #197, #77, #128 ) ;
#94 = EDGE_LOOP ( 'NONE', ( #295, #157, #234, #255 ) ) ;
#95 = CARTESIAN_POINT ( 'NONE',  ( 0.000000000000000000, 0.000000000000000000, 2.750000000000000000 ) ) ;
#96 = ORIENTED_EDGE ( 'NONE', *, *, #110, .F. ) ;
#97 = DIRECTION ( 'NONE',  ( 1.000000000000000000, 0.000000000000000000, 0.000000000000000000 ) ) ;
#98 = DIRECTION ( 'NONE',  ( 0.000000000000000000, -0.000000000000000000, -1.000000000000000000 ) ) ;
#99 =( LENGTH_UNIT ( ) NAMED_UNIT ( * ) SI_UNIT ( .CENTI., .METRE. ) );
#100 = CARTESIAN_POINT ( 'NONE',  ( 0.000000000000000000, 0.000000000000000000, 0.000000000000000000 ) ) ;
#101 = AXIS2_PLACEMENT_3D ( 'NONE', #48, #127, #221 ) ;
#102 = CIRCLE ( 'NONE', #120, 1.130000000000000115 ) ;
#103 = LINE ( 'NONE', #174, #242 ) ;
#104 = DIRECTION ( 'NONE',  ( -1.000000000000000000, 0.000000000000000000, 0.000000000000000000 ) ) ;
#105 = CARTESIAN_POINT ( 'NONE',  ( 0.000000000000000000, 0.000000000000000000, -0.4375000000000000555 ) ) ;
#106 = AXIS2_PLACEMENT_3D ( 'NONE', #298, #233, #167 ) ;
#107 = CARTESIAN_POINT ( 'NONE',  ( 0.6300000000000001155, 7.715274834628326610E-17, 0.000000000000000000 ) ) ;
#108 = ADVANCED_FACE ( 'NONE', ( #124 ), #222, .T. ) ;
#109 = EDGE_CURVE ( 'NONE', #61, #43, #52, .T. ) ;
#110 = EDGE_CURVE ( 'NONE', #66, #293, #226, .T. ) ;
#111 = ORIENTED_EDGE ( 'NONE', *, *, #83, .T. ) ;
#112 = FACE_OUTER_BOUND ( 'NONE', #278, .T. ) ;
#113 = AXIS2_PLACEMENT_3D ( 'NONE', #272, #294, #165 ) ;
#114 = VERTEX_POINT ( 'NONE', #107 ) ;
#115 = ORIENTED_EDGE ( 'NONE', *, *, #227, .F. ) ;
#116 = FACE_OUTER_BOUND ( 'NONE', #276, .T. ) ;
#117 = ORIENTED_EDGE ( 'NONE', *, *, #56, .F. ) ;
#118 = DIRECTION ( 'NONE',  ( 1.000000000000000000, 0.000000000000000000, 0.000000000000000000 ) ) ;
#119 = CIRCLE ( 'NONE', #237, 1.067500000000000115 ) ;
#120 = AXIS2_PLACEMENT_3D ( 'NONE', #208, #13, #87 ) ;
#121 = ORIENTED_EDGE ( 'NONE', *, *, #110, .T. ) ;
#122 = FACE_OUTER_BOUND ( 'NONE', #290, .T. ) ;
#123 = DIRECTION ( 'NONE',  ( -0.000000000000000000, 0.000000000000000000, 1.000000000000000000 ) ) ;
#124 = FACE_OUTER_BOUND ( 'NONE', #256, .T. ) ;
#125 = CARTESIAN_POINT ( 'NONE',  ( 1.130000000000000115, 0.000000000000000000, -0.4375000000000000555 ) ) ;
#126 = DIRECTION ( 'NONE',  ( 1.000000000000000000, 0.000000000000000000, 0.000000000000000000 ) ) ;
#127 = DIRECTION ( 'NONE',  ( -0.000000000000000000, 0.000000000000000000, 1.000000000000000000 ) ) ;
#128 = DIRECTION ( 'NONE',  ( 1.000000000000000000, 0.000000000000000000, 0.000000000000000000 ) ) ;
#129 = AXIS2_PLACEMENT_3D ( 'NONE', #89, #292, #158 ) ;
#130 = CIRCLE ( 'NONE', #23, 0.06250000000000005551 ) ;
#131 = VERTEX_POINT ( 'NONE', #201 ) ;
#132 = CARTESIAN_POINT ( 'NONE',  ( -1.130000000000000115, 1.383850883036509265E-16, 0.000000000000000000 ) ) ;
#133 = EDGE_CURVE ( 'NONE', #136, #66, #213, .T. ) ;
#134 = CIRCLE ( 'NONE', #203, 0.06250000000000005551 ) ;
#135 = COLOUR_RGB ( '',0.7921568627450980005, 0.8196078431372548767, 0.9333333333333333481 ) ;
#136 = VERTEX_POINT ( 'NONE', #264 ) ;
#137 = DIRECTION ( 'NONE',  ( 1.000000000000000000, 0.000000000000000000, 0.000000000000000000 ) ) ;
#138 = EDGE_LOOP ( 'NONE', ( #215, #253, #239, #96 ) ) ;
#139 = SURFACE_STYLE_USAGE ( .BOTH. , #251 ) ;
#140 = EDGE_LOOP ( 'NONE', ( #211, #111 ) ) ;
#141 =( LENGTH_UNIT ( ) NAMED_UNIT ( * ) SI_UNIT ( .CENTI., .METRE. ) );
#142 = AXIS2_PLACEMENT_3D ( 'NONE', #245, #146, #259 ) ;
#143 = STYLED_ITEM ( 'NONE', ( #274 ), #177 ) ;
#144 = ORIENTED_EDGE ( 'NONE', *, *, #4, .F. ) ;
#145 = DIRECTION ( 'NONE',  ( -0.000000000000000000, 0.000000000000000000, 1.000000000000000000 ) ) ;
#146 = DIRECTION ( 'NONE',  ( 1.224646799147353207E-16, 1.000000000000000000, 0.000000000000000000 ) ) ;
#147 = EDGE_CURVE ( 'NONE', #252, #18, #119, .T. ) ;
#148 = DIRECTION ( 'NONE',  ( 1.000000000000000000, 0.000000000000000000, 0.000000000000000000 ) ) ;
#149 = TOROIDAL_SURFACE ( 'NONE', #265, 0.5675000000000001155, 0.06250000000000000000 ) ;
#150 = CARTESIAN_POINT ( 'NONE',  ( -1.067500000000000115, 1.307310458089799551E-16, -0.4375000000000000555 ) ) ;
#151 = CARTESIAN_POINT ( 'NONE',  ( 0.000000000000000000, 0.000000000000000000, 2.687500000000000000 ) ) ;
#152 = DIRECTION ( 'NONE',  ( -0.000000000000000000, 0.000000000000000000, 1.000000000000000000 ) ) ;
#153 = TOROIDAL_SURFACE ( 'NONE', #101, 0.5675000000000001155, 0.06250000000000000000 ) ;
#154 = PRODUCT_DEFINITION_CONTEXT ( 'detailed design', #60, 'design' ) ;
#155 = CIRCLE ( 'NONE', #142, 0.06249999999999997224 ) ;
#156 = ORIENTED_EDGE ( 'NONE', *, *, #9, .T. ) ;
#157 = ORIENTED_EDGE ( 'NONE', *, *, #147, .F. ) ;
#158 = DIRECTION ( 'NONE',  ( 1.000000000000000000, 0.000000000000000000, 0.000000000000000000 ) ) ;
#159 = ORIENTED_EDGE ( 'NONE', *, *, #9, .F. ) ;
#160 = FILL_AREA_STYLE_COLOUR ( '', #135 ) ;
#161 = ADVANCED_FACE ( 'NONE', ( #116 ), #187, .T. ) ;
#162 = ORIENTED_EDGE ( 'NONE', *, *, #39, .T. ) ;
#163 = FACE_OUTER_BOUND ( 'NONE', #94, .T. ) ;
#164 = ORIENTED_EDGE ( 'NONE', *, *, #247, .F. ) ;
#165 = DIRECTION ( 'NONE',  ( 1.000000000000000000, 0.000000000000000000, 0.000000000000000000 ) ) ;
#166 = DIRECTION ( 'NONE',  ( 0.000000000000000000, 0.000000000000000000, -1.000000000000000000 ) ) ;
#167 = DIRECTION ( 'NONE',  ( 1.000000000000000000, 0.000000000000000000, 0.000000000000000000 ) ) ;
#168 = CIRCLE ( 'NONE', #275, 0.6300000000000001155 ) ;
#169 = TOROIDAL_SURFACE ( 'NONE', #17, 1.067500000000000115, 0.06250000000000000000 ) ;
#170 = DIRECTION ( 'NONE',  ( -0.000000000000000000, 0.000000000000000000, 1.000000000000000000 ) ) ;
#171 = DIRECTION ( 'NONE',  ( 0.000000000000000000, 0.000000000000000000, -1.000000000000000000 ) ) ;
#172 = CARTESIAN_POINT ( 'NONE',  ( -1.067500000000000115, 1.345580670563154531E-16, -0.5000000000000000000 ) ) ;
#173 = PRODUCT_CONTEXT ( 'NONE', #180, 'mechanical' ) ;
#174 = CARTESIAN_POINT ( 'NONE',  ( -1.130000000000000115, 1.383850883036509265E-16, -0.5000000000000000000 ) ) ;
#175 = CYLINDRICAL_SURFACE ( 'NONE', #57, 0.6300000000000001155 ) ;
#176 = DIRECTION ( 'NONE',  ( 0.000000000000000000, 0.000000000000000000, 1.000000000000000000 ) ) ;
#177 = MANIFOLD_SOLID_BREP ( 'Fillet2', #289 ) ;
#178 = DIRECTION ( 'NONE',  ( 1.000000000000000000, 0.000000000000000000, 0.000000000000000000 ) ) ;
#179 = EDGE_CURVE ( 'NONE', #61, #114, #210, .T. ) ;
#180 = APPLICATION_CONTEXT ( 'automotive_design' ) ;
#181 = AXIS2_PLACEMENT_3D ( 'NONE', #277, #67, #44 ) ;
#182 = EDGE_CURVE ( 'NONE', #58, #34, #305, .T. ) ;
#183 = MECHANICAL_DESIGN_GEOMETRIC_PRESENTATION_REPRESENTATION (  '', ( #143 ), #258 ) ;
#184 = EDGE_LOOP ( 'NONE', ( #40, #209, #90, #164 ) ) ;
#185 = ORIENTED_EDGE ( 'NONE', *, *, #179, .F. ) ;
#186 = VERTEX_POINT ( 'NONE', #132 ) ;
#187 = CYLINDRICAL_SURFACE ( 'NONE', #129, 1.130000000000000115 ) ;
#188 = PRODUCT_RELATED_PRODUCT_CATEGORY ( 'part', '', ( #35 ) ) ;
#189 = AXIS2_PLACEMENT_3D ( 'NONE', #302, #308, #104 ) ;
#190 = ORIENTED_EDGE ( 'NONE', *, *, #228, .T. ) ;
#191 = DIRECTION ( 'NONE',  ( -0.000000000000000000, 0.000000000000000000, 1.000000000000000000 ) ) ;
#192 = ORIENTED_EDGE ( 'NONE', *, *, #247, .T. ) ;
#193 = CARTESIAN_POINT ( 'NONE',  ( 1.130000000000000115, 0.000000000000000000, 0.000000000000000000 ) ) ;
#194 = CARTESIAN_POINT ( 'NONE',  ( -0.6300000000000001155, 0.000000000000000000, 2.687500000000000000 ) ) ;
#195 = PRODUCT_DEFINITION_FORMATION_WITH_SPECIFIED_SOURCE ( 'ANY', '', #35, .NOT_KNOWN. ) ;
#196 = DIRECTION ( 'NONE',  ( 0.000000000000000000, 0.000000000000000000, 1.000000000000000000 ) ) ;
#197 = CARTESIAN_POINT ( 'NONE',  ( 0.000000000000000000, 0.000000000000000000, 2.687500000000000000 ) ) ;
#198 = FACE_OUTER_BOUND ( 'NONE', #138, .T. ) ;
#199 = AXIS2_PLACEMENT_3D ( 'NONE', #105, #123, #148 ) ;
#200 = DIRECTION ( 'NONE',  ( 1.000000000000000000, 0.000000000000000000, 0.000000000000000000 ) ) ;
#201 = CARTESIAN_POINT ( 'NONE',  ( -0.6300000000000001155, 0.000000000000000000, 0.000000000000000000 ) ) ;
#202 = EDGE_CURVE ( 'NONE', #43, #131, #230, .T. ) ;
#203 = AXIS2_PLACEMENT_3D ( 'NONE', #150, #260, #72 ) ;
#204 = ORIENTED_EDGE ( 'NONE', *, *, #84, .F. ) ;
#205 = SURFACE_STYLE_FILL_AREA ( #279 ) ;
#206 = CIRCLE ( 'NONE', #249, 1.130000000000000115 ) ;
#207 = ORIENTED_EDGE ( 'NONE', *, *, #267, .F. ) ;
#208 = CARTESIAN_POINT ( 'NONE',  ( 0.000000000000000000, 0.000000000000000000, -0.4375000000000000555 ) ) ;
#209 = ORIENTED_EDGE ( 'NONE', *, *, #109, .F. ) ;
#210 = LINE ( 'NONE', #59, #85 ) ;
#211 = ORIENTED_EDGE ( 'NONE', *, *, #147, .T. ) ;
#212 = DIRECTION ( 'NONE',  ( -0.000000000000000000, -0.000000000000000000, -1.000000000000000000 ) ) ;
#213 = CIRCLE ( 'NONE', #78, 1.130000000000000115 ) ;
#214 = AXIS2_PLACEMENT_3D ( 'NONE', #20, #24, #217 ) ;
#215 = ORIENTED_EDGE ( 'NONE', *, *, #227, .T. ) ;
#216 = PLANE ( 'NONE',  #30 ) ;
#217 = DIRECTION ( 'NONE',  ( 1.000000000000000000, 0.000000000000000000, 0.000000000000000000 ) ) ;
#218 = DIRECTION ( 'NONE',  ( 1.000000000000000000, 0.000000000000000000, 0.000000000000000000 ) ) ;
#219 = FACE_OUTER_BOUND ( 'NONE', #300, .T. ) ;
#220 = ADVANCED_FACE ( 'NONE', ( #112 ), #92, .T. ) ;
#221 = DIRECTION ( 'NONE',  ( 1.000000000000000000, 0.000000000000000000, 0.000000000000000000 ) ) ;
#222 = CYLINDRICAL_SURFACE ( 'NONE', #189, 0.6300000000000001155 ) ;
#223 = APPLICATION_PROTOCOL_DEFINITION ( 'draft international standard', 'automotive_design', 1998, #180 ) ;
#224 = CARTESIAN_POINT ( 'NONE',  ( 0.000000000000000000, 0.000000000000000000, 2.687500000000000000 ) ) ;
#225 = UNCERTAINTY_MEASURE_WITH_UNIT (LENGTH_MEASURE( 1.000000000000000082E-05 ), #141, 'distance_accuracy_value', 'NONE');
#226 = LINE ( 'NONE', #81, #31 ) ;
#227 = EDGE_CURVE ( 'NONE', #66, #136, #102, .T. ) ;
#228 = EDGE_CURVE ( 'NONE', #293, #186, #2, .T. ) ;
#229 = EDGE_LOOP ( 'NONE', ( #207, #159 ) ) ;
#230 = LINE ( 'NONE', #270, #266 ) ;
#231 = CIRCLE ( 'NONE', #181, 0.6300000000000001155 ) ;
#232 = ORIENTED_EDGE ( 'NONE', *, *, #267, .T. ) ;
#233 = DIRECTION ( 'NONE',  ( -0.000000000000000000, 0.000000000000000000, 1.000000000000000000 ) ) ;
#234 = ORIENTED_EDGE ( 'NONE', *, *, #56, .T. ) ;
#235 = ORIENTED_EDGE ( 'NONE', *, *, #182, .F. ) ;
#236 =( NAMED_UNIT ( * ) SI_UNIT ( $, .STERADIAN. ) SOLID_ANGLE_UNIT ( ) );
#237 = AXIS2_PLACEMENT_3D ( 'NONE', #55, #28, #11 ) ;
#238 = PRESENTATION_LAYER_ASSIGNMENT (  '', '', ( #143 ) ) ;
#239 = ORIENTED_EDGE ( 'NONE', *, *, #228, .F. ) ;
#240 = DIRECTION ( 'NONE',  ( -1.000000000000000000, 0.000000000000000000, 0.000000000000000000 ) ) ;
#241 = CARTESIAN_POINT ( 'NONE',  ( 0.6300000000000001155, 7.715274834628326610E-17, 2.687500000000000000 ) ) ;
#242 = VECTOR ( 'NONE', #196, 100.0000000000000000 ) ;
#243 = DIRECTION ( 'NONE',  ( -0.000000000000000000, -0.000000000000000000, -1.000000000000000000 ) ) ;
#244 = CARTESIAN_POINT ( 'NONE',  ( 0.000000000000000000, 0.000000000000000000, -0.5000000000000000000 ) ) ;
#245 = CARTESIAN_POINT ( 'NONE',  ( -0.5675000000000001155, 6.949870585161230702E-17, 2.687500000000000000 ) ) ;
#246 = AXIS2_PLACEMENT_3D ( 'NONE', #151, #98, #286 ) ;
#247 = EDGE_CURVE ( 'NONE', #34, #58, #291, .T. ) ;
#248 = AXIS2_PLACEMENT_3D ( 'NONE', #283, #263, #54 ) ;
#249 = AXIS2_PLACEMENT_3D ( 'NONE', #19, #51, #218 ) ;
#250 = ORIENTED_EDGE ( 'NONE', *, *, #73, .T. ) ;
#251 = SURFACE_SIDE_STYLE ('',( #205 ) ) ;
#252 = VERTEX_POINT ( 'NONE', #65 ) ;
#253 = ORIENTED_EDGE ( 'NONE', *, *, #84, .T. ) ;
#254 = ADVANCED_FACE ( 'NONE', ( #163 ), #169, .T. ) ;
#255 = ORIENTED_EDGE ( 'NONE', *, *, #133, .F. ) ;
#256 = EDGE_LOOP ( 'NONE', ( #185, #36, #14, #232 ) ) ;
#257 = DIRECTION ( 'NONE',  ( 1.000000000000000000, 0.000000000000000000, 0.000000000000000000 ) ) ;
#258 =( GEOMETRIC_REPRESENTATION_CONTEXT ( 3 ) GLOBAL_UNCERTAINTY_ASSIGNED_CONTEXT ( ( #225 ) ) GLOBAL_UNIT_ASSIGNED_CONTEXT ( ( #141, #69, #236 ) ) REPRESENTATION_CONTEXT ( 'NONE', 'WORKASPACE' ) );
#259 = DIRECTION ( 'NONE',  ( -1.000000000000000000, 1.224646799147353947E-16, 0.000000000000000000 ) ) ;
#260 = DIRECTION ( 'NONE',  ( 1.224646799147353207E-16, 1.000000000000000000, 0.000000000000000000 ) ) ;
#261 = CARTESIAN_POINT ( 'NONE',  ( 0.000000000000000000, 0.000000000000000000, 2.750000000000000000 ) ) ;
#262 = DIRECTION ( 'NONE',  ( -0.000000000000000000, 0.000000000000000000, 1.000000000000000000 ) ) ;
#263 = DIRECTION ( 'NONE',  ( 0.000000000000000000, -0.000000000000000000, -1.000000000000000000 ) ) ;
#264 = CARTESIAN_POINT ( 'NONE',  ( -1.130000000000000115, 1.383850883036509265E-16, -0.4375000000000000555 ) ) ;
#265 = AXIS2_PLACEMENT_3D ( 'NONE', #224, #170, #126 ) ;
#266 = VECTOR ( 'NONE', #8, 100.0000000000000000 ) ;
#267 = EDGE_CURVE ( 'NONE', #131, #114, #231, .T. ) ;
#268 = AXIS2_PLACEMENT_3D ( 'NONE', #95, #296, #257 ) ;
#269 = ORIENTED_EDGE ( 'NONE', *, *, #133, .T. ) ;
#270 = CARTESIAN_POINT ( 'NONE',  ( -0.6300000000000001155, 0.000000000000000000, 2.750000000000000000 ) ) ;
#271 = ORIENTED_EDGE ( 'NONE', *, *, #202, .F. ) ;
#272 = CARTESIAN_POINT ( 'NONE',  ( 0.000000000000000000, 0.000000000000000000, 2.750000000000000000 ) ) ;
#273 = ORIENTED_EDGE ( 'NONE', *, *, #306, .F. ) ;
#274 = PRESENTATION_STYLE_ASSIGNMENT (( #139 ) ) ;
#275 = AXIS2_PLACEMENT_3D ( 'NONE', #100, #262, #53 ) ;
#276 = EDGE_LOOP ( 'NONE', ( #204, #269, #121, #273 ) ) ;
#277 = CARTESIAN_POINT ( 'NONE',  ( 0.000000000000000000, 0.000000000000000000, 0.000000000000000000 ) ) ;
#278 = EDGE_LOOP ( 'NONE', ( #12, #192 ) ) ;
#279 = FILL_AREA_STYLE ('',( #160 ) ) ;
#280 = FACE_OUTER_BOUND ( 'NONE', #184, .T. ) ;
#281 =( GEOMETRIC_REPRESENTATION_CONTEXT ( 3 ) GLOBAL_UNCERTAINTY_ASSIGNED_CONTEXT ( ( #82 ) ) GLOBAL_UNIT_ASSIGNED_CONTEXT ( ( #99, #80, #309 ) ) REPRESENTATION_CONTEXT ( 'NONE', 'WORKASPACE' ) );
#282 = CYLINDRICAL_SURFACE ( 'NONE', #214, 1.130000000000000115 ) ;
#283 = CARTESIAN_POINT ( 'NONE',  ( 0.000000000000000000, 0.000000000000000000, -0.5000000000000000000 ) ) ;
#284 = APPLICATION_PROTOCOL_DEFINITION ( 'draft international standard', 'automotive_design', 1998, #60 ) ;
#285 = AXIS2_PLACEMENT_3D ( 'NONE', #62, #38, #137 ) ;
#286 = DIRECTION ( 'NONE',  ( 1.000000000000000000, 0.000000000000000000, 0.000000000000000000 ) ) ;
#287 = CARTESIAN_POINT ( 'NONE',  ( 0.000000000000000000, 0.000000000000000000, -0.4375000000000000555 ) ) ;
#288 = ADVANCED_FACE ( 'NONE', ( #16, #122 ), #216, .T. ) ;
#289 = CLOSED_SHELL ( 'NONE', ( #33, #63, #91, #47, #108, #220, #161, #75, #288, #49, #254 ) ) ;
#290 = EDGE_LOOP ( 'NONE', ( #190, #10 ) ) ;
#291 = CIRCLE ( 'NONE', #268, 0.5675000000000001155 ) ;
#292 = DIRECTION ( 'NONE',  ( 0.000000000000000000, 0.000000000000000000, 1.000000000000000000 ) ) ;
#293 = VERTEX_POINT ( 'NONE', #193 ) ;
#294 = DIRECTION ( 'NONE',  ( -0.000000000000000000, 0.000000000000000000, 1.000000000000000000 ) ) ;
#295 = ORIENTED_EDGE ( 'NONE', *, *, #73, .F. ) ;
#296 = DIRECTION ( 'NONE',  ( -0.000000000000000000, 0.000000000000000000, 1.000000000000000000 ) ) ;
#297 = EDGE_LOOP ( 'NONE', ( #45, #250, #115, #117 ) ) ;
#298 = CARTESIAN_POINT ( 'NONE',  ( 0.000000000000000000, 0.000000000000000000, 2.750000000000000000 ) ) ;
#299 = AXIS2_PLACEMENT_3D ( 'NONE', #70, #79, #171 ) ;
#300 = EDGE_LOOP ( 'NONE', ( #64, #86, #235, #144 ) ) ;
#301 = CARTESIAN_POINT ( 'NONE',  ( 0.000000000000000000, 0.000000000000000000, 0.000000000000000000 ) ) ;
#302 = CARTESIAN_POINT ( 'NONE',  ( 0.000000000000000000, 0.000000000000000000, 2.750000000000000000 ) ) ;
#303 = CARTESIAN_POINT ( 'NONE',  ( 0.5675000000000001155, 0.000000000000000000, 2.750000000000000000 ) ) ;
#304 = CIRCLE ( 'NONE', #248, 1.067500000000000115 ) ;
#305 = CIRCLE ( 'NONE', #113, 0.5675000000000001155 ) ;
#306 = EDGE_CURVE ( 'NONE', #186, #293, #206, .T. ) ;
#307 = PLANE ( 'NONE',  #46 ) ;
#308 = DIRECTION ( 'NONE',  ( -0.000000000000000000, -0.000000000000000000, -1.000000000000000000 ) ) ;
#309 =( NAMED_UNIT ( * ) SI_UNIT ( $, .STERADIAN. ) SOLID_ANGLE_UNIT ( ) );
ENDSEC;
END-ISO-10303-21;
