ISO-10303-21;
HEADER;
FILE_DESCRIPTION (( 'STEP AP214' ),
    '1' );
FILE_NAME ('.5in .125cm spacer.STEP',
    '2026-08-28T18:56:45',
    ( '' ),
    ( '' ),
    'SwSTEP 2.0',
    'SolidWorks 2025',
    '' );
FILE_SCHEMA (( 'AUTOMOTIVE_DESIGN' ));
ENDSEC;

DATA;
#1 = VERTEX_POINT ( 'NONE', #149 ) ;
#2 = CIRCLE ( 'NONE', #150, 0.6350000000000000089 ) ;
#3 = PRODUCT_DEFINITION_SHAPE ( 'NONE', 'NONE',  #60 ) ;
#4 = DIRECTION ( 'NONE',  ( -1.000000000000000000, 0.000000000000000000, 0.000000000000000000 ) ) ;
#5 = VERTEX_POINT ( 'NONE', #98 ) ;
#6 = ORIENTED_EDGE ( 'NONE', *, *, #21, .F. ) ;
#7 = MECHANICAL_DESIGN_GEOMETRIC_PRESENTATION_REPRESENTATION (  '', ( #74 ), #142 ) ;
#8 = DIRECTION ( 'NONE',  ( 1.000000000000000000, 0.000000000000000000, 0.000000000000000000 ) ) ;
#9 = EDGE_CURVE ( 'NONE', #89, #123, #126, .T. ) ;
#10 = APPLICATION_CONTEXT ( 'automotive_design' ) ;
#11 = EDGE_CURVE ( 'NONE', #1, #69, #2, .T. ) ;
#12 = DIRECTION ( 'NONE',  ( 0.000000000000000000, 0.000000000000000000, 1.000000000000000000 ) ) ;
#13 = ORIENTED_EDGE ( 'NONE', *, *, #135, .T. ) ;
#14 = SURFACE_SIDE_STYLE ('',( #32 ) ) ;
#15 = ORIENTED_EDGE ( 'NONE', *, *, #11, .T. ) ;
#16 = ADVANCED_BREP_SHAPE_REPRESENTATION ( '.5in .125cm spacer', ( #180, #23 ), #114 ) ;
#17 = PRESENTATION_STYLE_ASSIGNMENT (( #157 ) ) ;
#18 = CARTESIAN_POINT ( 'NONE',  ( 0.000000000000000000, 0.000000000000000000, 0.1250000000000000000 ) ) ;
#19 = LINE ( 'NONE', #40, #147 ) ;
#20 = PRODUCT ( '.5in .125cm spacer', '.5in .125cm spacer', '', ( #145 ) ) ;
#21 = EDGE_CURVE ( 'NONE', #1, #31, #19, .T. ) ;
#22 = PLANE ( 'NONE',  #51 ) ;
#23 = AXIS2_PLACEMENT_3D ( 'NONE', #176, #103, #101 ) ;
#24 = ADVANCED_FACE ( 'NONE', ( #146 ), #75, .F. ) ;
#25 = PRODUCT_DEFINITION_FORMATION_WITH_SPECIFIED_SOURCE ( 'ANY', '', #20, .NOT_KNOWN. ) ;
#26 = COLOUR_RGB ( '',0.7921568627450980005, 0.8196078431372548767, 0.9333333333333333481 ) ;
#27 = CARTESIAN_POINT ( 'NONE',  ( 0.000000000000000000, 0.000000000000000000, 0.000000000000000000 ) ) ;
#28 = EDGE_LOOP ( 'NONE', ( #96, #141 ) ) ;
#29 = DIRECTION ( 'NONE',  ( 0.000000000000000000, 0.000000000000000000, 1.000000000000000000 ) ) ;
#30 = UNCERTAINTY_MEASURE_WITH_UNIT (LENGTH_MEASURE( 1.000000000000000082E-05 ), #41, 'distance_accuracy_value', 'NONE');
#31 = VERTEX_POINT ( 'NONE', #192 ) ;
#32 = SURFACE_STYLE_FILL_AREA ( #36 ) ;
#33 = CLOSED_SHELL ( 'NONE', ( #82, #118, #72, #166, #138, #24 ) ) ;
#34 = DIRECTION ( 'NONE',  ( -1.000000000000000000, 0.000000000000000000, 0.000000000000000000 ) ) ;
#35 = ORIENTED_EDGE ( 'NONE', *, *, #189, .T. ) ;
#36 = FILL_AREA_STYLE ('',( #170 ) ) ;
#37 = ORIENTED_EDGE ( 'NONE', *, *, #9, .F. ) ;
#38 = CARTESIAN_POINT ( 'NONE',  ( 0.6350000000000000089, 7.776507174585692903E-17, 0.1250000000000000000 ) ) ;
#39 = AXIS2_PLACEMENT_3D ( 'NONE', #152, #131, #8 ) ;
#40 = CARTESIAN_POINT ( 'NONE',  ( -0.6350000000000000089, 0.000000000000000000, 0.1250000000000000000 ) ) ;
#41 =( LENGTH_UNIT ( ) NAMED_UNIT ( * ) SI_UNIT ( .CENTI., .METRE. ) );
#42 = EDGE_LOOP ( 'NONE', ( #15, #57, #163, #6 ) ) ;
#43 = LINE ( 'NONE', #38, #193 ) ;
#44 = LINE ( 'NONE', #113, #124 ) ;
#45 = CIRCLE ( 'NONE', #76, 1.134999999999999787 ) ;
#46 = APPLICATION_CONTEXT ( 'automotive_design' ) ;
#47 = CARTESIAN_POINT ( 'NONE',  ( 0.000000000000000000, 0.000000000000000000, 0.000000000000000000 ) ) ;
#48 = FACE_OUTER_BOUND ( 'NONE', #109, .T. ) ;
#49 = ORIENTED_EDGE ( 'NONE', *, *, #133, .F. ) ;
#50 = DIRECTION ( 'NONE',  ( 0.000000000000000000, 0.000000000000000000, 1.000000000000000000 ) ) ;
#51 = AXIS2_PLACEMENT_3D ( 'NONE', #91, #12, #65 ) ;
#52 = DIRECTION ( 'NONE',  ( 0.000000000000000000, 0.000000000000000000, 1.000000000000000000 ) ) ;
#53 = DIRECTION ( 'NONE',  ( 1.000000000000000000, 0.000000000000000000, 0.000000000000000000 ) ) ;
#54 = CARTESIAN_POINT ( 'NONE',  ( 1.134999999999999787, 1.389974117032245894E-16, 0.1250000000000000000 ) ) ;
#55 = CARTESIAN_POINT ( 'NONE',  ( 0.000000000000000000, 0.000000000000000000, 0.1250000000000000000 ) ) ;
#56 = EDGE_CURVE ( 'NONE', #69, #1, #154, .T. ) ;
#57 = ORIENTED_EDGE ( 'NONE', *, *, #194, .T. ) ;
#58 = CIRCLE ( 'NONE', #39, 1.134999999999999787 ) ;
#59 = AXIS2_PLACEMENT_3D ( 'NONE', #140, #95, #4 ) ;
#60 = PRODUCT_DEFINITION ( 'UNKNOWN', '', #25, #63 ) ;
#61 = ORIENTED_EDGE ( 'NONE', *, *, #151, .F. ) ;
#62 = FACE_OUTER_BOUND ( 'NONE', #42, .T. ) ;
#63 = PRODUCT_DEFINITION_CONTEXT ( 'detailed design', #10, 'design' ) ;
#64 = DIRECTION ( 'NONE',  ( 1.000000000000000000, 0.000000000000000000, 0.000000000000000000 ) ) ;
#65 = DIRECTION ( 'NONE',  ( 1.000000000000000000, 0.000000000000000000, -0.000000000000000000 ) ) ;
#66 = EDGE_CURVE ( 'NONE', #198, #5, #44, .T. ) ;
#67 = CARTESIAN_POINT ( 'NONE',  ( 0.000000000000000000, 0.000000000000000000, 0.1250000000000000000 ) ) ;
#68 = AXIS2_PLACEMENT_3D ( 'NONE', #55, #175, #132 ) ;
#69 = VERTEX_POINT ( 'NONE', #112 ) ;
#70 = PLANE ( 'NONE',  #99 ) ;
#71 = EDGE_LOOP ( 'NONE', ( #121, #172 ) ) ;
#72 = ADVANCED_FACE ( 'NONE', ( #161, #164 ), #22, .T. ) ;
#73 =( NAMED_UNIT ( * ) PLANE_ANGLE_UNIT ( ) SI_UNIT ( $, .RADIAN. ) );
#74 = STYLED_ITEM ( 'NONE', ( #17 ), #180 ) ;
#75 = CYLINDRICAL_SURFACE ( 'NONE', #68, 0.6350000000000000089 ) ;
#76 = AXIS2_PLACEMENT_3D ( 'NONE', #125, #83, #64 ) ;
#77 = UNCERTAINTY_MEASURE_WITH_UNIT (LENGTH_MEASURE( 1.000000000000000082E-05 ), #127, 'distance_accuracy_value', 'NONE');
#78 = CYLINDRICAL_SURFACE ( 'NONE', #59, 0.6350000000000000089 ) ;
#79 = DIRECTION ( 'NONE',  ( 1.000000000000000000, 0.000000000000000000, 0.000000000000000000 ) ) ;
#80 = EDGE_LOOP ( 'NONE', ( #102, #191 ) ) ;
#81 = DIRECTION ( 'NONE',  ( 0.000000000000000000, 0.000000000000000000, 1.000000000000000000 ) ) ;
#82 = ADVANCED_FACE ( 'NONE', ( #62 ), #78, .F. ) ;
#83 = DIRECTION ( 'NONE',  ( 0.000000000000000000, 0.000000000000000000, 1.000000000000000000 ) ) ;
#84 = VECTOR ( 'NONE', #188, 100.0000000000000000 ) ;
#85 = DIRECTION ( 'NONE',  ( 0.000000000000000000, 0.000000000000000000, 1.000000000000000000 ) ) ;
#86 = CARTESIAN_POINT ( 'NONE',  ( 0.6350000000000000089, 7.776507174585692903E-17, 0.000000000000000000 ) ) ;
#87 = CARTESIAN_POINT ( 'NONE',  ( 0.000000000000000000, 0.000000000000000000, 0.1250000000000000000 ) ) ;
#88 = APPLICATION_PROTOCOL_DEFINITION ( 'draft international standard', 'automotive_design', 1998, #10 ) ;
#89 = VERTEX_POINT ( 'NONE', #139 ) ;
#90 = PRESENTATION_LAYER_ASSIGNMENT (  '', '', ( #74 ) ) ;
#91 = CARTESIAN_POINT ( 'NONE',  ( 0.000000000000000000, 0.000000000000000000, 0.1250000000000000000 ) ) ;
#92 = AXIS2_PLACEMENT_3D ( 'NONE', #67, #143, #120 ) ;
#93 = DIRECTION ( 'NONE',  ( 1.000000000000000000, 0.000000000000000000, -0.000000000000000000 ) ) ;
#94 = AXIS2_PLACEMENT_3D ( 'NONE', #169, #29, #79 ) ;
#95 = DIRECTION ( 'NONE',  ( -0.000000000000000000, -0.000000000000000000, -1.000000000000000000 ) ) ;
#96 = ORIENTED_EDGE ( 'NONE', *, *, #11, .F. ) ;
#97 = CARTESIAN_POINT ( 'NONE',  ( -1.134999999999999787, 0.000000000000000000, 0.000000000000000000 ) ) ;
#98 = CARTESIAN_POINT ( 'NONE',  ( 1.134999999999999787, 1.389974117032245894E-16, 0.000000000000000000 ) ) ;
#99 = AXIS2_PLACEMENT_3D ( 'NONE', #27, #155, #93 ) ;
#100 = DIRECTION ( 'NONE',  ( -0.000000000000000000, -0.000000000000000000, -1.000000000000000000 ) ) ;
#101 = DIRECTION ( 'NONE',  ( 1.000000000000000000, 0.000000000000000000, 0.000000000000000000 ) ) ;
#102 = ORIENTED_EDGE ( 'NONE', *, *, #135, .F. ) ;
#103 = DIRECTION ( 'NONE',  ( 0.000000000000000000, 0.000000000000000000, 1.000000000000000000 ) ) ;
#104 = ORIENTED_EDGE ( 'NONE', *, *, #116, .T. ) ;
#105 = SHAPE_DEFINITION_REPRESENTATION ( #3, #16 ) ;
#106 = ORIENTED_EDGE ( 'NONE', *, *, #66, .T. ) ;
#107 = DIRECTION ( 'NONE',  ( 1.000000000000000000, 0.000000000000000000, 0.000000000000000000 ) ) ;
#108 = DIRECTION ( 'NONE',  ( -0.000000000000000000, -0.000000000000000000, -1.000000000000000000 ) ) ;
#109 = EDGE_LOOP ( 'NONE', ( #49, #106, #35, #37 ) ) ;
#110 = EDGE_LOOP ( 'NONE', ( #137, #185, #129, #177 ) ) ;
#111 = FACE_OUTER_BOUND ( 'NONE', #80, .T. ) ;
#112 = CARTESIAN_POINT ( 'NONE',  ( 0.6350000000000000089, 7.776507174585692903E-17, 0.1250000000000000000 ) ) ;
#113 = CARTESIAN_POINT ( 'NONE',  ( 1.134999999999999787, 1.389974117032245894E-16, 0.1250000000000000000 ) ) ;
#114 =( GEOMETRIC_REPRESENTATION_CONTEXT ( 3 ) GLOBAL_UNCERTAINTY_ASSIGNED_CONTEXT ( ( #30 ) ) GLOBAL_UNIT_ASSIGNED_CONTEXT ( ( #41, #73, #134 ) ) REPRESENTATION_CONTEXT ( 'NONE', 'WORKASPACE' ) );
#115 = DIRECTION ( 'NONE',  ( 0.000000000000000000, 0.000000000000000000, 1.000000000000000000 ) ) ;
#116 = EDGE_CURVE ( 'NONE', #31, #183, #159, .T. ) ;
#117 = CIRCLE ( 'NONE', #171, 0.6350000000000000089 ) ;
#118 = ADVANCED_FACE ( 'NONE', ( #48 ), #199, .T. ) ;
#119 = AXIS2_PLACEMENT_3D ( 'NONE', #18, #85, #178 ) ;
#120 = DIRECTION ( 'NONE',  ( -1.000000000000000000, 0.000000000000000000, 0.000000000000000000 ) ) ;
#121 = ORIENTED_EDGE ( 'NONE', *, *, #151, .T. ) ;
#122 = CARTESIAN_POINT ( 'NONE',  ( 0.000000000000000000, 0.000000000000000000, 0.1250000000000000000 ) ) ;
#123 = VERTEX_POINT ( 'NONE', #97 ) ;
#124 = VECTOR ( 'NONE', #100, 100.0000000000000000 ) ;
#125 = CARTESIAN_POINT ( 'NONE',  ( 0.000000000000000000, 0.000000000000000000, 0.000000000000000000 ) ) ;
#126 = LINE ( 'NONE', #144, #84 ) ;
#127 =( LENGTH_UNIT ( ) NAMED_UNIT ( * ) SI_UNIT ( .CENTI., .METRE. ) );
#128 =( NAMED_UNIT ( * ) PLANE_ANGLE_UNIT ( ) SI_UNIT ( $, .RADIAN. ) );
#129 = ORIENTED_EDGE ( 'NONE', *, *, #21, .T. ) ;
#130 = AXIS2_PLACEMENT_3D ( 'NONE', #47, #81, #182 ) ;
#131 = DIRECTION ( 'NONE',  ( 0.000000000000000000, 0.000000000000000000, 1.000000000000000000 ) ) ;
#132 = DIRECTION ( 'NONE',  ( -1.000000000000000000, 0.000000000000000000, 0.000000000000000000 ) ) ;
#133 = EDGE_CURVE ( 'NONE', #198, #89, #165, .T. ) ;
#134 =( NAMED_UNIT ( * ) SI_UNIT ( $, .STERADIAN. ) SOLID_ANGLE_UNIT ( ) );
#135 = EDGE_CURVE ( 'NONE', #123, #5, #45, .T. ) ;
#136 = AXIS2_PLACEMENT_3D ( 'NONE', #187, #52, #107 ) ;
#137 = ORIENTED_EDGE ( 'NONE', *, *, #194, .F. ) ;
#138 = ADVANCED_FACE ( 'NONE', ( #186 ), #196, .T. ) ;
#139 = CARTESIAN_POINT ( 'NONE',  ( -1.134999999999999787, 0.000000000000000000, 0.1250000000000000000 ) ) ;
#140 = CARTESIAN_POINT ( 'NONE',  ( 0.000000000000000000, 0.000000000000000000, 0.1250000000000000000 ) ) ;
#141 = ORIENTED_EDGE ( 'NONE', *, *, #56, .F. ) ;
#142 =( GEOMETRIC_REPRESENTATION_CONTEXT ( 3 ) GLOBAL_UNCERTAINTY_ASSIGNED_CONTEXT ( ( #77 ) ) GLOBAL_UNIT_ASSIGNED_CONTEXT ( ( #127, #128, #160 ) ) REPRESENTATION_CONTEXT ( 'NONE', 'WORKASPACE' ) );
#143 = DIRECTION ( 'NONE',  ( -0.000000000000000000, -0.000000000000000000, -1.000000000000000000 ) ) ;
#144 = CARTESIAN_POINT ( 'NONE',  ( -1.134999999999999787, 0.000000000000000000, 0.1250000000000000000 ) ) ;
#145 = PRODUCT_CONTEXT ( 'NONE', #46, 'mechanical' ) ;
#146 = FACE_OUTER_BOUND ( 'NONE', #110, .T. ) ;
#147 = VECTOR ( 'NONE', #158, 100.0000000000000000 ) ;
#148 = DIRECTION ( 'NONE',  ( -0.000000000000000000, -0.000000000000000000, -1.000000000000000000 ) ) ;
#149 = CARTESIAN_POINT ( 'NONE',  ( -0.6350000000000000089, 0.000000000000000000, 0.1250000000000000000 ) ) ;
#150 = AXIS2_PLACEMENT_3D ( 'NONE', #87, #115, #53 ) ;
#151 = EDGE_CURVE ( 'NONE', #89, #198, #181, .T. ) ;
#152 = CARTESIAN_POINT ( 'NONE',  ( 0.000000000000000000, 0.000000000000000000, 0.000000000000000000 ) ) ;
#153 = ORIENTED_EDGE ( 'NONE', *, *, #167, .T. ) ;
#154 = CIRCLE ( 'NONE', #119, 0.6350000000000000089 ) ;
#155 = DIRECTION ( 'NONE',  ( 0.000000000000000000, 0.000000000000000000, 1.000000000000000000 ) ) ;
#156 = EDGE_LOOP ( 'NONE', ( #190, #61, #195, #13 ) ) ;
#157 = SURFACE_STYLE_USAGE ( .BOTH. , #14 ) ;
#158 = DIRECTION ( 'NONE',  ( -0.000000000000000000, -0.000000000000000000, -1.000000000000000000 ) ) ;
#159 = CIRCLE ( 'NONE', #130, 0.6350000000000000089 ) ;
#160 =( NAMED_UNIT ( * ) SI_UNIT ( $, .STERADIAN. ) SOLID_ANGLE_UNIT ( ) );
#161 = FACE_OUTER_BOUND ( 'NONE', #71, .T. ) ;
#162 = APPLICATION_PROTOCOL_DEFINITION ( 'draft international standard', 'automotive_design', 1998, #46 ) ;
#163 = ORIENTED_EDGE ( 'NONE', *, *, #116, .F. ) ;
#164 = FACE_BOUND ( 'NONE', #28, .T. ) ;
#165 = CIRCLE ( 'NONE', #94, 1.134999999999999787 ) ;
#166 = ADVANCED_FACE ( 'NONE', ( #111, #173 ), #70, .F. ) ;
#167 = EDGE_CURVE ( 'NONE', #183, #31, #117, .T. ) ;
#168 = CARTESIAN_POINT ( 'NONE',  ( 0.000000000000000000, 0.000000000000000000, 0.000000000000000000 ) ) ;
#169 = CARTESIAN_POINT ( 'NONE',  ( 0.000000000000000000, 0.000000000000000000, 0.1250000000000000000 ) ) ;
#170 = FILL_AREA_STYLE_COLOUR ( '', #26 ) ;
#171 = AXIS2_PLACEMENT_3D ( 'NONE', #168, #50, #184 ) ;
#172 = ORIENTED_EDGE ( 'NONE', *, *, #133, .T. ) ;
#173 = FACE_BOUND ( 'NONE', #174, .T. ) ;
#174 = EDGE_LOOP ( 'NONE', ( #104, #153 ) ) ;
#175 = DIRECTION ( 'NONE',  ( -0.000000000000000000, -0.000000000000000000, -1.000000000000000000 ) ) ;
#176 = CARTESIAN_POINT ( 'NONE',  ( 0.000000000000000000, 0.000000000000000000, 0.000000000000000000 ) ) ;
#177 = ORIENTED_EDGE ( 'NONE', *, *, #167, .F. ) ;
#178 = DIRECTION ( 'NONE',  ( 1.000000000000000000, 0.000000000000000000, 0.000000000000000000 ) ) ;
#179 = AXIS2_PLACEMENT_3D ( 'NONE', #122, #108, #34 ) ;
#180 = MANIFOLD_SOLID_BREP ( 'Boss-Extrude1', #33 ) ;
#181 = CIRCLE ( 'NONE', #136, 1.134999999999999787 ) ;
#182 = DIRECTION ( 'NONE',  ( 1.000000000000000000, 0.000000000000000000, 0.000000000000000000 ) ) ;
#183 = VERTEX_POINT ( 'NONE', #86 ) ;
#184 = DIRECTION ( 'NONE',  ( 1.000000000000000000, 0.000000000000000000, 0.000000000000000000 ) ) ;
#185 = ORIENTED_EDGE ( 'NONE', *, *, #56, .T. ) ;
#186 = FACE_OUTER_BOUND ( 'NONE', #156, .T. ) ;
#187 = CARTESIAN_POINT ( 'NONE',  ( 0.000000000000000000, 0.000000000000000000, 0.1250000000000000000 ) ) ;
#188 = DIRECTION ( 'NONE',  ( -0.000000000000000000, -0.000000000000000000, -1.000000000000000000 ) ) ;
#189 = EDGE_CURVE ( 'NONE', #5, #123, #58, .T. ) ;
#190 = ORIENTED_EDGE ( 'NONE', *, *, #66, .F. ) ;
#191 = ORIENTED_EDGE ( 'NONE', *, *, #189, .F. ) ;
#192 = CARTESIAN_POINT ( 'NONE',  ( -0.6350000000000000089, 0.000000000000000000, 0.000000000000000000 ) ) ;
#193 = VECTOR ( 'NONE', #148, 100.0000000000000000 ) ;
#194 = EDGE_CURVE ( 'NONE', #69, #183, #43, .T. ) ;
#195 = ORIENTED_EDGE ( 'NONE', *, *, #9, .T. ) ;
#196 = CYLINDRICAL_SURFACE ( 'NONE', #92, 1.134999999999999787 ) ;
#197 = PRODUCT_RELATED_PRODUCT_CATEGORY ( 'part', '', ( #20 ) ) ;
#198 = VERTEX_POINT ( 'NONE', #54 ) ;
#199 = CYLINDRICAL_SURFACE ( 'NONE', #179, 1.134999999999999787 ) ;
ENDSEC;
END-ISO-10303-21;
