ISO-10303-21;
HEADER;
FILE_DESCRIPTION (( 'STEP AP214' ),
    '1' );
FILE_NAME ('.5in 2.75cm x 1.STEP',
    '2026-08-28T19:00:14',
    ( '' ),
    ( '' ),
    'SwSTEP 2.0',
    'SolidWorks 2025',
    '' );
FILE_SCHEMA (( 'AUTOMOTIVE_DESIGN' ));
ENDSEC;

DATA;
#1 = ORIENTED_EDGE ( 'NONE', *, *, #234, .F. ) ;
#2 = SHAPE_DEFINITION_REPRESENTATION ( #67, #55 ) ;
#3 = AXIS2_PLACEMENT_3D ( 'NONE', #211, #221, #226 ) ;
#4 = ADVANCED_FACE ( 'NONE', ( #112 ), #209, .T. ) ;
#5 = AXIS2_PLACEMENT_3D ( 'NONE', #8, #7, #172 ) ;
#6 = ORIENTED_EDGE ( 'NONE', *, *, #287, .T. ) ;
#7 = DIRECTION ( 'NONE',  ( 0.000000000000000000, -0.000000000000000000, -1.000000000000000000 ) ) ;
#8 = CARTESIAN_POINT ( 'NONE',  ( 0.000000000000000000, 0.000000000000000000, 2.937500000000000000 ) ) ;
#9 = ORIENTED_EDGE ( 'NONE', *, *, #216, .F. ) ;
#10 = CARTESIAN_POINT ( 'NONE',  ( 0.6300000000000001155, 7.715274834628326610E-17, 3.000000000000000000 ) ) ;
#11 = ORIENTED_EDGE ( 'NONE', *, *, #51, .F. ) ;
#12 = CARTESIAN_POINT ( 'NONE',  ( 1.130000000000000115, 0.000000000000000000, 0.000000000000000000 ) ) ;
#13 = CARTESIAN_POINT ( 'NONE',  ( 0.000000000000000000, 0.000000000000000000, 3.000000000000000000 ) ) ;
#14 = CARTESIAN_POINT ( 'NONE',  ( 1.067500000000000115, 0.000000000000000000, -0.4375000000000000555 ) ) ;
#15 = CIRCLE ( 'NONE', #187, 1.067500000000000115 ) ;
#16 = DIRECTION ( 'NONE',  ( -1.000000000000000000, 0.000000000000000000, 0.000000000000000000 ) ) ;
#17 = VERTEX_POINT ( 'NONE', #301 ) ;
#18 = DIRECTION ( 'NONE',  ( -0.000000000000000000, 0.000000000000000000, 1.000000000000000000 ) ) ;
#19 = ORIENTED_EDGE ( 'NONE', *, *, #158, .F. ) ;
#20 = EDGE_CURVE ( 'NONE', #178, #218, #106, .T. ) ;
#21 = TOROIDAL_SURFACE ( 'NONE', #227, 0.5675000000000001155, 0.06250000000000000000 ) ;
#22 = DIRECTION ( 'NONE',  ( 1.000000000000000000, 0.000000000000000000, 0.000000000000000000 ) ) ;
#23 = EDGE_CURVE ( 'NONE', #203, #218, #155, .T. ) ;
#24 = DIRECTION ( 'NONE',  ( -0.000000000000000000, 0.000000000000000000, 1.000000000000000000 ) ) ;
#25 = CARTESIAN_POINT ( 'NONE',  ( 0.000000000000000000, 0.000000000000000000, 0.000000000000000000 ) ) ;
#26 = ORIENTED_EDGE ( 'NONE', *, *, #264, .F. ) ;
#27 = EDGE_LOOP ( 'NONE', ( #26, #273, #6, #83 ) ) ;
#28 = PRESENTATION_LAYER_ASSIGNMENT (  '', '', ( #97 ) ) ;
#29 = DIRECTION ( 'NONE',  ( 1.000000000000000000, 0.000000000000000000, 0.000000000000000000 ) ) ;
#30 = EDGE_LOOP ( 'NONE', ( #271, #46, #108, #11 ) ) ;
#31 = DIRECTION ( 'NONE',  ( 0.000000000000000000, 0.000000000000000000, 1.000000000000000000 ) ) ;
#32 = AXIS2_PLACEMENT_3D ( 'NONE', #62, #213, #22 ) ;
#33 = ORIENTED_EDGE ( 'NONE', *, *, #73, .F. ) ;
#34 = FACE_OUTER_BOUND ( 'NONE', #168, .T. ) ;
#35 = ORIENTED_EDGE ( 'NONE', *, *, #66, .T. ) ;
#36 = DIRECTION ( 'NONE',  ( -1.000000000000000000, 0.000000000000000000, 0.000000000000000000 ) ) ;
#37 = ORIENTED_EDGE ( 'NONE', *, *, #51, .T. ) ;
#38 = CYLINDRICAL_SURFACE ( 'NONE', #224, 0.6300000000000001155 ) ;
#39 = DIRECTION ( 'NONE',  ( 1.000000000000000000, 0.000000000000000000, 0.000000000000000000 ) ) ;
#40 = DIRECTION ( 'NONE',  ( 0.000000000000000000, 0.000000000000000000, 1.000000000000000000 ) ) ;
#41 = AXIS2_PLACEMENT_3D ( 'NONE', #183, #159, #279 ) ;
#42 = MECHANICAL_DESIGN_GEOMETRIC_PRESENTATION_REPRESENTATION (  '', ( #97 ), #302 ) ;
#43 = CARTESIAN_POINT ( 'NONE',  ( -0.5675000000000001155, 6.949870585161230702E-17, 2.937500000000000000 ) ) ;
#44 = DIRECTION ( 'NONE',  ( 1.000000000000000000, 0.000000000000000000, 0.000000000000000000 ) ) ;
#45 = CARTESIAN_POINT ( 'NONE',  ( -1.130000000000000115, 1.383850883036509265E-16, -0.5000000000000000000 ) ) ;
#46 = ORIENTED_EDGE ( 'NONE', *, *, #73, .T. ) ;
#47 = DIRECTION ( 'NONE',  ( 0.000000000000000000, 0.000000000000000000, -1.000000000000000000 ) ) ;
#48 = CIRCLE ( 'NONE', #137, 0.6300000000000001155 ) ;
#49 = AXIS2_PLACEMENT_3D ( 'NONE', #198, #191, #47 ) ;
#50 = CARTESIAN_POINT ( 'NONE',  ( 0.000000000000000000, 0.000000000000000000, 0.000000000000000000 ) ) ;
#51 = EDGE_CURVE ( 'NONE', #207, #181, #135, .T. ) ;
#52 = FACE_BOUND ( 'NONE', #251, .T. ) ;
#53 = PRODUCT_DEFINITION_FORMATION_WITH_SPECIFIED_SOURCE ( 'ANY', '', #63, .NOT_KNOWN. ) ;
#54 = ORIENTED_EDGE ( 'NONE', *, *, #216, .T. ) ;
#55 = ADVANCED_BREP_SHAPE_REPRESENTATION ( '.5in 2.75cm x 1', ( #285, #121 ), #65 ) ;
#56 = CARTESIAN_POINT ( 'NONE',  ( -1.067500000000000115, 1.345580670563154531E-16, -0.5000000000000000000 ) ) ;
#57 = DIRECTION ( 'NONE',  ( 0.000000000000000000, -1.000000000000000000, 0.000000000000000000 ) ) ;
#58 = FACE_OUTER_BOUND ( 'NONE', #123, .T. ) ;
#59 = ORIENTED_EDGE ( 'NONE', *, *, #20, .T. ) ;
#60 = CIRCLE ( 'NONE', #49, 0.06250000000000005551 ) ;
#61 = ORIENTED_EDGE ( 'NONE', *, *, #66, .F. ) ;
#62 = CARTESIAN_POINT ( 'NONE',  ( 0.000000000000000000, 0.000000000000000000, -0.4375000000000000555 ) ) ;
#63 = PRODUCT ( '.5in 2.75cm x 1', '.5in 2.75cm x 1', '', ( #170 ) ) ;
#64 = CARTESIAN_POINT ( 'NONE',  ( 0.000000000000000000, 0.000000000000000000, 0.000000000000000000 ) ) ;
#65 =( GEOMETRIC_REPRESENTATION_CONTEXT ( 3 ) GLOBAL_UNCERTAINTY_ASSIGNED_CONTEXT ( ( #236 ) ) GLOBAL_UNIT_ASSIGNED_CONTEXT ( ( #238, #286, #265 ) ) REPRESENTATION_CONTEXT ( 'NONE', 'WORKASPACE' ) );
#66 = EDGE_CURVE ( 'NONE', #110, #246, #165, .T. ) ;
#67 = PRODUCT_DEFINITION_SHAPE ( 'NONE', 'NONE',  #299 ) ;
#68 = CARTESIAN_POINT ( 'NONE',  ( 0.000000000000000000, 0.000000000000000000, 3.000000000000000000 ) ) ;
#69 = UNCERTAINTY_MEASURE_WITH_UNIT (LENGTH_MEASURE( 1.000000000000000082E-05 ), #281, 'distance_accuracy_value', 'NONE');
#70 = ADVANCED_FACE ( 'NONE', ( #34 ), #127, .T. ) ;
#71 = AXIS2_PLACEMENT_3D ( 'NONE', #205, #102, #173 ) ;
#72 = VERTEX_POINT ( 'NONE', #252 ) ;
#73 = EDGE_CURVE ( 'NONE', #17, #248, #249, .T. ) ;
#74 = EDGE_CURVE ( 'NONE', #130, #203, #186, .T. ) ;
#75 = DIRECTION ( 'NONE',  ( -0.000000000000000000, -0.000000000000000000, -1.000000000000000000 ) ) ;
#76 = ORIENTED_EDGE ( 'NONE', *, *, #275, .F. ) ;
#77 = FACE_OUTER_BOUND ( 'NONE', #147, .T. ) ;
#78 = AXIS2_PLACEMENT_3D ( 'NONE', #179, #222, #152 ) ;
#79 = APPLICATION_CONTEXT ( 'automotive_design' ) ;
#80 = EDGE_LOOP ( 'NONE', ( #1, #225, #133, #197 ) ) ;
#81 = FACE_OUTER_BOUND ( 'NONE', #291, .T. ) ;
#82 = EDGE_LOOP ( 'NONE', ( #283, #239, #59, #119 ) ) ;
#83 = ORIENTED_EDGE ( 'NONE', *, *, #193, .F. ) ;
#84 = DIRECTION ( 'NONE',  ( -0.000000000000000000, -0.000000000000000000, -1.000000000000000000 ) ) ;
#85 = ORIENTED_EDGE ( 'NONE', *, *, #74, .T. ) ;
#86 = VECTOR ( 'NONE', #31, 100.0000000000000000 ) ;
#87 = CYLINDRICAL_SURFACE ( 'NONE', #41, 1.130000000000000115 ) ;
#88 = CARTESIAN_POINT ( 'NONE',  ( 0.000000000000000000, 0.000000000000000000, 3.000000000000000000 ) ) ;
#89 = VECTOR ( 'NONE', #230, 100.0000000000000000 ) ;
#90 = ADVANCED_FACE ( 'NONE', ( #58 ), #141, .T. ) ;
#91 = CARTESIAN_POINT ( 'NONE',  ( -0.5675000000000001155, 7.332572709894779272E-17, 3.000000000000000000 ) ) ;
#92 = CARTESIAN_POINT ( 'NONE',  ( 1.130000000000000115, 0.000000000000000000, -0.4375000000000000555 ) ) ;
#93 = ADVANCED_FACE ( 'NONE', ( #52, #292 ), #148, .T. ) ;
#94 = DIRECTION ( 'NONE',  ( 1.000000000000000000, 0.000000000000000000, 0.000000000000000000 ) ) ;
#95 = CIRCLE ( 'NONE', #262, 0.5675000000000001155 ) ;
#96 = ORIENTED_EDGE ( 'NONE', *, *, #193, .T. ) ;
#97 = STYLED_ITEM ( 'NONE', ( #100 ), #285 ) ;
#98 = ADVANCED_FACE ( 'NONE', ( #81 ), #38, .T. ) ;
#99 = SURFACE_STYLE_FILL_AREA ( #195 ) ;
#100 = PRESENTATION_STYLE_ASSIGNMENT (( #308 ) ) ;
#101 = AXIS2_PLACEMENT_3D ( 'NONE', #105, #272, #295 ) ;
#102 = DIRECTION ( 'NONE',  ( -0.000000000000000000, 0.000000000000000000, 1.000000000000000000 ) ) ;
#103 = DIRECTION ( 'NONE',  ( 1.000000000000000000, 0.000000000000000000, 0.000000000000000000 ) ) ;
#104 = ORIENTED_EDGE ( 'NONE', *, *, #264, .T. ) ;
#105 = CARTESIAN_POINT ( 'NONE',  ( -1.067500000000000115, 1.307310458089799551E-16, -0.4375000000000000555 ) ) ;
#106 = CIRCLE ( 'NONE', #277, 0.06249999999999997224 ) ;
#107 = AXIS2_PLACEMENT_3D ( 'NONE', #64, #276, #44 ) ;
#108 = ORIENTED_EDGE ( 'NONE', *, *, #158, .T. ) ;
#109 = CARTESIAN_POINT ( 'NONE',  ( 0.000000000000000000, 0.000000000000000000, 3.000000000000000000 ) ) ;
#110 = VERTEX_POINT ( 'NONE', #12 ) ;
#111 = CARTESIAN_POINT ( 'NONE',  ( 0.000000000000000000, 0.000000000000000000, 0.000000000000000000 ) ) ;
#112 = FACE_OUTER_BOUND ( 'NONE', #30, .T. ) ;
#113 = AXIS2_PLACEMENT_3D ( 'NONE', #254, #40, #232 ) ;
#114 = APPLICATION_CONTEXT ( 'automotive_design' ) ;
#115 = DIRECTION ( 'NONE',  ( 1.000000000000000000, 0.000000000000000000, 0.000000000000000000 ) ) ;
#116 = CARTESIAN_POINT ( 'NONE',  ( -0.6300000000000001155, 0.000000000000000000, 2.937500000000000000 ) ) ;
#117 = EDGE_CURVE ( 'NONE', #17, #207, #48, .T. ) ;
#118 = CARTESIAN_POINT ( 'NONE',  ( 1.067500000000000115, 0.000000000000000000, -0.5000000000000000000 ) ) ;
#119 = ORIENTED_EDGE ( 'NONE', *, *, #23, .F. ) ;
#120 = DIRECTION ( 'NONE',  ( 1.000000000000000000, 0.000000000000000000, 0.000000000000000000 ) ) ;
#121 = AXIS2_PLACEMENT_3D ( 'NONE', #50, #289, #120 ) ;
#122 = ADVANCED_FACE ( 'NONE', ( #77 ), #177, .F. ) ;
#123 = EDGE_LOOP ( 'NONE', ( #153, #104, #174, #274 ) ) ;
#124 = DIRECTION ( 'NONE',  ( -0.000000000000000000, 0.000000000000000000, 1.000000000000000000 ) ) ;
#125 = AXIS2_PLACEMENT_3D ( 'NONE', #290, #150, #269 ) ;
#126 = ORIENTED_EDGE ( 'NONE', *, *, #275, .T. ) ;
#127 = PLANE ( 'NONE',  #78 ) ;
#128 = EDGE_LOOP ( 'NONE', ( #126, #223, #61, #293 ) ) ;
#129 = ADVANCED_FACE ( 'NONE', ( #270 ), #261, .T. ) ;
#130 = VERTEX_POINT ( 'NONE', #56 ) ;
#131 = AXIS2_PLACEMENT_3D ( 'NONE', #88, #258, #140 ) ;
#132 = EDGE_CURVE ( 'NONE', #178, #130, #175, .T. ) ;
#133 = ORIENTED_EDGE ( 'NONE', *, *, #307, .T. ) ;
#134 = DIRECTION ( 'NONE',  ( 0.000000000000000000, -0.000000000000000000, -1.000000000000000000 ) ) ;
#135 = LINE ( 'NONE', #149, #89 ) ;
#136 = CYLINDRICAL_SURFACE ( 'NONE', #113, 1.130000000000000115 ) ;
#137 = AXIS2_PLACEMENT_3D ( 'NONE', #298, #134, #103 ) ;
#138 = CIRCLE ( 'NONE', #206, 0.06249999999999997224 ) ;
#139 = DIRECTION ( 'NONE',  ( 1.224646799147353207E-16, 1.000000000000000000, 0.000000000000000000 ) ) ;
#140 = DIRECTION ( 'NONE',  ( 1.000000000000000000, 0.000000000000000000, 0.000000000000000000 ) ) ;
#141 = TOROIDAL_SURFACE ( 'NONE', #71, 0.5675000000000001155, 0.06250000000000000000 ) ;
#142 = CIRCLE ( 'NONE', #5, 0.6300000000000001155 ) ;
#143 = DIRECTION ( 'NONE',  ( 1.000000000000000000, 0.000000000000000000, 0.000000000000000000 ) ) ;
#144 = CARTESIAN_POINT ( 'NONE',  ( 1.130000000000000115, 0.000000000000000000, -0.5000000000000000000 ) ) ;
#145 = ADVANCED_FACE ( 'NONE', ( #185 ), #300, .T. ) ;
#146 = CLOSED_SHELL ( 'NONE', ( #145, #90, #171, #4, #98, #70, #180, #122, #93, #309, #129 ) ) ;
#147 = EDGE_LOOP ( 'NONE', ( #194, #54 ) ) ;
#148 = PLANE ( 'NONE',  #192 ) ;
#149 = CARTESIAN_POINT ( 'NONE',  ( -0.6300000000000001155, 0.000000000000000000, 3.000000000000000000 ) ) ;
#150 = DIRECTION ( 'NONE',  ( -0.000000000000000000, 0.000000000000000000, 1.000000000000000000 ) ) ;
#151 = ORIENTED_EDGE ( 'NONE', *, *, #200, .F. ) ;
#152 = DIRECTION ( 'NONE',  ( 1.000000000000000000, 0.000000000000000000, 0.000000000000000000 ) ) ;
#153 = ORIENTED_EDGE ( 'NONE', *, *, #282, .F. ) ;
#154 = CARTESIAN_POINT ( 'NONE',  ( 0.000000000000000000, 0.000000000000000000, -0.5000000000000000000 ) ) ;
#155 = CIRCLE ( 'NONE', #288, 1.130000000000000115 ) ;
#156 = PRODUCT_RELATED_PRODUCT_CATEGORY ( 'part', '', ( #63 ) ) ;
#157 = CARTESIAN_POINT ( 'NONE',  ( 0.000000000000000000, 0.000000000000000000, -0.4375000000000000555 ) ) ;
#158 = EDGE_CURVE ( 'NONE', #248, #181, #245, .T. ) ;
#159 = DIRECTION ( 'NONE',  ( 0.000000000000000000, 0.000000000000000000, 1.000000000000000000 ) ) ;
#160 = DIRECTION ( 'NONE',  ( 1.000000000000000000, 0.000000000000000000, 0.000000000000000000 ) ) ;
#161 = AXIS2_PLACEMENT_3D ( 'NONE', #154, #229, #190 ) ;
#162 = VECTOR ( 'NONE', #280, 100.0000000000000000 ) ;
#163 = CARTESIAN_POINT ( 'NONE',  ( -1.130000000000000115, 1.383850883036509265E-16, -0.4375000000000000555 ) ) ;
#164 = DIRECTION ( 'NONE',  ( 1.000000000000000000, 0.000000000000000000, 0.000000000000000000 ) ) ;
#165 = CIRCLE ( 'NONE', #3, 1.130000000000000115 ) ;
#166 = CIRCLE ( 'NONE', #131, 0.5675000000000001155 ) ;
#167 = APPLICATION_PROTOCOL_DEFINITION ( 'draft international standard', 'automotive_design', 1998, #79 ) ;
#168 = EDGE_LOOP ( 'NONE', ( #201, #96 ) ) ;
#169 = DIRECTION ( 'NONE',  ( -0.000000000000000000, 0.000000000000000000, 1.000000000000000000 ) ) ;
#170 = PRODUCT_CONTEXT ( 'NONE', #79, 'mechanical' ) ;
#171 = ADVANCED_FACE ( 'NONE', ( #188 ), #87, .T. ) ;
#172 = DIRECTION ( 'NONE',  ( 1.000000000000000000, 0.000000000000000000, 0.000000000000000000 ) ) ;
#173 = DIRECTION ( 'NONE',  ( 1.000000000000000000, 0.000000000000000000, 0.000000000000000000 ) ) ;
#174 = ORIENTED_EDGE ( 'NONE', *, *, #240, .F. ) ;
#175 = CIRCLE ( 'NONE', #161, 1.067500000000000115 ) ;
#176 = DIRECTION ( 'NONE',  ( 1.000000000000000000, 0.000000000000000000, 0.000000000000000000 ) ) ;
#177 = PLANE ( 'NONE',  #196 ) ;
#178 = VERTEX_POINT ( 'NONE', #118 ) ;
#179 = CARTESIAN_POINT ( 'NONE',  ( 0.000000000000000000, 0.000000000000000000, 3.000000000000000000 ) ) ;
#180 = ADVANCED_FACE ( 'NONE', ( #184 ), #136, .T. ) ;
#181 = VERTEX_POINT ( 'NONE', #235 ) ;
#182 = EDGE_LOOP ( 'NONE', ( #9, #85, #76, #259 ) ) ;
#183 = CARTESIAN_POINT ( 'NONE',  ( 0.000000000000000000, 0.000000000000000000, -0.5000000000000000000 ) ) ;
#184 = FACE_OUTER_BOUND ( 'NONE', #80, .T. ) ;
#185 = FACE_OUTER_BOUND ( 'NONE', #182, .T. ) ;
#186 = CIRCLE ( 'NONE', #101, 0.06250000000000005551 ) ;
#187 = AXIS2_PLACEMENT_3D ( 'NONE', #214, #306, #160 ) ;
#188 = FACE_OUTER_BOUND ( 'NONE', #128, .T. ) ;
#189 = PRODUCT_DEFINITION_CONTEXT ( 'detailed design', #114, 'design' ) ;
#190 = DIRECTION ( 'NONE',  ( 1.000000000000000000, 0.000000000000000000, 0.000000000000000000 ) ) ;
#191 = DIRECTION ( 'NONE',  ( 0.000000000000000000, -1.000000000000000000, 0.000000000000000000 ) ) ;
#192 = AXIS2_PLACEMENT_3D ( 'NONE', #111, #210, #199 ) ;
#193 = EDGE_CURVE ( 'NONE', #243, #72, #95, .T. ) ;
#194 = ORIENTED_EDGE ( 'NONE', *, *, #132, .T. ) ;
#195 = FILL_AREA_STYLE ('',( #244 ) ) ;
#196 = AXIS2_PLACEMENT_3D ( 'NONE', #208, #18, #176 ) ;
#197 = ORIENTED_EDGE ( 'NONE', *, *, #202, .F. ) ;
#198 = CARTESIAN_POINT ( 'NONE',  ( 0.5675000000000001155, 0.000000000000000000, 2.937500000000000000 ) ) ;
#199 = DIRECTION ( 'NONE',  ( 1.000000000000000000, 0.000000000000000000, 0.000000000000000000 ) ) ;
#200 = EDGE_CURVE ( 'NONE', #181, #248, #241, .T. ) ;
#201 = ORIENTED_EDGE ( 'NONE', *, *, #240, .T. ) ;
#202 = EDGE_CURVE ( 'NONE', #246, #110, #304, .T. ) ;
#203 = VERTEX_POINT ( 'NONE', #163 ) ;
#204 = AXIS2_PLACEMENT_3D ( 'NONE', #25, #212, #143 ) ;
#205 = CARTESIAN_POINT ( 'NONE',  ( 0.000000000000000000, 0.000000000000000000, 2.937500000000000000 ) ) ;
#206 = AXIS2_PLACEMENT_3D ( 'NONE', #43, #139, #257 ) ;
#207 = VERTEX_POINT ( 'NONE', #116 ) ;
#208 = CARTESIAN_POINT ( 'NONE',  ( 0.000000000000000000, 0.000000000000000000, -0.5000000000000000000 ) ) ;
#209 = CYLINDRICAL_SURFACE ( 'NONE', #255, 0.6300000000000001155 ) ;
#210 = DIRECTION ( 'NONE',  ( -0.000000000000000000, 0.000000000000000000, 1.000000000000000000 ) ) ;
#211 = CARTESIAN_POINT ( 'NONE',  ( 0.000000000000000000, 0.000000000000000000, 0.000000000000000000 ) ) ;
#212 = DIRECTION ( 'NONE',  ( -0.000000000000000000, 0.000000000000000000, 1.000000000000000000 ) ) ;
#213 = DIRECTION ( 'NONE',  ( -0.000000000000000000, 0.000000000000000000, 1.000000000000000000 ) ) ;
#214 = CARTESIAN_POINT ( 'NONE',  ( 0.000000000000000000, 0.000000000000000000, -0.5000000000000000000 ) ) ;
#215 = SURFACE_SIDE_STYLE ('',( #99 ) ) ;
#216 = EDGE_CURVE ( 'NONE', #130, #178, #15, .T. ) ;
#217 = APPLICATION_PROTOCOL_DEFINITION ( 'draft international standard', 'automotive_design', 1998, #114 ) ;
#218 = VERTEX_POINT ( 'NONE', #92 ) ;
#219 =( NAMED_UNIT ( * ) PLANE_ANGLE_UNIT ( ) SI_UNIT ( $, .RADIAN. ) );
#220 =( NAMED_UNIT ( * ) SI_UNIT ( $, .STERADIAN. ) SOLID_ANGLE_UNIT ( ) );
#221 = DIRECTION ( 'NONE',  ( -0.000000000000000000, 0.000000000000000000, 1.000000000000000000 ) ) ;
#222 = DIRECTION ( 'NONE',  ( -0.000000000000000000, 0.000000000000000000, 1.000000000000000000 ) ) ;
#223 = ORIENTED_EDGE ( 'NONE', *, *, #234, .T. ) ;
#224 = AXIS2_PLACEMENT_3D ( 'NONE', #109, #84, #16 ) ;
#225 = ORIENTED_EDGE ( 'NONE', *, *, #23, .T. ) ;
#226 = DIRECTION ( 'NONE',  ( 1.000000000000000000, 0.000000000000000000, 0.000000000000000000 ) ) ;
#227 = AXIS2_PLACEMENT_3D ( 'NONE', #263, #124, #29 ) ;
#228 = ORIENTED_EDGE ( 'NONE', *, *, #200, .T. ) ;
#229 = DIRECTION ( 'NONE',  ( 0.000000000000000000, -0.000000000000000000, -1.000000000000000000 ) ) ;
#230 = DIRECTION ( 'NONE',  ( -0.000000000000000000, -0.000000000000000000, -1.000000000000000000 ) ) ;
#231 = VECTOR ( 'NONE', #75, 100.0000000000000000 ) ;
#232 = DIRECTION ( 'NONE',  ( 1.000000000000000000, 0.000000000000000000, 0.000000000000000000 ) ) ;
#233 = CARTESIAN_POINT ( 'NONE',  ( 0.000000000000000000, 0.000000000000000000, -0.4375000000000000555 ) ) ;
#234 = EDGE_CURVE ( 'NONE', #203, #246, #305, .T. ) ;
#235 = CARTESIAN_POINT ( 'NONE',  ( -0.6300000000000001155, 0.000000000000000000, 0.000000000000000000 ) ) ;
#236 = UNCERTAINTY_MEASURE_WITH_UNIT (LENGTH_MEASURE( 1.000000000000000082E-05 ), #238, 'distance_accuracy_value', 'NONE');
#237 = CARTESIAN_POINT ( 'NONE',  ( 0.6300000000000001155, 7.715274834628326610E-17, 0.000000000000000000 ) ) ;
#238 =( LENGTH_UNIT ( ) NAMED_UNIT ( * ) SI_UNIT ( .CENTI., .METRE. ) );
#239 = ORIENTED_EDGE ( 'NONE', *, *, #132, .F. ) ;
#240 = EDGE_CURVE ( 'NONE', #72, #243, #166, .T. ) ;
#241 = CIRCLE ( 'NONE', #266, 0.6300000000000001155 ) ;
#242 = FACE_OUTER_BOUND ( 'NONE', #27, .T. ) ;
#243 = VERTEX_POINT ( 'NONE', #91 ) ;
#244 = FILL_AREA_STYLE_COLOUR ( '', #247 ) ;
#245 = CIRCLE ( 'NONE', #204, 0.6300000000000001155 ) ;
#246 = VERTEX_POINT ( 'NONE', #256 ) ;
#247 = COLOUR_RGB ( '',0.7921568627450980005, 0.8196078431372548767, 0.9333333333333333481 ) ;
#248 = VERTEX_POINT ( 'NONE', #237 ) ;
#249 = LINE ( 'NONE', #10, #231 ) ;
#250 = DIRECTION ( 'NONE',  ( -0.000000000000000000, -0.000000000000000000, -1.000000000000000000 ) ) ;
#251 = EDGE_LOOP ( 'NONE', ( #151, #19 ) ) ;
#252 = CARTESIAN_POINT ( 'NONE',  ( 0.5675000000000001155, 0.000000000000000000, 3.000000000000000000 ) ) ;
#253 = DIRECTION ( 'NONE',  ( -0.000000000000000000, 0.000000000000000000, 1.000000000000000000 ) ) ;
#254 = CARTESIAN_POINT ( 'NONE',  ( 0.000000000000000000, 0.000000000000000000, -0.5000000000000000000 ) ) ;
#255 = AXIS2_PLACEMENT_3D ( 'NONE', #13, #250, #36 ) ;
#256 = CARTESIAN_POINT ( 'NONE',  ( -1.130000000000000115, 1.383850883036509265E-16, 0.000000000000000000 ) ) ;
#257 = DIRECTION ( 'NONE',  ( -1.000000000000000000, 1.224646799147353947E-16, 0.000000000000000000 ) ) ;
#258 = DIRECTION ( 'NONE',  ( -0.000000000000000000, 0.000000000000000000, 1.000000000000000000 ) ) ;
#259 = ORIENTED_EDGE ( 'NONE', *, *, #20, .F. ) ;
#260 = LINE ( 'NONE', #144, #86 ) ;
#261 = TOROIDAL_SURFACE ( 'NONE', #125, 1.067500000000000115, 0.06250000000000000000 ) ;
#262 = AXIS2_PLACEMENT_3D ( 'NONE', #68, #24, #164 ) ;
#263 = CARTESIAN_POINT ( 'NONE',  ( 0.000000000000000000, 0.000000000000000000, 2.937500000000000000 ) ) ;
#264 = EDGE_CURVE ( 'NONE', #207, #243, #138, .T. ) ;
#265 =( NAMED_UNIT ( * ) SI_UNIT ( $, .STERADIAN. ) SOLID_ANGLE_UNIT ( ) );
#266 = AXIS2_PLACEMENT_3D ( 'NONE', #303, #278, #115 ) ;
#267 = ORIENTED_EDGE ( 'NONE', *, *, #202, .T. ) ;
#268 = AXIS2_PLACEMENT_3D ( 'NONE', #233, #169, #94 ) ;
#269 = DIRECTION ( 'NONE',  ( 1.000000000000000000, 0.000000000000000000, 0.000000000000000000 ) ) ;
#270 = FACE_OUTER_BOUND ( 'NONE', #82, .T. ) ;
#271 = ORIENTED_EDGE ( 'NONE', *, *, #282, .T. ) ;
#272 = DIRECTION ( 'NONE',  ( 1.224646799147353207E-16, 1.000000000000000000, 0.000000000000000000 ) ) ;
#273 = ORIENTED_EDGE ( 'NONE', *, *, #117, .F. ) ;
#274 = ORIENTED_EDGE ( 'NONE', *, *, #287, .F. ) ;
#275 = EDGE_CURVE ( 'NONE', #218, #203, #294, .T. ) ;
#276 = DIRECTION ( 'NONE',  ( -0.000000000000000000, 0.000000000000000000, 1.000000000000000000 ) ) ;
#277 = AXIS2_PLACEMENT_3D ( 'NONE', #14, #57, #297 ) ;
#278 = DIRECTION ( 'NONE',  ( -0.000000000000000000, 0.000000000000000000, 1.000000000000000000 ) ) ;
#279 = DIRECTION ( 'NONE',  ( 1.000000000000000000, 0.000000000000000000, 0.000000000000000000 ) ) ;
#280 = DIRECTION ( 'NONE',  ( 0.000000000000000000, 0.000000000000000000, 1.000000000000000000 ) ) ;
#281 =( LENGTH_UNIT ( ) NAMED_UNIT ( * ) SI_UNIT ( .CENTI., .METRE. ) );
#282 = EDGE_CURVE ( 'NONE', #207, #17, #142, .T. ) ;
#283 = ORIENTED_EDGE ( 'NONE', *, *, #74, .F. ) ;
#284 = ORIENTED_EDGE ( 'NONE', *, *, #117, .T. ) ;
#285 = MANIFOLD_SOLID_BREP ( 'Fillet2', #146 ) ;
#286 =( NAMED_UNIT ( * ) PLANE_ANGLE_UNIT ( ) SI_UNIT ( $, .RADIAN. ) );
#287 = EDGE_CURVE ( 'NONE', #17, #72, #60, .T. ) ;
#288 = AXIS2_PLACEMENT_3D ( 'NONE', #157, #253, #39 ) ;
#289 = DIRECTION ( 'NONE',  ( 0.000000000000000000, 0.000000000000000000, 1.000000000000000000 ) ) ;
#290 = CARTESIAN_POINT ( 'NONE',  ( 0.000000000000000000, 0.000000000000000000, -0.4375000000000000555 ) ) ;
#291 = EDGE_LOOP ( 'NONE', ( #33, #284, #37, #228 ) ) ;
#292 = FACE_OUTER_BOUND ( 'NONE', #296, .T. ) ;
#293 = ORIENTED_EDGE ( 'NONE', *, *, #307, .F. ) ;
#294 = CIRCLE ( 'NONE', #268, 1.130000000000000115 ) ;
#295 = DIRECTION ( 'NONE',  ( -1.000000000000000000, 1.224646799147352468E-16, 0.000000000000000000 ) ) ;
#296 = EDGE_LOOP ( 'NONE', ( #35, #267 ) ) ;
#297 = DIRECTION ( 'NONE',  ( 0.000000000000000000, 0.000000000000000000, -1.000000000000000000 ) ) ;
#298 = CARTESIAN_POINT ( 'NONE',  ( 0.000000000000000000, 0.000000000000000000, 2.937500000000000000 ) ) ;
#299 = PRODUCT_DEFINITION ( 'UNKNOWN', '', #53, #189 ) ;
#300 = TOROIDAL_SURFACE ( 'NONE', #32, 1.067500000000000115, 0.06250000000000000000 ) ;
#301 = CARTESIAN_POINT ( 'NONE',  ( 0.6300000000000001155, 7.715274834628326610E-17, 2.937500000000000000 ) ) ;
#302 =( GEOMETRIC_REPRESENTATION_CONTEXT ( 3 ) GLOBAL_UNCERTAINTY_ASSIGNED_CONTEXT ( ( #69 ) ) GLOBAL_UNIT_ASSIGNED_CONTEXT ( ( #281, #219, #220 ) ) REPRESENTATION_CONTEXT ( 'NONE', 'WORKASPACE' ) );
#303 = CARTESIAN_POINT ( 'NONE',  ( 0.000000000000000000, 0.000000000000000000, 0.000000000000000000 ) ) ;
#304 = CIRCLE ( 'NONE', #107, 1.130000000000000115 ) ;
#305 = LINE ( 'NONE', #45, #162 ) ;
#306 = DIRECTION ( 'NONE',  ( 0.000000000000000000, -0.000000000000000000, -1.000000000000000000 ) ) ;
#307 = EDGE_CURVE ( 'NONE', #218, #110, #260, .T. ) ;
#308 = SURFACE_STYLE_USAGE ( .BOTH. , #215 ) ;
#309 = ADVANCED_FACE ( 'NONE', ( #242 ), #21, .T. ) ;
ENDSEC;
END-ISO-10303-21;
