ISO-10303-21;
HEADER;
FILE_DESCRIPTION (( 'STEP AP214' ),
    '1' );
FILE_NAME ('3in thrust bearing.STEP',
    '2026-09-17T14:21:05',
    ( '' ),
    ( '' ),
    'SwSTEP 2.0',
    'SolidWorks 2025',
    '' );
FILE_SCHEMA (( 'AUTOMOTIVE_DESIGN' ));
ENDSEC;

DATA;
#1 = PROPERTY_DEFINITION ('external definition','', #77 ) ;
#2 = PRODUCT_DEFINITION_CONTEXT ( 'detailed design', #73, 'design' ) ;
#3 = PRODUCT_DEFINITION_SHAPE ( 'NONE', 'NONE',  #110 ) ;
#4 = AXIS2_PLACEMENT_3D ( 'NONE', #12, #40, #45 ) ;
#5 = SHAPE_REPRESENTATION ( '5909K28_Needle-Roller Thrust Bearing_5909K28', ( #26 ), #128 ) ;
#6 =( REPRESENTATION_RELATIONSHIP ('NONE','NONE', #18, #135 ) REPRESENTATION_RELATIONSHIP_WITH_TRANSFORMATION ( #27 )SHAPE_REPRESENTATION_RELATIONSHIP( ) );
#7 = DIRECTION ( 'NONE',  ( 0.9562134788776284200, -1.792087457512697960E-17, 0.2926700921049901760 ) ) ;
#8 = DIRECTION ( 'NONE',  ( 1.000000000000000000, 0.000000000000000000, 0.000000000000000000 ) ) ;
#9 = ROLE_ASSOCIATION ( #123, #37 ) ;
#10 = EXTERNAL_SOURCE (IDENTIFIER('') ) ;
#11 = PROPERTY_DEFINITION_REPRESENTATION ( #23, #135 ) ;
#12 = CARTESIAN_POINT ( 'NONE',  ( 27.03717800498745305, 35.34203459105762590, 51.48777603570054850 ) ) ;
#13 =( REPRESENTATION_RELATIONSHIP ('NONE','NONE', #18, #135 ) REPRESENTATION_RELATIONSHIP_WITH_TRANSFORMATION ( #111 )SHAPE_REPRESENTATION_RELATIONSHIP( ) );
#14 = CARTESIAN_POINT ( 'NONE',  ( 0.000000000000000000, 0.000000000000000000, 0.000000000000000000 ) ) ;
#15 = PROPERTY_DEFINITION ('external definition','', #64 ) ;
#16 = APPLICATION_PROTOCOL_DEFINITION ( 'draft international standard', 'automotive_design', 1998, #73 ) ;
#17 = DIMENSIONAL_EXPONENTS ( 1.000000000000000000, 0.000000000000000000, 0.000000000000000000, 0.000000000000000000, 0.000000000000000000, 0.000000000000000000, 0.000000000000000000 ) ;
#18 = SHAPE_REPRESENTATION ( '3in thrust bearing', ( #106, #4, #53, #127 ), #34 ) ;
#19 = PRODUCT_DEFINITION_CONTEXT ( 'detailed design', #134, 'design' ) ;
#20 = PRODUCT_DEFINITION_SHAPE ( 'NONE', 'NONE',  #136 ) ;
#21 = PROPERTY_DEFINITION_REPRESENTATION ( #129, #5 ) ;
#22 =( CONVERSION_BASED_UNIT ( 'INCH', #56 ) LENGTH_UNIT ( ) NAMED_UNIT ( #24 ) );
#23 = PROPERTY_DEFINITION ('external definition','', #121 ) ;
#24 = DIMENSIONAL_EXPONENTS ( 1.000000000000000000, 0.000000000000000000, 0.000000000000000000, 0.000000000000000000, 0.000000000000000000, 0.000000000000000000, 0.000000000000000000 ) ;
#25 = PRODUCT_DEFINITION_SHAPE ( 'NONE', 'NONE',  #137 ) ;
#26 = AXIS2_PLACEMENT_3D ( 'NONE', #125, #68, #88 ) ;
#27 = ITEM_DEFINED_TRANSFORMATION ( 'NONE', 'NONE', #127,  #95 ) ;
#28 = PRODUCT_DEFINITION_FORMATION_WITH_SPECIFIED_SOURCE ( 'Symmetric', '', #105, .NOT_KNOWN. ) ;
#29 = SHAPE_DEFINITION_REPRESENTATION ( #47, #135 ) ;
#30 = ITEM_DEFINED_TRANSFORMATION ( 'NONE', 'NONE', #4,  #26 ) ;
#31 = PROPERTY_DEFINITION_REPRESENTATION ( #91, #135 ) ;
#32 = APPLICATION_PROTOCOL_DEFINITION ( 'draft international standard', 'automotive_design', 1998, #65 ) ;
#33 = DOCUMENT_TYPE ( 'geometry' ) ;
#34 =( GEOMETRIC_REPRESENTATION_CONTEXT ( 3 ) GLOBAL_UNCERTAINTY_ASSIGNED_CONTEXT ( ( #59 ) ) GLOBAL_UNIT_ASSIGNED_CONTEXT ( ( #22, #109, #76 ) ) REPRESENTATION_CONTEXT ( 'NONE', 'WORKASPACE' ) );
#35 = APPLICATION_CONTEXT ( 'automotive_design' ) ;
#36 = PRODUCT_RELATED_PRODUCT_CATEGORY ( 'part', '', ( #60 ) ) ;
#37 = APPLIED_DOCUMENT_REFERENCE ( #64,'',( #110) ) ;
#38 = DIRECTION ( 'NONE',  ( -3.328006943901143554E-31, -1.000000000000000000, -6.123233995736680987E-17 ) ) ;
#39 = APPLICATION_PROTOCOL_DEFINITION ( 'draft international standard', 'automotive_design', 1998, #134 ) ;
#40 = DIRECTION ( 'NONE',  ( 0.000000000000000000, 0.000000000000000000, 0.9999999999999997780 ) ) ;
#41 = APPLICATION_CONTEXT ( 'automotive_design' ) ;
#42 = CARTESIAN_POINT ( 'NONE',  ( 27.03717800498745305, 35.29087834105762767, 51.48777603570054850 ) ) ;
#43 = APPLIED_DOCUMENT_REFERENCE ( #121,'',( #113) ) ;
#44 = PROPERTY_DEFINITION_REPRESENTATION ( #15, #5 ) ;
#45 = DIRECTION ( 'NONE',  ( 0.9999999999999997780, -2.465190328815661892E-32, 0.000000000000000000 ) ) ;
#46 = CONTEXT_DEPENDENT_SHAPE_REPRESENTATION ( #13, #25 ) ;
#47 = PRODUCT_DEFINITION_SHAPE ( 'NONE', 'NONE',  #113 ) ;
#48 = IDENTIFICATION_ROLE ( 'external document id and location', $) ;
#49 =( NAMED_UNIT ( * ) PLANE_ANGLE_UNIT ( ) SI_UNIT ( $, .RADIAN. ) );
#50 =( NAMED_UNIT ( * ) SI_UNIT ( $, .STERADIAN. ) SOLID_ANGLE_UNIT ( ) );
#51 = PRODUCT_CONTEXT ( 'NONE', #65, 'mechanical' ) ;
#52 = APPLICATION_CONTEXT ( 'automotive_design' ) ;
#53 = AXIS2_PLACEMENT_3D ( 'NONE', #102, #38, #7 ) ;
#54 = IDENTIFICATION_ROLE ( 'external document id and location', $) ;
#55 = DIRECTION ( 'NONE',  ( 0.9999999999999997780, -2.465190328815661892E-32, 0.000000000000000000 ) ) ;
#56 = LENGTH_MEASURE_WITH_UNIT ( LENGTH_MEASURE( 0.02539999999999999897 ), #80 );
#57 = APPLICATION_PROTOCOL_DEFINITION ( 'draft international standard', 'automotive_design', 1998, #41 ) ;
#58 = IDENTIFICATION_ROLE ( 'external document id and location', $) ;
#59 = UNCERTAINTY_MEASURE_WITH_UNIT (LENGTH_MEASURE( 1.000000000000000082E-05 ), #22, 'distance_accuracy_value', 'NONE');
#60 = PRODUCT ( '3in thrust bearing', '3in thrust bearing', '', ( #51 ) ) ;
#61 = APPLIED_EXTERNAL_IDENTIFICATION_ASSIGNMENT ( '5909K281_0.032 Thick Washer for 3 Shaft Diameter Needle-Roller Thrust Bearing_5909K281.STEP' , #48, #74,( #77) ) ;
#62 = OBJECT_ROLE ('mandatory',$ ) ;
#63 = DIRECTION ( 'NONE',  ( 0.000000000000000000, 0.000000000000000000, 1.000000000000000000 ) ) ;
#64 = DOCUMENT_FILE ( '5909K28_Needle-Roller Thrust Bearing_5909K28.STEP' , '', '', #107, '' ,$ ) ;
#65 = APPLICATION_CONTEXT ( 'automotive_design' ) ;
#66 = CONTEXT_DEPENDENT_SHAPE_REPRESENTATION ( #6, #104 ) ;
#67 = UNCERTAINTY_MEASURE_WITH_UNIT (LENGTH_MEASURE( 1.000000000000000082E-05 ), #103, 'distance_accuracy_value', 'NONE');
#68 = DIRECTION ( 'NONE',  ( 0.000000000000000000, 0.000000000000000000, 1.000000000000000000 ) ) ;
#69 =( LENGTH_UNIT ( ) NAMED_UNIT ( * ) SI_UNIT ( $, .METRE. ) );
#70 = APPLIED_EXTERNAL_IDENTIFICATION_ASSIGNMENT ( '5909K281_0.032 Thick Washer for 3 Shaft Diameter Needle-Roller Thrust Bearing_5909K281.STEP' , #54, #10,( #121) ) ;
#71 = DIMENSIONAL_EXPONENTS ( 1.000000000000000000, 0.000000000000000000, 0.000000000000000000, 0.000000000000000000, 0.000000000000000000, 0.000000000000000000, 0.000000000000000000 ) ;
#72 = PRODUCT_DEFINITION_SHAPE ( 'NONE', 'NONE',  #79 ) ;
#73 = APPLICATION_CONTEXT ( 'automotive_design' ) ;
#74 = EXTERNAL_SOURCE (IDENTIFIER('') ) ;
#75 = PRODUCT_RELATED_PRODUCT_CATEGORY ( 'part', '', ( #105 ) ) ;
#76 =( NAMED_UNIT ( * ) SI_UNIT ( $, .STERADIAN. ) SOLID_ANGLE_UNIT ( ) );
#77 = DOCUMENT_FILE ( '5909K281_0.032 Thick Washer for 3 Shaft Diameter Needle-Roller Thrust Bearing_5909K281.STEP' , '', '', #33, '' ,$ ) ;
#78 =( NAMED_UNIT ( * ) SI_UNIT ( $, .STERADIAN. ) SOLID_ANGLE_UNIT ( ) );
#79 = PRODUCT_DEFINITION ( 'General', '', #92, #2 ) ;
#80 =( LENGTH_UNIT ( ) NAMED_UNIT ( * ) SI_UNIT ( $, .METRE. ) );
#81 = PRODUCT_RELATED_PRODUCT_CATEGORY ( 'part', '', ( #117 ) ) ;
#82 =( GEOMETRIC_REPRESENTATION_CONTEXT ( 3 ) GLOBAL_UNCERTAINTY_ASSIGNED_CONTEXT ( ( #67 ) ) GLOBAL_UNIT_ASSIGNED_CONTEXT ( ( #103, #101, #50 ) ) REPRESENTATION_CONTEXT ( 'NONE', 'WORKASPACE' ) );
#83 = SHAPE_DEFINITION_REPRESENTATION ( #72, #18 ) ;
#84 = ROLE_ASSOCIATION ( #62, #85 ) ;
#85 = APPLIED_DOCUMENT_REFERENCE ( #77,'',( #113) ) ;
#86 = UNCERTAINTY_MEASURE_WITH_UNIT (LENGTH_MEASURE( 1.000000000000000082E-05 ), #122, 'distance_accuracy_value', 'NONE');
#87 = CONTEXT_DEPENDENT_SHAPE_REPRESENTATION ( #118, #20 ) ;
#88 = DIRECTION ( 'NONE',  ( 1.000000000000000000, 0.000000000000000000, 0.000000000000000000 ) ) ;
#89 = OBJECT_ROLE ('mandatory',$ ) ;
#90 = DIRECTION ( 'NONE',  ( 0.000000000000000000, 0.000000000000000000, 1.000000000000000000 ) ) ;
#91 = PROPERTY_DEFINITION ('document property','', #121 ) ;
#92 = PRODUCT_DEFINITION_FORMATION_WITH_SPECIFIED_SOURCE ( 'Symmetric', '', #60, .NOT_KNOWN. ) ;
#93 = DOCUMENT_TYPE ( 'geometry' ) ;
#94 = PRODUCT_DEFINITION_CONTEXT ( 'detailed design', #35, 'design' ) ;
#95 = AXIS2_PLACEMENT_3D ( 'NONE', #124, #90, #115 ) ;
#96 = PRODUCT_CONTEXT ( 'NONE', #52, 'mechanical' ) ;
#97 = EXTERNAL_SOURCE (IDENTIFIER('') ) ;
#98 = PRODUCT_CONTEXT ( 'NONE', #41, 'mechanical' ) ;
#99 = PROPERTY_DEFINITION_REPRESENTATION ( #1, #135 ) ;
#100 = PRODUCT_DEFINITION_FORMATION_WITH_SPECIFIED_SOURCE ( 'Symmetric', '', #117, .NOT_KNOWN. ) ;
#101 =( NAMED_UNIT ( * ) PLANE_ANGLE_UNIT ( ) SI_UNIT ( $, .RADIAN. ) );
#102 = CARTESIAN_POINT ( 'NONE',  ( 27.03717800498745660, 35.39319084105763125, 51.48777603570056272 ) ) ;
#103 =( CONVERSION_BASED_UNIT ( 'INCH', #116 ) LENGTH_UNIT ( ) NAMED_UNIT ( #71 ) );
#104 = PRODUCT_DEFINITION_SHAPE ( 'NONE', 'NONE',  #138 ) ;
#105 = PRODUCT ( '5909K28_Needle-Roller Thrust Bearing_5909K28', '5909K28_Needle-Roller Thrust Bearing_5909K28', '', ( #98 ) ) ;
#106 = AXIS2_PLACEMENT_3D ( 'NONE', #14, #63, #8 ) ;
#107 = DOCUMENT_TYPE ( 'geometry' ) ;
#108 = SHAPE_DEFINITION_REPRESENTATION ( #3, #5 ) ;
#109 =( NAMED_UNIT ( * ) PLANE_ANGLE_UNIT ( ) SI_UNIT ( $, .RADIAN. ) );
#110 = PRODUCT_DEFINITION ( 'General', '', #28, #19 ) ;
#111 = ITEM_DEFINED_TRANSFORMATION ( 'NONE', 'NONE', #53,  #95 ) ;
#112 =( LENGTH_UNIT ( ) NAMED_UNIT ( * ) SI_UNIT ( $, .METRE. ) );
#113 = PRODUCT_DEFINITION ( 'General', '', #100, #94 ) ;
#114 = LENGTH_MEASURE_WITH_UNIT ( LENGTH_MEASURE( 0.02539999999999999897 ), #112 );
#115 = DIRECTION ( 'NONE',  ( 1.000000000000000000, 0.000000000000000000, 0.000000000000000000 ) ) ;
#116 = LENGTH_MEASURE_WITH_UNIT ( LENGTH_MEASURE( 0.02539999999999999897 ), #69 );
#117 = PRODUCT ( '5909K281_0.032 Thick Washer for 3 Shaft Diameter Needle-Roller Thrust Bearing_5909K281', '5909K281_0.032 Thick Washer for 3 Shaft Diameter Needle-Roller Thrust Bearing_5909K281', '', ( #96 ) ) ;
#118 =( REPRESENTATION_RELATIONSHIP ('NONE','NONE', #18, #5 ) REPRESENTATION_RELATIONSHIP_WITH_TRANSFORMATION ( #30 )SHAPE_REPRESENTATION_RELATIONSHIP( ) );
#119 = APPLICATION_PROTOCOL_DEFINITION ( 'draft international standard', 'automotive_design', 1998, #35 ) ;
#120 = APPLICATION_PROTOCOL_DEFINITION ( 'draft international standard', 'automotive_design', 1998, #52 ) ;
#121 = DOCUMENT_FILE ( '5909K281_0.032 Thick Washer for 3 Shaft Diameter Needle-Roller Thrust Bearing_5909K281.STEP' , '', '', #93, '' ,$ ) ;
#122 =( CONVERSION_BASED_UNIT ( 'INCH', #114 ) LENGTH_UNIT ( ) NAMED_UNIT ( #17 ) );
#123 = OBJECT_ROLE ('mandatory',$ ) ;
#124 = CARTESIAN_POINT ( 'NONE',  ( 0.000000000000000000, 0.000000000000000000, 0.000000000000000000 ) ) ;
#125 = CARTESIAN_POINT ( 'NONE',  ( 0.000000000000000000, 0.000000000000000000, 0.000000000000000000 ) ) ;
#126 = PROPERTY_DEFINITION ('document property','', #77 ) ;
#127 = AXIS2_PLACEMENT_3D ( 'NONE', #42, #131, #55 ) ;
#128 =( GEOMETRIC_REPRESENTATION_CONTEXT ( 3 ) GLOBAL_UNCERTAINTY_ASSIGNED_CONTEXT ( ( #86 ) ) GLOBAL_UNIT_ASSIGNED_CONTEXT ( ( #122, #49, #78 ) ) REPRESENTATION_CONTEXT ( 'NONE', 'WORKASPACE' ) );
#129 = PROPERTY_DEFINITION ('document property','', #64 ) ;
#130 = APPLIED_EXTERNAL_IDENTIFICATION_ASSIGNMENT ( '5909K28_Needle-Roller Thrust Bearing_5909K28.STEP' , #58, #97,( #64) ) ;
#131 = DIRECTION ( 'NONE',  ( 1.232595164407830946E-32, -1.000000000000000000, -6.123233995736764803E-17 ) ) ;
#132 = ROLE_ASSOCIATION ( #89, #43 ) ;
#133 = PROPERTY_DEFINITION_REPRESENTATION ( #126, #135 ) ;
#134 = APPLICATION_CONTEXT ( 'automotive_design' ) ;
#135 = SHAPE_REPRESENTATION ( '5909K281_0.032 Thick Washer for 3 Shaft Diameter Needle-Roller Thrust Bearing_5909K281', ( #95 ), #82 ) ;
#136 = NEXT_ASSEMBLY_USAGE_OCCURRENCE ( 'NAUO1', ' ', ' ', #79, #110, $ ) ;
#137 = NEXT_ASSEMBLY_USAGE_OCCURRENCE ( 'NAUO2', ' ', ' ', #79, #113, $ ) ;
#138 = NEXT_ASSEMBLY_USAGE_OCCURRENCE ( 'NAUO3', ' ', ' ', #79, #113, $ ) ;
ENDSEC;
END-ISO-10303-21;
