ISO-10303-21;
HEADER;
FILE_DESCRIPTION (( 'STEP AP214' ),
    '1' );
FILE_NAME ('5909K281_0.032 Thick Washer for 3 Shaft Diameter Needle-Roller Thrust Bearing.STEP',
    '2026-09-17T14:21:05',
    ( '' ),
    ( '' ),
    'SwSTEP 2.0',
    'SolidWorks 2025',
    '' );
FILE_SCHEMA (( 'AUTOMOTIVE_DESIGN' ));
ENDSEC;

DATA;
#1 = DIRECTION ( 'NONE',  ( 1.000000000000000000, 0.000000000000000000, 0.000000000000000000 ) ) ;
#2 = APPLICATION_PROTOCOL_DEFINITION ( 'draft international standard', 'automotive_design', 1998, #177 ) ;
#3 = ADVANCED_FACE ( 'NONE', ( #114 ), #50, .F. ) ;
#4 = EDGE_LOOP ( 'NONE', ( #109, #63, #169, #118 ) ) ;
#5 = VERTEX_POINT ( 'NONE', #128 ) ;
#6 = CARTESIAN_POINT ( 'NONE',  ( -1.500999999999999890, 1.838194845520176915E-16, 0.01599999999999969502 ) ) ;
#7 = CARTESIAN_POINT ( 'NONE',  ( 0.000000000000000000, 0.000000000000000000, 0.01599999999999969502 ) ) ;
#8 = CARTESIAN_POINT ( 'NONE',  ( 0.000000000000000000, 0.000000000000000000, 0.01599999999999969502 ) ) ;
#9 =( NAMED_UNIT ( * ) SI_UNIT ( $, .STERADIAN. ) SOLID_ANGLE_UNIT ( ) );
#10 = DIRECTION ( 'NONE',  ( 0.000000000000000000, 0.000000000000000000, 1.000000000000000000 ) ) ;
#11 = PRODUCT_DEFINITION ( 'General', '', #122, #205 ) ;
#12 = CIRCLE ( 'NONE', #25, 1.875000000000000000 ) ;
#13 = CLOSED_SHELL ( 'NONE', ( #142, #93, #170, #196, #3, #83 ) ) ;
#14 = DIRECTION ( 'NONE',  ( 1.000000000000000000, 0.000000000000000000, 0.000000000000000000 ) ) ;
#15 = CARTESIAN_POINT ( 'NONE',  ( -1.875000000000000000, 2.296212748401287479E-16, -0.01600000000000030564 ) ) ;
#16 = CYLINDRICAL_SURFACE ( 'NONE', #75, 1.875000000000000000 ) ;
#17 = DIRECTION ( 'NONE',  ( 0.000000000000000000, 0.000000000000000000, 1.000000000000000000 ) ) ;
#18 = DIRECTION ( 'NONE',  ( 1.000000000000000000, 0.000000000000000000, 0.000000000000000000 ) ) ;
#19 = CARTESIAN_POINT ( 'NONE',  ( -1.500999999999999890, 1.838194845520176915E-16, -0.01600000000000030564 ) ) ;
#20 = DIRECTION ( 'NONE',  ( 0.000000000000000000, 0.000000000000000000, 1.000000000000000000 ) ) ;
#21 = ORIENTED_EDGE ( 'NONE', *, *, #134, .T. ) ;
#22 = DIRECTION ( 'NONE',  ( 1.000000000000000000, 0.000000000000000000, 0.000000000000000000 ) ) ;
#23 = DIRECTION ( 'NONE',  ( 1.000000000000000000, 0.000000000000000000, 0.000000000000000000 ) ) ;
#24 = CIRCLE ( 'NONE', #185, 1.500999999999999890 ) ;
#25 = AXIS2_PLACEMENT_3D ( 'NONE', #67, #189, #133 ) ;
#26 = CIRCLE ( 'NONE', #149, 1.875000000000000000 ) ;
#27 =( NAMED_UNIT ( * ) PLANE_ANGLE_UNIT ( ) SI_UNIT ( $, .RADIAN. ) );
#28 = CARTESIAN_POINT ( 'NONE',  ( 1.500999999999999890, 0.000000000000000000, 0.01599999999999969502 ) ) ;
#29 = AXIS2_PLACEMENT_3D ( 'NONE', #80, #159, #14 ) ;
#30 = VERTEX_POINT ( 'NONE', #62 ) ;
#31 = ORIENTED_EDGE ( 'NONE', *, *, #134, .F. ) ;
#32 = DIRECTION ( 'NONE',  ( 0.000000000000000000, 0.000000000000000000, 1.000000000000000000 ) ) ;
#33 = AXIS2_PLACEMENT_3D ( 'NONE', #43, #135, #22 ) ;
#34 = DIRECTION ( 'NONE',  ( 0.000000000000000000, 0.000000000000000000, 1.000000000000000000 ) ) ;
#35 = ORIENTED_EDGE ( 'NONE', *, *, #55, .T. ) ;
#36 = DIRECTION ( 'NONE',  ( 1.000000000000000000, 0.000000000000000000, -0.000000000000000000 ) ) ;
#37 = EDGE_LOOP ( 'NONE', ( #202, #145 ) ) ;
#38 =( NAMED_UNIT ( * ) PLANE_ANGLE_UNIT ( ) SI_UNIT ( $, .RADIAN. ) );
#39 = ORIENTED_EDGE ( 'NONE', *, *, #199, .T. ) ;
#40 = LENGTH_MEASURE_WITH_UNIT ( LENGTH_MEASURE( 0.02539999999999999897 ), #136 );
#41 = AXIS2_PLACEMENT_3D ( 'NONE', #162, #34, #203 ) ;
#42 = AXIS2_PLACEMENT_3D ( 'NONE', #137, #158, #76 ) ;
#43 = CARTESIAN_POINT ( 'NONE',  ( 0.000000000000000000, 0.000000000000000000, 0.01599999999999969502 ) ) ;
#44 = EDGE_CURVE ( 'NONE', #49, #86, #24, .T. ) ;
#45 = PLANE ( 'NONE',  #130 ) ;
#46 = ORIENTED_EDGE ( 'NONE', *, *, #60, .F. ) ;
#47 = PRODUCT_RELATED_PRODUCT_CATEGORY ( 'part', '', ( #188 ) ) ;
#48 = CARTESIAN_POINT ( 'NONE',  ( 1.875000000000000000, 0.000000000000000000, -0.01600000000000030564 ) ) ;
#49 = VERTEX_POINT ( 'NONE', #6 ) ;
#50 = CYLINDRICAL_SURFACE ( 'NONE', #41, 1.500999999999999890 ) ;
#51 = CARTESIAN_POINT ( 'NONE',  ( -1.875000000000000000, 2.296212748401287479E-16, -0.01600000000000030564 ) ) ;
#52 = ORIENTED_EDGE ( 'NONE', *, *, #44, .T. ) ;
#53 = ORIENTED_EDGE ( 'NONE', *, *, #44, .F. ) ;
#54 = DIRECTION ( 'NONE',  ( 0.000000000000000000, 0.000000000000000000, 1.000000000000000000 ) ) ;
#55 = EDGE_CURVE ( 'NONE', #5, #165, #140, .T. ) ;
#56 = PRESENTATION_STYLE_ASSIGNMENT (( #117 ) ) ;
#57 = FACE_OUTER_BOUND ( 'NONE', #201, .T. ) ;
#58 = APPLICATION_PROTOCOL_DEFINITION ( 'draft international standard', 'automotive_design', 1998, #195 ) ;
#59 = PRODUCT_CONTEXT ( 'NONE', #195, 'mechanical' ) ;
#60 = EDGE_CURVE ( 'NONE', #5, #86, #108, .T. ) ;
#61 = DIRECTION ( 'NONE',  ( 0.000000000000000000, 0.000000000000000000, 1.000000000000000000 ) ) ;
#62 = CARTESIAN_POINT ( 'NONE',  ( -1.875000000000000000, 2.296212748401287479E-16, 0.01599999999999969502 ) ) ;
#63 = ORIENTED_EDGE ( 'NONE', *, *, #179, .T. ) ;
#64 = AXIS2_PLACEMENT_3D ( 'NONE', #181, #150, #132 ) ;
#65 = ORIENTED_EDGE ( 'NONE', *, *, #156, .F. ) ;
#66 = DIRECTION ( 'NONE',  ( 0.000000000000000000, 0.000000000000000000, 1.000000000000000000 ) ) ;
#67 = CARTESIAN_POINT ( 'NONE',  ( 0.000000000000000000, 0.000000000000000000, -0.01600000000000030564 ) ) ;
#68 = EDGE_LOOP ( 'NONE', ( #39, #167, #65, #180 ) ) ;
#69 = VECTOR ( 'NONE', #61, 39.37007874015748143 ) ;
#70 = CIRCLE ( 'NONE', #139, 1.875000000000000000 ) ;
#71 = SURFACE_SIDE_STYLE ('',( #154 ) ) ;
#72 = CARTESIAN_POINT ( 'NONE',  ( 0.000000000000000000, 0.000000000000000000, -0.01600000000000030564 ) ) ;
#73 = EDGE_CURVE ( 'NONE', #105, #152, #82, .T. ) ;
#74 = FACE_OUTER_BOUND ( 'NONE', #37, .T. ) ;
#75 = AXIS2_PLACEMENT_3D ( 'NONE', #81, #32, #178 ) ;
#76 = DIRECTION ( 'NONE',  ( 1.000000000000000000, 0.000000000000000000, 0.000000000000000000 ) ) ;
#77 =( NAMED_UNIT ( * ) SI_UNIT ( $, .STERADIAN. ) SOLID_ANGLE_UNIT ( ) );
#78 = DIRECTION ( 'NONE',  ( 0.000000000000000000, 0.000000000000000000, 1.000000000000000000 ) ) ;
#79 =( GEOMETRIC_REPRESENTATION_CONTEXT ( 3 ) GLOBAL_UNCERTAINTY_ASSIGNED_CONTEXT ( ( #100 ) ) GLOBAL_UNIT_ASSIGNED_CONTEXT ( ( #91, #27, #77 ) ) REPRESENTATION_CONTEXT ( 'NONE', 'WORKASPACE' ) );
#80 = CARTESIAN_POINT ( 'NONE',  ( 0.000000000000000000, 0.000000000000000000, -0.01600000000000030564 ) ) ;
#81 = CARTESIAN_POINT ( 'NONE',  ( 0.000000000000000000, 0.000000000000000000, -0.01600000000000030564 ) ) ;
#82 = LINE ( 'NONE', #148, #194 ) ;
#83 = ADVANCED_FACE ( 'NONE', ( #127, #198 ), #45, .T. ) ;
#84 = EDGE_LOOP ( 'NONE', ( #98, #53 ) ) ;
#85 = FACE_OUTER_BOUND ( 'NONE', #4, .T. ) ;
#86 = VERTEX_POINT ( 'NONE', #28 ) ;
#87 = LINE ( 'NONE', #51, #92 ) ;
#88 =( LENGTH_UNIT ( ) NAMED_UNIT ( * ) SI_UNIT ( $, .METRE. ) );
#89 = VERTEX_POINT ( 'NONE', #15 ) ;
#90 = DIRECTION ( 'NONE',  ( 0.000000000000000000, 0.000000000000000000, 1.000000000000000000 ) ) ;
#91 =( CONVERSION_BASED_UNIT ( 'INCH', #172 ) LENGTH_UNIT ( ) NAMED_UNIT ( #124 ) );
#92 = VECTOR ( 'NONE', #166, 39.37007874015748143 ) ;
#93 = ADVANCED_FACE ( 'NONE', ( #129 ), #16, .T. ) ;
#94 = SHAPE_DEFINITION_REPRESENTATION ( #171, #110 ) ;
#95 = EDGE_LOOP ( 'NONE', ( #116, #186 ) ) ;
#96 = STYLED_ITEM ( 'NONE', ( #56 ), #175 ) ;
#97 = ORIENTED_EDGE ( 'NONE', *, *, #107, .F. ) ;
#98 = ORIENTED_EDGE ( 'NONE', *, *, #112, .F. ) ;
#99 = CARTESIAN_POINT ( 'NONE',  ( 0.000000000000000000, 0.000000000000000000, -0.01600000000000030564 ) ) ;
#100 = UNCERTAINTY_MEASURE_WITH_UNIT (LENGTH_MEASURE( 1.000000000000000082E-05 ), #91, 'distance_accuracy_value', 'NONE');
#101 = DIRECTION ( 'NONE',  ( 1.000000000000000000, 0.000000000000000000, 0.000000000000000000 ) ) ;
#102 = EDGE_LOOP ( 'NONE', ( #97, #160, #183, #190 ) ) ;
#103 = DIRECTION ( 'NONE',  ( 1.000000000000000000, 0.000000000000000000, 0.000000000000000000 ) ) ;
#104 = FACE_BOUND ( 'NONE', #200, .T. ) ;
#105 = VERTEX_POINT ( 'NONE', #48 ) ;
#106 = COLOUR_RGB ( '',0.7921568627450980005, 0.8196078431372548767, 0.9333333333333333481 ) ;
#107 = EDGE_CURVE ( 'NONE', #165, #49, #113, .T. ) ;
#108 = LINE ( 'NONE', #161, #69 ) ;
#109 = ORIENTED_EDGE ( 'NONE', *, *, #147, .F. ) ;
#110 = ADVANCED_BREP_SHAPE_REPRESENTATION ( '5909K281_0.032 Thick Washer for 3 Shaft Diameter Needle-Roller Thrust Bearing_5909K281', ( #175, #42 ), #79 ) ;
#111 = CARTESIAN_POINT ( 'NONE',  ( -1.500999999999999890, 1.838194845520176915E-16, -0.01600000000000030564 ) ) ;
#112 = EDGE_CURVE ( 'NONE', #86, #49, #184, .T. ) ;
#113 = LINE ( 'NONE', #111, #197 ) ;
#114 = FACE_OUTER_BOUND ( 'NONE', #102, .T. ) ;
#115 = PLANE ( 'NONE',  #174 ) ;
#116 = ORIENTED_EDGE ( 'NONE', *, *, #156, .T. ) ;
#117 = SURFACE_STYLE_USAGE ( .BOTH. , #71 ) ;
#118 = ORIENTED_EDGE ( 'NONE', *, *, #173, .F. ) ;
#119 = CARTESIAN_POINT ( 'NONE',  ( 0.000000000000000000, 0.000000000000000000, -0.01600000000000030564 ) ) ;
#120 = MECHANICAL_DESIGN_GEOMETRIC_PRESENTATION_REPRESENTATION (  '', ( #96 ), #125 ) ;
#121 = AXIS2_PLACEMENT_3D ( 'NONE', #123, #20, #23 ) ;
#122 = PRODUCT_DEFINITION_FORMATION_WITH_SPECIFIED_SOURCE ( 'Symmetric', '', #188, .NOT_KNOWN. ) ;
#123 = CARTESIAN_POINT ( 'NONE',  ( 0.000000000000000000, 0.000000000000000000, -0.01600000000000030564 ) ) ;
#124 = DIMENSIONAL_EXPONENTS ( 1.000000000000000000, 0.000000000000000000, 0.000000000000000000, 0.000000000000000000, 0.000000000000000000, 0.000000000000000000, 0.000000000000000000 ) ;
#125 =( GEOMETRIC_REPRESENTATION_CONTEXT ( 3 ) GLOBAL_UNCERTAINTY_ASSIGNED_CONTEXT ( ( #157 ) ) GLOBAL_UNIT_ASSIGNED_CONTEXT ( ( #204, #38, #9 ) ) REPRESENTATION_CONTEXT ( 'NONE', 'WORKASPACE' ) );
#126 = AXIS2_PLACEMENT_3D ( 'NONE', #72, #10, #1 ) ;
#127 = FACE_OUTER_BOUND ( 'NONE', #95, .T. ) ;
#128 = CARTESIAN_POINT ( 'NONE',  ( 1.500999999999999890, 0.000000000000000000, -0.01600000000000030564 ) ) ;
#129 = FACE_OUTER_BOUND ( 'NONE', #68, .T. ) ;
#130 = AXIS2_PLACEMENT_3D ( 'NONE', #7, #66, #131 ) ;
#131 = DIRECTION ( 'NONE',  ( 1.000000000000000000, 0.000000000000000000, -0.000000000000000000 ) ) ;
#132 = DIRECTION ( 'NONE',  ( 1.000000000000000000, 0.000000000000000000, 0.000000000000000000 ) ) ;
#133 = DIRECTION ( 'NONE',  ( 1.000000000000000000, 0.000000000000000000, 0.000000000000000000 ) ) ;
#134 = EDGE_CURVE ( 'NONE', #165, #5, #192, .T. ) ;
#135 = DIRECTION ( 'NONE',  ( 0.000000000000000000, 0.000000000000000000, 1.000000000000000000 ) ) ;
#136 =( LENGTH_UNIT ( ) NAMED_UNIT ( * ) SI_UNIT ( $, .METRE. ) );
#137 = CARTESIAN_POINT ( 'NONE',  ( 0.000000000000000000, 0.000000000000000000, 0.000000000000000000 ) ) ;
#138 = DIMENSIONAL_EXPONENTS ( 1.000000000000000000, 0.000000000000000000, 0.000000000000000000, 0.000000000000000000, 0.000000000000000000, 0.000000000000000000, 0.000000000000000000 ) ;
#139 = AXIS2_PLACEMENT_3D ( 'NONE', #119, #90, #103 ) ;
#140 = CIRCLE ( 'NONE', #29, 1.500999999999999890 ) ;
#141 = CYLINDRICAL_SURFACE ( 'NONE', #126, 1.875000000000000000 ) ;
#142 = ADVANCED_FACE ( 'NONE', ( #57 ), #191, .F. ) ;
#143 = AXIS2_PLACEMENT_3D ( 'NONE', #99, #163, #18 ) ;
#144 = DIRECTION ( 'NONE',  ( 1.000000000000000000, 0.000000000000000000, 0.000000000000000000 ) ) ;
#145 = ORIENTED_EDGE ( 'NONE', *, *, #179, .F. ) ;
#146 = ORIENTED_EDGE ( 'NONE', *, *, #107, .T. ) ;
#147 = EDGE_CURVE ( 'NONE', #89, #30, #87, .T. ) ;
#148 = CARTESIAN_POINT ( 'NONE',  ( 1.875000000000000000, 0.000000000000000000, -0.01600000000000030564 ) ) ;
#149 = AXIS2_PLACEMENT_3D ( 'NONE', #164, #54, #101 ) ;
#150 = DIRECTION ( 'NONE',  ( 0.000000000000000000, 0.000000000000000000, 1.000000000000000000 ) ) ;
#151 = FILL_AREA_STYLE_COLOUR ( '', #106 ) ;
#152 = VERTEX_POINT ( 'NONE', #153 ) ;
#153 = CARTESIAN_POINT ( 'NONE',  ( 1.875000000000000000, 0.000000000000000000, 0.01599999999999969502 ) ) ;
#154 = SURFACE_STYLE_FILL_AREA ( #155 ) ;
#155 = FILL_AREA_STYLE ('',( #151 ) ) ;
#156 = EDGE_CURVE ( 'NONE', #152, #30, #26, .T. ) ;
#157 = UNCERTAINTY_MEASURE_WITH_UNIT (LENGTH_MEASURE( 1.000000000000000082E-05 ), #204, 'distance_accuracy_value', 'NONE');
#158 = DIRECTION ( 'NONE',  ( 0.000000000000000000, 0.000000000000000000, 1.000000000000000000 ) ) ;
#159 = DIRECTION ( 'NONE',  ( 0.000000000000000000, 0.000000000000000000, 1.000000000000000000 ) ) ;
#160 = ORIENTED_EDGE ( 'NONE', *, *, #55, .F. ) ;
#161 = CARTESIAN_POINT ( 'NONE',  ( 1.500999999999999890, 0.000000000000000000, -0.01600000000000030564 ) ) ;
#162 = CARTESIAN_POINT ( 'NONE',  ( 0.000000000000000000, 0.000000000000000000, -0.01600000000000030564 ) ) ;
#163 = DIRECTION ( 'NONE',  ( 0.000000000000000000, 0.000000000000000000, 1.000000000000000000 ) ) ;
#164 = CARTESIAN_POINT ( 'NONE',  ( 0.000000000000000000, 0.000000000000000000, 0.01599999999999969502 ) ) ;
#165 = VERTEX_POINT ( 'NONE', #19 ) ;
#166 = DIRECTION ( 'NONE',  ( 0.000000000000000000, 0.000000000000000000, 1.000000000000000000 ) ) ;
#167 = ORIENTED_EDGE ( 'NONE', *, *, #147, .T. ) ;
#168 = PRESENTATION_LAYER_ASSIGNMENT (  '', '', ( #96 ) ) ;
#169 = ORIENTED_EDGE ( 'NONE', *, *, #73, .T. ) ;
#170 = ADVANCED_FACE ( 'NONE', ( #85 ), #141, .T. ) ;
#171 = PRODUCT_DEFINITION_SHAPE ( 'NONE', 'NONE',  #11 ) ;
#172 = LENGTH_MEASURE_WITH_UNIT ( LENGTH_MEASURE( 0.02539999999999999897 ), #88 );
#173 = EDGE_CURVE ( 'NONE', #30, #152, #176, .T. ) ;
#174 = AXIS2_PLACEMENT_3D ( 'NONE', #193, #187, #36 ) ;
#175 = MANIFOLD_SOLID_BREP ( 'Boss-Extrude1', #13 ) ;
#176 = CIRCLE ( 'NONE', #33, 1.875000000000000000 ) ;
#177 = APPLICATION_CONTEXT ( 'automotive_design' ) ;
#178 = DIRECTION ( 'NONE',  ( 1.000000000000000000, 0.000000000000000000, 0.000000000000000000 ) ) ;
#179 = EDGE_CURVE ( 'NONE', #89, #105, #12, .T. ) ;
#180 = ORIENTED_EDGE ( 'NONE', *, *, #73, .F. ) ;
#181 = CARTESIAN_POINT ( 'NONE',  ( 0.000000000000000000, 0.000000000000000000, 0.01599999999999969502 ) ) ;
#182 = DIRECTION ( 'NONE',  ( 0.000000000000000000, 0.000000000000000000, 1.000000000000000000 ) ) ;
#183 = ORIENTED_EDGE ( 'NONE', *, *, #60, .T. ) ;
#184 = CIRCLE ( 'NONE', #64, 1.500999999999999890 ) ;
#185 = AXIS2_PLACEMENT_3D ( 'NONE', #8, #17, #144 ) ;
#186 = ORIENTED_EDGE ( 'NONE', *, *, #173, .T. ) ;
#187 = DIRECTION ( 'NONE',  ( 0.000000000000000000, 0.000000000000000000, 1.000000000000000000 ) ) ;
#188 = PRODUCT ( '5909K281_0.032 Thick Washer for 3 Shaft Diameter Needle-Roller Thrust Bearing_5909K281', '5909K281_0.032 Thick Washer for 3 Shaft Diameter Needle-Roller Thrust Bearing_5909K281', '', ( #59 ) ) ;
#189 = DIRECTION ( 'NONE',  ( 0.000000000000000000, 0.000000000000000000, 1.000000000000000000 ) ) ;
#190 = ORIENTED_EDGE ( 'NONE', *, *, #112, .T. ) ;
#191 = CYLINDRICAL_SURFACE ( 'NONE', #121, 1.500999999999999890 ) ;
#192 = CIRCLE ( 'NONE', #143, 1.500999999999999890 ) ;
#193 = CARTESIAN_POINT ( 'NONE',  ( 0.000000000000000000, 0.000000000000000000, -0.01600000000000030564 ) ) ;
#194 = VECTOR ( 'NONE', #78, 39.37007874015748143 ) ;
#195 = APPLICATION_CONTEXT ( 'automotive_design' ) ;
#196 = ADVANCED_FACE ( 'NONE', ( #104, #74 ), #115, .F. ) ;
#197 = VECTOR ( 'NONE', #182, 39.37007874015748143 ) ;
#198 = FACE_BOUND ( 'NONE', #84, .T. ) ;
#199 = EDGE_CURVE ( 'NONE', #105, #89, #70, .T. ) ;
#200 = EDGE_LOOP ( 'NONE', ( #35, #21 ) ) ;
#201 = EDGE_LOOP ( 'NONE', ( #31, #146, #52, #46 ) ) ;
#202 = ORIENTED_EDGE ( 'NONE', *, *, #199, .F. ) ;
#203 = DIRECTION ( 'NONE',  ( 1.000000000000000000, 0.000000000000000000, 0.000000000000000000 ) ) ;
#204 =( CONVERSION_BASED_UNIT ( 'INCH', #40 ) LENGTH_UNIT ( ) NAMED_UNIT ( #138 ) );
#205 = PRODUCT_DEFINITION_CONTEXT ( 'detailed design', #177, 'design' ) ;
ENDSEC;
END-ISO-10303-21;
