ISO-10303-21;
HEADER;
FILE_DESCRIPTION (( 'STEP AP214' ),
    '1' );
FILE_NAME ('6391K125_Oil-Embedded 841 Bronze Sleeve Bearing.STEP',
    '2026-09-17T14:21:04',
    ( '' ),
    ( '' ),
    'SwSTEP 2.0',
    'SolidWorks 2025',
    '' );
FILE_SCHEMA (( 'AUTOMOTIVE_DESIGN' ));
ENDSEC;

DATA;
#1 = ORIENTED_EDGE ( 'NONE', *, *, #14, .T. ) ;
#2 = CARTESIAN_POINT ( 'NONE',  ( 0.000000000000000000, 0.000000000000000000, 0.1875000000000000278 ) ) ;
#3 = ADVANCED_FACE ( 'NONE', ( #97, #158 ), #51, .F. ) ;
#4 = DIRECTION ( 'NONE',  ( 0.000000000000000000, 0.000000000000000000, 1.000000000000000000 ) ) ;
#5 = LINE ( 'NONE', #159, #150 ) ;
#6 = AXIS2_PLACEMENT_3D ( 'NONE', #2, #4, #148 ) ;
#7 = VERTEX_POINT ( 'NONE', #94 ) ;
#8 = DIRECTION ( 'NONE',  ( -1.000000000000000000, 0.000000000000000000, 0.000000000000000000 ) ) ;
#9 =( NAMED_UNIT ( * ) PLANE_ANGLE_UNIT ( ) SI_UNIT ( $, .RADIAN. ) );
#10 = DIRECTION ( 'NONE',  ( 1.000000000000000000, 0.000000000000000000, 0.000000000000000000 ) ) ;
#11 = CARTESIAN_POINT ( 'NONE',  ( 0.000000000000000000, 0.000000000000000000, 0.1875000000000000278 ) ) ;
#12 = LINE ( 'NONE', #118, #22 ) ;
#13 = LENGTH_MEASURE_WITH_UNIT ( LENGTH_MEASURE( 0.02539999999999999897 ), #24 );
#14 = EDGE_CURVE ( 'NONE', #7, #64, #180, .T. ) ;
#15 = ORIENTED_EDGE ( 'NONE', *, *, #104, .F. ) ;
#16 = DIRECTION ( 'NONE',  ( -1.000000000000000000, 0.000000000000000000, 0.000000000000000000 ) ) ;
#17 = MECHANICAL_DESIGN_GEOMETRIC_PRESENTATION_REPRESENTATION (  '', ( #101 ), #121 ) ;
#18 = ORIENTED_EDGE ( 'NONE', *, *, #123, .T. ) ;
#19 = FACE_BOUND ( 'NONE', #31, .T. ) ;
#20 = EDGE_CURVE ( 'NONE', #107, #81, #178, .T. ) ;
#21 = FACE_OUTER_BOUND ( 'NONE', #124, .T. ) ;
#22 = VECTOR ( 'NONE', #25, 39.37007874015748143 ) ;
#23 = DIRECTION ( 'NONE',  ( -0.000000000000000000, -0.000000000000000000, -1.000000000000000000 ) ) ;
#24 =( LENGTH_UNIT ( ) NAMED_UNIT ( * ) SI_UNIT ( $, .METRE. ) );
#25 = DIRECTION ( 'NONE',  ( -0.000000000000000000, -0.000000000000000000, -1.000000000000000000 ) ) ;
#26 = APPLICATION_CONTEXT ( 'automotive_design' ) ;
#27 = SURFACE_STYLE_USAGE ( .BOTH. , #75 ) ;
#28 = CARTESIAN_POINT ( 'NONE',  ( -0.1255000000000000282, 0.000000000000000000, 0.1875000000000000278 ) ) ;
#29 = EDGE_CURVE ( 'NONE', #61, #47, #193, .T. ) ;
#30 = ADVANCED_BREP_SHAPE_REPRESENTATION ( '6391K125_Oil-Embedded 841 Bronze Sleeve Bearing_6391K125', ( #182, #60 ), #134 ) ;
#31 = EDGE_LOOP ( 'NONE', ( #50, #126 ) ) ;
#32 = EDGE_CURVE ( 'NONE', #107, #61, #65, .T. ) ;
#33 = DIRECTION ( 'NONE',  ( 1.000000000000000000, 0.000000000000000000, 0.000000000000000000 ) ) ;
#34 = DIRECTION ( 'NONE',  ( 0.000000000000000000, 0.000000000000000000, 1.000000000000000000 ) ) ;
#35 = DIRECTION ( 'NONE',  ( 1.000000000000000000, 0.000000000000000000, -0.000000000000000000 ) ) ;
#36 = CLOSED_SHELL ( 'NONE', ( #76, #152, #89, #40, #99, #3 ) ) ;
#37 = CARTESIAN_POINT ( 'NONE',  ( -0.09375000000000001388, 0.000000000000000000, -0.1875000000000000278 ) ) ;
#38 = PRODUCT_DEFINITION_SHAPE ( 'NONE', 'NONE',  #192 ) ;
#39 = PLANE ( 'NONE',  #83 ) ;
#40 = ADVANCED_FACE ( 'NONE', ( #110 ), #54, .T. ) ;
#41 = FACE_OUTER_BOUND ( 'NONE', #173, .T. ) ;
#42 = CIRCLE ( 'NONE', #155, 0.09375000000000001388 ) ;
#43 =( NAMED_UNIT ( * ) SI_UNIT ( $, .STERADIAN. ) SOLID_ANGLE_UNIT ( ) );
#44 = DIRECTION ( 'NONE',  ( -0.000000000000000000, -0.000000000000000000, -1.000000000000000000 ) ) ;
#45 = DIRECTION ( 'NONE',  ( 0.000000000000000000, 0.000000000000000000, 1.000000000000000000 ) ) ;
#46 = UNCERTAINTY_MEASURE_WITH_UNIT (LENGTH_MEASURE( 1.000000000000000082E-05 ), #167, 'distance_accuracy_value', 'NONE');
#47 = VERTEX_POINT ( 'NONE', #176 ) ;
#48 = AXIS2_PLACEMENT_3D ( 'NONE', #161, #23, #8 ) ;
#49 = PRODUCT_RELATED_PRODUCT_CATEGORY ( 'part', '', ( #69 ) ) ;
#50 = ORIENTED_EDGE ( 'NONE', *, *, #122, .F. ) ;
#51 = PLANE ( 'NONE',  #194 ) ;
#52 = CARTESIAN_POINT ( 'NONE',  ( 0.000000000000000000, 0.000000000000000000, 0.1875000000000000278 ) ) ;
#53 = CYLINDRICAL_SURFACE ( 'NONE', #186, 0.09375000000000001388 ) ;
#54 = CYLINDRICAL_SURFACE ( 'NONE', #87, 0.1255000000000000282 ) ;
#55 = EDGE_LOOP ( 'NONE', ( #171, #85, #188, #93 ) ) ;
#56 = DIRECTION ( 'NONE',  ( 1.000000000000000000, 0.000000000000000000, 0.000000000000000000 ) ) ;
#57 = LENGTH_MEASURE_WITH_UNIT ( LENGTH_MEASURE( 0.02539999999999999897 ), #120 );
#58 = SURFACE_STYLE_FILL_AREA ( #149 ) ;
#59 = DIRECTION ( 'NONE',  ( 1.000000000000000000, 0.000000000000000000, 0.000000000000000000 ) ) ;
#60 = AXIS2_PLACEMENT_3D ( 'NONE', #119, #175, #33 ) ;
#61 = VERTEX_POINT ( 'NONE', #174 ) ;
#62 = ORIENTED_EDGE ( 'NONE', *, *, #114, .F. ) ;
#63 = APPLICATION_PROTOCOL_DEFINITION ( 'draft international standard', 'automotive_design', 1998, #116 ) ;
#64 = VERTEX_POINT ( 'NONE', #37 ) ;
#65 = CIRCLE ( 'NONE', #6, 0.1255000000000000282 ) ;
#66 = CARTESIAN_POINT ( 'NONE',  ( 0.000000000000000000, 0.000000000000000000, 0.1875000000000000278 ) ) ;
#67 = ORIENTED_EDGE ( 'NONE', *, *, #104, .T. ) ;
#68 = ORIENTED_EDGE ( 'NONE', *, *, #79, .T. ) ;
#69 = PRODUCT ( '6391K125_Oil-Embedded 841 Bronze Sleeve Bearing_6391K125', '6391K125_Oil-Embedded 841 Bronze Sleeve Bearing_6391K125', '', ( #109 ) ) ;
#70 = FACE_OUTER_BOUND ( 'NONE', #205, .T. ) ;
#71 = ORIENTED_EDGE ( 'NONE', *, *, #32, .T. ) ;
#72 = DIRECTION ( 'NONE',  ( 1.000000000000000000, 0.000000000000000000, 0.000000000000000000 ) ) ;
#73 = CARTESIAN_POINT ( 'NONE',  ( 0.09375000000000001388, 1.148106374200643401E-17, 0.1875000000000000278 ) ) ;
#74 = DIRECTION ( 'NONE',  ( 1.000000000000000000, 0.000000000000000000, 0.000000000000000000 ) ) ;
#75 = SURFACE_SIDE_STYLE ('',( #58 ) ) ;
#76 = ADVANCED_FACE ( 'NONE', ( #41 ), #53, .F. ) ;
#77 =( NAMED_UNIT ( * ) PLANE_ANGLE_UNIT ( ) SI_UNIT ( $, .RADIAN. ) );
#78 = AXIS2_PLACEMENT_3D ( 'NONE', #201, #103, #179 ) ;
#79 = EDGE_CURVE ( 'NONE', #142, #7, #5, .T. ) ;
#80 = ORIENTED_EDGE ( 'NONE', *, *, #14, .F. ) ;
#81 = VERTEX_POINT ( 'NONE', #177 ) ;
#82 = DIRECTION ( 'NONE',  ( 1.000000000000000000, 0.000000000000000000, 0.000000000000000000 ) ) ;
#83 = AXIS2_PLACEMENT_3D ( 'NONE', #100, #160, #35 ) ;
#84 = DIRECTION ( 'NONE',  ( 0.000000000000000000, 0.000000000000000000, 1.000000000000000000 ) ) ;
#85 = ORIENTED_EDGE ( 'NONE', *, *, #29, .T. ) ;
#86 = CYLINDRICAL_SURFACE ( 'NONE', #48, 0.09375000000000001388 ) ;
#87 = AXIS2_PLACEMENT_3D ( 'NONE', #52, #112, #115 ) ;
#88 = ORIENTED_EDGE ( 'NONE', *, *, #164, .T. ) ;
#89 = ADVANCED_FACE ( 'NONE', ( #70, #19 ), #39, .T. ) ;
#90 = FACE_OUTER_BOUND ( 'NONE', #55, .T. ) ;
#91 = PRESENTATION_STYLE_ASSIGNMENT (( #27 ) ) ;
#92 = CARTESIAN_POINT ( 'NONE',  ( 0.000000000000000000, 0.000000000000000000, 0.1875000000000000278 ) ) ;
#93 = ORIENTED_EDGE ( 'NONE', *, *, #20, .F. ) ;
#94 = CARTESIAN_POINT ( 'NONE',  ( 0.09375000000000001388, 1.148106374200643401E-17, -0.1875000000000000278 ) ) ;
#95 = CARTESIAN_POINT ( 'NONE',  ( 0.000000000000000000, 0.000000000000000000, -0.1875000000000000278 ) ) ;
#96 = DIMENSIONAL_EXPONENTS ( 1.000000000000000000, 0.000000000000000000, 0.000000000000000000, 0.000000000000000000, 0.000000000000000000, 0.000000000000000000, 0.000000000000000000 ) ;
#97 = FACE_BOUND ( 'NONE', #170, .T. ) ;
#98 = CARTESIAN_POINT ( 'NONE',  ( 0.1255000000000000282, 1.536931732929927953E-17, 0.1875000000000000278 ) ) ;
#99 = ADVANCED_FACE ( 'NONE', ( #21 ), #86, .F. ) ;
#100 = CARTESIAN_POINT ( 'NONE',  ( 0.000000000000000000, 0.000000000000000000, 0.1875000000000000278 ) ) ;
#101 = STYLED_ITEM ( 'NONE', ( #91 ), #182 ) ;
#102 = AXIS2_PLACEMENT_3D ( 'NONE', #92, #45, #10 ) ;
#103 = DIRECTION ( 'NONE',  ( 0.000000000000000000, 0.000000000000000000, 1.000000000000000000 ) ) ;
#104 = EDGE_CURVE ( 'NONE', #81, #47, #140, .T. ) ;
#105 = CIRCLE ( 'NONE', #172, 0.09375000000000001388 ) ;
#106 = DIRECTION ( 'NONE',  ( -1.000000000000000000, 0.000000000000000000, 0.000000000000000000 ) ) ;
#107 = VERTEX_POINT ( 'NONE', #28 ) ;
#108 = ORIENTED_EDGE ( 'NONE', *, *, #29, .F. ) ;
#109 = PRODUCT_CONTEXT ( 'NONE', #116, 'mechanical' ) ;
#110 = FACE_OUTER_BOUND ( 'NONE', #190, .T. ) ;
#111 = UNCERTAINTY_MEASURE_WITH_UNIT (LENGTH_MEASURE( 1.000000000000000082E-05 ), #198, 'distance_accuracy_value', 'NONE');
#112 = DIRECTION ( 'NONE',  ( -0.000000000000000000, -0.000000000000000000, -1.000000000000000000 ) ) ;
#113 = EDGE_LOOP ( 'NONE', ( #15, #62 ) ) ;
#114 = EDGE_CURVE ( 'NONE', #47, #81, #162, .T. ) ;
#115 = DIRECTION ( 'NONE',  ( -1.000000000000000000, 0.000000000000000000, 0.000000000000000000 ) ) ;
#116 = APPLICATION_CONTEXT ( 'automotive_design' ) ;
#117 = CARTESIAN_POINT ( 'NONE',  ( -0.09375000000000001388, 0.000000000000000000, 0.1875000000000000278 ) ) ;
#118 = CARTESIAN_POINT ( 'NONE',  ( -0.09375000000000001388, 0.000000000000000000, 0.1875000000000000278 ) ) ;
#119 = CARTESIAN_POINT ( 'NONE',  ( 0.000000000000000000, 0.000000000000000000, 0.000000000000000000 ) ) ;
#120 =( LENGTH_UNIT ( ) NAMED_UNIT ( * ) SI_UNIT ( $, .METRE. ) );
#121 =( GEOMETRIC_REPRESENTATION_CONTEXT ( 3 ) GLOBAL_UNCERTAINTY_ASSIGNED_CONTEXT ( ( #46 ) ) GLOBAL_UNIT_ASSIGNED_CONTEXT ( ( #167, #77, #168 ) ) REPRESENTATION_CONTEXT ( 'NONE', 'WORKASPACE' ) );
#122 = EDGE_CURVE ( 'NONE', #143, #142, #189, .T. ) ;
#123 = EDGE_CURVE ( 'NONE', #61, #107, #127, .T. ) ;
#124 = EDGE_LOOP ( 'NONE', ( #130, #141, #203, #80 ) ) ;
#125 = PRESENTATION_LAYER_ASSIGNMENT (  '', '', ( #101 ) ) ;
#126 = ORIENTED_EDGE ( 'NONE', *, *, #128, .F. ) ;
#127 = CIRCLE ( 'NONE', #199, 0.1255000000000000282 ) ;
#128 = EDGE_CURVE ( 'NONE', #142, #143, #42, .T. ) ;
#129 = ORIENTED_EDGE ( 'NONE', *, *, #181, .F. ) ;
#130 = ORIENTED_EDGE ( 'NONE', *, *, #79, .F. ) ;
#131 = CARTESIAN_POINT ( 'NONE',  ( 0.000000000000000000, 0.000000000000000000, -0.1875000000000000278 ) ) ;
#132 = AXIS2_PLACEMENT_3D ( 'NONE', #95, #84, #82 ) ;
#133 = DIMENSIONAL_EXPONENTS ( 1.000000000000000000, 0.000000000000000000, 0.000000000000000000, 0.000000000000000000, 0.000000000000000000, 0.000000000000000000, 0.000000000000000000 ) ;
#134 =( GEOMETRIC_REPRESENTATION_CONTEXT ( 3 ) GLOBAL_UNCERTAINTY_ASSIGNED_CONTEXT ( ( #111 ) ) GLOBAL_UNIT_ASSIGNED_CONTEXT ( ( #198, #9, #43 ) ) REPRESENTATION_CONTEXT ( 'NONE', 'WORKASPACE' ) );
#135 = ORIENTED_EDGE ( 'NONE', *, *, #32, .F. ) ;
#136 = CARTESIAN_POINT ( 'NONE',  ( 0.000000000000000000, 0.000000000000000000, -0.1875000000000000278 ) ) ;
#137 = AXIS2_PLACEMENT_3D ( 'NONE', #151, #44, #106 ) ;
#138 = VECTOR ( 'NONE', #147, 39.37007874015748143 ) ;
#139 = DIRECTION ( 'NONE',  ( 0.000000000000000000, 0.000000000000000000, 1.000000000000000000 ) ) ;
#140 = CIRCLE ( 'NONE', #144, 0.1255000000000000282 ) ;
#141 = ORIENTED_EDGE ( 'NONE', *, *, #128, .T. ) ;
#142 = VERTEX_POINT ( 'NONE', #73 ) ;
#143 = VERTEX_POINT ( 'NONE', #117 ) ;
#144 = AXIS2_PLACEMENT_3D ( 'NONE', #136, #197, #56 ) ;
#145 = CARTESIAN_POINT ( 'NONE',  ( -0.1255000000000000282, 0.000000000000000000, 0.1875000000000000278 ) ) ;
#146 = ORIENTED_EDGE ( 'NONE', *, *, #122, .T. ) ;
#147 = DIRECTION ( 'NONE',  ( -0.000000000000000000, -0.000000000000000000, -1.000000000000000000 ) ) ;
#148 = DIRECTION ( 'NONE',  ( 1.000000000000000000, 0.000000000000000000, 0.000000000000000000 ) ) ;
#149 = FILL_AREA_STYLE ('',( #183 ) ) ;
#150 = VECTOR ( 'NONE', #191, 39.37007874015748143 ) ;
#151 = CARTESIAN_POINT ( 'NONE',  ( 0.000000000000000000, 0.000000000000000000, 0.1875000000000000278 ) ) ;
#152 = ADVANCED_FACE ( 'NONE', ( #90 ), #154, .T. ) ;
#153 = CARTESIAN_POINT ( 'NONE',  ( 0.000000000000000000, 0.000000000000000000, -0.1875000000000000278 ) ) ;
#154 = CYLINDRICAL_SURFACE ( 'NONE', #137, 0.1255000000000000282 ) ;
#155 = AXIS2_PLACEMENT_3D ( 'NONE', #165, #139, #59 ) ;
#156 = APPLICATION_PROTOCOL_DEFINITION ( 'draft international standard', 'automotive_design', 1998, #26 ) ;
#157 = DIRECTION ( 'NONE',  ( -0.000000000000000000, -0.000000000000000000, -1.000000000000000000 ) ) ;
#158 = FACE_OUTER_BOUND ( 'NONE', #113, .T. ) ;
#159 = CARTESIAN_POINT ( 'NONE',  ( 0.09375000000000001388, 1.148106374200643401E-17, 0.1875000000000000278 ) ) ;
#160 = DIRECTION ( 'NONE',  ( 0.000000000000000000, 0.000000000000000000, 1.000000000000000000 ) ) ;
#161 = CARTESIAN_POINT ( 'NONE',  ( 0.000000000000000000, 0.000000000000000000, 0.1875000000000000278 ) ) ;
#162 = CIRCLE ( 'NONE', #78, 0.1255000000000000282 ) ;
#163 = PRODUCT_DEFINITION_FORMATION_WITH_SPECIFIED_SOURCE ( 'Symmetric', '', #69, .NOT_KNOWN. ) ;
#164 = EDGE_CURVE ( 'NONE', #64, #7, #105, .T. ) ;
#165 = CARTESIAN_POINT ( 'NONE',  ( 0.000000000000000000, 0.000000000000000000, 0.1875000000000000278 ) ) ;
#166 = DIRECTION ( 'NONE',  ( 0.000000000000000000, 0.000000000000000000, 1.000000000000000000 ) ) ;
#167 =( CONVERSION_BASED_UNIT ( 'INCH', #57 ) LENGTH_UNIT ( ) NAMED_UNIT ( #96 ) );
#168 =( NAMED_UNIT ( * ) SI_UNIT ( $, .STERADIAN. ) SOLID_ANGLE_UNIT ( ) );
#169 = COLOUR_RGB ( '',0.7921568627450980005, 0.8196078431372548767, 0.9333333333333333481 ) ;
#170 = EDGE_LOOP ( 'NONE', ( #88, #1 ) ) ;
#171 = ORIENTED_EDGE ( 'NONE', *, *, #123, .F. ) ;
#172 = AXIS2_PLACEMENT_3D ( 'NONE', #153, #200, #74 ) ;
#173 = EDGE_LOOP ( 'NONE', ( #146, #68, #202, #129 ) ) ;
#174 = CARTESIAN_POINT ( 'NONE',  ( 0.1255000000000000282, 1.536931732929927953E-17, 0.1875000000000000278 ) ) ;
#175 = DIRECTION ( 'NONE',  ( 0.000000000000000000, 0.000000000000000000, 1.000000000000000000 ) ) ;
#176 = CARTESIAN_POINT ( 'NONE',  ( 0.1255000000000000282, 1.536931732929927953E-17, -0.1875000000000000278 ) ) ;
#177 = CARTESIAN_POINT ( 'NONE',  ( -0.1255000000000000282, 0.000000000000000000, -0.1875000000000000278 ) ) ;
#178 = LINE ( 'NONE', #145, #185 ) ;
#179 = DIRECTION ( 'NONE',  ( 1.000000000000000000, 0.000000000000000000, 0.000000000000000000 ) ) ;
#180 = CIRCLE ( 'NONE', #132, 0.09375000000000001388 ) ;
#181 = EDGE_CURVE ( 'NONE', #143, #64, #12, .T. ) ;
#182 = MANIFOLD_SOLID_BREP ( 'Boss-Extrude1', #36 ) ;
#183 = FILL_AREA_STYLE_COLOUR ( '', #169 ) ;
#184 = ORIENTED_EDGE ( 'NONE', *, *, #20, .T. ) ;
#185 = VECTOR ( 'NONE', #196, 39.37007874015748143 ) ;
#186 = AXIS2_PLACEMENT_3D ( 'NONE', #66, #157, #16 ) ;
#187 = SHAPE_DEFINITION_REPRESENTATION ( #38, #30 ) ;
#188 = ORIENTED_EDGE ( 'NONE', *, *, #114, .T. ) ;
#189 = CIRCLE ( 'NONE', #102, 0.09375000000000001388 ) ;
#190 = EDGE_LOOP ( 'NONE', ( #108, #135, #184, #67 ) ) ;
#191 = DIRECTION ( 'NONE',  ( -0.000000000000000000, -0.000000000000000000, -1.000000000000000000 ) ) ;
#192 = PRODUCT_DEFINITION ( 'General', '', #163, #204 ) ;
#193 = LINE ( 'NONE', #98, #138 ) ;
#194 = AXIS2_PLACEMENT_3D ( 'NONE', #131, #34, #195 ) ;
#195 = DIRECTION ( 'NONE',  ( 1.000000000000000000, 0.000000000000000000, -0.000000000000000000 ) ) ;
#196 = DIRECTION ( 'NONE',  ( -0.000000000000000000, -0.000000000000000000, -1.000000000000000000 ) ) ;
#197 = DIRECTION ( 'NONE',  ( 0.000000000000000000, 0.000000000000000000, 1.000000000000000000 ) ) ;
#198 =( CONVERSION_BASED_UNIT ( 'INCH', #13 ) LENGTH_UNIT ( ) NAMED_UNIT ( #133 ) );
#199 = AXIS2_PLACEMENT_3D ( 'NONE', #11, #166, #72 ) ;
#200 = DIRECTION ( 'NONE',  ( 0.000000000000000000, 0.000000000000000000, 1.000000000000000000 ) ) ;
#201 = CARTESIAN_POINT ( 'NONE',  ( 0.000000000000000000, 0.000000000000000000, -0.1875000000000000278 ) ) ;
#202 = ORIENTED_EDGE ( 'NONE', *, *, #164, .F. ) ;
#203 = ORIENTED_EDGE ( 'NONE', *, *, #181, .T. ) ;
#204 = PRODUCT_DEFINITION_CONTEXT ( 'detailed design', #26, 'design' ) ;
#205 = EDGE_LOOP ( 'NONE', ( #71, #18 ) ) ;
ENDSEC;
END-ISO-10303-21;
