ISO-10303-21;
HEADER;
FILE_DESCRIPTION (( 'STEP AP214' ),
    '1' );
FILE_NAME ('6391K172_Oil-Embedded 841 Bronze Sleeve Bearing.STEP',
    '2026-09-17T14:21:04',
    ( '' ),
    ( '' ),
    'SwSTEP 2.0',
    'SolidWorks 2025',
    '' );
FILE_SCHEMA (( 'AUTOMOTIVE_DESIGN' ));
ENDSEC;

DATA;
#1 = ORIENTED_EDGE ( 'NONE', *, *, #37, .T. ) ;
#2 = ADVANCED_FACE ( 'NONE', ( #83 ), #118, .F. ) ;
#3 = DIRECTION ( 'NONE',  ( 0.000000000000000000, 0.000000000000000000, 1.000000000000000000 ) ) ;
#4 = CARTESIAN_POINT ( 'NONE',  ( -0.2510000000000000564, 0.000000000000000000, 0.1875000000000000278 ) ) ;
#5 = CARTESIAN_POINT ( 'NONE',  ( 0.2510000000000000564, 3.073863465859855907E-17, -0.1875000000000000278 ) ) ;
#6 = CARTESIAN_POINT ( 'NONE',  ( 0.1877500000000000002, 2.299274365399155177E-17, 0.1875000000000000278 ) ) ;
#7 = DIRECTION ( 'NONE',  ( -0.000000000000000000, -0.000000000000000000, -1.000000000000000000 ) ) ;
#8 = CARTESIAN_POINT ( 'NONE',  ( 0.2510000000000000564, 3.073863465859855907E-17, 0.1875000000000000278 ) ) ;
#9 = ADVANCED_BREP_SHAPE_REPRESENTATION ( '6391K172_Oil-Embedded 841 Bronze Sleeve Bearing_6391K172', ( #186, #11 ), #134 ) ;
#10 = LINE ( 'NONE', #4, #158 ) ;
#11 = AXIS2_PLACEMENT_3D ( 'NONE', #89, #79, #130 ) ;
#12 = CARTESIAN_POINT ( 'NONE',  ( 0.000000000000000000, 0.000000000000000000, -0.1875000000000000278 ) ) ;
#13 = FACE_OUTER_BOUND ( 'NONE', #176, .T. ) ;
#14 = CARTESIAN_POINT ( 'NONE',  ( 0.000000000000000000, 0.000000000000000000, 0.1875000000000000278 ) ) ;
#15 = PRODUCT_DEFINITION_SHAPE ( 'NONE', 'NONE',  #20 ) ;
#16 = VECTOR ( 'NONE', #26, 39.37007874015748143 ) ;
#17 = DIRECTION ( 'NONE',  ( 1.000000000000000000, 0.000000000000000000, 0.000000000000000000 ) ) ;
#18 = EDGE_CURVE ( 'NONE', #52, #45, #64, .T. ) ;
#19 = FACE_OUTER_BOUND ( 'NONE', #98, .T. ) ;
#20 = PRODUCT_DEFINITION ( 'General', '', #180, #80 ) ;
#21 = ORIENTED_EDGE ( 'NONE', *, *, #32, .T. ) ;
#22 = EDGE_LOOP ( 'NONE', ( #24, #65, #132, #112 ) ) ;
#23 = UNCERTAINTY_MEASURE_WITH_UNIT (LENGTH_MEASURE( 1.000000000000000082E-05 ), #55, 'distance_accuracy_value', 'NONE');
#24 = ORIENTED_EDGE ( 'NONE', *, *, #25, .F. ) ;
#25 = EDGE_CURVE ( 'NONE', #174, #115, #62, .T. ) ;
#26 = DIRECTION ( 'NONE',  ( -0.000000000000000000, -0.000000000000000000, -1.000000000000000000 ) ) ;
#27 = DIRECTION ( 'NONE',  ( 0.000000000000000000, 0.000000000000000000, 1.000000000000000000 ) ) ;
#28 = DIMENSIONAL_EXPONENTS ( 1.000000000000000000, 0.000000000000000000, 0.000000000000000000, 0.000000000000000000, 0.000000000000000000, 0.000000000000000000, 0.000000000000000000 ) ;
#29 = AXIS2_PLACEMENT_3D ( 'NONE', #12, #196, #17 ) ;
#30 = DIRECTION ( 'NONE',  ( 1.000000000000000000, 0.000000000000000000, 0.000000000000000000 ) ) ;
#31 = CARTESIAN_POINT ( 'NONE',  ( 0.000000000000000000, 0.000000000000000000, 0.1875000000000000278 ) ) ;
#32 = EDGE_CURVE ( 'NONE', #75, #52, #133, .T. ) ;
#33 = CARTESIAN_POINT ( 'NONE',  ( 0.2510000000000000564, 3.073863465859855907E-17, 0.1875000000000000278 ) ) ;
#34 = AXIS2_PLACEMENT_3D ( 'NONE', #150, #27, #160 ) ;
#35 = DIRECTION ( 'NONE',  ( -1.000000000000000000, 0.000000000000000000, 0.000000000000000000 ) ) ;
#36 = SURFACE_SIDE_STYLE ('',( #156 ) ) ;
#37 = EDGE_CURVE ( 'NONE', #115, #190, #47, .T. ) ;
#38 = PLANE ( 'NONE',  #122 ) ;
#39 = FILL_AREA_STYLE ('',( #111 ) ) ;
#40 = AXIS2_PLACEMENT_3D ( 'NONE', #119, #102, #30 ) ;
#41 =( GEOMETRIC_REPRESENTATION_CONTEXT ( 3 ) GLOBAL_UNCERTAINTY_ASSIGNED_CONTEXT ( ( #50 ) ) GLOBAL_UNIT_ASSIGNED_CONTEXT ( ( #70, #57, #108 ) ) REPRESENTATION_CONTEXT ( 'NONE', 'WORKASPACE' ) );
#42 = CARTESIAN_POINT ( 'NONE',  ( 0.000000000000000000, 0.000000000000000000, 0.1875000000000000278 ) ) ;
#43 = VECTOR ( 'NONE', #153, 39.37007874015748143 ) ;
#44 = EDGE_LOOP ( 'NONE', ( #21, #182, #204, #87 ) ) ;
#45 = VERTEX_POINT ( 'NONE', #198 ) ;
#46 = EDGE_LOOP ( 'NONE', ( #194, #113 ) ) ;
#47 = CIRCLE ( 'NONE', #60, 0.2510000000000000564 ) ;
#48 = CARTESIAN_POINT ( 'NONE',  ( 0.000000000000000000, 0.000000000000000000, -0.1875000000000000278 ) ) ;
#49 = ORIENTED_EDGE ( 'NONE', *, *, #67, .F. ) ;
#50 = UNCERTAINTY_MEASURE_WITH_UNIT (LENGTH_MEASURE( 1.000000000000000082E-05 ), #70, 'distance_accuracy_value', 'NONE');
#51 = DIRECTION ( 'NONE',  ( 1.000000000000000000, 0.000000000000000000, -0.000000000000000000 ) ) ;
#52 = VERTEX_POINT ( 'NONE', #6 ) ;
#53 = ORIENTED_EDGE ( 'NONE', *, *, #25, .T. ) ;
#54 = ADVANCED_FACE ( 'NONE', ( #131, #13 ), #166, .F. ) ;
#55 =( CONVERSION_BASED_UNIT ( 'INCH', #154 ) LENGTH_UNIT ( ) NAMED_UNIT ( #147 ) );
#56 = LINE ( 'NONE', #168, #43 ) ;
#57 =( NAMED_UNIT ( * ) PLANE_ANGLE_UNIT ( ) SI_UNIT ( $, .RADIAN. ) );
#58 = ORIENTED_EDGE ( 'NONE', *, *, #93, .F. ) ;
#59 = ORIENTED_EDGE ( 'NONE', *, *, #18, .F. ) ;
#60 = AXIS2_PLACEMENT_3D ( 'NONE', #181, #3, #161 ) ;
#61 = CARTESIAN_POINT ( 'NONE',  ( 0.000000000000000000, 0.000000000000000000, 0.1875000000000000278 ) ) ;
#62 = LINE ( 'NONE', #33, #76 ) ;
#63 = EDGE_CURVE ( 'NONE', #94, #45, #167, .T. ) ;
#64 = LINE ( 'NONE', #197, #16 ) ;
#65 = ORIENTED_EDGE ( 'NONE', *, *, #71, .F. ) ;
#66 = DIRECTION ( 'NONE',  ( 1.000000000000000000, 0.000000000000000000, 0.000000000000000000 ) ) ;
#67 = EDGE_CURVE ( 'NONE', #52, #75, #148, .T. ) ;
#68 = SURFACE_STYLE_USAGE ( .BOTH. , #36 ) ;
#69 = APPLICATION_CONTEXT ( 'automotive_design' ) ;
#70 =( CONVERSION_BASED_UNIT ( 'INCH', #92 ) LENGTH_UNIT ( ) NAMED_UNIT ( #28 ) );
#71 = EDGE_CURVE ( 'NONE', #74, #174, #73, .T. ) ;
#72 =( LENGTH_UNIT ( ) NAMED_UNIT ( * ) SI_UNIT ( $, .METRE. ) );
#73 = CIRCLE ( 'NONE', #193, 0.2510000000000000564 ) ;
#74 = VERTEX_POINT ( 'NONE', #162 ) ;
#75 = VERTEX_POINT ( 'NONE', #97 ) ;
#76 = VECTOR ( 'NONE', #135, 39.37007874015748143 ) ;
#77 = CIRCLE ( 'NONE', #86, 0.2510000000000000564 ) ;
#78 = EDGE_CURVE ( 'NONE', #45, #94, #104, .T. ) ;
#79 = DIRECTION ( 'NONE',  ( 0.000000000000000000, 0.000000000000000000, 1.000000000000000000 ) ) ;
#80 = PRODUCT_DEFINITION_CONTEXT ( 'detailed design', #106, 'design' ) ;
#81 = DIRECTION ( 'NONE',  ( -0.000000000000000000, -0.000000000000000000, -1.000000000000000000 ) ) ;
#82 = ORIENTED_EDGE ( 'NONE', *, *, #192, .T. ) ;
#83 = FACE_OUTER_BOUND ( 'NONE', #44, .T. ) ;
#84 = DIRECTION ( 'NONE',  ( -0.000000000000000000, -0.000000000000000000, -1.000000000000000000 ) ) ;
#85 = AXIS2_PLACEMENT_3D ( 'NONE', #149, #199, #179 ) ;
#86 = AXIS2_PLACEMENT_3D ( 'NONE', #184, #140, #105 ) ;
#87 = ORIENTED_EDGE ( 'NONE', *, *, #139, .F. ) ;
#88 = CARTESIAN_POINT ( 'NONE',  ( 0.000000000000000000, 0.000000000000000000, 0.1875000000000000278 ) ) ;
#89 = CARTESIAN_POINT ( 'NONE',  ( 0.000000000000000000, 0.000000000000000000, 0.000000000000000000 ) ) ;
#90 = CARTESIAN_POINT ( 'NONE',  ( -0.2510000000000000564, 0.000000000000000000, -0.1875000000000000278 ) ) ;
#91 =( LENGTH_UNIT ( ) NAMED_UNIT ( * ) SI_UNIT ( $, .METRE. ) );
#92 = LENGTH_MEASURE_WITH_UNIT ( LENGTH_MEASURE( 0.02539999999999999897 ), #72 );
#93 = EDGE_CURVE ( 'NONE', #74, #190, #10, .T. ) ;
#94 = VERTEX_POINT ( 'NONE', #146 ) ;
#95 = ORIENTED_EDGE ( 'NONE', *, *, #37, .F. ) ;
#96 = ORIENTED_EDGE ( 'NONE', *, *, #78, .F. ) ;
#97 = CARTESIAN_POINT ( 'NONE',  ( -0.1877500000000000002, 0.000000000000000000, 0.1875000000000000278 ) ) ;
#98 = EDGE_LOOP ( 'NONE', ( #187, #82 ) ) ;
#99 = ADVANCED_FACE ( 'NONE', ( #101 ), #165, .T. ) ;
#100 = DIRECTION ( 'NONE',  ( 1.000000000000000000, 0.000000000000000000, 0.000000000000000000 ) ) ;
#101 = FACE_OUTER_BOUND ( 'NONE', #124, .T. ) ;
#102 = DIRECTION ( 'NONE',  ( 0.000000000000000000, 0.000000000000000000, 1.000000000000000000 ) ) ;
#103 = AXIS2_PLACEMENT_3D ( 'NONE', #42, #7, #157 ) ;
#104 = CIRCLE ( 'NONE', #34, 0.1877500000000000002 ) ;
#105 = DIRECTION ( 'NONE',  ( 1.000000000000000000, 0.000000000000000000, 0.000000000000000000 ) ) ;
#106 = APPLICATION_CONTEXT ( 'automotive_design' ) ;
#107 = CARTESIAN_POINT ( 'NONE',  ( 0.000000000000000000, 0.000000000000000000, 0.1875000000000000278 ) ) ;
#108 =( NAMED_UNIT ( * ) SI_UNIT ( $, .STERADIAN. ) SOLID_ANGLE_UNIT ( ) );
#109 = STYLED_ITEM ( 'NONE', ( #171 ), #186 ) ;
#110 = FACE_OUTER_BOUND ( 'NONE', #152, .T. ) ;
#111 = FILL_AREA_STYLE_COLOUR ( '', #173 ) ;
#112 = ORIENTED_EDGE ( 'NONE', *, *, #169, .T. ) ;
#113 = ORIENTED_EDGE ( 'NONE', *, *, #78, .T. ) ;
#114 = CIRCLE ( 'NONE', #126, 0.2510000000000000564 ) ;
#115 = VERTEX_POINT ( 'NONE', #5 ) ;
#116 = PRODUCT_CONTEXT ( 'NONE', #69, 'mechanical' ) ;
#117 = DIRECTION ( 'NONE',  ( 0.000000000000000000, 0.000000000000000000, 1.000000000000000000 ) ) ;
#118 = CYLINDRICAL_SURFACE ( 'NONE', #85, 0.1877500000000000002 ) ;
#119 = CARTESIAN_POINT ( 'NONE',  ( 0.000000000000000000, 0.000000000000000000, 0.1875000000000000278 ) ) ;
#120 = ORIENTED_EDGE ( 'NONE', *, *, #32, .F. ) ;
#121 = CYLINDRICAL_SURFACE ( 'NONE', #103, 0.1877500000000000002 ) ;
#122 = AXIS2_PLACEMENT_3D ( 'NONE', #107, #170, #201 ) ;
#123 = DIRECTION ( 'NONE',  ( 0.000000000000000000, 0.000000000000000000, 1.000000000000000000 ) ) ;
#124 = EDGE_LOOP ( 'NONE', ( #125, #53, #1, #58 ) ) ;
#125 = ORIENTED_EDGE ( 'NONE', *, *, #192, .F. ) ;
#126 = AXIS2_PLACEMENT_3D ( 'NONE', #137, #123, #185 ) ;
#127 = AXIS2_PLACEMENT_3D ( 'NONE', #48, #117, #51 ) ;
#128 = ADVANCED_FACE ( 'NONE', ( #144 ), #141, .T. ) ;
#129 = DIRECTION ( 'NONE',  ( 0.000000000000000000, 0.000000000000000000, 1.000000000000000000 ) ) ;
#130 = DIRECTION ( 'NONE',  ( 1.000000000000000000, 0.000000000000000000, 0.000000000000000000 ) ) ;
#131 = FACE_BOUND ( 'NONE', #46, .T. ) ;
#132 = ORIENTED_EDGE ( 'NONE', *, *, #93, .T. ) ;
#133 = CIRCLE ( 'NONE', #142, 0.1877500000000000002 ) ;
#134 =( GEOMETRIC_REPRESENTATION_CONTEXT ( 3 ) GLOBAL_UNCERTAINTY_ASSIGNED_CONTEXT ( ( #23 ) ) GLOBAL_UNIT_ASSIGNED_CONTEXT ( ( #55, #155, #172 ) ) REPRESENTATION_CONTEXT ( 'NONE', 'WORKASPACE' ) );
#135 = DIRECTION ( 'NONE',  ( -0.000000000000000000, -0.000000000000000000, -1.000000000000000000 ) ) ;
#136 = DIRECTION ( 'NONE',  ( 0.000000000000000000, 0.000000000000000000, 1.000000000000000000 ) ) ;
#137 = CARTESIAN_POINT ( 'NONE',  ( 0.000000000000000000, 0.000000000000000000, -0.1875000000000000278 ) ) ;
#138 = PRESENTATION_LAYER_ASSIGNMENT (  '', '', ( #109 ) ) ;
#139 = EDGE_CURVE ( 'NONE', #75, #94, #56, .T. ) ;
#140 = DIRECTION ( 'NONE',  ( 0.000000000000000000, 0.000000000000000000, 1.000000000000000000 ) ) ;
#141 = CYLINDRICAL_SURFACE ( 'NONE', #189, 0.2510000000000000564 ) ;
#142 = AXIS2_PLACEMENT_3D ( 'NONE', #61, #129, #100 ) ;
#143 = ORIENTED_EDGE ( 'NONE', *, *, #67, .T. ) ;
#144 = FACE_OUTER_BOUND ( 'NONE', #22, .T. ) ;
#145 = SHAPE_DEFINITION_REPRESENTATION ( #15, #9 ) ;
#146 = CARTESIAN_POINT ( 'NONE',  ( -0.1877500000000000002, 0.000000000000000000, -0.1875000000000000278 ) ) ;
#147 = DIMENSIONAL_EXPONENTS ( 1.000000000000000000, 0.000000000000000000, 0.000000000000000000, 0.000000000000000000, 0.000000000000000000, 0.000000000000000000, 0.000000000000000000 ) ;
#148 = CIRCLE ( 'NONE', #40, 0.1877500000000000002 ) ;
#149 = CARTESIAN_POINT ( 'NONE',  ( 0.000000000000000000, 0.000000000000000000, 0.1875000000000000278 ) ) ;
#150 = CARTESIAN_POINT ( 'NONE',  ( 0.000000000000000000, 0.000000000000000000, -0.1875000000000000278 ) ) ;
#151 = DIRECTION ( 'NONE',  ( -1.000000000000000000, 0.000000000000000000, 0.000000000000000000 ) ) ;
#152 = EDGE_LOOP ( 'NONE', ( #59, #143, #205, #96 ) ) ;
#153 = DIRECTION ( 'NONE',  ( -0.000000000000000000, -0.000000000000000000, -1.000000000000000000 ) ) ;
#154 = LENGTH_MEASURE_WITH_UNIT ( LENGTH_MEASURE( 0.02539999999999999897 ), #91 );
#155 =( NAMED_UNIT ( * ) PLANE_ANGLE_UNIT ( ) SI_UNIT ( $, .RADIAN. ) );
#156 = SURFACE_STYLE_FILL_AREA ( #39 ) ;
#157 = DIRECTION ( 'NONE',  ( -1.000000000000000000, 0.000000000000000000, 0.000000000000000000 ) ) ;
#158 = VECTOR ( 'NONE', #81, 39.37007874015748143 ) ;
#159 = APPLICATION_PROTOCOL_DEFINITION ( 'draft international standard', 'automotive_design', 1998, #69 ) ;
#160 = DIRECTION ( 'NONE',  ( 1.000000000000000000, 0.000000000000000000, 0.000000000000000000 ) ) ;
#161 = DIRECTION ( 'NONE',  ( 1.000000000000000000, 0.000000000000000000, 0.000000000000000000 ) ) ;
#162 = CARTESIAN_POINT ( 'NONE',  ( -0.2510000000000000564, 0.000000000000000000, 0.1875000000000000278 ) ) ;
#163 = PRODUCT ( '6391K172_Oil-Embedded 841 Bronze Sleeve Bearing_6391K172', '6391K172_Oil-Embedded 841 Bronze Sleeve Bearing_6391K172', '', ( #116 ) ) ;
#164 = ADVANCED_FACE ( 'NONE', ( #110 ), #121, .F. ) ;
#165 = CYLINDRICAL_SURFACE ( 'NONE', #200, 0.2510000000000000564 ) ;
#166 = PLANE ( 'NONE',  #127 ) ;
#167 = CIRCLE ( 'NONE', #29, 0.1877500000000000002 ) ;
#168 = CARTESIAN_POINT ( 'NONE',  ( -0.1877500000000000002, 0.000000000000000000, 0.1875000000000000278 ) ) ;
#169 = EDGE_CURVE ( 'NONE', #190, #115, #114, .T. ) ;
#170 = DIRECTION ( 'NONE',  ( 0.000000000000000000, 0.000000000000000000, 1.000000000000000000 ) ) ;
#171 = PRESENTATION_STYLE_ASSIGNMENT (( #68 ) ) ;
#172 =( NAMED_UNIT ( * ) SI_UNIT ( $, .STERADIAN. ) SOLID_ANGLE_UNIT ( ) );
#173 = COLOUR_RGB ( '',0.7921568627450980005, 0.8196078431372548767, 0.9333333333333333481 ) ;
#174 = VERTEX_POINT ( 'NONE', #8 ) ;
#175 = MECHANICAL_DESIGN_GEOMETRIC_PRESENTATION_REPRESENTATION (  '', ( #109 ), #41 ) ;
#176 = EDGE_LOOP ( 'NONE', ( #191, #95 ) ) ;
#177 = APPLICATION_PROTOCOL_DEFINITION ( 'draft international standard', 'automotive_design', 1998, #106 ) ;
#178 = EDGE_LOOP ( 'NONE', ( #120, #49 ) ) ;
#179 = DIRECTION ( 'NONE',  ( -1.000000000000000000, 0.000000000000000000, 0.000000000000000000 ) ) ;
#180 = PRODUCT_DEFINITION_FORMATION_WITH_SPECIFIED_SOURCE ( 'Symmetric', '', #163, .NOT_KNOWN. ) ;
#181 = CARTESIAN_POINT ( 'NONE',  ( 0.000000000000000000, 0.000000000000000000, -0.1875000000000000278 ) ) ;
#182 = ORIENTED_EDGE ( 'NONE', *, *, #18, .T. ) ;
#183 = DIRECTION ( 'NONE',  ( -0.000000000000000000, -0.000000000000000000, -1.000000000000000000 ) ) ;
#184 = CARTESIAN_POINT ( 'NONE',  ( 0.000000000000000000, 0.000000000000000000, 0.1875000000000000278 ) ) ;
#185 = DIRECTION ( 'NONE',  ( 1.000000000000000000, 0.000000000000000000, 0.000000000000000000 ) ) ;
#186 = MANIFOLD_SOLID_BREP ( 'Boss-Extrude1', #188 ) ;
#187 = ORIENTED_EDGE ( 'NONE', *, *, #71, .T. ) ;
#188 = CLOSED_SHELL ( 'NONE', ( #2, #99, #203, #128, #164, #54 ) ) ;
#189 = AXIS2_PLACEMENT_3D ( 'NONE', #88, #183, #35 ) ;
#190 = VERTEX_POINT ( 'NONE', #90 ) ;
#191 = ORIENTED_EDGE ( 'NONE', *, *, #169, .F. ) ;
#192 = EDGE_CURVE ( 'NONE', #174, #74, #77, .T. ) ;
#193 = AXIS2_PLACEMENT_3D ( 'NONE', #31, #136, #66 ) ;
#194 = ORIENTED_EDGE ( 'NONE', *, *, #63, .T. ) ;
#195 = PRODUCT_RELATED_PRODUCT_CATEGORY ( 'part', '', ( #163 ) ) ;
#196 = DIRECTION ( 'NONE',  ( 0.000000000000000000, 0.000000000000000000, 1.000000000000000000 ) ) ;
#197 = CARTESIAN_POINT ( 'NONE',  ( 0.1877500000000000002, 2.299274365399155177E-17, 0.1875000000000000278 ) ) ;
#198 = CARTESIAN_POINT ( 'NONE',  ( 0.1877500000000000002, 2.299274365399155177E-17, -0.1875000000000000278 ) ) ;
#199 = DIRECTION ( 'NONE',  ( -0.000000000000000000, -0.000000000000000000, -1.000000000000000000 ) ) ;
#200 = AXIS2_PLACEMENT_3D ( 'NONE', #14, #84, #151 ) ;
#201 = DIRECTION ( 'NONE',  ( 1.000000000000000000, 0.000000000000000000, -0.000000000000000000 ) ) ;
#202 = FACE_BOUND ( 'NONE', #178, .T. ) ;
#203 = ADVANCED_FACE ( 'NONE', ( #19, #202 ), #38, .T. ) ;
#204 = ORIENTED_EDGE ( 'NONE', *, *, #63, .F. ) ;
#205 = ORIENTED_EDGE ( 'NONE', *, *, #139, .T. ) ;
ENDSEC;
END-ISO-10303-21;
