ISO-10303-21;
HEADER;
FILE_DESCRIPTION (( 'STEP AP214' ),
    '1' );
FILE_NAME ('base bearing assembly.STEP',
    '2026-09-17T14:21:09',
    ( '' ),
    ( '' ),
    'SwSTEP 2.0',
    'SolidWorks 2025',
    '' );
FILE_SCHEMA (( 'AUTOMOTIVE_DESIGN' ));
ENDSEC;

DATA;
#1 = EXTERNAL_SOURCE (IDENTIFIER('') ) ;
#2 = ROLE_ASSOCIATION ( #741, #903 ) ;
#3 = PRODUCT_DEFINITION_SHAPE ( 'NONE', 'NONE',  #948 ) ;
#4 = CARTESIAN_POINT ( 'NONE',  ( 26.19281099758340403, -1.000000000000000222, 233.9851314319717801 ) ) ;
#5 =( NAMED_UNIT ( * ) SI_UNIT ( $, .STERADIAN. ) SOLID_ANGLE_UNIT ( ) );
#6 = AXIS2_PLACEMENT_3D ( 'NONE', #931, #549, #105 ) ;
#7 = UNCERTAINTY_MEASURE_WITH_UNIT (LENGTH_MEASURE( 1.000000000000000082E-05 ), #847, 'distance_accuracy_value', 'NONE');
#8 = EXTERNAL_SOURCE (IDENTIFIER('') ) ;
#9 = AXIS2_PLACEMENT_3D ( 'NONE', #453, #674, #69 ) ;
#10 = CARTESIAN_POINT ( 'NONE',  ( 36.23770101898855955, -1.000000000000003553, 230.6270292287294410 ) ) ;
#11 = DIRECTION ( 'NONE',  ( -0.2743240164601455366, 5.714835075660964158E-16, 0.9616373193637889338 ) ) ;
#12 = CONTEXT_DEPENDENT_SHAPE_REPRESENTATION ( #676, #855 ) ;
#13 = PROPERTY_DEFINITION ('external definition','', #796 ) ;
#14 = EXTERNAL_SOURCE (IDENTIFIER('') ) ;
#15 = PRODUCT_CONTEXT ( 'NONE', #768, 'mechanical' ) ;
#16 = CONTEXT_DEPENDENT_SHAPE_REPRESENTATION ( #348, #773 ) ;
#17 = APPLICATION_PROTOCOL_DEFINITION ( 'draft international standard', 'automotive_design', 1998, #816 ) ;
#18 = PRODUCT_DEFINITION_SHAPE ( 'NONE', 'NONE',  #949 ) ;
#19 =( REPRESENTATION_RELATIONSHIP ('NONE','NONE', #860, #386 ) REPRESENTATION_RELATIONSHIP_WITH_TRANSFORMATION ( #861 )SHAPE_REPRESENTATION_RELATIONSHIP( ) );
#20 = CARTESIAN_POINT ( 'NONE',  ( 0.000000000000000000, 0.000000000000000000, 0.000000000000000000 ) ) ;
#21 = APPLIED_DOCUMENT_REFERENCE ( #256,'',( #437) ) ;
#22 = DOCUMENT_FILE ( '608-2RS Skate Board Ball Bearing.STEP' , '', '', #365, '' ,$ ) ;
#23 = AXIS2_PLACEMENT_3D ( 'NONE', #898, #517, #460 ) ;
#24 = EXTERNAL_SOURCE (IDENTIFIER('') ) ;
#25 = APPLICATION_PROTOCOL_DEFINITION ( 'draft international standard', 'automotive_design', 1998, #590 ) ;
#26 = OBJECT_ROLE ('mandatory',$ ) ;
#27 = CONTEXT_DEPENDENT_SHAPE_REPRESENTATION ( #469, #244 ) ;
#28 = PRODUCT ( 'herringbone (helical) 100 gear_3_am_Metric - LH Helical gear 2M 50T 30HA 20PA 12FW ---50N75H50L0.8N', 'herringbone (helical) 100 gear_3_am_Metric - LH Helical gear 2M 50T 30HA 20PA 12FW ---50N75H50L0.8N', '', ( #835 ) ) ;
#29 = APPLICATION_PROTOCOL_DEFINITION ( 'draft international standard', 'automotive_design', 1998, #937 ) ;
#30 =( NAMED_UNIT ( * ) SI_UNIT ( $, .STERADIAN. ) SOLID_ANGLE_UNIT ( ) );
#31 = PRODUCT_DEFINITION_SHAPE ( 'NONE', 'NONE',  #969 ) ;
#32 = PROPERTY_DEFINITION_REPRESENTATION ( #507, #386 ) ;
#33 =( REPRESENTATION_RELATIONSHIP ('NONE','NONE', #860, #727 ) REPRESENTATION_RELATIONSHIP_WITH_TRANSFORMATION ( #497 )SHAPE_REPRESENTATION_RELATIONSHIP( ) );
#34 =( REPRESENTATION_RELATIONSHIP ('NONE','NONE', #860, #386 ) REPRESENTATION_RELATIONSHIP_WITH_TRANSFORMATION ( #238 )SHAPE_REPRESENTATION_RELATIONSHIP( ) );
#35 = APPLICATION_PROTOCOL_DEFINITION ( 'draft international standard', 'automotive_design', 1998, #558 ) ;
#36 = PRODUCT_DEFINITION_SHAPE ( 'NONE', 'NONE',  #960 ) ;
#37 =( NAMED_UNIT ( * ) PLANE_ANGLE_UNIT ( ) SI_UNIT ( $, .RADIAN. ) );
#38 = AXIS2_PLACEMENT_3D ( 'NONE', #827, #154, #678 ) ;
#39 = IDENTIFICATION_ROLE ( 'external document id and location', $) ;
#40 = ITEM_DEFINED_TRANSFORMATION ( 'NONE', 'NONE', #149,  #528 ) ;
#41 = PROPERTY_DEFINITION ('document property','', #468 ) ;
#42 = APPLIED_EXTERNAL_IDENTIFICATION_ASSIGNMENT ( 'Insert M3 D5 L5mm.STEP' , #761, #701,( #567) ) ;
#43 = DIRECTION ( 'NONE',  ( 1.000000000000000000, 0.000000000000000000, 0.000000000000000000 ) ) ;
#44 = PRODUCT_DEFINITION ( 'General', '', #466, #895 ) ;
#45 = APPLIED_DOCUMENT_REFERENCE ( #429,'',( #437) ) ;
#46 = APPLIED_DOCUMENT_REFERENCE ( #668,'',( #820) ) ;
#47 = PROPERTY_DEFINITION_REPRESENTATION ( #306, #428 ) ;
#48 =( REPRESENTATION_RELATIONSHIP ('NONE','NONE', #860, #626 ) REPRESENTATION_RELATIONSHIP_WITH_TRANSFORMATION ( #673 )SHAPE_REPRESENTATION_RELATIONSHIP( ) );
#49 =( NAMED_UNIT ( * ) PLANE_ANGLE_UNIT ( ) SI_UNIT ( $, .RADIAN. ) );
#50 = ITEM_DEFINED_TRANSFORMATION ( 'NONE', 'NONE', #23,  #56 ) ;
#51 = PROPERTY_DEFINITION ('document property','', #429 ) ;
#52 = EXTERNAL_SOURCE (IDENTIFIER('') ) ;
#53 = IDENTIFICATION_ROLE ( 'external document id and location', $) ;
#54 = CONTEXT_DEPENDENT_SHAPE_REPRESENTATION ( #831, #733 ) ;
#55 = PROPERTY_DEFINITION ('external definition','', #930 ) ;
#56 = AXIS2_PLACEMENT_3D ( 'NONE', #20, #941, #43 ) ;
#57 = CARTESIAN_POINT ( 'NONE',  ( 24.65741655328495341, 1.804112415015879378E-14, 227.2581288379171838 ) ) ;
#58 = PRODUCT_DEFINITION_SHAPE ( 'NONE', 'NONE',  #977 ) ;
#59 = APPLIED_EXTERNAL_IDENTIFICATION_ASSIGNMENT ( 'socket head cap screw_am_B18.3.1M - 3 x 0.5 x 16 Hex SHCS -- 16NHX.STEP' , #404, #448,( #620) ) ;
#60 = ITEM_DEFINED_TRANSFORMATION ( 'NONE', 'NONE', #261,  #211 ) ;
#61 = PROPERTY_DEFINITION_REPRESENTATION ( #863, #626 ) ;
#62 =( REPRESENTATION_RELATIONSHIP ('NONE','NONE', #860, #626 ) REPRESENTATION_RELATIONSHIP_WITH_TRANSFORMATION ( #511 )SHAPE_REPRESENTATION_RELATIONSHIP( ) );
#63 = DIRECTION ( 'NONE',  ( -0.9404134609108342202, 1.331801748796296420E-15, -0.3400331197658644777 ) ) ;
#64 = PROPERTY_DEFINITION ('external definition','', #378 ) ;
#65 = APPLICATION_CONTEXT ( 'automotive_design' ) ;
#66 = CARTESIAN_POINT ( 'NONE',  ( 26.15741655328508486, 0.6286537500001354584, 227.2581288378401041 ) ) ;
#67 = DOCUMENT_FILE ( 'Insert M3 D5 L5mm.STEP' , '', '', #585, '' ,$ ) ;
#68 = PROPERTY_DEFINITION ('external definition','', #93 ) ;
#69 = DIRECTION ( 'NONE',  ( -0.4834546411207711891, 1.209113816776475653E-15, 0.8753694134357143941 ) ) ;
#70 = PRODUCT_DEFINITION_FORMATION_WITH_SPECIFIED_SOURCE ( 'Symmetric', '', #767, .NOT_KNOWN. ) ;
#71 =( LENGTH_UNIT ( ) NAMED_UNIT ( * ) SI_UNIT ( .CENTI., .METRE. ) );
#72 = EXTERNAL_SOURCE (IDENTIFIER('') ) ;
#73 = APPLIED_EXTERNAL_IDENTIFICATION_ASSIGNMENT ( 'Insert M3 D5 L5mm.STEP' , #123, #696,( #74) ) ;
#74 = DOCUMENT_FILE ( 'Insert M3 D5 L5mm.STEP' , '', '', #475, '' ,$ ) ;
#75 = DOCUMENT_FILE ( 'socket head cap screw_am_B18.3.1M - 3 x 0.5 x 16 Hex SHCS -- 16NHX.STEP' , '', '', #340, '' ,$ ) ;
#76 = DIRECTION ( 'NONE',  ( -0.7982625646188069579, 1.948790641426996270E-15, 0.6023096196543810121 ) ) ;
#77 = PRODUCT_DEFINITION_SHAPE ( 'NONE', 'NONE',  #944 ) ;
#78 = UNCERTAINTY_MEASURE_WITH_UNIT (LENGTH_MEASURE( 1.000000000000000082E-05 ), #622, 'distance_accuracy_value', 'NONE');
#79 = CONTEXT_DEPENDENT_SHAPE_REPRESENTATION ( #239, #215 ) ;
#80 = DOCUMENT_TYPE ( 'geometry' ) ;
#81 = DIRECTION ( 'NONE',  ( -1.294533525100680109E-16, -1.000000000000000222, 4.793337693147338397E-16 ) ) ;
#82 =( LENGTH_UNIT ( ) NAMED_UNIT ( * ) SI_UNIT ( .CENTI., .METRE. ) );
#83 = EXTERNAL_SOURCE (IDENTIFIER('') ) ;
#84 = EXTERNAL_SOURCE (IDENTIFIER('') ) ;
#85 = DIRECTION ( 'NONE',  ( 4.344319914517989788E-15, 1.000000000000000444, -4.922985086644876798E-29 ) ) ;
#86 =( GEOMETRIC_REPRESENTATION_CONTEXT ( 3 ) GLOBAL_UNCERTAINTY_ASSIGNED_CONTEXT ( ( #326 ) ) GLOBAL_UNIT_ASSIGNED_CONTEXT ( ( #577, #49, #132 ) ) REPRESENTATION_CONTEXT ( 'NONE', 'WORKASPACE' ) );
#87 = PROPERTY_DEFINITION_REPRESENTATION ( #120, #626 ) ;
#88 = APPLIED_EXTERNAL_IDENTIFICATION_ASSIGNMENT ( '608-2RS Skate Board Ball Bearing.STEP' , #787, #643,( #22) ) ;
#89 =( REPRESENTATION_RELATIONSHIP ('NONE','NONE', #860, #440 ) REPRESENTATION_RELATIONSHIP_WITH_TRANSFORMATION ( #249 )SHAPE_REPRESENTATION_RELATIONSHIP( ) );
#90 =( NAMED_UNIT ( * ) SI_UNIT ( $, .STERADIAN. ) SOLID_ANGLE_UNIT ( ) );
#91 = APPLIED_DOCUMENT_REFERENCE ( #327,'',( #437) ) ;
#92 = PRODUCT_DEFINITION_SHAPE ( 'NONE', 'NONE',  #913 ) ;
#93 = DOCUMENT_FILE ( 'bottom housing.STEP' , '', '', #672, '' ,$ ) ;
#94 = DIRECTION ( 'NONE',  ( 0.000000000000000000, 0.000000000000000000, 1.000000000000000000 ) ) ;
#95 = DOCUMENT_TYPE ( 'geometry' ) ;
#96 = PRODUCT_DEFINITION_CONTEXT ( 'detailed design', #202, 'design' ) ;
#97 = ITEM_DEFINED_TRANSFORMATION ( 'NONE', 'NONE', #685,  #211 ) ;
#98 = IDENTIFICATION_ROLE ( 'external document id and location', $) ;
#99 = APPLICATION_PROTOCOL_DEFINITION ( 'draft international standard', 'automotive_design', 1998, #870 ) ;
#100 = ITEM_DEFINED_TRANSFORMATION ( 'NONE', 'NONE', #6,  #211 ) ;
#101 =( REPRESENTATION_RELATIONSHIP ('NONE','NONE', #860, #571 ) REPRESENTATION_RELATIONSHIP_WITH_TRANSFORMATION ( #426 )SHAPE_REPRESENTATION_RELATIONSHIP( ) );
#102 = ROLE_ASSOCIATION ( #415, #648 ) ;
#103 = IDENTIFICATION_ROLE ( 'external document id and location', $) ;
#104 = CARTESIAN_POINT ( 'NONE',  ( 0.000000000000000000, 0.000000000000000000, 0.000000000000000000 ) ) ;
#105 = DIRECTION ( 'NONE',  ( 4.286640358941760952E-15, 1.000000000000000444, -1.110223024625648592E-16 ) ) ;
#106 =( NAMED_UNIT ( * ) PLANE_ANGLE_UNIT ( ) SI_UNIT ( $, .RADIAN. ) );
#107 = CONTEXT_DEPENDENT_SHAPE_REPRESENTATION ( #420, #199 ) ;
#108 = ITEM_DEFINED_TRANSFORMATION ( 'NONE', 'NONE', #729,  #56 ) ;
#109 = DOCUMENT_TYPE ( 'geometry' ) ;
#110 = PROPERTY_DEFINITION ('external definition','', #675 ) ;
#111 = CONTEXT_DEPENDENT_SHAPE_REPRESENTATION ( #805, #786 ) ;
#112 = PROPERTY_DEFINITION_REPRESENTATION ( #699, #421 ) ;
#113 = PRODUCT_RELATED_PRODUCT_CATEGORY ( 'part', '', ( #525 ) ) ;
#114 = PROPERTY_DEFINITION_REPRESENTATION ( #220, #571 ) ;
#115 = IDENTIFICATION_ROLE ( 'external document id and location', $) ;
#116 = DIRECTION ( 'NONE',  ( -2.428123447532248507E-16, 1.000000000000000444, 6.052176211050563101E-16 ) ) ;
#117 = EXTERNAL_SOURCE (IDENTIFIER('') ) ;
#118 = DOCUMENT_FILE ( 'Insert M3 D5 L5mm.STEP' , '', '', #782, '' ,$ ) ;
#119 = PROPERTY_DEFINITION_REPRESENTATION ( #364, #125 ) ;
#120 = PROPERTY_DEFINITION ('external definition','', #74 ) ;
#121 = APPLIED_EXTERNAL_IDENTIFICATION_ASSIGNMENT ( 'Insert M3 D5 L5mm.STEP' , #291, #793,( #436) ) ;
#122 = DIRECTION ( 'NONE',  ( -0.4859431223721897286, 8.874084756356585322E-17, 0.8739904357709910032 ) ) ;
#123 = IDENTIFICATION_ROLE ( 'external document id and location', $) ;
#124 = DOCUMENT_FILE ( 'Insert M3 D5 L5mm.STEP' , '', '', #281, '' ,$ ) ;
#125 = SHAPE_REPRESENTATION ( 'output mount', ( #887 ), #212 ) ;
#126 = PROPERTY_DEFINITION_REPRESENTATION ( #235, #428 ) ;
#127 = PRODUCT_DEFINITION_SHAPE ( 'NONE', 'NONE',  #955 ) ;
#128 = DIRECTION ( 'NONE',  ( 0.9983874948591850984, -2.028630991832870203E-16, -0.05676627615759753664 ) ) ;
#129 = PROPERTY_DEFINITION_REPRESENTATION ( #140, #626 ) ;
#130 = IDENTIFICATION_ROLE ( 'external document id and location', $) ;
#131 = CONTEXT_DEPENDENT_SHAPE_REPRESENTATION ( #736, #77 ) ;
#132 =( NAMED_UNIT ( * ) SI_UNIT ( $, .STERADIAN. ) SOLID_ANGLE_UNIT ( ) );
#133 = PROPERTY_DEFINITION_REPRESENTATION ( #659, #386 ) ;
#134 = ROLE_ASSOCIATION ( #411, #443 ) ;
#135 = AXIS2_PLACEMENT_3D ( 'NONE', #259, #562, #543 ) ;
#136 = PRODUCT_DEFINITION_SHAPE ( 'NONE', 'NONE',  #946 ) ;
#137 = DOCUMENT_TYPE ( 'geometry' ) ;
#138 = OBJECT_ROLE ('mandatory',$ ) ;
#139 = ITEM_DEFINED_TRANSFORMATION ( 'NONE', 'NONE', #762,  #56 ) ;
#140 = PROPERTY_DEFINITION ('external definition','', #799 ) ;
#141 = DIRECTION ( 'NONE',  ( 2.705494185720674093E-17, 1.000000000000000444, -8.326672684688677011E-16 ) ) ;
#142 = OBJECT_ROLE ('mandatory',$ ) ;
#143 = ITEM_DEFINED_TRANSFORMATION ( 'NONE', 'NONE', #564,  #211 ) ;
#144 = CARTESIAN_POINT ( 'NONE',  ( 36.23770101898856666, 0.5999999999999963141, 223.8892284471097582 ) ) ;
#145 = ITEM_DEFINED_TRANSFORMATION ( 'NONE', 'NONE', #512,  #211 ) ;
#146 = PRODUCT ( 'top housing', 'top housing', '', ( #638 ) ) ;
#147 = DOCUMENT_TYPE ( 'geometry' ) ;
#148 = CARTESIAN_POINT ( 'NONE',  ( 26.19281099758358877, -1.000000000000010658, 220.5311262438625874 ) ) ;
#149 = AXIS2_PLACEMENT_3D ( 'NONE', #797, #427, #351 ) ;
#150 = APPLIED_EXTERNAL_IDENTIFICATION_ASSIGNMENT ( '3in thrust bearing.STEP' , #115, #14,( #791) ) ;
#151 = APPLIED_EXTERNAL_IDENTIFICATION_ASSIGNMENT ( 'herringbone (helical) 100 gear_3_am_Metric - LH Helical gear 2M 50T 30HA 20PA 12FW ---50N75H50L0.8N.STEP' , #236, #83,( #642) ) ;
#152 = IDENTIFICATION_ROLE ( 'external document id and location', $) ;
#153 = IDENTIFICATION_ROLE ( 'external document id and location', $) ;
#154 = DIRECTION ( 'NONE',  ( 0.9361424916987918232, 1.953462867623891070E-16, 0.3516208686013638229 ) ) ;
#155 = PRODUCT_DEFINITION_SHAPE ( 'NONE', 'NONE',  #947 ) ;
#156 = DOCUMENT_FILE ( 'socket head cap screw_am_B18.3.1M - 3 x 0.5 x 16 Hex SHCS -- 16NHX.STEP' , '', '', #274, '' ,$ ) ;
#157 = PRODUCT_RELATED_PRODUCT_CATEGORY ( 'part', '', ( #757 ) ) ;
#158 = CARTESIAN_POINT ( 'NONE',  ( 26.19281099758361009, 0.5999999999999963141, 220.5311262438625874 ) ) ;
#159 = EXTERNAL_SOURCE (IDENTIFIER('') ) ;
#160 = CARTESIAN_POINT ( 'NONE',  ( 0.000000000000000000, 0.000000000000000000, 0.000000000000000000 ) ) ;
#161 = CONTEXT_DEPENDENT_SHAPE_REPRESENTATION ( #34, #264 ) ;
#162 = PROPERTY_DEFINITION ('document property','', #791 ) ;
#163 = APPLICATION_PROTOCOL_DEFINITION ( 'draft international standard', 'automotive_design', 1998, #217 ) ;
#164 = AXIS2_PLACEMENT_3D ( 'NONE', #232, #828, #749 ) ;
#165 =( NAMED_UNIT ( * ) PLANE_ANGLE_UNIT ( ) SI_UNIT ( $, .RADIAN. ) );
#166 = IDENTIFICATION_ROLE ( 'external document id and location', $) ;
#167 = APPLIED_EXTERNAL_IDENTIFICATION_ASSIGNMENT ( 'socket head cap screw_am_B18.3.1M - 3 x 0.5 x 16 Hex SHCS -- 16NHX.STEP' , #153, #206,( #156) ) ;
#168 = DOCUMENT_TYPE ( 'geometry' ) ;
#169 = DIRECTION ( 'NONE',  ( 4.347355680600947623E-15, 1.000000000000000444, -5.551115123130703222E-17 ) ) ;
#170 = PROPERTY_DEFINITION_REPRESENTATION ( #598, #386 ) ;
#171 = PRODUCT_DEFINITION_SHAPE ( 'NONE', 'NONE',  #44 ) ;
#172 = APPLIED_DOCUMENT_REFERENCE ( #22,'',( #389) ) ;
#173 = OBJECT_ROLE ('mandatory',$ ) ;
#174 = PRODUCT_CONTEXT ( 'NONE', #304, 'mechanical' ) ;
#175 = PROPERTY_DEFINITION_REPRESENTATION ( #646, #386 ) ;
#176 = OBJECT_ROLE ('mandatory',$ ) ;
#177 =( NAMED_UNIT ( * ) SI_UNIT ( $, .STERADIAN. ) SOLID_ANGLE_UNIT ( ) );
#178 = PRODUCT_DEFINITION_SHAPE ( 'NONE', 'NONE',  #464 ) ;
#179 = DIRECTION ( 'NONE',  ( 1.000000000000000000, 0.000000000000000000, 0.000000000000000000 ) ) ;
#180 = PROPERTY_DEFINITION_REPRESENTATION ( #482, #386 ) ;
#181 = AXIS2_PLACEMENT_3D ( 'NONE', #539, #837, #689 ) ;
#182 = AXIS2_PLACEMENT_3D ( 'NONE', #57, #503, #592 ) ;
#183 = ROLE_ASSOCIATION ( #452, #263 ) ;
#184 = PRODUCT_DEFINITION_SHAPE ( 'NONE', 'NONE',  #968 ) ;
#185 = APPLIED_EXTERNAL_IDENTIFICATION_ASSIGNMENT ( 'herringbone (helical) 50 gear_3_am_Metric - RH Helical gear 2M 25T 30HA 20PA 12FW ---25N75H50L0.8N.STEP' , #166, #854,( #583) ) ;
#186 = DOCUMENT_TYPE ( 'geometry' ) ;
#187 = EXTERNAL_SOURCE (IDENTIFIER('') ) ;
#188 = PRODUCT_RELATED_PRODUCT_CATEGORY ( 'part', '', ( #478 ) ) ;
#189 = CONTEXT_DEPENDENT_SHAPE_REPRESENTATION ( #772, #136 ) ;
#190 = PROPERTY_DEFINITION ('document property','', #461 ) ;
#191 =( REPRESENTATION_RELATIONSHIP ('NONE','NONE', #860, #626 ) REPRESENTATION_RELATIONSHIP_WITH_TRANSFORMATION ( #504 )SHAPE_REPRESENTATION_RELATIONSHIP( ) );
#192 = CONTEXT_DEPENDENT_SHAPE_REPRESENTATION ( #230, #712 ) ;
#193 = ROLE_ASSOCIATION ( #574, #357 ) ;
#194 = PROPERTY_DEFINITION_REPRESENTATION ( #505, #626 ) ;
#195 = AXIS2_PLACEMENT_3D ( 'NONE', #871, #575, #122 ) ;
#196 = OBJECT_ROLE ('mandatory',$ ) ;
#197 = AXIS2_PLACEMENT_3D ( 'NONE', #450, #381, #900 ) ;
#198 = PROPERTY_DEFINITION_REPRESENTATION ( #894, #865 ) ;
#199 = PRODUCT_DEFINITION_SHAPE ( 'NONE', 'NONE',  #976 ) ;
#200 = DIRECTION ( 'NONE',  ( 7.979727989493322495E-17, 1.000000000000000666, -7.771561172376108602E-16 ) ) ;
#201 = PRODUCT_DEFINITION ( 'General', '', #530, #207 ) ;
#202 = APPLICATION_CONTEXT ( 'automotive_design' ) ;
#203 = CONTEXT_DEPENDENT_SHAPE_REPRESENTATION ( #33, #751 ) ;
#204 = APPLICATION_CONTEXT ( 'automotive_design' ) ;
#205 = DIRECTION ( 'NONE',  ( -9.794641031810220618E-17, -1.000000000000000222, 8.093013431586757927E-16 ) ) ;
#206 = EXTERNAL_SOURCE (IDENTIFIER('') ) ;
#207 = PRODUCT_DEFINITION_CONTEXT ( 'detailed design', #402, 'design' ) ;
#208 = PROPERTY_DEFINITION ('document property','', #378 ) ;
#209 = DIRECTION ( 'NONE',  ( -6.983213146205625494E-17, -1.000000000000000444, 6.817484991752960737E-16 ) ) ;
#210 = EXTERNAL_SOURCE (IDENTIFIER('') ) ;
#211 = AXIS2_PLACEMENT_3D ( 'NONE', #433, #346, #506 ) ;
#212 =( GEOMETRIC_REPRESENTATION_CONTEXT ( 3 ) GLOBAL_UNCERTAINTY_ASSIGNED_CONTEXT ( ( #902 ) ) GLOBAL_UNIT_ASSIGNED_CONTEXT ( ( #241, #165, #5 ) ) REPRESENTATION_CONTEXT ( 'NONE', 'WORKASPACE' ) );
#213 = DIRECTION ( 'NONE',  ( 0.1001736232459992521, 6.593669770294388055E-16, 0.9949699720121047974 ) ) ;
#214 = APPLIED_EXTERNAL_IDENTIFICATION_ASSIGNMENT ( 'Insert M3 D5 L5mm.STEP' , #812, #667,( #862) ) ;
#215 = PRODUCT_DEFINITION_SHAPE ( 'NONE', 'NONE',  #964 ) ;
#216 = APPLIED_DOCUMENT_REFERENCE ( #74,'',( #820) ) ;
#217 = APPLICATION_CONTEXT ( 'automotive_design' ) ;
#218 = PRODUCT_RELATED_PRODUCT_CATEGORY ( 'part', '', ( #371 ) ) ;
#219 =( REPRESENTATION_RELATIONSHIP ('NONE','NONE', #860, #386 ) REPRESENTATION_RELATIONSHIP_WITH_TRANSFORMATION ( #60 )SHAPE_REPRESENTATION_RELATIONSHIP( ) );
#220 = PROPERTY_DEFINITION ('document property','', #583 ) ;
#221 = CARTESIAN_POINT ( 'NONE',  ( 23.90741655321841108, 0.6286537500001389001, 225.9590907322789519 ) ) ;
#222 = PROPERTY_DEFINITION_REPRESENTATION ( #935, #386 ) ;
#223 = OBJECT_ROLE ('mandatory',$ ) ;
#224 = DIRECTION ( 'NONE',  ( -2.391672636121130685E-15, -1.000000000000000444, -1.333763203986119892E-17 ) ) ;
#225 =( NAMED_UNIT ( * ) PLANE_ANGLE_UNIT ( ) SI_UNIT ( $, .RADIAN. ) );
#226 = UNCERTAINTY_MEASURE_WITH_UNIT (LENGTH_MEASURE( 1.000000000000000082E-05 ), #71, 'distance_accuracy_value', 'NONE');
#227 = PRODUCT_DEFINITION_SHAPE ( 'NONE', 'NONE',  #943 ) ;
#228 = DIRECTION ( 'NONE',  ( 0.8332538645283802392, 3.881006398567519005E-16, 0.5528905834326712787 ) ) ;
#229 = AXIS2_PLACEMENT_3D ( 'NONE', #284, #128, #666 ) ;
#230 =( REPRESENTATION_RELATIONSHIP ('NONE','NONE', #860, #626 ) REPRESENTATION_RELATIONSHIP_WITH_TRANSFORMATION ( #866 )SHAPE_REPRESENTATION_RELATIONSHIP( ) );
#231 = PRODUCT_DEFINITION_FORMATION_WITH_SPECIFIED_SOURCE ( 'Symmetric', '', #478, .NOT_KNOWN. ) ;
#232 = CARTESIAN_POINT ( 'NONE',  ( 0.000000000000000000, 0.000000000000000000, 0.000000000000000000 ) ) ;
#233 = APPLIED_EXTERNAL_IDENTIFICATION_ASSIGNMENT ( 'socket head cap screw_am_B18.3.1M - 3 x 0.5 x 16 Hex SHCS -- 16NHX.STEP' , #601, #72,( #378) ) ;
#234 = DIRECTION ( 'NONE',  ( 0.6417652050917390660, -2.826334698981878227E-15, 0.7669011810745619551 ) ) ;
#235 = PROPERTY_DEFINITION ('document property','', #642 ) ;
#236 = IDENTIFICATION_ROLE ( 'external document id and location', $) ;
#237 = PRODUCT_DEFINITION_CONTEXT ( 'detailed design', #937, 'design' ) ;
#238 = ITEM_DEFINED_TRANSFORMATION ( 'NONE', 'NONE', #483,  #211 ) ;
#239 =( REPRESENTATION_RELATIONSHIP ('NONE','NONE', #860, #626 ) REPRESENTATION_RELATIONSHIP_WITH_TRANSFORMATION ( #823 )SHAPE_REPRESENTATION_RELATIONSHIP( ) );
#240 = PRODUCT_CONTEXT ( 'NONE', #610, 'mechanical' ) ;
#241 =( LENGTH_UNIT ( ) NAMED_UNIT ( * ) SI_UNIT ( .CENTI., .METRE. ) );
#242 = CONTEXT_DEPENDENT_SHAPE_REPRESENTATION ( #356, #418 ) ;
#243 = PRODUCT_DEFINITION_SHAPE ( 'NONE', 'NONE',  #959 ) ;
#244 = PRODUCT_DEFINITION_SHAPE ( 'NONE', 'NONE',  #950 ) ;
#245 = IDENTIFICATION_ROLE ( 'external document id and location', $) ;
#246 = SHAPE_DEFINITION_REPRESENTATION ( #625, #860 ) ;
#247 = UNCERTAINTY_MEASURE_WITH_UNIT (LENGTH_MEASURE( 1.000000000000000082E-05 ), #82, 'distance_accuracy_value', 'NONE');
#248 = PROPERTY_DEFINITION_REPRESENTATION ( #532, #386 ) ;
#249 = ITEM_DEFINED_TRANSFORMATION ( 'NONE', 'NONE', #399,  #578 ) ;
#250 = EXTERNAL_SOURCE (IDENTIFIER('') ) ;
#251 = APPLICATION_PROTOCOL_DEFINITION ( 'draft international standard', 'automotive_design', 1998, #888 ) ;
#252 =( LENGTH_UNIT ( ) NAMED_UNIT ( * ) SI_UNIT ( .CENTI., .METRE. ) );
#253 = ITEM_DEFINED_TRANSFORMATION ( 'NONE', 'NONE', #824,  #56 ) ;
#254 = SHAPE_DEFINITION_REPRESENTATION ( #92, #727 ) ;
#255 = EXTERNAL_SOURCE (IDENTIFIER('') ) ;
#256 = DOCUMENT_FILE ( 'socket head cap screw_am_B18.3.1M - 3 x 0.5 x 16 Hex SHCS -- 16NHX.STEP' , '', '', #301, '' ,$ ) ;
#257 = EXTERNAL_SOURCE (IDENTIFIER('') ) ;
#258 = ROLE_ASSOCIATION ( #864, #635 ) ;
#259 = CARTESIAN_POINT ( 'NONE',  ( 25.40741655335163784, -1.000000000000006439, 228.5571669435553304 ) ) ;
#260 = PROPERTY_DEFINITION_REPRESENTATION ( #890, #386 ) ;
#261 = AXIS2_PLACEMENT_3D ( 'NONE', #915, #784, #409 ) ;
#262 = DOCUMENT_TYPE ( 'geometry' ) ;
#263 = APPLIED_DOCUMENT_REFERENCE ( #862,'',( #820) ) ;
#264 = PRODUCT_DEFINITION_SHAPE ( 'NONE', 'NONE',  #965 ) ;
#265 = APPLIED_EXTERNAL_IDENTIFICATION_ASSIGNMENT ( 'top housing.STEP' , #39, #332,( #542) ) ;
#266 = APPLIED_DOCUMENT_REFERENCE ( #642,'',( #904) ) ;
#267 = PROPERTY_DEFINITION_REPRESENTATION ( #669, #626 ) ;
#268 = DOCUMENT_TYPE ( 'geometry' ) ;
#269 = APPLICATION_PROTOCOL_DEFINITION ( 'draft international standard', 'automotive_design', 1998, #690 ) ;
#270 = APPLICATION_PROTOCOL_DEFINITION ( 'draft international standard', 'automotive_design', 1998, #204 ) ;
#271 = PROPERTY_DEFINITION ('external definition','', #429 ) ;
#272 = CONTEXT_DEPENDENT_SHAPE_REPRESENTATION ( #48, #814 ) ;
#273 = SHAPE_DEFINITION_REPRESENTATION ( #323, #865 ) ;
#274 = DOCUMENT_TYPE ( 'geometry' ) ;
#275 = PROPERTY_DEFINITION_REPRESENTATION ( #271, #386 ) ;
#276 = PROPERTY_DEFINITION_REPRESENTATION ( #914, #626 ) ;
#277 = AXIS2_PLACEMENT_3D ( 'NONE', #882, #656, #116 ) ;
#278 = PROPERTY_DEFINITION_REPRESENTATION ( #916, #727 ) ;
#279 = PRODUCT_DEFINITION_SHAPE ( 'NONE', 'NONE',  #967 ) ;
#280 = PROPERTY_DEFINITION_REPRESENTATION ( #110, #386 ) ;
#281 = DOCUMENT_TYPE ( 'geometry' ) ;
#282 = DOCUMENT_FILE ( 'Insert M3 D5 L5mm.STEP' , '', '', #95, '' ,$ ) ;
#283 = PROPERTY_DEFINITION ('document property','', #477 ) ;
#284 = CARTESIAN_POINT ( 'NONE',  ( 24.65741655328492854, 0.7161537500000036971, 227.2581288379171838 ) ) ;
#285 = ROLE_ASSOCIATION ( #196, #417 ) ;
#286 = PROPERTY_DEFINITION ('document property','', #124 ) ;
#287 = DOCUMENT_TYPE ( 'geometry' ) ;
#288 = PRODUCT_DEFINITION_SHAPE ( 'NONE', 'NONE',  #956 ) ;
#289 = PRODUCT_DEFINITION ( 'General', '', #760, #615 ) ;
#290 = AXIS2_PLACEMENT_3D ( 'NONE', #66, #608, #677 ) ;
#291 = IDENTIFICATION_ROLE ( 'external document id and location', $) ;
#292 = CARTESIAN_POINT ( 'NONE',  ( 26.19281099758338271, 0.6000000000000039746, 233.9851314319717801 ) ) ;
#293 = APPLIED_EXTERNAL_IDENTIFICATION_ASSIGNMENT ( 'Insert M3 D5 L5mm.STEP' , #245, #618,( #799) ) ;
#294 = PROPERTY_DEFINITION ('external definition','', #620 ) ;
#295 = DIRECTION ( 'NONE',  ( 0.000000000000000000, 0.000000000000000000, 1.000000000000000000 ) ) ;
#296 = PROPERTY_DEFINITION ('document property','', #567 ) ;
#297 = ROLE_ASSOCIATION ( #561, #305 ) ;
#298 = PRODUCT_DEFINITION_SHAPE ( 'NONE', 'NONE',  #904 ) ;
#299 = DIRECTION ( 'NONE',  ( 0.1985430489239044527, 4.322399160968356680E-16, 0.9800921679740124404 ) ) ;
#300 = IDENTIFICATION_ROLE ( 'external document id and location', $) ;
#301 = DOCUMENT_TYPE ( 'geometry' ) ;
#302 = APPLIED_DOCUMENT_REFERENCE ( #67,'',( #820) ) ;
#303 = DIRECTION ( 'NONE',  ( 0.4135944368675145144, 4.502327100484018688E-16, 0.9104612247604196851 ) ) ;
#304 = APPLICATION_CONTEXT ( 'automotive_design' ) ;
#305 = APPLIED_DOCUMENT_REFERENCE ( #378,'',( #437) ) ;
#306 = PROPERTY_DEFINITION ('external definition','', #642 ) ;
#307 = OBJECT_ROLE ('mandatory',$ ) ;
#308 = DIRECTION ( 'NONE',  ( 0.9862501129110786691, -6.503920581848746441E-17, 0.1652595376457423049 ) ) ;
#309 = AXIS2_PLACEMENT_3D ( 'NONE', #414, #209, #869 ) ;
#310 = AXIS2_PLACEMENT_3D ( 'NONE', #375, #224, #76 ) ;
#311 = APPLIED_EXTERNAL_IDENTIFICATION_ASSIGNMENT ( 'socket head cap screw_am_B18.3.1M - 3 x 0.5 x 16 Hex SHCS -- 16NHX.STEP' , #527, #84,( #675) ) ;
#312 = ROLE_ASSOCIATION ( #877, #459 ) ;
#313 = DOCUMENT_TYPE ( 'geometry' ) ;
#314 = DIRECTION ( 'NONE',  ( -1.304089035543424616E-16, -1.000000000000000888, 6.307764171143917936E-16 ) ) ;
#315 = PRODUCT_DEFINITION_SHAPE ( 'NONE', 'NONE',  #289 ) ;
#316 = CARTESIAN_POINT ( 'NONE',  ( 0.000000000000000000, 0.000000000000000000, 0.000000000000000000 ) ) ;
#317 = PROPERTY_DEFINITION_REPRESENTATION ( #41, #386 ) ;
#318 = DOCUMENT_TYPE ( 'geometry' ) ;
#319 = SHAPE_DEFINITION_REPRESENTATION ( #830, #322 ) ;
#320 = ITEM_DEFINED_TRANSFORMATION ( 'NONE', 'NONE', #38,  #211 ) ;
#321 = PRODUCT_RELATED_PRODUCT_CATEGORY ( 'part', '', ( #146 ) ) ;
#322 = SHAPE_REPRESENTATION ( '608-2RS Skate Board Ball Bearing', ( #528 ), #479 ) ;
#323 = PRODUCT_DEFINITION_SHAPE ( 'NONE', 'NONE',  #496 ) ;
#324 = APPLICATION_PROTOCOL_DEFINITION ( 'draft international standard', 'automotive_design', 1998, #338 ) ;
#325 = AXIS2_PLACEMENT_3D ( 'NONE', #516, #587, #789 ) ;
#326 = UNCERTAINTY_MEASURE_WITH_UNIT (LENGTH_MEASURE( 1.000000000000000082E-05 ), #577, 'distance_accuracy_value', 'NONE');
#327 = DOCUMENT_FILE ( 'socket head cap screw_am_B18.3.1M - 3 x 0.5 x 16 Hex SHCS -- 16NHX.STEP' , '', '', #593, '' ,$ ) ;
#328 = APPLIED_EXTERNAL_IDENTIFICATION_ASSIGNMENT ( 'radial cylindrical roller bearing_am_AFBMA 20.1 - 17-100 - 54,SI,NC,54.STEP' , #441, #924,( #796) ) ;
#329 = ROLE_ASSOCIATION ( #905, #172 ) ;
#330 = APPLICATION_PROTOCOL_DEFINITION ( 'draft international standard', 'automotive_design', 1998, #202 ) ;
#331 = APPLIED_DOCUMENT_REFERENCE ( #468,'',( #437) ) ;
#332 = EXTERNAL_SOURCE (IDENTIFIER('') ) ;
#333 = ROLE_ASSOCIATION ( #912, #839 ) ;
#334 = PROPERTY_DEFINITION ('external definition','', #461 ) ;
#335 =( NAMED_UNIT ( * ) SI_UNIT ( $, .STERADIAN. ) SOLID_ANGLE_UNIT ( ) );
#336 = APPLIED_DOCUMENT_REFERENCE ( #640,'',( #437) ) ;
#337 = CONTEXT_DEPENDENT_SHAPE_REPRESENTATION ( #881, #127 ) ;
#338 = APPLICATION_CONTEXT ( 'automotive_design' ) ;
#339 = PRODUCT_CONTEXT ( 'NONE', #888, 'mechanical' ) ;
#340 = DOCUMENT_TYPE ( 'geometry' ) ;
#341 = ITEM_DEFINED_TRANSFORMATION ( 'NONE', 'NONE', #277,  #528 ) ;
#342 = AXIS2_PLACEMENT_3D ( 'NONE', #148, #756, #372 ) ;
#343 = ROLE_ASSOCIATION ( #834, #842 ) ;
#344 = EXTERNAL_SOURCE (IDENTIFIER('') ) ;
#345 = PRODUCT_CONTEXT ( 'NONE', #690, 'mechanical' ) ;
#346 = DIRECTION ( 'NONE',  ( 0.000000000000000000, 0.000000000000000000, 1.000000000000000000 ) ) ;
#347 = PRODUCT_DEFINITION_SHAPE ( 'NONE', 'NONE',  #966 ) ;
#348 =( REPRESENTATION_RELATIONSHIP ('NONE','NONE', #860, #626 ) REPRESENTATION_RELATIONSHIP_WITH_TRANSFORMATION ( #695 )SHAPE_REPRESENTATION_RELATIONSHIP( ) );
#349 = APPLIED_DOCUMENT_REFERENCE ( #124,'',( #820) ) ;
#350 = DOCUMENT_FILE ( 'output mount.STEP' , '', '', #268, '' ,$ ) ;
#351 = DIRECTION ( 'NONE',  ( -2.428123447532247521E-16, 1.000000000000000444, 6.052176211050558171E-16 ) ) ;
#352 =( GEOMETRIC_REPRESENTATION_CONTEXT ( 3 ) GLOBAL_UNCERTAINTY_ASSIGNED_CONTEXT ( ( #594 ) ) GLOBAL_UNIT_ASSIGNED_CONTEXT ( ( #522, #225, #526 ) ) REPRESENTATION_CONTEXT ( 'NONE', 'WORKASPACE' ) );
#353 = APPLICATION_CONTEXT ( 'automotive_design' ) ;
#354 =( GEOMETRIC_REPRESENTATION_CONTEXT ( 3 ) GLOBAL_UNCERTAINTY_ASSIGNED_CONTEXT ( ( #473 ) ) GLOBAL_UNIT_ASSIGNED_CONTEXT ( ( #556, #37, #563 ) ) REPRESENTATION_CONTEXT ( 'NONE', 'WORKASPACE' ) );
#355 = PRODUCT_DEFINITION_FORMATION_WITH_SPECIFIED_SOURCE ( 'Symmetric', '', #462, .NOT_KNOWN. ) ;
#356 =( REPRESENTATION_RELATIONSHIP ('NONE','NONE', #860, #386 ) REPRESENTATION_RELATIONSHIP_WITH_TRANSFORMATION ( #100 )SHAPE_REPRESENTATION_RELATIONSHIP( ) );
#357 = APPLIED_DOCUMENT_REFERENCE ( #791,'',( #496) ) ;
#358 = PRODUCT_DEFINITION_SHAPE ( 'NONE', 'NONE',  #963 ) ;
#359 = APPLIED_EXTERNAL_IDENTIFICATION_ASSIGNMENT ( '608-2RS Skate Board Ball Bearing.STEP' , #754, #24,( #775) ) ;
#360 = CONTEXT_DEPENDENT_SHAPE_REPRESENTATION ( #899, #36 ) ;
#361 = EXTERNAL_SOURCE (IDENTIFIER('') ) ;
#362 = CONTEXT_DEPENDENT_SHAPE_REPRESENTATION ( #62, #553 ) ;
#363 = DIRECTION ( 'NONE',  ( -2.085889949625516751E-16, -1.000000000000000666, 7.075067776847855604E-16 ) ) ;
#364 = PROPERTY_DEFINITION ('document property','', #350 ) ;
#365 = DOCUMENT_TYPE ( 'geometry' ) ;
#366 =( NAMED_UNIT ( * ) SI_UNIT ( $, .STERADIAN. ) SOLID_ANGLE_UNIT ( ) );
#367 = ROLE_ASSOCIATION ( #579, #302 ) ;
#368 = AXIS2_PLACEMENT_3D ( 'NONE', #104, #295, #600 ) ;
#369 = CARTESIAN_POINT ( 'NONE',  ( 20.35533692045973808, -1.000000000000008438, 221.8634916088877276 ) ) ;
#370 = APPLIED_EXTERNAL_IDENTIFICATION_ASSIGNMENT ( 'socket head cap screw_am_B18.3.1M - 3 x 0.5 x 16 Hex SHCS -- 16NHX.STEP' , #612, #384,( #468) ) ;
#371 = PRODUCT ( 'radial cylindrical roller bearing_am_AFBMA 20.1 - 17-100 - 54,SI,NC,54', 'radial cylindrical roller bearing_am_AFBMA 20.1 - 17-100 - 54,SI,NC,54', '', ( #763 ) ) ;
#372 = DIRECTION ( 'NONE',  ( 6.245004513516512935E-17, 1.000000000000000444, -8.326672684688681942E-16 ) ) ;
#373 = PROPERTY_DEFINITION_REPRESENTATION ( #64, #386 ) ;
#374 = OBJECT_ROLE ('mandatory',$ ) ;
#375 = CARTESIAN_POINT ( 'NONE',  ( 25.40741655335176219, 0.6286537500001375678, 228.5571669435552451 ) ) ;
#376 = IDENTIFICATION_ROLE ( 'external document id and location', $) ;
#377 = PRODUCT_DEFINITION_CONTEXT ( 'detailed design', #558, 'design' ) ;
#378 = DOCUMENT_FILE ( 'socket head cap screw_am_B18.3.1M - 3 x 0.5 x 16 Hex SHCS -- 16NHX.STEP' , '', '', #509, '' ,$ ) ;
#379 = PRODUCT_DEFINITION_SHAPE ( 'NONE', 'NONE',  #811 ) ;
#380 =( REPRESENTATION_RELATIONSHIP ('NONE','NONE', #860, #322 ) REPRESENTATION_RELATIONSHIP_WITH_TRANSFORMATION ( #40 )SHAPE_REPRESENTATION_RELATIONSHIP( ) );
#381 = DIRECTION ( 'NONE',  ( -3.407361546335510778E-16, -1.000000000000000444, 6.096521446015379403E-16 ) ) ;
#382 = AXIS2_PLACEMENT_3D ( 'NONE', #709, #94, #480 ) ;
#383 = APPLIED_EXTERNAL_IDENTIFICATION_ASSIGNMENT ( 'output mount.STEP' , #152, #255,( #350) ) ;
#384 = EXTERNAL_SOURCE (IDENTIFIER('') ) ;
#385 = PROPERTY_DEFINITION_REPRESENTATION ( #410, #626 ) ;
#386 = SHAPE_REPRESENTATION ( 'socket head cap screw_am_B18.3.1M - 3 x 0.5 x 16 Hex SHCS -- 16NHX', ( #211 ), #627 ) ;
#387 = SHAPE_DEFINITION_REPRESENTATION ( #818, #386 ) ;
#388 = PROPERTY_DEFINITION ('external definition','', #583 ) ;
#389 = PRODUCT_DEFINITION ( 'General', '', #872, #237 ) ;
#390 = PROPERTY_DEFINITION_REPRESENTATION ( #294, #386 ) ;
#391 = OBJECT_ROLE ('mandatory',$ ) ;
#392 = PROPERTY_DEFINITION_REPRESENTATION ( #923, #440 ) ;
#393 = CARTESIAN_POINT ( 'NONE',  ( 26.15741655328496051, -1.000000000000010658, 227.2581288378401894 ) ) ;
#394 = EXTERNAL_SOURCE (IDENTIFIER('') ) ;
#395 = PROPERTY_DEFINITION_REPRESENTATION ( #407, #626 ) ;
#396 = PROPERTY_DEFINITION ('external definition','', #542 ) ;
#397 = SHAPE_DEFINITION_REPRESENTATION ( #379, #421 ) ;
#398 =( NAMED_UNIT ( * ) SI_UNIT ( $, .STERADIAN. ) SOLID_ANGLE_UNIT ( ) );
#399 = AXIS2_PLACEMENT_3D ( 'NONE', #879, #205, #801 ) ;
#400 = APPLIED_EXTERNAL_IDENTIFICATION_ASSIGNMENT ( 'Insert M3 D5 L5mm.STEP' , #715, #569,( #118) ) ;
#401 = ITEM_DEFINED_TRANSFORMATION ( 'NONE', 'NONE', #309,  #806 ) ;
#402 = APPLICATION_CONTEXT ( 'automotive_design' ) ;
#403 = APPLICATION_PROTOCOL_DEFINITION ( 'draft international standard', 'automotive_design', 1998, #725 ) ;
#404 = IDENTIFICATION_ROLE ( 'external document id and location', $) ;
#405 = DIRECTION ( 'NONE',  ( 0.000000000000000000, 0.000000000000000000, 1.000000000000000000 ) ) ;
#406 = ROLE_ASSOCIATION ( #391, #91 ) ;
#407 = PROPERTY_DEFINITION ('document property','', #862 ) ;
#408 = CONTEXT_DEPENDENT_SHAPE_REPRESENTATION ( #607, #435 ) ;
#409 = DIRECTION ( 'NONE',  ( 4.413975806446490021E-15, 1.000000000000000444, 1.110223024624656600E-16 ) ) ;
#410 = PROPERTY_DEFINITION ('document property','', #74 ) ;
#411 = OBJECT_ROLE ('mandatory',$ ) ;
#412 = PROPERTY_DEFINITION_REPRESENTATION ( #740, #322 ) ;
#413 = CONTEXT_DEPENDENT_SHAPE_REPRESENTATION ( #380, #3 ) ;
#414 = CARTESIAN_POINT ( 'NONE',  ( 24.65741655328494630, -1.000000000000000888, 227.2581288379171838 ) ) ;
#415 = OBJECT_ROLE ('mandatory',$ ) ;
#416 = AXIS2_PLACEMENT_3D ( 'NONE', #535, #628, #169 ) ;
#417 = APPLIED_DOCUMENT_REFERENCE ( #567,'',( #820) ) ;
#418 = PRODUCT_DEFINITION_SHAPE ( 'NONE', 'NONE',  #974 ) ;
#419 = CARTESIAN_POINT ( 'NONE',  ( 23.90741655335176219, 0.6286537500001389001, 228.5571669436322395 ) ) ;
#420 =( REPRESENTATION_RELATIONSHIP ('NONE','NONE', #860, #386 ) REPRESENTATION_RELATIONSHIP_WITH_TRANSFORMATION ( #97 )SHAPE_REPRESENTATION_RELATIONSHIP( ) );
#421 = SHAPE_REPRESENTATION ( 'bottom housing', ( #806 ), #611 ) ;
#422 = CARTESIAN_POINT ( 'NONE',  ( 24.65741655328494275, 2.541153750000140654, 227.2581288379171838 ) ) ;
#423 = PRODUCT_RELATED_PRODUCT_CATEGORY ( 'part', '', ( #28 ) ) ;
#424 = PROPERTY_DEFINITION_REPRESENTATION ( #51, #386 ) ;
#425 = PROPERTY_DEFINITION_REPRESENTATION ( #885, #626 ) ;
#426 = ITEM_DEFINED_TRANSFORMATION ( 'NONE', 'NONE', #325,  #684 ) ;
#427 = DIRECTION ( 'NONE',  ( -0.5092514411236763738, -6.141208308781214597E-16, 0.8606177837538908637 ) ) ;
#428 = SHAPE_REPRESENTATION ( 'herringbone (helical) 100 gear_3_am_Metric - LH Helical gear 2M 50T 30HA 20PA 12FW ---50N75H50L0.8N', ( #164 ), #657 ) ;
#429 = DOCUMENT_FILE ( 'socket head cap screw_am_B18.3.1M - 3 x 0.5 x 16 Hex SHCS -- 16NHX.STEP' , '', '', #434, '' ,$ ) ;
#430 = ROLE_ASSOCIATION ( #654, #510 ) ;
#431 = ITEM_DEFINED_TRANSFORMATION ( 'NONE', 'NONE', #743,  #164 ) ;
#432 =( REPRESENTATION_RELATIONSHIP ('NONE','NONE', #860, #626 ) REPRESENTATION_RELATIONSHIP_WITH_TRANSFORMATION ( #606 )SHAPE_REPRESENTATION_RELATIONSHIP( ) );
#433 = CARTESIAN_POINT ( 'NONE',  ( 0.000000000000000000, 0.000000000000000000, 0.000000000000000000 ) ) ;
#434 = DOCUMENT_TYPE ( 'geometry' ) ;
#435 = PRODUCT_DEFINITION_SHAPE ( 'NONE', 'NONE',  #954 ) ;
#436 = DOCUMENT_FILE ( 'Insert M3 D5 L5mm.STEP' , '', '', #463, '' ,$ ) ;
#437 = PRODUCT_DEFINITION ( 'General', '', #231, #377 ) ;
#438 = AXIS2_PLACEMENT_3D ( 'NONE', #158, #445, #303 ) ;
#439 = PROPERTY_DEFINITION ('document property','', #156 ) ;
#440 = SHAPE_REPRESENTATION ( 'top housing', ( #578 ), #354 ) ;
#441 = IDENTIFICATION_ROLE ( 'external document id and location', $) ;
#442 = IDENTIFICATION_ROLE ( 'external document id and location', $) ;
#443 = APPLIED_DOCUMENT_REFERENCE ( #799,'',( #820) ) ;
#444 = PROPERTY_DEFINITION ('document property','', #436 ) ;
#445 = DIRECTION ( 'NONE',  ( -2.826456832133090399E-16, -1.000000000000000444, 6.500191349744036502E-16 ) ) ;
#446 = PROPERTY_DEFINITION_REPRESENTATION ( #190, #386 ) ;
#447 = PRODUCT_DEFINITION_SHAPE ( 'NONE', 'NONE',  #975 ) ;
#448 = EXTERNAL_SOURCE (IDENTIFIER('') ) ;
#449 = PROPERTY_DEFINITION ('external definition','', #567 ) ;
#450 = CARTESIAN_POINT ( 'NONE',  ( 20.35533692045975585, 0.5999999999999977573, 221.8634916088876992 ) ) ;
#451 = CARTESIAN_POINT ( 'NONE',  ( 0.000000000000000000, 0.000000000000000000, 0.000000000000000000 ) ) ;
#452 = OBJECT_ROLE ('mandatory',$ ) ;
#453 = CARTESIAN_POINT ( 'NONE',  ( 25.40741655321842174, 0.6286537500001367906, 225.9590907322019007 ) ) ;
#454 = APPLIED_EXTERNAL_IDENTIFICATION_ASSIGNMENT ( 'Insert M3 D5 L5mm.STEP' , #513, #8,( #282) ) ;
#455 = PROPERTY_DEFINITION_REPRESENTATION ( #208, #386 ) ;
#456 = APPLICATION_CONTEXT ( 'automotive_design' ) ;
#457 = CARTESIAN_POINT ( 'NONE',  ( 17.75741655328494417, 0.6000000000000033085, 227.2581288379171269 ) ) ;
#458 = DOCUMENT_TYPE ( 'geometry' ) ;
#459 = APPLIED_DOCUMENT_REFERENCE ( #156,'',( #437) ) ;
#460 = DIRECTION ( 'NONE',  ( -0.9858150448629583451, 2.250984427322861024E-15, 0.1678353279909902129 ) ) ;
#461 = DOCUMENT_FILE ( 'socket head cap screw_am_B18.3.1M - 3 x 0.5 x 16 Hex SHCS -- 16NHX.STEP' , '', '', #287, '' ,$ ) ;
#462 = PRODUCT ( 'Insert M3 D5 L5mm', 'Insert M3 D5 L5mm', '', ( #174 ) ) ;
#463 = DOCUMENT_TYPE ( 'geometry' ) ;
#464 = PRODUCT_DEFINITION ( 'General', '', #596, #665 ) ;
#465 = APPLICATION_PROTOCOL_DEFINITION ( 'draft international standard', 'automotive_design', 1998, #662 ) ;
#466 = PRODUCT_DEFINITION_FORMATION_WITH_SPECIFIED_SOURCE ( 'Symmetric', '', #909, .NOT_KNOWN. ) ;
#467 =( REPRESENTATION_RELATIONSHIP ('NONE','NONE', #860, #626 ) REPRESENTATION_RELATIONSHIP_WITH_TRANSFORMATION ( #108 )SHAPE_REPRESENTATION_RELATIONSHIP( ) );
#468 = DOCUMENT_FILE ( 'socket head cap screw_am_B18.3.1M - 3 x 0.5 x 16 Hex SHCS -- 16NHX.STEP' , '', '', #597, '' ,$ ) ;
#469 =( REPRESENTATION_RELATIONSHIP ('NONE','NONE', #860, #421 ) REPRESENTATION_RELATIONSHIP_WITH_TRANSFORMATION ( #401 )SHAPE_REPRESENTATION_RELATIONSHIP( ) );
#470 = ROLE_ASSOCIATION ( #721, #938 ) ;
#471 = PRODUCT_DEFINITION_SHAPE ( 'NONE', 'NONE',  #820 ) ;
#472 = DIRECTION ( 'NONE',  ( 0.000000000000000000, 0.000000000000000000, 1.000000000000000000 ) ) ;
#473 = UNCERTAINTY_MEASURE_WITH_UNIT (LENGTH_MEASURE( 1.000000000000000082E-05 ), #556, 'distance_accuracy_value', 'NONE');
#474 =( NAMED_UNIT ( * ) PLANE_ANGLE_UNIT ( ) SI_UNIT ( $, .RADIAN. ) );
#475 = DOCUMENT_TYPE ( 'geometry' ) ;
#476 = PROPERTY_DEFINITION_REPRESENTATION ( #873, #386 ) ;
#477 = DOCUMENT_FILE ( 'Insert M3 D5 L5mm.STEP' , '', '', #109, '' ,$ ) ;
#478 = PRODUCT ( 'socket head cap screw_am_B18.3.1M - 3 x 0.5 x 16 Hex SHCS -- 16NHX', 'socket head cap screw_am_B18.3.1M - 3 x 0.5 x 16 Hex SHCS -- 16NHX', '', ( #487 ) ) ;
#479 =( GEOMETRIC_REPRESENTATION_CONTEXT ( 3 ) GLOBAL_UNCERTAINTY_ASSIGNED_CONTEXT ( ( #540 ) ) GLOBAL_UNIT_ASSIGNED_CONTEXT ( ( #252, #106, #398 ) ) REPRESENTATION_CONTEXT ( 'NONE', 'WORKASPACE' ) );
#480 = DIRECTION ( 'NONE',  ( 1.000000000000000000, 0.000000000000000000, 0.000000000000000000 ) ) ;
#481 = EXTERNAL_SOURCE (IDENTIFIER('') ) ;
#482 = PROPERTY_DEFINITION ('document property','', #256 ) ;
#483 = AXIS2_PLACEMENT_3D ( 'NONE', #599, #213, #524 ) ;
#484 = DOCUMENT_FILE ( 'socket head cap screw_am_B18.3.1M - 3 x 0.5 x 16 Hex SHCS -- 16NHX.STEP' , '', '', #168, '' ,$ ) ;
#485 = CONTEXT_DEPENDENT_SHAPE_REPRESENTATION ( #926, #279 ) ;
#486 = ITEM_DEFINED_TRANSFORMATION ( 'NONE', 'NONE', #856,  #56 ) ;
#487 = PRODUCT_CONTEXT ( 'NONE', #489, 'mechanical' ) ;
#488 = CONTEXT_DEPENDENT_SHAPE_REPRESENTATION ( #19, #636 ) ;
#489 = APPLICATION_CONTEXT ( 'automotive_design' ) ;
#490 = DOCUMENT_TYPE ( 'geometry' ) ;
#491 = ROLE_ASSOCIATION ( #821, #266 ) ;
#492 = PROPERTY_DEFINITION ('external definition','', #327 ) ;
#493 = DIRECTION ( 'NONE',  ( -1.338646112844529359E-15, -1.000000000000000444, -4.939486780360654102E-17 ) ) ;
#494 = ITEM_DEFINED_TRANSFORMATION ( 'NONE', 'NONE', #438,  #56 ) ;
#495 = IDENTIFICATION_ROLE ( 'external document id and location', $) ;
#496 = PRODUCT_DEFINITION ( 'General', '', #544, #744 ) ;
#497 = ITEM_DEFINED_TRANSFORMATION ( 'NONE', 'NONE', #229,  #181 ) ;
#498 =( NAMED_UNIT ( * ) SI_UNIT ( $, .STERADIAN. ) SOLID_ANGLE_UNIT ( ) );
#499 = AXIS2_PLACEMENT_3D ( 'NONE', #742, #81, #299 ) ;
#500 = APPLIED_EXTERNAL_IDENTIFICATION_ASSIGNMENT ( 'socket head cap screw_am_B18.3.1M - 3 x 0.5 x 16 Hex SHCS -- 16NHX.STEP' , #442, #726,( #640) ) ;
#501 = APPLICATION_PROTOCOL_DEFINITION ( 'draft international standard', 'automotive_design', 1998, #353 ) ;
#502 = IDENTIFICATION_ROLE ( 'external document id and location', $) ;
#503 = DIRECTION ( 'NONE',  ( -1.268762818403437447E-15, -1.000000000000000444, 1.847189765036464246E-16 ) ) ;
#504 = ITEM_DEFINED_TRANSFORMATION ( 'NONE', 'NONE', #499,  #56 ) ;
#505 = PROPERTY_DEFINITION ('document property','', #641 ) ;
#506 = DIRECTION ( 'NONE',  ( 1.000000000000000000, 0.000000000000000000, 0.000000000000000000 ) ) ;
#507 = PROPERTY_DEFINITION ('external definition','', #484 ) ;
#508 = DOCUMENT_TYPE ( 'geometry' ) ;
#509 = DOCUMENT_TYPE ( 'geometry' ) ;
#510 = APPLIED_DOCUMENT_REFERENCE ( #641,'',( #820) ) ;
#511 = ITEM_DEFINED_TRANSFORMATION ( 'NONE', 'NONE', #629,  #56 ) ;
#512 = AXIS2_PLACEMENT_3D ( 'NONE', #10, #228, #141 ) ;
#513 = IDENTIFICATION_ROLE ( 'external document id and location', $) ;
#514 = PRODUCT_DEFINITION_CONTEXT ( 'detailed design', #65, 'design' ) ;
#515 = PROPERTY_DEFINITION ('document property','', #620 ) ;
#516 = CARTESIAN_POINT ( 'NONE',  ( 33.40741655328480419, 1.341153750000886991, 227.2581288379172406 ) ) ;
#517 = DIRECTION ( 'NONE',  ( -2.177178743856795239E-15, -1.000000000000000666, -7.734037029283024425E-17 ) ) ;
#518 = ROLE_ASSOCIATION ( #907, #216 ) ;
#519 = PRODUCT ( '3in thrust bearing', '3in thrust bearing', '', ( #345 ) ) ;
#520 = IDENTIFICATION_ROLE ( 'external document id and location', $) ;
#521 = DIRECTION ( 'NONE',  ( -2.085889949625516751E-16, -1.000000000000000666, 7.075067776847855604E-16 ) ) ;
#522 =( LENGTH_UNIT ( ) NAMED_UNIT ( * ) SI_UNIT ( .CENTI., .METRE. ) );
#523 = CONTEXT_DEPENDENT_SHAPE_REPRESENTATION ( #794, #184 ) ;
#524 = DIRECTION ( 'NONE',  ( 6.983213146205620563E-17, 1.000000000000000888, -6.817484991752983417E-16 ) ) ;
#525 = PRODUCT ( 'herringbone (helical) 50 gear_3_am_Metric - RH Helical gear 2M 25T 30HA 20PA 12FW ---25N75H50L0.8N', 'herringbone (helical) 50 gear_3_am_Metric - RH Helical gear 2M 25T 30HA 20PA 12FW ---25N75H50L0.8N', '', ( #240 ) ) ;
#526 =( NAMED_UNIT ( * ) SI_UNIT ( $, .STERADIAN. ) SOLID_ANGLE_UNIT ( ) );
#527 = IDENTIFICATION_ROLE ( 'external document id and location', $) ;
#528 = AXIS2_PLACEMENT_3D ( 'NONE', #160, #780, #851 ) ;
#529 = PROPERTY_DEFINITION_REPRESENTATION ( #738, #626 ) ;
#530 = PRODUCT_DEFINITION_FORMATION_WITH_SPECIFIED_SOURCE ( 'Symmetric', '', #757, .NOT_KNOWN. ) ;
#531 = CARTESIAN_POINT ( 'NONE',  ( 20.35533692045956045, 0.6000000000000054179, 232.6527660669464410 ) ) ;
#532 = PROPERTY_DEFINITION ('external definition','', #468 ) ;
#533 = IDENTIFICATION_ROLE ( 'external document id and location', $) ;
#534 = PRODUCT_DEFINITION_SHAPE ( 'NONE', 'NONE',  #951 ) ;
#535 = CARTESIAN_POINT ( 'NONE',  ( 23.15741655328496762, -0.9999999999999974465, 227.2581288379941498 ) ) ;
#536 = ROLE_ASSOCIATION ( #173, #908 ) ;
#537 = DOCUMENT_TYPE ( 'geometry' ) ;
#538 = SHAPE_DEFINITION_REPRESENTATION ( #178, #571 ) ;
#539 = CARTESIAN_POINT ( 'NONE',  ( 0.000000000000000000, 0.000000000000000000, 0.000000000000000000 ) ) ;
#540 = UNCERTAINTY_MEASURE_WITH_UNIT (LENGTH_MEASURE( 1.000000000000000082E-05 ), #252, 'distance_accuracy_value', 'NONE');
#541 = APPLIED_DOCUMENT_REFERENCE ( #620,'',( #437) ) ;
#542 = DOCUMENT_FILE ( 'top housing.STEP' , '', '', #551, '' ,$ ) ;
#543 = DIRECTION ( 'NONE',  ( 4.383784873596462150E-15, 1.000000000000000444, -5.551115123130705687E-17 ) ) ;
#544 = PRODUCT_DEFINITION_FORMATION_WITH_SPECIFIED_SOURCE ( 'Symmetric', '', #519, .NOT_KNOWN. ) ;
#545 =( REPRESENTATION_RELATIONSHIP ('NONE','NONE', #860, #386 ) REPRESENTATION_RELATIONSHIP_WITH_TRANSFORMATION ( #634 )SHAPE_REPRESENTATION_RELATIONSHIP( ) );
#546 = PROPERTY_DEFINITION_REPRESENTATION ( #515, #386 ) ;
#547 = CONTEXT_DEPENDENT_SHAPE_REPRESENTATION ( #89, #534 ) ;
#548 = PRODUCT_RELATED_PRODUCT_CATEGORY ( 'part', '', ( #767 ) ) ;
#549 = DIRECTION ( 'NONE',  ( 0.9130538629385034355, -3.923146494206318069E-15, 0.4078389919724161872 ) ) ;
#550 =( LENGTH_UNIT ( ) NAMED_UNIT ( * ) SI_UNIT ( .CENTI., .METRE. ) );
#551 = DOCUMENT_TYPE ( 'geometry' ) ;
#552 = APPLIED_DOCUMENT_REFERENCE ( #691,'',( #437) ) ;
#553 = PRODUCT_DEFINITION_SHAPE ( 'NONE', 'NONE',  #961 ) ;
#554 = ROLE_ASSOCIATION ( #142, #700 ) ;
#555 = APPLICATION_PROTOCOL_DEFINITION ( 'draft international standard', 'automotive_design', 1998, #304 ) ;
#556 =( LENGTH_UNIT ( ) NAMED_UNIT ( * ) SI_UNIT ( .CENTI., .METRE. ) );
#557 = PROPERTY_DEFINITION_REPRESENTATION ( #892, #386 ) ;
#558 = APPLICATION_CONTEXT ( 'automotive_design' ) ;
#559 = PROPERTY_DEFINITION_REPRESENTATION ( #655, #626 ) ;
#560 = PROPERTY_DEFINITION ('external definition','', #862 ) ;
#561 = OBJECT_ROLE ('mandatory',$ ) ;
#562 = DIRECTION ( 'NONE',  ( 0.9840289934477964851, -4.362618035900289320E-15, 0.1780082583874028346 ) ) ;
#563 =( NAMED_UNIT ( * ) SI_UNIT ( $, .STERADIAN. ) SOLID_ANGLE_UNIT ( ) );
#564 = AXIS2_PLACEMENT_3D ( 'NONE', #893, #813, #819 ) ;
#565 = PROPERTY_DEFINITION ('document property','', #67 ) ;
#566 = ITEM_DEFINED_TRANSFORMATION ( 'NONE', 'NONE', #717,  #211 ) ;
#567 = DOCUMENT_FILE ( 'Insert M3 D5 L5mm.STEP' , '', '', #147, '' ,$ ) ;
#568 = PROPERTY_DEFINITION_REPRESENTATION ( #560, #626 ) ;
#569 = EXTERNAL_SOURCE (IDENTIFIER('') ) ;
#570 = SHAPE_DEFINITION_REPRESENTATION ( #171, #125 ) ;
#571 = SHAPE_REPRESENTATION ( 'herringbone (helical) 50 gear_3_am_Metric - RH Helical gear 2M 25T 30HA 20PA 12FW ---25N75H50L0.8N', ( #684 ), #901 ) ;
#572 = PROPERTY_DEFINITION_REPRESENTATION ( #724, #626 ) ;
#573 = PROPERTY_DEFINITION ('external definition','', #156 ) ;
#574 = OBJECT_ROLE ('mandatory',$ ) ;
#575 = DIRECTION ( 'NONE',  ( -0.8739904357709910032, 7.467227362111136770E-17, -0.4859431223721897286 ) ) ;
#576 = APPLIED_DOCUMENT_REFERENCE ( #118,'',( #820) ) ;
#577 =( LENGTH_UNIT ( ) NAMED_UNIT ( * ) SI_UNIT ( .CENTI., .METRE. ) );
#578 = AXIS2_PLACEMENT_3D ( 'NONE', #639, #764, #179 ) ;
#579 = OBJECT_ROLE ('mandatory',$ ) ;
#580 = APPLIED_DOCUMENT_REFERENCE ( #436,'',( #820) ) ;
#581 = APPLIED_EXTERNAL_IDENTIFICATION_ASSIGNMENT ( 'Insert M3 D5 L5mm.STEP' , #798, #210,( #641) ) ;
#582 = APPLIED_EXTERNAL_IDENTIFICATION_ASSIGNMENT ( 'socket head cap screw_am_B18.3.1M - 3 x 0.5 x 16 Hex SHCS -- 16NHX.STEP' , #376, #692,( #429) ) ;
#583 = DOCUMENT_FILE ( 'herringbone (helical) 50 gear_3_am_Metric - RH Helical gear 2M 25T 30HA 20PA 12FW ---25N75H50L0.8N.STEP' , '', '', #318, '' ,$ ) ;
#584 = APPLIED_DOCUMENT_REFERENCE ( #282,'',( #820) ) ;
#585 = DOCUMENT_TYPE ( 'geometry' ) ;
#586 = PROPERTY_DEFINITION ('external definition','', #641 ) ;
#587 = DIRECTION ( 'NONE',  ( 0.9883923464418326033, -9.022674301324123102E-16, -0.1519229064203558022 ) ) ;
#588 = ROLE_ASSOCIATION ( #939, #45 ) ;
#589 = PROPERTY_DEFINITION_REPRESENTATION ( #449, #626 ) ;
#590 = APPLICATION_CONTEXT ( 'automotive_design' ) ;
#591 = PROPERTY_DEFINITION ('external definition','', #436 ) ;
#592 = DIRECTION ( 'NONE',  ( 5.131904429225515100E-11, 1.847189764354713642E-16, 1.000000000000000000 ) ) ;
#593 = DOCUMENT_TYPE ( 'geometry' ) ;
#594 = UNCERTAINTY_MEASURE_WITH_UNIT (LENGTH_MEASURE( 1.000000000000000082E-05 ), #522, 'distance_accuracy_value', 'NONE');
#595 = PROPERTY_DEFINITION_REPRESENTATION ( #928, #386 ) ;
#596 = PRODUCT_DEFINITION_FORMATION_WITH_SPECIFIED_SOURCE ( 'Symmetric', '', #525, .NOT_KNOWN. ) ;
#597 = DOCUMENT_TYPE ( 'geometry' ) ;
#598 = PROPERTY_DEFINITION ('document property','', #640 ) ;
#599 = CARTESIAN_POINT ( 'NONE',  ( 20.35533692045957821, -1.000000000000000222, 232.6527660669464979 ) ) ;
#600 = DIRECTION ( 'NONE',  ( 1.000000000000000000, 0.000000000000000000, 0.000000000000000000 ) ) ;
#601 = IDENTIFICATION_ROLE ( 'external document id and location', $) ;
#602 = APPLIED_DOCUMENT_REFERENCE ( #75,'',( #437) ) ;
#603 = PRODUCT ( '608-2RS Skate Board Ball Bearing', '608-2RS Skate Board Ball Bearing', '', ( #15 ) ) ;
#604 = PRODUCT_RELATED_PRODUCT_CATEGORY ( 'part', '', ( #519 ) ) ;
#605 = DIRECTION ( 'NONE',  ( -0.4751771667432031498, 7.783632834098911906E-16, 0.8798901409868745693 ) ) ;
#606 = ITEM_DEFINED_TRANSFORMATION ( 'NONE', 'NONE', #290,  #56 ) ;
#607 =( REPRESENTATION_RELATIONSHIP ('NONE','NONE', #860, #626 ) REPRESENTATION_RELATIONSHIP_WITH_TRANSFORMATION ( #253 )SHAPE_REPRESENTATION_RELATIONSHIP( ) );
#608 = DIRECTION ( 'NONE',  ( -2.269758208572649232E-15, -1.000000000000000888, -4.041230629455442396E-17 ) ) ;
#609 = PROPERTY_DEFINITION_REPRESENTATION ( #286, #626 ) ;
#610 = APPLICATION_CONTEXT ( 'automotive_design' ) ;
#611 =( GEOMETRIC_REPRESENTATION_CONTEXT ( 3 ) GLOBAL_UNCERTAINTY_ASSIGNED_CONTEXT ( ( #755 ) ) GLOBAL_UNIT_ASSIGNED_CONTEXT ( ( #550, #704, #30 ) ) REPRESENTATION_CONTEXT ( 'NONE', 'WORKASPACE' ) );
#612 = IDENTIFICATION_ROLE ( 'external document id and location', $) ;
#613 = DIRECTION ( 'NONE',  ( 9.540979117872447647E-17, 1.000000000000000888, -8.881784197001262184E-16 ) ) ;
#614 = DOCUMENT_TYPE ( 'geometry' ) ;
#615 = PRODUCT_DEFINITION_CONTEXT ( 'detailed design', #338, 'design' ) ;
#616 = ROLE_ASSOCIATION ( #374, #349 ) ;
#617 = DIRECTION ( 'NONE',  ( -2.391672636121095186E-15, -1.000000000000000222, -1.333763203986144543E-17 ) ) ;
#618 = EXTERNAL_SOURCE (IDENTIFIER('') ) ;
#619 = DIRECTION ( 'NONE',  ( 1.000000000000000000, 0.000000000000000000, 0.000000000000000000 ) ) ;
#620 = DOCUMENT_FILE ( 'socket head cap screw_am_B18.3.1M - 3 x 0.5 x 16 Hex SHCS -- 16NHX.STEP' , '', '', #458, '' ,$ ) ;
#621 = APPLICATION_PROTOCOL_DEFINITION ( 'draft international standard', 'automotive_design', 1998, #917 ) ;
#622 =( LENGTH_UNIT ( ) NAMED_UNIT ( * ) SI_UNIT ( .CENTI., .METRE. ) );
#623 = OBJECT_ROLE ('mandatory',$ ) ;
#624 = ROLE_ASSOCIATION ( #874, #336 ) ;
#625 = PRODUCT_DEFINITION_SHAPE ( 'NONE', 'NONE',  #201 ) ;
#626 = SHAPE_REPRESENTATION ( 'Insert M3 D5 L5mm', ( #56 ), #86 ) ;
#627 =( GEOMETRIC_REPRESENTATION_CONTEXT ( 3 ) GLOBAL_UNCERTAINTY_ASSIGNED_CONTEXT ( ( #734 ) ) GLOBAL_UNIT_ASSIGNED_CONTEXT ( ( #728, #663, #498 ) ) REPRESENTATION_CONTEXT ( 'NONE', 'WORKASPACE' ) );
#628 = DIRECTION ( 'NONE',  ( 0.7919990970257958507, -3.456478461772007199E-15, 0.6105222602905844287 ) ) ;
#629 = AXIS2_PLACEMENT_3D ( 'NONE', #419, #617, #747 ) ;
#630 = PROPERTY_DEFINITION_REPRESENTATION ( #836, #125 ) ;
#631 = PROPERTY_DEFINITION_REPRESENTATION ( #55, #626 ) ;
#632 = IDENTIFICATION_ROLE ( 'external document id and location', $) ;
#633 = SHAPE_DEFINITION_REPRESENTATION ( #298, #428 ) ;
#634 = ITEM_DEFINED_TRANSFORMATION ( 'NONE', 'NONE', #889,  #211 ) ;
#635 = APPLIED_DOCUMENT_REFERENCE ( #477,'',( #820) ) ;
#636 = PRODUCT_DEFINITION_SHAPE ( 'NONE', 'NONE',  #973 ) ;
#637 = DOCUMENT_TYPE ( 'geometry' ) ;
#638 = PRODUCT_CONTEXT ( 'NONE', #816, 'mechanical' ) ;
#639 = CARTESIAN_POINT ( 'NONE',  ( 0.000000000000000000, 0.000000000000000000, 0.000000000000000000 ) ) ;
#640 = DOCUMENT_FILE ( 'socket head cap screw_am_B18.3.1M - 3 x 0.5 x 16 Hex SHCS -- 16NHX.STEP' , '', '', #490, '' ,$ ) ;
#641 = DOCUMENT_FILE ( 'Insert M3 D5 L5mm.STEP' , '', '', #313, '' ,$ ) ;
#642 = DOCUMENT_FILE ( 'herringbone (helical) 100 gear_3_am_Metric - LH Helical gear 2M 50T 30HA 20PA 12FW ---50N75H50L0.8N.STEP' , '', '', #508, '' ,$ ) ;
#643 = EXTERNAL_SOURCE (IDENTIFIER('') ) ;
#644 = DIRECTION ( 'NONE',  ( 1.000000000000000000, 0.000000000000000000, 0.000000000000000000 ) ) ;
#645 = PRODUCT_RELATED_PRODUCT_CATEGORY ( 'part', '', ( #603 ) ) ;
#646 = PROPERTY_DEFINITION ('external definition','', #640 ) ;
#647 = APPLIED_EXTERNAL_IDENTIFICATION_ASSIGNMENT ( 'Insert M3 D5 L5mm.STEP' , #533, #481,( #67) ) ;
#648 = APPLIED_DOCUMENT_REFERENCE ( #775,'',( #389) ) ;
#649 = PROPERTY_DEFINITION_REPRESENTATION ( #162, #865 ) ;
#650 = OBJECT_ROLE ('mandatory',$ ) ;
#651 = ROLE_ASSOCIATION ( #26, #46 ) ;
#652 = CONTEXT_DEPENDENT_SHAPE_REPRESENTATION ( #219, #58 ) ;
#653 = PROPERTY_DEFINITION_REPRESENTATION ( #586, #626 ) ;
#654 = OBJECT_ROLE ('mandatory',$ ) ;
#655 = PROPERTY_DEFINITION ('external definition','', #477 ) ;
#656 = DIRECTION ( 'NONE',  ( -0.6944009484669242394, -5.626739380658442191E-16, 0.7195883008833841021 ) ) ;
#657 =( GEOMETRIC_REPRESENTATION_CONTEXT ( 3 ) GLOBAL_UNCERTAINTY_ASSIGNED_CONTEXT ( ( #247 ) ) GLOBAL_UNIT_ASSIGNED_CONTEXT ( ( #82, #942, #90 ) ) REPRESENTATION_CONTEXT ( 'NONE', 'WORKASPACE' ) );
#658 = PROPERTY_DEFINITION_REPRESENTATION ( #444, #626 ) ;
#659 = PROPERTY_DEFINITION ('document property','', #484 ) ;
#660 = APPLIED_EXTERNAL_IDENTIFICATION_ASSIGNMENT ( 'socket head cap screw_am_B18.3.1M - 3 x 0.5 x 16 Hex SHCS -- 16NHX.STEP' , #53, #1,( #691) ) ;
#661 = ROLE_ASSOCIATION ( #623, #940 ) ;
#662 = APPLICATION_CONTEXT ( 'automotive_design' ) ;
#663 =( NAMED_UNIT ( * ) PLANE_ANGLE_UNIT ( ) SI_UNIT ( $, .RADIAN. ) );
#664 =( REPRESENTATION_RELATIONSHIP ('NONE','NONE', #860, #386 ) REPRESENTATION_RELATIONSHIP_WITH_TRANSFORMATION ( #848 )SHAPE_REPRESENTATION_RELATIONSHIP( ) );
#665 = PRODUCT_DEFINITION_CONTEXT ( 'detailed design', #590, 'design' ) ;
#666 = DIRECTION ( 'NONE',  ( 2.895588745447609216E-18, 1.000000000000000888, -1.423418863492378116E-15 ) ) ;
#667 = EXTERNAL_SOURCE (IDENTIFIER('') ) ;
#668 = DOCUMENT_FILE ( 'Insert M3 D5 L5mm.STEP' , '', '', #849, '' ,$ ) ;
#669 = PROPERTY_DEFINITION ('external definition','', #282 ) ;
#670 = DIRECTION ( 'NONE',  ( -1.789712169732643157E-16, -1.000000000000000444, 5.262019256662042754E-16 ) ) ;
#671 = PROPERTY_DEFINITION_REPRESENTATION ( #334, #386 ) ;
#672 = DOCUMENT_TYPE ( 'geometry' ) ;
#673 = ITEM_DEFINED_TRANSFORMATION ( 'NONE', 'NONE', #197,  #56 ) ;
#674 = DIRECTION ( 'NONE',  ( -2.437002878983995504E-15, -1.000000000000000666, 2.376477753351696757E-18 ) ) ;
#675 = DOCUMENT_FILE ( 'socket head cap screw_am_B18.3.1M - 3 x 0.5 x 16 Hex SHCS -- 16NHX.STEP' , '', '', #137, '' ,$ ) ;
#676 =( REPRESENTATION_RELATIONSHIP ('NONE','NONE', #860, #386 ) REPRESENTATION_RELATIONSHIP_WITH_TRANSFORMATION ( #320 )SHAPE_REPRESENTATION_RELATIONSHIP( ) );
#677 = DIRECTION ( 'NONE',  ( -0.6425930438349897189, 1.504268106314654283E-15, 0.7662076611564798689 ) ) ;
#678 = DIRECTION ( 'NONE',  ( 4.440217661697480880E-17, 1.000000000000000444, -8.326672684688677011E-16 ) ) ;
#679 = PROPERTY_DEFINITION ('external definition','', #775 ) ;
#680 = OBJECT_ROLE ('mandatory',$ ) ;
#681 =( NAMED_UNIT ( * ) PLANE_ANGLE_UNIT ( ) SI_UNIT ( $, .RADIAN. ) );
#682 = OBJECT_ROLE ('mandatory',$ ) ;
#683 = CONTEXT_DEPENDENT_SHAPE_REPRESENTATION ( #897, #347 ) ;
#684 = AXIS2_PLACEMENT_3D ( 'NONE', #451, #472, #644 ) ;
#685 = AXIS2_PLACEMENT_3D ( 'NONE', #393, #771, #919 ) ;
#686 = APPLIED_EXTERNAL_IDENTIFICATION_ASSIGNMENT ( 'Insert M3 D5 L5mm.STEP' , #502, #394,( #124) ) ;
#687 = DIRECTION ( 'NONE',  ( 0.4857396951673519925, 4.971324254914964455E-16, 0.8741035113410356994 ) ) ;
#688 = APPLIED_EXTERNAL_IDENTIFICATION_ASSIGNMENT ( 'Insert M3 D5 L5mm.STEP' , #748, #159,( #930) ) ;
#689 = DIRECTION ( 'NONE',  ( 1.000000000000000000, 0.000000000000000000, 0.000000000000000000 ) ) ;
#690 = APPLICATION_CONTEXT ( 'automotive_design' ) ;
#691 = DOCUMENT_FILE ( 'socket head cap screw_am_B18.3.1M - 3 x 0.5 x 16 Hex SHCS -- 16NHX.STEP' , '', '', #711, '' ,$ ) ;
#692 = EXTERNAL_SOURCE (IDENTIFIER('') ) ;
#693 = PROPERTY_DEFINITION ('external definition','', #22 ) ;
#694 = PROPERTY_DEFINITION_REPRESENTATION ( #573, #386 ) ;
#695 = ITEM_DEFINED_TRANSFORMATION ( 'NONE', 'NONE', #776,  #56 ) ;
#696 = EXTERNAL_SOURCE (IDENTIFIER('') ) ;
#697 = SHAPE_DEFINITION_REPRESENTATION ( #471, #626 ) ;
#698 = ROLE_ASSOCIATION ( #307, #552 ) ;
#699 = PROPERTY_DEFINITION ('document property','', #93 ) ;
#700 = APPLIED_DOCUMENT_REFERENCE ( #930,'',( #820) ) ;
#701 = EXTERNAL_SOURCE (IDENTIFIER('') ) ;
#702 = APPLICATION_PROTOCOL_DEFINITION ( 'draft international standard', 'automotive_design', 1998, #768 ) ;
#703 = APPLIED_EXTERNAL_IDENTIFICATION_ASSIGNMENT ( 'socket head cap screw_am_B18.3.1M - 3 x 0.5 x 16 Hex SHCS -- 16NHX.STEP' , #825, #257,( #327) ) ;
#704 =( NAMED_UNIT ( * ) PLANE_ANGLE_UNIT ( ) SI_UNIT ( $, .RADIAN. ) );
#705 = PROPERTY_DEFINITION_REPRESENTATION ( #68, #421 ) ;
#706 = APPLICATION_PROTOCOL_DEFINITION ( 'draft international standard', 'automotive_design', 1998, #456 ) ;
#707 = PRODUCT_DEFINITION_SHAPE ( 'NONE', 'NONE',  #953 ) ;
#708 = OBJECT_ROLE ('mandatory',$ ) ;
#709 = CARTESIAN_POINT ( 'NONE',  ( 0.000000000000000000, 0.000000000000000000, 0.000000000000000000 ) ) ;
#710 = ROLE_ASSOCIATION ( #138, #781 ) ;
#711 = DOCUMENT_TYPE ( 'geometry' ) ;
#712 = PRODUCT_DEFINITION_SHAPE ( 'NONE', 'NONE',  #962 ) ;
#713 = SHAPE_DEFINITION_REPRESENTATION ( #315, #440 ) ;
#714 = PROPERTY_DEFINITION ('external definition','', #118 ) ;
#715 = IDENTIFICATION_ROLE ( 'external document id and location', $) ;
#716 = APPLIED_DOCUMENT_REFERENCE ( #583,'',( #464) ) ;
#717 = AXIS2_PLACEMENT_3D ( 'NONE', #4, #308, #613 ) ;
#718 = PROPERTY_DEFINITION ('document property','', #668 ) ;
#719 = APPLIED_EXTERNAL_IDENTIFICATION_ASSIGNMENT ( 'Insert M3 D5 L5mm.STEP' , #130, #361,( #477) ) ;
#720 = APPLIED_EXTERNAL_IDENTIFICATION_ASSIGNMENT ( 'socket head cap screw_am_B18.3.1M - 3 x 0.5 x 16 Hex SHCS -- 16NHX.STEP' , #98, #117,( #484) ) ;
#721 = OBJECT_ROLE ('mandatory',$ ) ;
#722 = PROPERTY_DEFINITION_REPRESENTATION ( #13, #727 ) ;
#723 = ROLE_ASSOCIATION ( #932, #576 ) ;
#724 = PROPERTY_DEFINITION ('external definition','', #668 ) ;
#725 = APPLICATION_CONTEXT ( 'automotive_design' ) ;
#726 = EXTERNAL_SOURCE (IDENTIFIER('') ) ;
#727 = SHAPE_REPRESENTATION ( 'radial cylindrical roller bearing_am_AFBMA 20.1 - 17-100 - 54,SI,NC,54', ( #181 ), #886 ) ;
#728 =( LENGTH_UNIT ( ) NAMED_UNIT ( * ) SI_UNIT ( .CENTI., .METRE. ) );
#729 = AXIS2_PLACEMENT_3D ( 'NONE', #531, #521, #752 ) ;
#730 =( REPRESENTATION_RELATIONSHIP ('NONE','NONE', #860, #626 ) REPRESENTATION_RELATIONSHIP_WITH_TRANSFORMATION ( #139 )SHAPE_REPRESENTATION_RELATIONSHIP( ) );
#731 = AXIS2_PLACEMENT_3D ( 'NONE', #369, #687, #200 ) ;
#732 = APPLIED_EXTERNAL_IDENTIFICATION_ASSIGNMENT ( 'Insert M3 D5 L5mm.STEP' , #300, #250,( #668) ) ;
#733 = PRODUCT_DEFINITION_SHAPE ( 'NONE', 'NONE',  #957 ) ;
#734 = UNCERTAINTY_MEASURE_WITH_UNIT (LENGTH_MEASURE( 1.000000000000000082E-05 ), #728, 'distance_accuracy_value', 'NONE');
#735 = ROLE_ASSOCIATION ( #680, #580 ) ;
#736 =( REPRESENTATION_RELATIONSHIP ('NONE','NONE', #860, #125 ) REPRESENTATION_RELATIONSHIP_WITH_TRANSFORMATION ( #800 )SHAPE_REPRESENTATION_RELATIONSHIP( ) );
#737 = DIRECTION ( 'NONE',  ( -0.6324824561896924546, 6.465594525421479492E-16, 0.7745746849802501721 ) ) ;
#738 = PROPERTY_DEFINITION ('external definition','', #67 ) ;
#739 = PROPERTY_DEFINITION_REPRESENTATION ( #810, #626 ) ;
#740 = PROPERTY_DEFINITION ('document property','', #22 ) ;
#741 = OBJECT_ROLE ('mandatory',$ ) ;
#742 = CARTESIAN_POINT ( 'NONE',  ( 36.23770101898855245, 0.6000000000000005329, 230.6270292287294978 ) ) ;
#743 = AXIS2_PLACEMENT_3D ( 'NONE', #422, #63, #493 ) ;
#744 = PRODUCT_DEFINITION_CONTEXT ( 'detailed design', #353, 'design' ) ;
#745 = PRODUCT_DEFINITION_FORMATION_WITH_SPECIFIED_SOURCE ( 'Symmetric', '', #28, .NOT_KNOWN. ) ;
#746 = PROPERTY_DEFINITION ('external definition','', #256 ) ;
#747 = DIRECTION ( 'NONE',  ( -0.9189970570167330655, 2.247528437096457754E-15, 0.3942643899651391837 ) ) ;
#748 = IDENTIFICATION_ROLE ( 'external document id and location', $) ;
#749 = DIRECTION ( 'NONE',  ( 1.000000000000000000, 0.000000000000000000, 0.000000000000000000 ) ) ;
#750 = CONTEXT_DEPENDENT_SHAPE_REPRESENTATION ( #845, #31 ) ;
#751 = PRODUCT_DEFINITION_SHAPE ( 'NONE', 'NONE',  #945 ) ;
#752 = DIRECTION ( 'NONE',  ( -0.4751771667432031498, 7.783632834098911906E-16, 0.8798901409868745693 ) ) ;
#753 = CARTESIAN_POINT ( 'NONE',  ( 0.000000000000000000, 0.000000000000000000, 0.000000000000000000 ) ) ;
#754 = IDENTIFICATION_ROLE ( 'external document id and location', $) ;
#755 = UNCERTAINTY_MEASURE_WITH_UNIT (LENGTH_MEASURE( 1.000000000000000082E-05 ), #550, 'distance_accuracy_value', 'NONE');
#756 = DIRECTION ( 'NONE',  ( 0.6771208818040632682, 5.300387266684675995E-16, 0.7358718036620832681 ) ) ;
#757 = PRODUCT ( 'base bearing assembly', 'base bearing assembly', '', ( #779 ) ) ;
#758 = DIRECTION ( 'NONE',  ( 0.000000000000000000, 0.000000000000000000, 1.000000000000000000 ) ) ;
#759 = PROPERTY_DEFINITION_REPRESENTATION ( #565, #626 ) ;
#760 = PRODUCT_DEFINITION_FORMATION_WITH_SPECIFIED_SOURCE ( 'Symmetric', '', #146, .NOT_KNOWN. ) ;
#761 = IDENTIFICATION_ROLE ( 'external document id and location', $) ;
#762 = AXIS2_PLACEMENT_3D ( 'NONE', #221, #832, #815 ) ;
#763 = PRODUCT_CONTEXT ( 'NONE', #217, 'mechanical' ) ;
#764 = DIRECTION ( 'NONE',  ( 0.000000000000000000, 0.000000000000000000, 1.000000000000000000 ) ) ;
#765 = CONTEXT_DEPENDENT_SHAPE_REPRESENTATION ( #545, #867 ) ;
#766 = PROPERTY_DEFINITION_REPRESENTATION ( #396, #440 ) ;
#767 = PRODUCT ( 'bottom housing', 'bottom housing', '', ( #339 ) ) ;
#768 = APPLICATION_CONTEXT ( 'automotive_design' ) ;
#769 = PROPERTY_DEFINITION_REPRESENTATION ( #492, #386 ) ;
#770 = CONTEXT_DEPENDENT_SHAPE_REPRESENTATION ( #467, #707 ) ;
#771 = DIRECTION ( 'NONE',  ( 0.9988689841108515655, -4.486831523836706366E-15, -0.04754737197107018060 ) ) ;
#772 =( REPRESENTATION_RELATIONSHIP ('NONE','NONE', #860, #428 ) REPRESENTATION_RELATIONSHIP_WITH_TRANSFORMATION ( #431 )SHAPE_REPRESENTATION_RELATIONSHIP( ) );
#773 = PRODUCT_DEFINITION_SHAPE ( 'NONE', 'NONE',  #952 ) ;
#774 = OBJECT_ROLE ('mandatory',$ ) ;
#775 = DOCUMENT_FILE ( '608-2RS Skate Board Ball Bearing.STEP' , '', '', #614, '' ,$ ) ;
#776 = AXIS2_PLACEMENT_3D ( 'NONE', #457, #314, #737 ) ;
#777 = PRODUCT_CONTEXT ( 'NONE', #662, 'mechanical' ) ;
#778 = PROPERTY_DEFINITION ('document property','', #75 ) ;
#779 = PRODUCT_CONTEXT ( 'NONE', #204, 'mechanical' ) ;
#780 = DIRECTION ( 'NONE',  ( 0.000000000000000000, 0.000000000000000000, 1.000000000000000000 ) ) ;
#781 = APPLIED_DOCUMENT_REFERENCE ( #484,'',( #437) ) ;
#782 = DOCUMENT_TYPE ( 'geometry' ) ;
#783 = PROPERTY_DEFINITION_REPRESENTATION ( #679, #322 ) ;
#784 = DIRECTION ( 'NONE',  ( 0.9711365023063032176, -4.318050119651116014E-15, -0.2385244094181546981 ) ) ;
#785 = CONTEXT_DEPENDENT_SHAPE_REPRESENTATION ( #876, #18 ) ;
#786 = PRODUCT_DEFINITION_SHAPE ( 'NONE', 'NONE',  #971 ) ;
#787 = IDENTIFICATION_ROLE ( 'external document id and location', $) ;
#788 = ROLE_ASSOCIATION ( #708, #716 ) ;
#789 = DIRECTION ( 'NONE',  ( 1.011063442756072806E-15, 1.000000000000000444, 1.027155252680462362E-15 ) ) ;
#790 = PROPERTY_DEFINITION_REPRESENTATION ( #591, #626 ) ;
#791 = DOCUMENT_FILE ( '3in thrust bearing.STEP' , '', '', #186, '' ,$ ) ;
#792 = APPLICATION_PROTOCOL_DEFINITION ( 'draft international standard', 'automotive_design', 1998, #402 ) ;
#793 = EXTERNAL_SOURCE (IDENTIFIER('') ) ;
#794 =( REPRESENTATION_RELATIONSHIP ('NONE','NONE', #860, #386 ) REPRESENTATION_RELATIONSHIP_WITH_TRANSFORMATION ( #891 )SHAPE_REPRESENTATION_RELATIONSHIP( ) );
#795 = APPLIED_EXTERNAL_IDENTIFICATION_ASSIGNMENT ( 'socket head cap screw_am_B18.3.1M - 3 x 0.5 x 16 Hex SHCS -- 16NHX.STEP' , #103, #344,( #461) ) ;
#796 = DOCUMENT_FILE ( 'radial cylindrical roller bearing_am_AFBMA 20.1 - 17-100 - 54,SI,NC,54.STEP' , '', '', #537, '' ,$ ) ;
#797 = CARTESIAN_POINT ( 'NONE',  ( 33.40741655328480419, 3.291153750000005207, 227.2581288379172406 ) ) ;
#798 = IDENTIFICATION_ROLE ( 'external document id and location', $) ;
#799 = DOCUMENT_FILE ( 'Insert M3 D5 L5mm.STEP' , '', '', #637, '' ,$ ) ;
#800 = ITEM_DEFINED_TRANSFORMATION ( 'NONE', 'NONE', #182,  #887 ) ;
#801 = DIRECTION ( 'NONE',  ( -0.1173723745342870606, -7.852063012176580525E-16, -0.9930879748019220132 ) ) ;
#802 = PRODUCT_DEFINITION_CONTEXT ( 'detailed design', #456, 'design' ) ;
#803 = CONTEXT_DEPENDENT_SHAPE_REPRESENTATION ( #191, #288 ) ;
#804 =( REPRESENTATION_RELATIONSHIP ('NONE','NONE', #860, #865 ) REPRESENTATION_RELATIONSHIP_WITH_TRANSFORMATION ( #934 )SHAPE_REPRESENTATION_RELATIONSHIP( ) );
#805 =( REPRESENTATION_RELATIONSHIP ('NONE','NONE', #860, #386 ) REPRESENTATION_RELATIONSHIP_WITH_TRANSFORMATION ( #566 )SHAPE_REPRESENTATION_RELATIONSHIP( ) );
#806 = AXIS2_PLACEMENT_3D ( 'NONE', #753, #405, #927 ) ;
#807 =( GEOMETRIC_REPRESENTATION_CONTEXT ( 3 ) GLOBAL_UNCERTAINTY_ASSIGNED_CONTEXT ( ( #7 ) ) GLOBAL_UNIT_ASSIGNED_CONTEXT ( ( #847, #474, #177 ) ) REPRESENTATION_CONTEXT ( 'NONE', 'WORKASPACE' ) );
#808 = CONTEXT_DEPENDENT_SHAPE_REPRESENTATION ( #101, #155 ) ;
#809 = PROPERTY_DEFINITION_REPRESENTATION ( #714, #626 ) ;
#810 = PROPERTY_DEFINITION ('external definition','', #124 ) ;
#811 = PRODUCT_DEFINITION ( 'General', '', #70, #822 ) ;
#812 = IDENTIFICATION_ROLE ( 'external document id and location', $) ;
#813 = DIRECTION ( 'NONE',  ( 0.2858856372919548194, 7.418097067754791538E-16, 0.9582637436479440884 ) ) ;
#814 = PRODUCT_DEFINITION_SHAPE ( 'NONE', 'NONE',  #958 ) ;
#815 = DIRECTION ( 'NONE',  ( -0.9988170529632623973, 2.489346092929575414E-15, -0.04862607026877183158 ) ) ;
#816 = APPLICATION_CONTEXT ( 'automotive_design' ) ;
#817 = PROPERTY_DEFINITION_REPRESENTATION ( #778, #386 ) ;
#818 = PRODUCT_DEFINITION_SHAPE ( 'NONE', 'NONE',  #437 ) ;
#819 = DIRECTION ( 'NONE',  ( 4.353481487898637443E-17, 1.000000000000000444, -8.049116928532385904E-16 ) ) ;
#820 = PRODUCT_DEFINITION ( 'General', '', #355, #802 ) ;
#821 = OBJECT_ROLE ('mandatory',$ ) ;
#822 = PRODUCT_DEFINITION_CONTEXT ( 'detailed design', #870, 'design' ) ;
#823 = ITEM_DEFINED_TRANSFORMATION ( 'NONE', 'NONE', #9,  #56 ) ;
#824 = AXIS2_PLACEMENT_3D ( 'NONE', #292, #363, #605 ) ;
#825 = IDENTIFICATION_ROLE ( 'external document id and location', $) ;
#826 = ROLE_ASSOCIATION ( #176, #584 ) ;
#827 = CARTESIAN_POINT ( 'NONE',  ( 36.23770101898855245, -1.000000000000008438, 223.8892284471097298 ) ) ;
#828 = DIRECTION ( 'NONE',  ( 0.000000000000000000, 0.000000000000000000, 1.000000000000000000 ) ) ;
#829 = ITEM_DEFINED_TRANSFORMATION ( 'NONE', 'NONE', #731,  #211 ) ;
#830 = PRODUCT_DEFINITION_SHAPE ( 'NONE', 'NONE',  #389 ) ;
#831 =( REPRESENTATION_RELATIONSHIP ('NONE','NONE', #860, #626 ) REPRESENTATION_RELATIONSHIP_WITH_TRANSFORMATION ( #494 )SHAPE_REPRESENTATION_RELATIONSHIP( ) );
#832 = DIRECTION ( 'NONE',  ( -2.432263236173258639E-15, -1.000000000000000222, -7.186744415525676889E-18 ) ) ;
#833 = CONTEXT_DEPENDENT_SHAPE_REPRESENTATION ( #432, #358 ) ;
#834 = OBJECT_ROLE ('mandatory',$ ) ;
#835 = PRODUCT_CONTEXT ( 'NONE', #917, 'mechanical' ) ;
#836 = PROPERTY_DEFINITION ('external definition','', #350 ) ;
#837 = DIRECTION ( 'NONE',  ( 0.000000000000000000, 0.000000000000000000, 1.000000000000000000 ) ) ;
#838 = ROLE_ASSOCIATION ( #650, #541 ) ;
#839 = APPLIED_DOCUMENT_REFERENCE ( #542,'',( #289) ) ;
#840 = PRODUCT_DEFINITION_FORMATION_WITH_SPECIFIED_SOURCE ( 'Symmetric', '', #371, .NOT_KNOWN. ) ;
#841 = PRODUCT_RELATED_PRODUCT_CATEGORY ( 'part', '', ( #909 ) ) ;
#842 = APPLIED_DOCUMENT_REFERENCE ( #350,'',( #44) ) ;
#843 = APPLICATION_PROTOCOL_DEFINITION ( 'draft international standard', 'automotive_design', 1998, #489 ) ;
#844 = ROLE_ASSOCIATION ( #682, #21 ) ;
#845 =( REPRESENTATION_RELATIONSHIP ('NONE','NONE', #860, #386 ) REPRESENTATION_RELATIONSHIP_WITH_TRANSFORMATION ( #145 )SHAPE_REPRESENTATION_RELATIONSHIP( ) );
#846 = PROPERTY_DEFINITION ('document property','', #775 ) ;
#847 =( LENGTH_UNIT ( ) NAMED_UNIT ( * ) SI_UNIT ( .CENTI., .METRE. ) );
#848 = ITEM_DEFINED_TRANSFORMATION ( 'NONE', 'NONE', #135,  #211 ) ;
#849 = DOCUMENT_TYPE ( 'geometry' ) ;
#850 = PROPERTY_DEFINITION_REPRESENTATION ( #846, #322 ) ;
#851 = DIRECTION ( 'NONE',  ( 1.000000000000000000, 0.000000000000000000, 0.000000000000000000 ) ) ;
#852 = PROPERTY_DEFINITION_REPRESENTATION ( #746, #386 ) ;
#853 = PROPERTY_DEFINITION_REPRESENTATION ( #283, #626 ) ;
#854 = EXTERNAL_SOURCE (IDENTIFIER('') ) ;
#855 = PRODUCT_DEFINITION_SHAPE ( 'NONE', 'NONE',  #970 ) ;
#856 = AXIS2_PLACEMENT_3D ( 'NONE', #144, #670, #11 ) ;
#857 = EXTERNAL_SOURCE (IDENTIFIER('') ) ;
#858 = APPLIED_EXTERNAL_IDENTIFICATION_ASSIGNMENT ( 'bottom housing.STEP' , #520, #52,( #93) ) ;
#859 =( NAMED_UNIT ( * ) PLANE_ANGLE_UNIT ( ) SI_UNIT ( $, .RADIAN. ) );
#860 = SHAPE_REPRESENTATION ( 'base bearing assembly', ( #382, #195, #182, #229, #743, #325, #149, #277, #309, #399, #776, #729, #824, #856, #499, #438, #197, #762, #23, #629, #310, #290, #9, #483, #564, #731, #342, #512, #38, #717, #889, #416, #6, #135, #685, #261 ), #807 ) ;
#861 = ITEM_DEFINED_TRANSFORMATION ( 'NONE', 'NONE', #416,  #211 ) ;
#862 = DOCUMENT_FILE ( 'Insert M3 D5 L5mm.STEP' , '', '', #262, '' ,$ ) ;
#863 = PROPERTY_DEFINITION ('document property','', #118 ) ;
#864 = OBJECT_ROLE ('mandatory',$ ) ;
#865 = SHAPE_REPRESENTATION ( '3in thrust bearing', ( #368 ), #352 ) ;
#866 = ITEM_DEFINED_TRANSFORMATION ( 'NONE', 'NONE', #310,  #56 ) ;
#867 = PRODUCT_DEFINITION_SHAPE ( 'NONE', 'NONE',  #972 ) ;
#868 = CONTEXT_DEPENDENT_SHAPE_REPRESENTATION ( #804, #227 ) ;
#869 = DIRECTION ( 'NONE',  ( -0.1173723745342839242, -6.618349453736316865E-16, -0.9930879748019224573 ) ) ;
#870 = APPLICATION_CONTEXT ( 'automotive_design' ) ;
#871 = CARTESIAN_POINT ( 'NONE',  ( 172.3288370193465369, -89.59819098628646827, 230.7884638249634577 ) ) ;
#872 = PRODUCT_DEFINITION_FORMATION_WITH_SPECIFIED_SOURCE ( 'Symmetric', '', #603, .NOT_KNOWN. ) ;
#873 = PROPERTY_DEFINITION ('document property','', #691 ) ;
#874 = OBJECT_ROLE ('mandatory',$ ) ;
#875 = CONTEXT_DEPENDENT_SHAPE_REPRESENTATION ( #730, #243 ) ;
#876 =( REPRESENTATION_RELATIONSHIP ('NONE','NONE', #860, #322 ) REPRESENTATION_RELATIONSHIP_WITH_TRANSFORMATION ( #341 )SHAPE_REPRESENTATION_RELATIONSHIP( ) );
#877 = OBJECT_ROLE ('mandatory',$ ) ;
#878 = PROPERTY_DEFINITION_REPRESENTATION ( #388, #571 ) ;
#879 = CARTESIAN_POINT ( 'NONE',  ( 24.65741655328495341, -1.000000000000003553, 227.2581288379171838 ) ) ;
#880 = PROPERTY_DEFINITION ('document property','', #930 ) ;
#881 =( REPRESENTATION_RELATIONSHIP ('NONE','NONE', #860, #626 ) REPRESENTATION_RELATIONSHIP_WITH_TRANSFORMATION ( #486 )SHAPE_REPRESENTATION_RELATIONSHIP( ) );
#882 = CARTESIAN_POINT ( 'NONE',  ( 24.65741655328485749, 3.291153750000006539, 227.2581288379169564 ) ) ;
#883 = PRODUCT_RELATED_PRODUCT_CATEGORY ( 'part', '', ( #462 ) ) ;
#884 = PROPERTY_DEFINITION_REPRESENTATION ( #296, #626 ) ;
#885 = PROPERTY_DEFINITION ('document property','', #799 ) ;
#886 =( GEOMETRIC_REPRESENTATION_CONTEXT ( 3 ) GLOBAL_UNCERTAINTY_ASSIGNED_CONTEXT ( ( #226 ) ) GLOBAL_UNIT_ASSIGNED_CONTEXT ( ( #71, #681, #366 ) ) REPRESENTATION_CONTEXT ( 'NONE', 'WORKASPACE' ) );
#887 = AXIS2_PLACEMENT_3D ( 'NONE', #316, #758, #619 ) ;
#888 = APPLICATION_CONTEXT ( 'automotive_design' ) ;
#889 = AXIS2_PLACEMENT_3D ( 'NONE', #906, #234, #85 ) ;
#890 = PROPERTY_DEFINITION ('document property','', #327 ) ;
#891 = ITEM_DEFINED_TRANSFORMATION ( 'NONE', 'NONE', #342,  #211 ) ;
#892 = PROPERTY_DEFINITION ('external definition','', #691 ) ;
#893 = CARTESIAN_POINT ( 'NONE',  ( 17.75741655328494772, -1.000000000000003553, 227.2581288379171269 ) ) ;
#894 = PROPERTY_DEFINITION ('external definition','', #791 ) ;
#895 = PRODUCT_DEFINITION_CONTEXT ( 'detailed design', #725, 'design' ) ;
#896 = ROLE_ASSOCIATION ( #223, #602 ) ;
#897 =( REPRESENTATION_RELATIONSHIP ('NONE','NONE', #860, #386 ) REPRESENTATION_RELATIONSHIP_WITH_TRANSFORMATION ( #143 )SHAPE_REPRESENTATION_RELATIONSHIP( ) );
#898 = CARTESIAN_POINT ( 'NONE',  ( 23.15741655328509196, 0.6286537500001396772, 227.2581288379940645 ) ) ;
#899 =( REPRESENTATION_RELATIONSHIP ('NONE','NONE', #860, #626 ) REPRESENTATION_RELATIONSHIP_WITH_TRANSFORMATION ( #50 )SHAPE_REPRESENTATION_RELATIONSHIP( ) );
#900 = DIRECTION ( 'NONE',  ( 0.5807741053681185761, 2.637442792112083574E-16, 0.8140647631078631319 ) ) ;
#901 =( GEOMETRIC_REPRESENTATION_CONTEXT ( 3 ) GLOBAL_UNCERTAINTY_ASSIGNED_CONTEXT ( ( #78 ) ) GLOBAL_UNIT_ASSIGNED_CONTEXT ( ( #622, #859, #335 ) ) REPRESENTATION_CONTEXT ( 'NONE', 'WORKASPACE' ) );
#902 = UNCERTAINTY_MEASURE_WITH_UNIT (LENGTH_MEASURE( 1.000000000000000082E-05 ), #241, 'distance_accuracy_value', 'NONE');
#903 = APPLIED_DOCUMENT_REFERENCE ( #461,'',( #437) ) ;
#904 = PRODUCT_DEFINITION ( 'General', '', #745, #96 ) ;
#905 = OBJECT_ROLE ('mandatory',$ ) ;
#906 = CARTESIAN_POINT ( 'NONE',  ( 23.90741655321829384, -0.9999999999999987788, 225.9590907322790372 ) ) ;
#907 = OBJECT_ROLE ('mandatory',$ ) ;
#908 = APPLIED_DOCUMENT_REFERENCE ( #675,'',( #437) ) ;
#909 = PRODUCT ( 'output mount', 'output mount', '', ( #777 ) ) ;
#910 = APPLICATION_PROTOCOL_DEFINITION ( 'draft international standard', 'automotive_design', 1998, #610 ) ;
#911 = PROPERTY_DEFINITION_REPRESENTATION ( #439, #386 ) ;
#912 = OBJECT_ROLE ('mandatory',$ ) ;
#913 = PRODUCT_DEFINITION ( 'General', '', #840, #514 ) ;
#914 = PROPERTY_DEFINITION ('document property','', #282 ) ;
#915 = CARTESIAN_POINT ( 'NONE',  ( 25.40741655321829739, -0.9999999999977714493, 225.9590907322019859 ) ) ;
#916 = PROPERTY_DEFINITION ('document property','', #796 ) ;
#917 = APPLICATION_CONTEXT ( 'automotive_design' ) ;
#918 = PROPERTY_DEFINITION_REPRESENTATION ( #718, #626 ) ;
#919 = DIRECTION ( 'NONE',  ( 4.369907085788649271E-15, 1.000000000000000888, -5.551115123130705687E-17 ) ) ;
#920 = APPLIED_EXTERNAL_IDENTIFICATION_ASSIGNMENT ( 'socket head cap screw_am_B18.3.1M - 3 x 0.5 x 16 Hex SHCS -- 16NHX.STEP' , #495, #857,( #256) ) ;
#921 = ROLE_ASSOCIATION ( #774, #331 ) ;
#922 = PROPERTY_DEFINITION_REPRESENTATION ( #880, #626 ) ;
#923 = PROPERTY_DEFINITION ('document property','', #542 ) ;
#924 = EXTERNAL_SOURCE (IDENTIFIER('') ) ;
#925 = APPLICATION_PROTOCOL_DEFINITION ( 'draft international standard', 'automotive_design', 1998, #65 ) ;
#926 =( REPRESENTATION_RELATIONSHIP ('NONE','NONE', #860, #386 ) REPRESENTATION_RELATIONSHIP_WITH_TRANSFORMATION ( #829 )SHAPE_REPRESENTATION_RELATIONSHIP( ) );
#927 = DIRECTION ( 'NONE',  ( 1.000000000000000000, 0.000000000000000000, 0.000000000000000000 ) ) ;
#928 = PROPERTY_DEFINITION ('document property','', #675 ) ;
#929 = CONTEXT_DEPENDENT_SHAPE_REPRESENTATION ( #664, #447 ) ;
#930 = DOCUMENT_FILE ( 'Insert M3 D5 L5mm.STEP' , '', '', #80, '' ,$ ) ;
#931 = CARTESIAN_POINT ( 'NONE',  ( 23.90741655335163429, -0.9999999999999981126, 228.5571669436323248 ) ) ;
#932 = OBJECT_ROLE ('mandatory',$ ) ;
#933 = PROPERTY_DEFINITION_REPRESENTATION ( #693, #322 ) ;
#934 = ITEM_DEFINED_TRANSFORMATION ( 'NONE', 'NONE', #195,  #368 ) ;
#935 = PROPERTY_DEFINITION ('external definition','', #75 ) ;
#936 = APPLIED_EXTERNAL_IDENTIFICATION_ASSIGNMENT ( 'socket head cap screw_am_B18.3.1M - 3 x 0.5 x 16 Hex SHCS -- 16NHX.STEP' , #632, #187,( #75) ) ;
#937 = APPLICATION_CONTEXT ( 'automotive_design' ) ;
#938 = APPLIED_DOCUMENT_REFERENCE ( #93,'',( #811) ) ;
#939 = OBJECT_ROLE ('mandatory',$ ) ;
#940 = APPLIED_DOCUMENT_REFERENCE ( #796,'',( #913) ) ;
#941 = DIRECTION ( 'NONE',  ( 0.000000000000000000, 0.000000000000000000, 1.000000000000000000 ) ) ;
#942 =( NAMED_UNIT ( * ) PLANE_ANGLE_UNIT ( ) SI_UNIT ( $, .RADIAN. ) );
#943 = NEXT_ASSEMBLY_USAGE_OCCURRENCE ( 'NAUO4', ' ', ' ', #201, #496, $ ) ;
#944 = NEXT_ASSEMBLY_USAGE_OCCURRENCE ( 'NAUO5', ' ', ' ', #201, #44, $ ) ;
#945 = NEXT_ASSEMBLY_USAGE_OCCURRENCE ( 'NAUO6', ' ', ' ', #201, #913, $ ) ;
#946 = NEXT_ASSEMBLY_USAGE_OCCURRENCE ( 'NAUO7', ' ', ' ', #201, #904, $ ) ;
#947 = NEXT_ASSEMBLY_USAGE_OCCURRENCE ( 'NAUO8', ' ', ' ', #201, #464, $ ) ;
#948 = NEXT_ASSEMBLY_USAGE_OCCURRENCE ( 'NAUO9', ' ', ' ', #201, #389, $ ) ;
#949 = NEXT_ASSEMBLY_USAGE_OCCURRENCE ( 'NAUO10', ' ', ' ', #201, #389, $ ) ;
#950 = NEXT_ASSEMBLY_USAGE_OCCURRENCE ( 'NAUO11', ' ', ' ', #201, #811, $ ) ;
#951 = NEXT_ASSEMBLY_USAGE_OCCURRENCE ( 'NAUO12', ' ', ' ', #201, #289, $ ) ;
#952 = NEXT_ASSEMBLY_USAGE_OCCURRENCE ( 'NAUO13', ' ', ' ', #201, #820, $ ) ;
#953 = NEXT_ASSEMBLY_USAGE_OCCURRENCE ( 'NAUO14', ' ', ' ', #201, #820, $ ) ;
#954 = NEXT_ASSEMBLY_USAGE_OCCURRENCE ( 'NAUO15', ' ', ' ', #201, #820, $ ) ;
#955 = NEXT_ASSEMBLY_USAGE_OCCURRENCE ( 'NAUO16', ' ', ' ', #201, #820, $ ) ;
#956 = NEXT_ASSEMBLY_USAGE_OCCURRENCE ( 'NAUO17', ' ', ' ', #201, #820, $ ) ;
#957 = NEXT_ASSEMBLY_USAGE_OCCURRENCE ( 'NAUO18', ' ', ' ', #201, #820, $ ) ;
#958 = NEXT_ASSEMBLY_USAGE_OCCURRENCE ( 'NAUO19', ' ', ' ', #201, #820, $ ) ;
#959 = NEXT_ASSEMBLY_USAGE_OCCURRENCE ( 'NAUO20', ' ', ' ', #201, #820, $ ) ;
#960 = NEXT_ASSEMBLY_USAGE_OCCURRENCE ( 'NAUO21', ' ', ' ', #201, #820, $ ) ;
#961 = NEXT_ASSEMBLY_USAGE_OCCURRENCE ( 'NAUO22', ' ', ' ', #201, #820, $ ) ;
#962 = NEXT_ASSEMBLY_USAGE_OCCURRENCE ( 'NAUO23', ' ', ' ', #201, #820, $ ) ;
#963 = NEXT_ASSEMBLY_USAGE_OCCURRENCE ( 'NAUO24', ' ', ' ', #201, #820, $ ) ;
#964 = NEXT_ASSEMBLY_USAGE_OCCURRENCE ( 'NAUO25', ' ', ' ', #201, #820, $ ) ;
#965 = NEXT_ASSEMBLY_USAGE_OCCURRENCE ( 'NAUO26', ' ', ' ', #201, #437, $ ) ;
#966 = NEXT_ASSEMBLY_USAGE_OCCURRENCE ( 'NAUO27', ' ', ' ', #201, #437, $ ) ;
#967 = NEXT_ASSEMBLY_USAGE_OCCURRENCE ( 'NAUO28', ' ', ' ', #201, #437, $ ) ;
#968 = NEXT_ASSEMBLY_USAGE_OCCURRENCE ( 'NAUO29', ' ', ' ', #201, #437, $ ) ;
#969 = NEXT_ASSEMBLY_USAGE_OCCURRENCE ( 'NAUO30', ' ', ' ', #201, #437, $ ) ;
#970 = NEXT_ASSEMBLY_USAGE_OCCURRENCE ( 'NAUO31', ' ', ' ', #201, #437, $ ) ;
#971 = NEXT_ASSEMBLY_USAGE_OCCURRENCE ( 'NAUO32', ' ', ' ', #201, #437, $ ) ;
#972 = NEXT_ASSEMBLY_USAGE_OCCURRENCE ( 'NAUO33', ' ', ' ', #201, #437, $ ) ;
#973 = NEXT_ASSEMBLY_USAGE_OCCURRENCE ( 'NAUO34', ' ', ' ', #201, #437, $ ) ;
#974 = NEXT_ASSEMBLY_USAGE_OCCURRENCE ( 'NAUO35', ' ', ' ', #201, #437, $ ) ;
#975 = NEXT_ASSEMBLY_USAGE_OCCURRENCE ( 'NAUO36', ' ', ' ', #201, #437, $ ) ;
#976 = NEXT_ASSEMBLY_USAGE_OCCURRENCE ( 'NAUO37', ' ', ' ', #201, #437, $ ) ;
#977 = NEXT_ASSEMBLY_USAGE_OCCURRENCE ( 'NAUO38', ' ', ' ', #201, #437, $ ) ;
ENDSEC;
END-ISO-10303-21;
