ISO-10303-21;
HEADER;
FILE_DESCRIPTION (( 'STEP AP214' ),
    '1' );
FILE_NAME ('radial cylindrical roller bearing_am.STEP',
    '2026-09-17T14:21:05',
    ( '' ),
    ( '' ),
    'SwSTEP 2.0',
    'SolidWorks 2025',
    '' );
FILE_SCHEMA (( 'AUTOMOTIVE_DESIGN' ));
ENDSEC;

DATA;
#1 = VERTEX_POINT ( 'NONE', #357 ) ;
#2 = DIRECTION ( 'NONE',  ( 1.000000000000000000, -0.000000000000000000, -0.000000000000000000 ) ) ;
#3 = EDGE_CURVE ( 'NONE', #826, #568, #120, .T. ) ;
#4 = DIRECTION ( 'NONE',  ( 1.000000000000000000, 0.000000000000000000, 0.000000000000000000 ) ) ;
#5 = AXIS2_PLACEMENT_3D ( 'NONE', #630, #1004, #443 ) ;
#6 = VERTEX_POINT ( 'NONE', #722 ) ;
#7 = DIRECTION ( 'NONE',  ( 0.000000000000000000, 0.000000000000000000, -1.000000000000000000 ) ) ;
#8 = CIRCLE ( 'NONE', #447, 0.1021999999999967379 ) ;
#9 = AXIS2_PLACEMENT_3D ( 'NONE', #749, #863, #143 ) ;
#10 = PLANE ( 'NONE',  #1108 ) ;
#11 = AXIS2_PLACEMENT_3D ( 'NONE', #347, #799, #974 ) ;
#12 = AXIS2_PLACEMENT_3D ( 'NONE', #1074, #243, #981 ) ;
#13 = EDGE_CURVE ( 'NONE', #207, #217, #832, .T. ) ;
#14 = FACE_OUTER_BOUND ( 'NONE', #148, .T. ) ;
#15 = FACE_BOUND ( 'NONE', #846, .T. ) ;
#16 = DIRECTION ( 'NONE',  ( 0.000000000000000000, 1.224646799147366026E-16, 1.000000000000000000 ) ) ;
#17 = ORIENTED_EDGE ( 'NONE', *, *, #542, .F. ) ;
#18 = DIRECTION ( 'NONE',  ( 0.000000000000000000, 0.000000000000000000, -1.000000000000000000 ) ) ;
#19 = LINE ( 'NONE', #299, #1104 ) ;
#20 = ORIENTED_EDGE ( 'NONE', *, *, #549, .F. ) ;
#21 = DIRECTION ( 'NONE',  ( 0.000000000000000000, 1.000000000000000000, -1.224646799147353207E-16 ) ) ;
#22 = ORIENTED_EDGE ( 'NONE', *, *, #80, .F. ) ;
#23 = CARTESIAN_POINT ( 'NONE',  ( -90.00000000000000000, 7.347880794884123089E-15, 60.00000000000002842 ) ) ;
#24 = ADVANCED_FACE ( 'NONE', ( #646 ), #270, .T. ) ;
#25 = TOROIDAL_SURFACE ( 'NONE', #483, 59.40000000000001279, 0.6000000000000050848 ) ;
#26 = ORIENTED_EDGE ( 'NONE', *, *, #1096, .F. ) ;
#27 = CARTESIAN_POINT ( 'NONE',  ( -4.000000000000003553, 0.000000000000000000, 0.000000000000000000 ) ) ;
#28 = AXIS2_PLACEMENT_3D ( 'NONE', #85, #635, #731 ) ;
#29 = CIRCLE ( 'NONE', #180, 59.40000000000001279 ) ;
#30 = ORIENTED_EDGE ( 'NONE', *, *, #670, .F. ) ;
#31 = CIRCLE ( 'NONE', #854, 51.81250000000000711 ) ;
#32 = CARTESIAN_POINT ( 'NONE',  ( 3.999999999999989786, 0.000000000000000000, -56.91250000000001563 ) ) ;
#33 = EDGE_CURVE ( 'NONE', #230, #1, #579, .T. ) ;
#34 = ORIENTED_EDGE ( 'NONE', *, *, #167, .T. ) ;
#35 = PLANE ( 'NONE',  #640 ) ;
#36 = ADVANCED_FACE ( 'NONE', ( #280 ), #754, .T. ) ;
#37 = ORIENTED_EDGE ( 'NONE', *, *, #1183, .F. ) ;
#38 = DIRECTION ( 'NONE',  ( 1.000000000000000000, 0.000000000000000000, 0.000000000000000000 ) ) ;
#39 = VERTEX_POINT ( 'NONE', #189 ) ;
#40 = DIRECTION ( 'NONE',  ( 1.000000000000000000, 0.000000000000000000, 0.000000000000000000 ) ) ;
#41 = DIRECTION ( 'NONE',  ( 1.000000000000000000, 0.000000000000000000, 0.000000000000000000 ) ) ;
#42 = ADVANCED_FACE ( 'NONE', ( #1011 ), #25, .T. ) ;
#43 = ORIENTED_EDGE ( 'NONE', *, *, #503, .F. ) ;
#44 = CARTESIAN_POINT ( 'NONE',  ( -90.00000000000000000, 6.969771095647375794E-15, 56.91250000000001563 ) ) ;
#45 = ORIENTED_EDGE ( 'NONE', *, *, #1042, .F. ) ;
#46 = PLANE ( 'NONE',  #563 ) ;
#47 = CIRCLE ( 'NONE', #871, 0.1021999999999967379 ) ;
#48 = DIRECTION ( 'NONE',  ( 0.000000000000000000, 0.000000000000000000, -1.000000000000000000 ) ) ;
#49 = ORIENTED_EDGE ( 'NONE', *, *, #1083, .T. ) ;
#50 = PRESENTATION_LAYER_ASSIGNMENT (  '', '', ( #678 ) ) ;
#51 = AXIS2_PLACEMENT_3D ( 'NONE', #1055, #481, #852 ) ;
#52 = EDGE_CURVE ( 'NONE', #568, #6, #464, .T. ) ;
#53 = FACE_OUTER_BOUND ( 'NONE', #245, .T. ) ;
#54 = VERTEX_POINT ( 'NONE', #924 ) ;
#55 = DIRECTION ( 'NONE',  ( 1.000000000000000000, 0.000000000000000000, 0.000000000000000000 ) ) ;
#56 = CARTESIAN_POINT ( 'NONE',  ( 3.697799999999999532, 0.000000000000000000, 0.000000000000000000 ) ) ;
#57 = ORIENTED_EDGE ( 'NONE', *, *, #903, .F. ) ;
#58 = LINE ( 'NONE', #825, #465 ) ;
#59 = VERTEX_POINT ( 'NONE', #101 ) ;
#60 = CARTESIAN_POINT ( 'NONE',  ( 5.000000000000004441, 0.000000000000000000, 0.000000000000000000 ) ) ;
#61 = DIRECTION ( 'NONE',  ( 1.000000000000000000, 0.000000000000000000, 0.000000000000000000 ) ) ;
#62 = ORIENTED_EDGE ( 'NONE', *, *, #1021, .F. ) ;
#63 = DIRECTION ( 'NONE',  ( 0.000000000000000000, 1.224646799147359124E-16, 1.000000000000000000 ) ) ;
#64 = ADVANCED_FACE ( 'NONE', ( #267 ), #422, .T. ) ;
#65 = ORIENTED_EDGE ( 'NONE', *, *, #1026, .T. ) ;
#66 = DIRECTION ( 'NONE',  ( 0.000000000000000000, 0.000000000000000000, -1.000000000000000000 ) ) ;
#67 = CARTESIAN_POINT ( 'NONE',  ( 4.999999999999990230, 0.000000000000000000, 0.000000000000000000 ) ) ;
#68 = VERTEX_POINT ( 'NONE', #1176 ) ;
#69 = CIRCLE ( 'NONE', #84, 57.55000000000001847 ) ;
#70 = AXIS2_PLACEMENT_3D ( 'NONE', #56, #556, #408 ) ;
#71 = CARTESIAN_POINT ( 'NONE',  ( -5.000000000000004441, 0.000000000000000000, 0.000000000000000000 ) ) ;
#72 = CIRCLE ( 'NONE', #1092, 50.60000000000000853 ) ;
#73 = EDGE_LOOP ( 'NONE', ( #346, #492, #396, #790 ) ) ;
#74 = DIRECTION ( 'NONE',  ( 0.000000000000000000, 0.000000000000000000, -1.000000000000000000 ) ) ;
#75 = FILL_AREA_STYLE_COLOUR ( '', #371 ) ;
#76 = DIRECTION ( 'NONE',  ( 0.000000000000000000, 0.000000000000000000, -1.000000000000000000 ) ) ;
#77 = ORIENTED_EDGE ( 'NONE', *, *, #137, .F. ) ;
#78 = DIRECTION ( 'NONE',  ( 1.000000000000000000, 0.000000000000000000, 0.000000000000000000 ) ) ;
#79 = CARTESIAN_POINT ( 'NONE',  ( -5.000000000000004441, 0.000000000000000000, 0.000000000000000000 ) ) ;
#80 = EDGE_CURVE ( 'NONE', #620, #1054, #19, .T. ) ;
#81 = CARTESIAN_POINT ( 'NONE',  ( 4.999999999999990230, 0.000000000000000000, -56.91250000000001563 ) ) ;
#82 = ORIENTED_EDGE ( 'NONE', *, *, #367, .T. ) ;
#83 = DIRECTION ( 'NONE',  ( 0.000000000000000000, -1.000000000000000000, 0.000000000000000000 ) ) ;
#84 = AXIS2_PLACEMENT_3D ( 'NONE', #979, #1170, #791 ) ;
#85 = CARTESIAN_POINT ( 'NONE',  ( 3.999999999999989786, 0.000000000000000000, 0.000000000000000000 ) ) ;
#86 = DIRECTION ( 'NONE',  ( 1.000000000000000000, 0.000000000000000000, 0.000000000000000000 ) ) ;
#87 = DIRECTION ( 'NONE',  ( 1.000000000000000000, 0.000000000000000000, 0.000000000000000000 ) ) ;
#88 = AXIS2_PLACEMENT_3D ( 'NONE', #828, #264, #282 ) ;
#89 = FACE_OUTER_BOUND ( 'NONE', #155, .T. ) ;
#90 = CYLINDRICAL_SURFACE ( 'NONE', #911, 60.00000000000002842 ) ;
#91 = DIRECTION ( 'NONE',  ( 0.000000000000000000, 0.000000000000000000, -1.000000000000000000 ) ) ;
#92 = DIRECTION ( 'NONE',  ( 1.000000000000000000, 0.000000000000000000, 0.000000000000000000 ) ) ;
#93 = FACE_OUTER_BOUND ( 'NONE', #770, .T. ) ;
#94 = ORIENTED_EDGE ( 'NONE', *, *, #1169, .F. ) ;
#95 = ADVANCED_FACE ( 'NONE', ( #933, #377 ), #1131, .T. ) ;
#96 = FACE_OUTER_BOUND ( 'NONE', #130, .T. ) ;
#97 = EDGE_CURVE ( 'NONE', #1, #225, #734, .T. ) ;
#98 = AXIS2_PLACEMENT_3D ( 'NONE', #850, #119, #134 ) ;
#99 = DIRECTION ( 'NONE',  ( -0.000000000000000000, -1.000000000000000000, -0.000000000000000000 ) ) ;
#100 = CIRCLE ( 'NONE', #925, 0.6000000000000033085 ) ;
#101 = CARTESIAN_POINT ( 'NONE',  ( 3.999999999999989786, 7.047842329093019136E-15, 57.55000000000001137 ) ) ;
#102 = CIRCLE ( 'NONE', #239, 52.54719999999999658 ) ;
#103 = VECTOR ( 'NONE', #1172, 1000.000000000000000 ) ;
#104 = CARTESIAN_POINT ( 'NONE',  ( -90.00000000000000000, 0.000000000000000000, -57.55000000000001847 ) ) ;
#105 = EDGE_CURVE ( 'NONE', #683, #1023, #889, .T. ) ;
#106 = ORIENTED_EDGE ( 'NONE', *, *, #767, .T. ) ;
#107 = CARTESIAN_POINT ( 'NONE',  ( 3.697799999999999532, 0.000000000000000000, -57.45279999999999632 ) ) ;
#108 = CARTESIAN_POINT ( 'NONE',  ( -4.400000000000001243, 0.000000000000000000, 0.000000000000000000 ) ) ;
#109 = ORIENTED_EDGE ( 'NONE', *, *, #105, .T. ) ;
#110 = PLANE ( 'NONE',  #124 ) ;
#111 = VERTEX_POINT ( 'NONE', #479 ) ;
#112 = EDGE_CURVE ( 'NONE', #225, #963, #1115, .T. ) ;
#113 = EDGE_CURVE ( 'NONE', #482, #1054, #128, .T. ) ;
#114 = DIRECTION ( 'NONE',  ( 1.000000000000000000, 0.000000000000000000, 0.000000000000000000 ) ) ;
#115 = ORIENTED_EDGE ( 'NONE', *, *, #813, .T. ) ;
#116 = CARTESIAN_POINT ( 'NONE',  ( 5.000000000000004441, 0.000000000000000000, 0.000000000000000000 ) ) ;
#117 = ORIENTED_EDGE ( 'NONE', *, *, #222, .T. ) ;
#118 = TOROIDAL_SURFACE ( 'NONE', #601, 50.60000000000000853, 0.6000000000000046407 ) ;
#119 = DIRECTION ( 'NONE',  ( -1.000000000000000000, 0.000000000000000000, -0.000000000000000000 ) ) ;
#120 = CIRCLE ( 'NONE', #445, 0.1021999999999967379 ) ;
#121 = ORIENTED_EDGE ( 'NONE', *, *, #1096, .T. ) ;
#122 = CARTESIAN_POINT ( 'NONE',  ( -90.00000000000000000, 0.000000000000000000, 0.000000000000000000 ) ) ;
#123 = AXIS2_PLACEMENT_3D ( 'NONE', #1016, #266, #272 ) ;
#124 = AXIS2_PLACEMENT_3D ( 'NONE', #187, #725, #558 ) ;
#125 = ORIENTED_EDGE ( 'NONE', *, *, #210, .F. ) ;
#126 = CIRCLE ( 'NONE', #1071, 49.99999999999999289 ) ;
#127 = AXIS2_PLACEMENT_3D ( 'NONE', #604, #611, #424 ) ;
#128 = LINE ( 'NONE', #657, #577 ) ;
#129 = ADVANCED_FACE ( 'NONE', ( #1043 ), #118, .T. ) ;
#130 = EDGE_LOOP ( 'NONE', ( #861, #798 ) ) ;
#131 = DIRECTION ( 'NONE',  ( 1.000000000000000000, 0.000000000000000000, 0.000000000000000000 ) ) ;
#132 = CARTESIAN_POINT ( 'NONE',  ( -3.729375306807701129, 6.429224244971724069E-15, 52.45000000000000284 ) ) ;
#133 = ORIENTED_EDGE ( 'NONE', *, *, #634, .F. ) ;
#134 = DIRECTION ( 'NONE',  ( -0.000000000000000000, 0.000000000000000000, 1.000000000000000000 ) ) ;
#135 = ORIENTED_EDGE ( 'NONE', *, *, #279, .F. ) ;
#136 = CARTESIAN_POINT ( 'NONE',  ( -90.00000000000000000, 7.047842329093019925E-15, 57.55000000000001847 ) ) ;
#137 = EDGE_CURVE ( 'NONE', #217, #253, #211, .T. ) ;
#138 = CARTESIAN_POINT ( 'NONE',  ( 3.729375306807628743, 0.000000000000000000, -57.55000000000001847 ) ) ;
#139 = ORIENTED_EDGE ( 'NONE', *, *, #200, .F. ) ;
#140 = CARTESIAN_POINT ( 'NONE',  ( -4.400000000000000355, 6.196712803685608594E-15, 50.60000000000000853 ) ) ;
#141 = EDGE_LOOP ( 'NONE', ( #221, #121, #1030, #440 ) ) ;
#142 = CARTESIAN_POINT ( 'NONE',  ( -3.729375306807627410, 0.000000000000000000, 0.000000000000000000 ) ) ;
#143 = DIRECTION ( 'NONE',  ( 0.000000000000000000, 1.224646799147366026E-16, 1.000000000000000000 ) ) ;
#144 = VERTEX_POINT ( 'NONE', #307 ) ;
#145 =( GEOMETRIC_REPRESENTATION_CONTEXT ( 3 ) GLOBAL_UNCERTAINTY_ASSIGNED_CONTEXT ( ( #1010 ) ) GLOBAL_UNIT_ASSIGNED_CONTEXT ( ( #236, #172, #1173 ) ) REPRESENTATION_CONTEXT ( 'NONE', 'WORKASPACE' ) );
#146 = AXIS2_PLACEMENT_3D ( 'NONE', #383, #958, #940 ) ;
#147 = DIRECTION ( 'NONE',  ( 0.000000000000000000, 0.000000000000000000, -1.000000000000000000 ) ) ;
#148 = EDGE_LOOP ( 'NONE', ( #429, #784, #333, #992 ) ) ;
#149 = DIRECTION ( 'NONE',  ( -0.000000000000000000, -1.000000000000000000, -0.000000000000000000 ) ) ;
#150 = EDGE_LOOP ( 'NONE', ( #401, #947, #398, #594 ) ) ;
#151 = EDGE_CURVE ( 'NONE', #1124, #600, #582, .T. ) ;
#152 = CARTESIAN_POINT ( 'NONE',  ( -3.697800000000000420, 0.000000000000000000, 0.000000000000000000 ) ) ;
#153 = ORIENTED_EDGE ( 'NONE', *, *, #590, .F. ) ;
#154 = CARTESIAN_POINT ( 'NONE',  ( -4.400000000000001243, 0.000000000000000000, -50.00000000000000000 ) ) ;
#155 = EDGE_LOOP ( 'NONE', ( #1118, #1067, #476, #388 ) ) ;
#156 = CARTESIAN_POINT ( 'NONE',  ( 3.800000000000001155, 7.041890545649163528E-15, 57.45279999999999632 ) ) ;
#157 = EDGE_LOOP ( 'NONE', ( #596, #917 ) ) ;
#158 = EDGE_CURVE ( 'NONE', #774, #6, #397, .T. ) ;
#159 = FACE_OUTER_BOUND ( 'NONE', #232, .T. ) ;
#160 = FILL_AREA_STYLE ('',( #75 ) ) ;
#161 = AXIS2_PLACEMENT_3D ( 'NONE', #989, #520, #226 ) ;
#162 = AXIS2_PLACEMENT_3D ( 'NONE', #277, #644, #922 ) ;
#163 = DIRECTION ( 'NONE',  ( 0.000000000000000000, 0.000000000000000000, -1.000000000000000000 ) ) ;
#164 = CIRCLE ( 'NONE', #819, 52.54719999999999658 ) ;
#165 = ORIENTED_EDGE ( 'NONE', *, *, #628, .T. ) ;
#166 = DIRECTION ( 'NONE',  ( 0.000000000000000000, 0.000000000000000000, 1.000000000000000000 ) ) ;
#167 = EDGE_CURVE ( 'NONE', #1, #570, #1137, .T. ) ;
#168 = CARTESIAN_POINT ( 'NONE',  ( -90.00000000000000000, 6.123233995736766085E-15, 50.00000000000000000 ) ) ;
#169 = DIRECTION ( 'NONE',  ( 0.000000000000000000, 0.000000000000000000, -1.000000000000000000 ) ) ;
#170 = EDGE_LOOP ( 'NONE', ( #139, #133 ) ) ;
#171 = CARTESIAN_POINT ( 'NONE',  ( -5.000000000000004441, 6.196712803685608594E-15, 50.60000000000000853 ) ) ;
#172 =( NAMED_UNIT ( * ) PLANE_ANGLE_UNIT ( ) SI_UNIT ( $, .RADIAN. ) );
#173 = CARTESIAN_POINT ( 'NONE',  ( 5.000000000000004441, 0.000000000000000000, 0.000000000000000000 ) ) ;
#174 = CARTESIAN_POINT ( 'NONE',  ( 4.399999999999993250, 0.000000000000000000, 0.000000000000000000 ) ) ;
#175 = LINE ( 'NONE', #742, #609 ) ;
#176 = DIRECTION ( 'NONE',  ( 0.000000000000000000, 0.000000000000000000, -1.000000000000000000 ) ) ;
#177 = AXIS2_PLACEMENT_3D ( 'NONE', #704, #804, #1146 ) ;
#178 = CARTESIAN_POINT ( 'NONE',  ( -90.00000000000000000, 0.000000000000000000, 0.000000000000000000 ) ) ;
#179 = CIRCLE ( 'NONE', #291, 50.00000000000000000 ) ;
#180 = AXIS2_PLACEMENT_3D ( 'NONE', #996, #629, #332 ) ;
#181 = DIRECTION ( 'NONE',  ( 0.000000000000000000, 0.000000000000000000, -1.000000000000000000 ) ) ;
#182 = CIRCLE ( 'NONE', #914, 0.6000000000000033085 ) ;
#183 = DIRECTION ( 'NONE',  ( -0.8432271980573250447, 0.000000000000000000, 0.5375573387615434351 ) ) ;
#184 = DIRECTION ( 'NONE',  ( 1.000000000000000000, 0.000000000000000000, 0.000000000000000000 ) ) ;
#185 = ORIENTED_EDGE ( 'NONE', *, *, #344, .T. ) ;
#186 = ADVANCED_FACE ( 'NONE', ( #15, #220 ), #589, .T. ) ;
#187 = CARTESIAN_POINT ( 'NONE',  ( 4.999999999999995559, 59.40000000000001279, 0.000000000000000000 ) ) ;
#188 = FACE_OUTER_BOUND ( 'NONE', #444, .T. ) ;
#189 = CARTESIAN_POINT ( 'NONE',  ( -4.000000000000003553, 0.000000000000000000, -56.91250000000001563 ) ) ;
#190 = EDGE_CURVE ( 'NONE', #207, #391, #839, .T. ) ;
#191 = CARTESIAN_POINT ( 'NONE',  ( -3.697799999999999088, 0.000000000000000000, -52.54719999999999658 ) ) ;
#192 = ORIENTED_EDGE ( 'NONE', *, *, #767, .F. ) ;
#193 = DIRECTION ( 'NONE',  ( 1.000000000000000000, -0.000000000000000000, -0.000000000000000000 ) ) ;
#194 = AXIS2_PLACEMENT_3D ( 'NONE', #392, #764, #1156 ) ;
#195 = CARTESIAN_POINT ( 'NONE',  ( -90.00000000000000000, 7.047842329093019925E-15, 57.55000000000001847 ) ) ;
#196 = AXIS2_PLACEMENT_3D ( 'NONE', #1066, #442, #975 ) ;
#197 = ORIENTED_EDGE ( 'NONE', *, *, #724, .T. ) ;
#198 = AXIS2_PLACEMENT_3D ( 'NONE', #122, #782, #491 ) ;
#199 = CARTESIAN_POINT ( 'NONE',  ( -4.000000000000003553, 0.000000000000000000, -52.45000000000000284 ) ) ;
#200 = EDGE_CURVE ( 'NONE', #826, #393, #484, .T. ) ;
#201 = ORIENTED_EDGE ( 'NONE', *, *, #1134, .T. ) ;
#202 = CARTESIAN_POINT ( 'NONE',  ( 4.400000000000000355, 0.000000000000000000, 0.000000000000000000 ) ) ;
#203 = VERTEX_POINT ( 'NONE', #569 ) ;
#204 = ORIENTED_EDGE ( 'NONE', *, *, #279, .T. ) ;
#205 = ADVANCED_FACE ( 'NONE', ( #938 ), #386, .T. ) ;
#206 = DIRECTION ( 'NONE',  ( 1.000000000000000000, 0.000000000000000000, 0.000000000000000000 ) ) ;
#207 = VERTEX_POINT ( 'NONE', #32 ) ;
#208 = FACE_OUTER_BOUND ( 'NONE', #603, .T. ) ;
#209 = EDGE_LOOP ( 'NONE', ( #575, #1147, #857, #787 ) ) ;
#210 = EDGE_CURVE ( 'NONE', #327, #885, #755, .T. ) ;
#211 = LINE ( 'NONE', #860, #1008 ) ;
#212 = AXIS2_PLACEMENT_3D ( 'NONE', #108, #206, #745 ) ;
#213 = ORIENTED_EDGE ( 'NONE', *, *, #112, .F. ) ;
#214 = CARTESIAN_POINT ( 'NONE',  ( -4.000000000000003553, 0.000000000000000000, 0.000000000000000000 ) ) ;
#215 = CIRCLE ( 'NONE', #387, 52.45000000000000284 ) ;
#216 = DIRECTION ( 'NONE',  ( 0.000000000000000000, 0.000000000000000000, -1.000000000000000000 ) ) ;
#217 = VERTEX_POINT ( 'NONE', #499 ) ;
#218 = AXIS2_PLACEMENT_3D ( 'NONE', #27, #390, #1128 ) ;
#219 = ADVANCED_FACE ( 'NONE', ( #416 ), #525, .T. ) ;
#220 = FACE_OUTER_BOUND ( 'NONE', #953, .T. ) ;
#221 = ORIENTED_EDGE ( 'NONE', *, *, #317, .T. ) ;
#222 = EDGE_CURVE ( 'NONE', #275, #327, #100, .T. ) ;
#223 = CYLINDRICAL_SURFACE ( 'NONE', #198, 57.55000000000001847 ) ;
#224 = CARTESIAN_POINT ( 'NONE',  ( 5.000000000000004441, 0.000000000000000000, -59.40000000000001279 ) ) ;
#225 = VERTEX_POINT ( 'NONE', #231 ) ;
#226 = DIRECTION ( 'NONE',  ( 0.000000000000000000, 0.000000000000000000, -1.000000000000000000 ) ) ;
#227 = ORIENTED_EDGE ( 'NONE', *, *, #628, .F. ) ;
#228 = DIRECTION ( 'NONE',  ( 0.000000000000000000, 0.000000000000000000, -1.000000000000000000 ) ) ;
#229 = FACE_OUTER_BOUND ( 'NONE', #566, .T. ) ;
#230 = VERTEX_POINT ( 'NONE', #402 ) ;
#231 = CARTESIAN_POINT ( 'NONE',  ( -4.400000000000001243, 7.347880794884121511E-15, 60.00000000000002132 ) ) ;
#232 = EDGE_LOOP ( 'NONE', ( #1035, #62, #710, #888 ) ) ;
#233 = DIRECTION ( 'NONE',  ( 0.000000000000000000, 0.000000000000000000, -1.000000000000000000 ) ) ;
#234 = VECTOR ( 'NONE', #602, 1000.000000000000000 ) ;
#235 = CIRCLE ( 'NONE', #349, 0.6000000000000033085 ) ;
#236 =( LENGTH_UNIT ( ) NAMED_UNIT ( * ) SI_UNIT ( .MILLI., .METRE. ) );
#237 = EDGE_CURVE ( 'NONE', #963, #570, #403, .T. ) ;
#238 = EDGE_LOOP ( 'NONE', ( #1037, #961, #197, #227 ) ) ;
#239 = AXIS2_PLACEMENT_3D ( 'NONE', #618, #518, #902 ) ;
#240 = TOROIDAL_SURFACE ( 'NONE', #971, 57.45279999999999632, 0.1021999999999986947 ) ;
#241 = DIRECTION ( 'NONE',  ( 0.000000000000000000, 0.000000000000000000, -1.000000000000000000 ) ) ;
#242 = VERTEX_POINT ( 'NONE', #156 ) ;
#243 = DIRECTION ( 'NONE',  ( 1.000000000000000000, 0.000000000000000000, 0.000000000000000000 ) ) ;
#244 = DIRECTION ( 'NONE',  ( 0.000000000000000000, 0.000000000000000000, -1.000000000000000000 ) ) ;
#245 = EDGE_LOOP ( 'NONE', ( #578, #976, #329, #45 ) ) ;
#246 = EDGE_CURVE ( 'NONE', #774, #702, #69, .T. ) ;
#247 = CARTESIAN_POINT ( 'NONE',  ( 4.999999999999990230, 6.969771095647375794E-15, 56.91250000000001563 ) ) ;
#248 = ORIENTED_EDGE ( 'NONE', *, *, #670, .T. ) ;
#249 = CARTESIAN_POINT ( 'NONE',  ( -5.000000000000004441, 0.000000000000000000, 0.000000000000000000 ) ) ;
#250 = DIRECTION ( 'NONE',  ( 0.000000000000000000, 0.000000000000000000, 1.000000000000000000 ) ) ;
#251 = CARTESIAN_POINT ( 'NONE',  ( -4.400000000000000355, 0.000000000000000000, 0.000000000000000000 ) ) ;
#252 = ADVANCED_FACE ( 'NONE', ( #709 ), #1027, .T. ) ;
#253 = VERTEX_POINT ( 'NONE', #247 ) ;
#254 = FACE_OUTER_BOUND ( 'NONE', #957, .T. ) ;
#255 = CARTESIAN_POINT ( 'NONE',  ( -90.00000000000000000, 0.000000000000000000, 0.000000000000000000 ) ) ;
#256 = AXIS2_PLACEMENT_3D ( 'NONE', #1090, #544, #452 ) ;
#257 = CIRCLE ( 'NONE', #406, 52.54719999999999658 ) ;
#258 = AXIS2_PLACEMENT_3D ( 'NONE', #747, #2, #176 ) ;
#259 = FACE_BOUND ( 'NONE', #1020, .T. ) ;
#260 = DIRECTION ( 'NONE',  ( 0.000000000000000000, 0.000000000000000000, -1.000000000000000000 ) ) ;
#261 = CARTESIAN_POINT ( 'NONE',  ( 4.399999999999993250, 0.000000000000000000, 0.000000000000000000 ) ) ;
#262 = FACE_OUTER_BOUND ( 'NONE', #1155, .T. ) ;
#263 = ORIENTED_EDGE ( 'NONE', *, *, #701, .T. ) ;
#264 = DIRECTION ( 'NONE',  ( -1.000000000000000000, 0.000000000000000000, -0.000000000000000000 ) ) ;
#265 = ADVANCED_FACE ( 'NONE', ( #962 ), #695, .T. ) ;
#266 = DIRECTION ( 'NONE',  ( -1.000000000000000000, 0.000000000000000000, 0.000000000000000000 ) ) ;
#267 = FACE_OUTER_BOUND ( 'NONE', #150, .T. ) ;
#268 = CARTESIAN_POINT ( 'NONE',  ( -4.000000000000007105, 57.55000000000001847, 0.000000000000000000 ) ) ;
#269 = EDGE_CURVE ( 'NONE', #652, #354, #316, .T. ) ;
#270 = CONICAL_SURFACE ( 'NONE', #945, 52.45000000000000284, 0.5675376247847495614 ) ;
#271 = VECTOR ( 'NONE', #671, 1000.000000000000000 ) ;
#272 = DIRECTION ( 'NONE',  ( 0.000000000000000000, 0.000000000000000000, 1.000000000000000000 ) ) ;
#273 = AXIS2_PLACEMENT_3D ( 'NONE', #361, #369, #1103 ) ;
#274 = AXIS2_PLACEMENT_3D ( 'NONE', #712, #795, #348 ) ;
#275 = VERTEX_POINT ( 'NONE', #328 ) ;
#276 = CIRCLE ( 'NONE', #1125, 52.45000000000000284 ) ;
#277 = CARTESIAN_POINT ( 'NONE',  ( 4.399999999999993250, 7.274401986935279791E-15, 59.40000000000001279 ) ) ;
#278 = DIRECTION ( 'NONE',  ( 0.000000000000000000, 0.000000000000000000, 1.000000000000000000 ) ) ;
#279 = EDGE_CURVE ( 'NONE', #203, #68, #1161, .T. ) ;
#280 = FACE_OUTER_BOUND ( 'NONE', #457, .T. ) ;
#281 = LINE ( 'NONE', #540, #1165 ) ;
#282 = DIRECTION ( 'NONE',  ( -0.000000000000000000, 0.000000000000000000, 1.000000000000000000 ) ) ;
#283 = EDGE_LOOP ( 'NONE', ( #213, #507, #34, #341 ) ) ;
#284 = CYLINDRICAL_SURFACE ( 'NONE', #467, 50.00000000000000000 ) ;
#285 = DIRECTION ( 'NONE',  ( -0.8432271980573250447, 6.583178742724936188E-17, -0.5375573387615434351 ) ) ;
#286 = ADVANCED_FACE ( 'NONE', ( #432 ), #797, .T. ) ;
#287 = PRODUCT_CONTEXT ( 'NONE', #436, 'mechanical' ) ;
#288 = CARTESIAN_POINT ( 'NONE',  ( -5.000000000000004441, 0.000000000000000000, -56.91250000000001563 ) ) ;
#289 = ORIENTED_EDGE ( 'NONE', *, *, #714, .F. ) ;
#290 = CARTESIAN_POINT ( 'NONE',  ( 4.399999999999987033, 0.000000000000000000, -60.00000000000002842 ) ) ;
#291 = AXIS2_PLACEMENT_3D ( 'NONE', #645, #534, #76 ) ;
#292 = CARTESIAN_POINT ( 'NONE',  ( -3.799999999999998046, 0.000000000000000000, 0.000000000000000000 ) ) ;
#293 = EDGE_LOOP ( 'NONE', ( #998, #1135 ) ) ;
#294 = VECTOR ( 'NONE', #394, 1000.000000000000000 ) ;
#295 = CARTESIAN_POINT ( 'NONE',  ( -90.00000000000000000, 0.000000000000000000, -57.55000000000001847 ) ) ;
#296 = ADVANCED_FACE ( 'NONE', ( #53 ), #1082, .F. ) ;
#297 = CIRCLE ( 'NONE', #1053, 50.60000000000000853 ) ;
#298 = EDGE_LOOP ( 'NONE', ( #192, #1062, #1017, #289 ) ) ;
#299 = CARTESIAN_POINT ( 'NONE',  ( -90.00000000000000000, 0.000000000000000000, -52.45000000000000284 ) ) ;
#300 = ORIENTED_EDGE ( 'NONE', *, *, #849, .T. ) ;
#301 = FACE_OUTER_BOUND ( 'NONE', #669, .T. ) ;
#302 = ORIENTED_EDGE ( 'NONE', *, *, #1134, .F. ) ;
#303 = ORIENTED_EDGE ( 'NONE', *, *, #663, .F. ) ;
#304 = DIRECTION ( 'NONE',  ( 0.000000000000000000, 0.000000000000000000, -1.000000000000000000 ) ) ;
#305 = EDGE_LOOP ( 'NONE', ( #488, #727 ) ) ;
#306 = ADVANCED_FACE ( 'NONE', ( #340 ), #368, .T. ) ;
#307 = CARTESIAN_POINT ( 'NONE',  ( 3.800000000000001155, 0.000000000000000000, -57.45279999999999632 ) ) ;
#308 = CONICAL_SURFACE ( 'NONE', #948, 51.81250000000000711, 0.5675376247847495614 ) ;
#309 = ORIENTED_EDGE ( 'NONE', *, *, #1193, .T. ) ;
#310 = DIRECTION ( 'NONE',  ( 1.000000000000000000, 0.000000000000000000, 0.000000000000000000 ) ) ;
#311 = AXIS2_PLACEMENT_3D ( 'NONE', #320, #773, #744 ) ;
#312 = AXIS2_PLACEMENT_3D ( 'NONE', #214, #55, #617 ) ;
#313 = CARTESIAN_POINT ( 'NONE',  ( 4.399999999999987033, 0.000000000000000000, 0.000000000000000000 ) ) ;
#314 = ORIENTED_EDGE ( 'NONE', *, *, #246, .F. ) ;
#315 = CIRCLE ( 'NONE', #468, 60.00000000000002132 ) ;
#316 = LINE ( 'NONE', #44, #234 ) ;
#317 = EDGE_CURVE ( 'NONE', #761, #910, #675, .T. ) ;
#318 = EDGE_LOOP ( 'NONE', ( #687, #379, #967, #654 ) ) ;
#319 = DIRECTION ( 'NONE',  ( 1.000000000000000000, 0.000000000000000000, 0.000000000000000000 ) ) ;
#320 = CARTESIAN_POINT ( 'NONE',  ( -4.400000000000000355, 0.000000000000000000, 0.000000000000000000 ) ) ;
#321 = EDGE_LOOP ( 'NONE', ( #263, #936, #30, #22 ) ) ;
#322 = CARTESIAN_POINT ( 'NONE',  ( -4.000000000000003553, 6.423272461527868460E-15, 52.45000000000000284 ) ) ;
#323 = EDGE_CURVE ( 'NONE', #433, #1023, #990, .T. ) ;
#324 = ORIENTED_EDGE ( 'NONE', *, *, #1026, .F. ) ;
#325 = CARTESIAN_POINT ( 'NONE',  ( 3.697799999999999532, 0.000000000000000000, -52.54719999999999658 ) ) ;
#326 = CARTESIAN_POINT ( 'NONE',  ( -90.00000000000000000, 0.000000000000000000, 0.000000000000000000 ) ) ;
#327 = VERTEX_POINT ( 'NONE', #595 ) ;
#328 = CARTESIAN_POINT ( 'NONE',  ( 5.000000000000004441, 6.196712803685608594E-15, 50.60000000000000853 ) ) ;
#329 = ORIENTED_EDGE ( 'NONE', *, *, #1007, .T. ) ;
#330 = DIRECTION ( 'NONE',  ( 1.000000000000000000, 0.000000000000000000, 0.000000000000000000 ) ) ;
#331 = AXIS2_PLACEMENT_3D ( 'NONE', #505, #785, #688 ) ;
#332 = DIRECTION ( 'NONE',  ( 0.000000000000000000, 0.000000000000000000, -1.000000000000000000 ) ) ;
#333 = ORIENTED_EDGE ( 'NONE', *, *, #210, .T. ) ;
#334 = CIRCLE ( 'NONE', #487, 0.1021999999999967379 ) ;
#335 = DIRECTION ( 'NONE',  ( 1.000000000000000000, -0.000000000000000000, -0.000000000000000000 ) ) ;
#336 = VERTEX_POINT ( 'NONE', #411 ) ;
#337 = DIRECTION ( 'NONE',  ( 1.000000000000000000, 0.000000000000000000, 0.000000000000000000 ) ) ;
#338 = FACE_OUTER_BOUND ( 'NONE', #972, .T. ) ;
#339 = EDGE_CURVE ( 'NONE', #203, #910, #1151, .T. ) ;
#340 = FACE_OUTER_BOUND ( 'NONE', #853, .T. ) ;
#341 = ORIENTED_EDGE ( 'NONE', *, *, #237, .F. ) ;
#342 = CARTESIAN_POINT ( 'NONE',  ( -5.000000000000004441, 0.000000000000000000, 0.000000000000000000 ) ) ;
#343 = CARTESIAN_POINT ( 'NONE',  ( -3.799999999999995826, 6.435176028415578888E-15, 52.54719999999999658 ) ) ;
#344 = EDGE_CURVE ( 'NONE', #68, #761, #58, .T. ) ;
#345 = CYLINDRICAL_SURFACE ( 'NONE', #638, 52.45000000000000284 ) ;
#346 = ORIENTED_EDGE ( 'NONE', *, *, #1052, .T. ) ;
#347 = CARTESIAN_POINT ( 'NONE',  ( 5.000000000000004441, 0.000000000000000000, 0.000000000000000000 ) ) ;
#348 = DIRECTION ( 'NONE',  ( 0.000000000000000000, 0.000000000000000000, -1.000000000000000000 ) ) ;
#349 = AXIS2_PLACEMENT_3D ( 'NONE', #1087, #625, #439 ) ;
#350 = CIRCLE ( 'NONE', #1069, 56.91250000000001563 ) ;
#351 = AXIS2_PLACEMENT_3D ( 'NONE', #249, #1153, #810 ) ;
#352 = CARTESIAN_POINT ( 'NONE',  ( 3.800000000000001155, 0.000000000000000000, 0.000000000000000000 ) ) ;
#353 = AXIS2_PLACEMENT_3D ( 'NONE', #993, #441, #166 ) ;
#354 = VERTEX_POINT ( 'NONE', #1181 ) ;
#355 = DIRECTION ( 'NONE',  ( 1.000000000000000000, 0.000000000000000000, 0.000000000000000000 ) ) ;
#356 = DIRECTION ( 'NONE',  ( 0.000000000000000000, 1.224646799147366026E-16, 1.000000000000000000 ) ) ;
#357 = CARTESIAN_POINT ( 'NONE',  ( -4.400000000000001243, 0.000000000000000000, -60.00000000000002132 ) ) ;
#358 = APPLICATION_PROTOCOL_DEFINITION ( 'draft international standard', 'automotive_design', 1998, #436 ) ;
#359 = ADVANCED_FACE ( 'NONE', ( #259, #899 ), #1099, .T. ) ;
#360 = CARTESIAN_POINT ( 'NONE',  ( -90.00000000000000000, 0.000000000000000000, 0.000000000000000000 ) ) ;
#361 = CARTESIAN_POINT ( 'NONE',  ( -90.00000000000000000, 0.000000000000000000, 0.000000000000000000 ) ) ;
#362 = ORIENTED_EDGE ( 'NONE', *, *, #849, .F. ) ;
#363 = CARTESIAN_POINT ( 'NONE',  ( 4.400000000000000355, 0.000000000000000000, -50.60000000000000853 ) ) ;
#364 = CARTESIAN_POINT ( 'NONE',  ( 3.697799999999999532, 0.000000000000000000, 0.000000000000000000 ) ) ;
#365 = EDGE_CURVE ( 'NONE', #524, #689, #47, .T. ) ;
#366 = AXIS2_PLACEMENT_3D ( 'NONE', #493, #942, #951 ) ;
#367 = EDGE_CURVE ( 'NONE', #626, #59, #716, .T. ) ;
#368 = TOROIDAL_SURFACE ( 'NONE', #385, 50.60000000000000853, 0.6000000000000046407 ) ;
#369 = DIRECTION ( 'NONE',  ( 1.000000000000000000, 0.000000000000000000, 0.000000000000000000 ) ) ;
#370 = CONICAL_SURFACE ( 'NONE', #1048, 52.45000000000000284, 0.5675376247847495614 ) ;
#371 = COLOUR_RGB ( '',0.7921568627450980005, 0.8196078431372548767, 0.9333333333333333481 ) ;
#372 = EDGE_LOOP ( 'NONE', ( #57, #1028, #521, #930 ) ) ;
#373 = VECTOR ( 'NONE', #183, 1000.000000000000000 ) ;
#374 = DIRECTION ( 'NONE',  ( 1.000000000000000000, 0.000000000000000000, 0.000000000000000000 ) ) ;
#375 = EDGE_CURVE ( 'NONE', #144, #242, #927, .T. ) ;
#376 = DIRECTION ( 'NONE',  ( 0.000000000000000000, 0.000000000000000000, -1.000000000000000000 ) ) ;
#377 = FACE_OUTER_BOUND ( 'NONE', #796, .T. ) ;
#378 = CARTESIAN_POINT ( 'NONE',  ( -3.799999999999998046, 0.000000000000000000, -57.45279999999999632 ) ) ;
#379 = ORIENTED_EDGE ( 'NONE', *, *, #526, .T. ) ;
#380 = CYLINDRICAL_SURFACE ( 'NONE', #892, 57.55000000000001847 ) ;
#381 = DIRECTION ( 'NONE',  ( 0.000000000000000000, 0.000000000000000000, -1.000000000000000000 ) ) ;
#382 = EDGE_LOOP ( 'NONE', ( #559, #679, #1127, #696 ) ) ;
#383 = CARTESIAN_POINT ( 'NONE',  ( -4.400000000000006573, 0.000000000000000000, 0.000000000000000000 ) ) ;
#384 = ORIENTED_EDGE ( 'NONE', *, *, #1021, .T. ) ;
#385 = AXIS2_PLACEMENT_3D ( 'NONE', #251, #515, #619 ) ;
#386 = CYLINDRICAL_SURFACE ( 'NONE', #446, 52.45000000000000284 ) ;
#387 = AXIS2_PLACEMENT_3D ( 'NONE', #1033, #1056, #216 ) ;
#388 = ORIENTED_EDGE ( 'NONE', *, *, #190, .F. ) ;
#389 = AXIS2_PLACEMENT_3D ( 'NONE', #753, #944, #304 ) ;
#390 = DIRECTION ( 'NONE',  ( 1.000000000000000000, 0.000000000000000000, 0.000000000000000000 ) ) ;
#391 = VERTEX_POINT ( 'NONE', #81 ) ;
#392 = CARTESIAN_POINT ( 'NONE',  ( 4.400000000000001243, 0.000000000000000000, 0.000000000000000000 ) ) ;
#393 = VERTEX_POINT ( 'NONE', #1094 ) ;
#394 = DIRECTION ( 'NONE',  ( 1.000000000000000000, 0.000000000000000000, 0.000000000000000000 ) ) ;
#395 = ADVANCED_FACE ( 'NONE', ( #915 ), #90, .T. ) ;
#396 = ORIENTED_EDGE ( 'NONE', *, *, #317, .F. ) ;
#397 = LINE ( 'NONE', #195, #732 ) ;
#398 = ORIENTED_EDGE ( 'NONE', *, *, #97, .F. ) ;
#399 = DIRECTION ( 'NONE',  ( 0.000000000000000000, 0.000000000000000000, -1.000000000000000000 ) ) ;
#400 = DIRECTION ( 'NONE',  ( 0.000000000000000000, 0.000000000000000000, -1.000000000000000000 ) ) ;
#401 = ORIENTED_EDGE ( 'NONE', *, *, #684, .T. ) ;
#402 = CARTESIAN_POINT ( 'NONE',  ( -5.000000000000004441, 0.000000000000000000, -59.40000000000001279 ) ) ;
#403 = CIRCLE ( 'NONE', #425, 60.00000000000002842 ) ;
#404 = ORIENTED_EDGE ( 'NONE', *, *, #663, .T. ) ;
#405 = CARTESIAN_POINT ( 'NONE',  ( 4.400000000000001243, 0.000000000000000000, 0.000000000000000000 ) ) ;
#406 = AXIS2_PLACEMENT_3D ( 'NONE', #1024, #193, #561 ) ;
#407 = CIRCLE ( 'NONE', #312, 56.91250000000001563 ) ;
#408 = DIRECTION ( 'NONE',  ( 0.000000000000000000, 0.000000000000000000, -1.000000000000000000 ) ) ;
#409 = ORIENTED_EDGE ( 'NONE', *, *, #3, .T. ) ;
#410 = EDGE_CURVE ( 'NONE', #570, #588, #235, .T. ) ;
#411 = CARTESIAN_POINT ( 'NONE',  ( -3.729375306807701129, 0.000000000000000000, -52.45000000000000284 ) ) ;
#412 = ORIENTED_EDGE ( 'NONE', *, *, #503, .T. ) ;
#413 = LINE ( 'NONE', #1001, #680 ) ;
#414 = DIRECTION ( 'NONE',  ( 1.000000000000000000, 0.000000000000000000, 0.000000000000000000 ) ) ;
#415 = VERTEX_POINT ( 'NONE', #999 ) ;
#416 = FACE_OUTER_BOUND ( 'NONE', #141, .T. ) ;
#417 = ORIENTED_EDGE ( 'NONE', *, *, #878, .T. ) ;
#418 = EDGE_CURVE ( 'NONE', #336, #524, #968, .T. ) ;
#419 = CARTESIAN_POINT ( 'NONE',  ( 5.000000000000004441, 0.000000000000000000, 0.000000000000000000 ) ) ;
#420 = ORIENTED_EDGE ( 'NONE', *, *, #701, .F. ) ;
#421 = CARTESIAN_POINT ( 'NONE',  ( 3.697799999999999532, 0.000000000000000000, 0.000000000000000000 ) ) ;
#422 = TOROIDAL_SURFACE ( 'NONE', #1140, 59.40000000000001279, 0.6000000000000050848 ) ;
#423 = ORIENTED_EDGE ( 'NONE', *, *, #105, .F. ) ;
#424 = DIRECTION ( 'NONE',  ( 0.000000000000000000, 0.000000000000000000, -1.000000000000000000 ) ) ;
#425 = AXIS2_PLACEMENT_3D ( 'NONE', #970, #615, #147 ) ;
#426 = ADVANCED_FACE ( 'NONE', ( #459 ), #552, .F. ) ;
#427 = AXIS2_PLACEMENT_3D ( 'NONE', #920, #1110, #278 ) ;
#428 = DIRECTION ( 'NONE',  ( 0.000000000000000000, 0.000000000000000000, -1.000000000000000000 ) ) ;
#429 = ORIENTED_EDGE ( 'NONE', *, *, #463, .F. ) ;
#430 = AXIS2_PLACEMENT_3D ( 'NONE', #67, #612, #428 ) ;
#431 = CIRCLE ( 'NONE', #51, 50.00000000000000000 ) ;
#432 = FACE_OUTER_BOUND ( 'NONE', #831, .T. ) ;
#433 = VERTEX_POINT ( 'NONE', #740 ) ;
#434 = LINE ( 'NONE', #806, #103 ) ;
#435 = SURFACE_STYLE_FILL_AREA ( #160 ) ;
#436 = APPLICATION_CONTEXT ( 'automotive_design' ) ;
#437 = ADVANCED_FACE ( 'NONE', ( #93 ), #308, .T. ) ;
#438 = ADVANCED_BREP_SHAPE_REPRESENTATION ( 'radial cylindrical roller bearing_am_AFBMA 20.1 - 17-100 - 54,SI,NC,54', ( #662, #952 ), #856 ) ;
#439 = DIRECTION ( 'NONE',  ( 0.000000000000000000, 0.000000000000000000, -1.000000000000000000 ) ) ;
#440 = ORIENTED_EDGE ( 'NONE', *, *, #1193, .F. ) ;
#441 = DIRECTION ( 'NONE',  ( 1.000000000000000000, -0.000000000000000000, -0.000000000000000000 ) ) ;
#442 = DIRECTION ( 'NONE',  ( 1.000000000000000000, 0.000000000000000000, 0.000000000000000000 ) ) ;
#443 = DIRECTION ( 'NONE',  ( 0.000000000000000000, 0.000000000000000000, -1.000000000000000000 ) ) ;
#444 = EDGE_LOOP ( 'NONE', ( #1160, #1039, #409, #666 ) ) ;
#445 = AXIS2_PLACEMENT_3D ( 'NONE', #906, #816, #260 ) ;
#446 = AXIS2_PLACEMENT_3D ( 'NONE', #1038, #485, #855 ) ;
#447 = AXIS2_PLACEMENT_3D ( 'NONE', #783, #868, #838 ) ;
#448 = CIRCLE ( 'NONE', #510, 57.55000000000001847 ) ;
#449 = CARTESIAN_POINT ( 'NONE',  ( 3.999999999999989786, 0.000000000000000000, 0.000000000000000000 ) ) ;
#450 = ADVANCED_FACE ( 'NONE', ( #641 ), #455, .F. ) ;
#451 = UNCERTAINTY_MEASURE_WITH_UNIT (LENGTH_MEASURE( 1.000000000000000082E-05 ), #1186, 'distance_accuracy_value', 'NONE');
#452 = DIRECTION ( 'NONE',  ( 0.000000000000000000, 0.000000000000000000, -1.000000000000000000 ) ) ;
#453 = DIRECTION ( 'NONE',  ( 0.000000000000000000, 0.000000000000000000, 1.000000000000000000 ) ) ;
#454 = EDGE_CURVE ( 'NONE', #217, #207, #1182, .T. ) ;
#455 = CYLINDRICAL_SURFACE ( 'NONE', #621, 56.91250000000001563 ) ;
#456 = EDGE_CURVE ( 'NONE', #1060, #516, #581, .T. ) ;
#457 = EDGE_LOOP ( 'NONE', ( #417, #117, #939, #37 ) ) ;
#458 = FACE_OUTER_BOUND ( 'NONE', #1078, .T. ) ;
#459 = FACE_OUTER_BOUND ( 'NONE', #498, .T. ) ;
#460 = PRODUCT_DEFINITION_CONTEXT ( 'detailed design', #728, 'design' ) ;
#461 = EDGE_LOOP ( 'NONE', ( #768, #1041 ) ) ;
#462 = CYLINDRICAL_SURFACE ( 'NONE', #1012, 56.91250000000001563 ) ;
#463 = EDGE_CURVE ( 'NONE', #433, #1168, #179, .T. ) ;
#464 = CIRCLE ( 'NONE', #1086, 57.55000000000001847 ) ;
#465 = VECTOR ( 'NONE', #726, 1000.000000000000000 ) ;
#466 = FACE_OUTER_BOUND ( 'NONE', #1138, .T. ) ;
#467 = AXIS2_PLACEMENT_3D ( 'NONE', #326, #1119, #656 ) ;
#468 = AXIS2_PLACEMENT_3D ( 'NONE', #528, #794, #1079 ) ;
#469 =( NAMED_UNIT ( * ) PLANE_ANGLE_UNIT ( ) SI_UNIT ( $, .RADIAN. ) );
#470 = CIRCLE ( 'NONE', #127, 52.54719999999999658 ) ;
#471 = CIRCLE ( 'NONE', #658, 0.6000000000000033085 ) ;
#472 = CARTESIAN_POINT ( 'NONE',  ( 5.000000000000004441, 0.000000000000000000, 51.81250000000000711 ) ) ;
#473 = ORIENTED_EDGE ( 'NONE', *, *, #526, .F. ) ;
#474 = CARTESIAN_POINT ( 'NONE',  ( -90.00000000000000000, 0.000000000000000000, 0.000000000000000000 ) ) ;
#475 = CARTESIAN_POINT ( 'NONE',  ( -90.00000000000000000, 6.423272461527868460E-15, 52.45000000000000284 ) ) ;
#476 = ORIENTED_EDGE ( 'NONE', *, *, #1145, .T. ) ;
#477 = DIRECTION ( 'NONE',  ( 0.000000000000000000, 0.000000000000000000, -1.000000000000000000 ) ) ;
#478 = VERTEX_POINT ( 'NONE', #538 ) ;
#479 = CARTESIAN_POINT ( 'NONE',  ( -3.799999999999995826, 0.000000000000000000, -52.54719999999999658 ) ) ;
#480 = ORIENTED_EDGE ( 'NONE', *, *, #1052, .F. ) ;
#481 = DIRECTION ( 'NONE',  ( 1.000000000000000000, 0.000000000000000000, 0.000000000000000000 ) ) ;
#482 = VERTEX_POINT ( 'NONE', #909 ) ;
#483 = AXIS2_PLACEMENT_3D ( 'NONE', #174, #822, #181 ) ;
#484 = CIRCLE ( 'NONE', #946, 57.45279999999999632 ) ;
#485 = DIRECTION ( 'NONE',  ( 1.000000000000000000, 0.000000000000000000, 0.000000000000000000 ) ) ;
#486 = ADVANCED_FACE ( 'NONE', ( #808 ), #345, .T. ) ;
#487 = AXIS2_PLACEMENT_3D ( 'NONE', #191, #1117, #1018 ) ;
#488 = ORIENTED_EDGE ( 'NONE', *, *, #878, .F. ) ;
#489 = ADVANCED_FACE ( 'NONE', ( #466 ), #380, .F. ) ;
#490 = CIRCLE ( 'NONE', #950, 51.81250000000000711 ) ;
#491 = DIRECTION ( 'NONE',  ( 0.000000000000000000, 0.000000000000000000, -1.000000000000000000 ) ) ;
#492 = ORIENTED_EDGE ( 'NONE', *, *, #339, .T. ) ;
#493 = CARTESIAN_POINT ( 'NONE',  ( -5.000000000000004441, 0.000000000000000000, 0.000000000000000000 ) ) ;
#494 = ADVANCED_FACE ( 'NONE', ( #497 ), #370, .T. ) ;
#495 = VERTEX_POINT ( 'NONE', #1019 ) ;
#496 = DIRECTION ( 'NONE',  ( 1.000000000000000000, 0.000000000000000000, 0.000000000000000000 ) ) ;
#497 = FACE_OUTER_BOUND ( 'NONE', #1130, .T. ) ;
#498 = EDGE_LOOP ( 'NONE', ( #1185, #842, #893, #781 ) ) ;
#499 = CARTESIAN_POINT ( 'NONE',  ( 3.999999999999989786, 6.969771095647375794E-15, 56.91250000000001563 ) ) ;
#500 = EDGE_LOOP ( 'NONE', ( #809, #553, #756, #672 ) ) ;
#501 = CARTESIAN_POINT ( 'NONE',  ( 5.000000000000004441, 0.000000000000000000, 0.000000000000000000 ) ) ;
#502 = CARTESIAN_POINT ( 'NONE',  ( -3.697800000000000420, 0.000000000000000000, 0.000000000000000000 ) ) ;
#503 = EDGE_CURVE ( 'NONE', #570, #963, #530, .T. ) ;
#504 = ORIENTED_EDGE ( 'NONE', *, *, #714, .T. ) ;
#505 = CARTESIAN_POINT ( 'NONE',  ( -90.00000000000000000, 0.000000000000000000, 0.000000000000000000 ) ) ;
#506 = AXIS2_PLACEMENT_3D ( 'NONE', #421, #865, #241 ) ;
#507 = ORIENTED_EDGE ( 'NONE', *, *, #1081, .T. ) ;
#508 = CARTESIAN_POINT ( 'NONE',  ( -4.000000000000003553, 6.423272461527868460E-15, 52.45000000000000284 ) ) ;
#509 = CIRCLE ( 'NONE', #991, 59.40000000000001279 ) ;
#510 = AXIS2_PLACEMENT_3D ( 'NONE', #142, #1061, #771 ) ;
#511 = CARTESIAN_POINT ( 'NONE',  ( -5.000000000000004441, 0.000000000000000000, 0.000000000000000000 ) ) ;
#512 = ORIENTED_EDGE ( 'NONE', *, *, #775, .F. ) ;
#513 = AXIS2_PLACEMENT_3D ( 'NONE', #522, #886, #817 ) ;
#514 = EDGE_CURVE ( 'NONE', #585, #1124, #8, .T. ) ;
#515 = DIRECTION ( 'NONE',  ( 1.000000000000000000, 0.000000000000000000, 0.000000000000000000 ) ) ;
#516 = VERTEX_POINT ( 'NONE', #138 ) ;
#517 = DIRECTION ( 'NONE',  ( 1.000000000000000000, 0.000000000000000000, 0.000000000000000000 ) ) ;
#518 = DIRECTION ( 'NONE',  ( 1.000000000000000000, -0.000000000000000000, -0.000000000000000000 ) ) ;
#519 = ORIENTED_EDGE ( 'NONE', *, *, #367, .F. ) ;
#520 = DIRECTION ( 'NONE',  ( 1.000000000000000000, 0.000000000000000000, 0.000000000000000000 ) ) ;
#521 = ORIENTED_EDGE ( 'NONE', *, *, #33, .T. ) ;
#522 = CARTESIAN_POINT ( 'NONE',  ( 3.999999999999989786, 0.000000000000000000, 0.000000000000000000 ) ) ;
#523 = DIRECTION ( 'NONE',  ( 1.000000000000000000, 0.000000000000000000, 0.000000000000000000 ) ) ;
#524 = VERTEX_POINT ( 'NONE', #132 ) ;
#525 = CYLINDRICAL_SURFACE ( 'NONE', #331, 52.45000000000000284 ) ;
#526 = EDGE_CURVE ( 'NONE', #1060, #242, #836, .T. ) ;
#527 = ORIENTED_EDGE ( 'NONE', *, *, #1116, .F. ) ;
#528 = CARTESIAN_POINT ( 'NONE',  ( -4.400000000000001243, 0.000000000000000000, 0.000000000000000000 ) ) ;
#529 = ADVANCED_FACE ( 'NONE', ( #1149 ), #834, .T. ) ;
#530 = CIRCLE ( 'NONE', #757, 60.00000000000002842 ) ;
#531 = CARTESIAN_POINT ( 'NONE',  ( -5.000000000000004441, 6.969771095647375794E-15, 56.91250000000001563 ) ) ;
#532 = CIRCLE ( 'NONE', #605, 59.40000000000001279 ) ;
#533 = TOROIDAL_SURFACE ( 'NONE', #389, 52.54719999999999658, 0.1021999999999947811 ) ;
#534 = DIRECTION ( 'NONE',  ( 1.000000000000000000, 0.000000000000000000, 0.000000000000000000 ) ) ;
#535 = EDGE_LOOP ( 'NONE', ( #1102, #763, #65, #1113 ) ) ;
#536 = CARTESIAN_POINT ( 'NONE',  ( -4.400000000000000355, 0.000000000000000000, -50.60000000000000853 ) ) ;
#537 = CARTESIAN_POINT ( 'NONE',  ( 3.729375306807714008, 0.000000000000000000, -52.45000000000000284 ) ) ;
#538 = CARTESIAN_POINT ( 'NONE',  ( -5.000000000000004441, 7.311141390909699073E-15, 59.40000000000001279 ) ) ;
#539 = DIRECTION ( 'NONE',  ( 0.000000000000000000, 0.000000000000000000, -1.000000000000000000 ) ) ;
#540 = CARTESIAN_POINT ( 'NONE',  ( -90.00000000000000000, 0.000000000000000000, -50.00000000000000000 ) ) ;
#541 = CARTESIAN_POINT ( 'NONE',  ( 3.999999999999989786, 0.000000000000000000, -57.55000000000001137 ) ) ;
#542 = EDGE_CURVE ( 'NONE', #478, #230, #509, .T. ) ;
#543 = DIRECTION ( 'NONE',  ( 0.000000000000000000, 0.000000000000000000, 1.000000000000000000 ) ) ;
#544 = DIRECTION ( 'NONE',  ( 1.000000000000000000, 0.000000000000000000, 0.000000000000000000 ) ) ;
#545 = CARTESIAN_POINT ( 'NONE',  ( 0.000000000000000000, 0.000000000000000000, 0.000000000000000000 ) ) ;
#546 = DIRECTION ( 'NONE',  ( 0.000000000000000000, 0.000000000000000000, -1.000000000000000000 ) ) ;
#547 = CIRCLE ( 'NONE', #995, 52.45000000000000284 ) ;
#548 = DIRECTION ( 'NONE',  ( 1.000000000000000000, 0.000000000000000000, 0.000000000000000000 ) ) ;
#549 = EDGE_CURVE ( 'NONE', #242, #144, #639, .T. ) ;
#550 = DIRECTION ( 'NONE',  ( 0.000000000000000000, -1.000000000000000000, 0.000000000000000000 ) ) ;
#551 = DIRECTION ( 'NONE',  ( 1.000000000000000000, 0.000000000000000000, 0.000000000000000000 ) ) ;
#552 = CYLINDRICAL_SURFACE ( 'NONE', #273, 50.00000000000000000 ) ;
#553 = ORIENTED_EDGE ( 'NONE', *, *, #661, .F. ) ;
#554 = ADVANCED_FACE ( 'NONE', ( #14 ), #284, .F. ) ;
#555 = FACE_BOUND ( 'NONE', #955, .T. ) ;
#556 = DIRECTION ( 'NONE',  ( 1.000000000000000000, -0.000000000000000000, -0.000000000000000000 ) ) ;
#557 = DIRECTION ( 'NONE',  ( -1.000000000000000000, 0.000000000000000000, 0.000000000000000000 ) ) ;
#558 = DIRECTION ( 'NONE',  ( 0.000000000000000000, 0.000000000000000000, -1.000000000000000000 ) ) ;
#559 = ORIENTED_EDGE ( 'NONE', *, *, #151, .F. ) ;
#560 = VECTOR ( 'NONE', #879, 1000.000000000000000 ) ;
#561 = DIRECTION ( 'NONE',  ( 0.000000000000000000, 0.000000000000000000, -1.000000000000000000 ) ) ;
#562 = AXIS2_PLACEMENT_3D ( 'NONE', #79, #898, #244 ) ;
#563 = AXIS2_PLACEMENT_3D ( 'NONE', #586, #1123, #1148 ) ;
#564 = CARTESIAN_POINT ( 'NONE',  ( -90.00000000000000000, 0.000000000000000000, -60.00000000000002842 ) ) ;
#565 = CIRCLE ( 'NONE', #12, 56.91250000000001563 ) ;
#566 = EDGE_LOOP ( 'NONE', ( #473, #900, #877, #20 ) ) ;
#567 = DIRECTION ( 'NONE',  ( 0.000000000000000000, 0.000000000000000000, -1.000000000000000000 ) ) ;
#568 = VERTEX_POINT ( 'NONE', #960 ) ;
#569 = CARTESIAN_POINT ( 'NONE',  ( -5.000000000000004441, 6.384236844805046790E-15, 51.81250000000000711 ) ) ;
#570 = VERTEX_POINT ( 'NONE', #290 ) ;
#571 = CARTESIAN_POINT ( 'NONE',  ( 3.799999999999998046, 0.000000000000000000, -52.54719999999999658 ) ) ;
#572 = EDGE_LOOP ( 'NONE', ( #793, #674, #1084, #125 ) ) ;
#573 = EDGE_CURVE ( 'NONE', #524, #336, #215, .T. ) ;
#574 = DIRECTION ( 'NONE',  ( -1.000000000000000000, 0.000000000000000000, -0.000000000000000000 ) ) ;
#575 = ORIENTED_EDGE ( 'NONE', *, *, #456, .F. ) ;
#576 = FACE_OUTER_BOUND ( 'NONE', #238, .T. ) ;
#577 = VECTOR ( 'NONE', #285, 1000.000000000000000 ) ;
#578 = ORIENTED_EDGE ( 'NONE', *, *, #1083, .F. ) ;
#579 = CIRCLE ( 'NONE', #1121, 0.6000000000000033085 ) ;
#580 = ADVANCED_FACE ( 'NONE', ( #188 ), #1106, .T. ) ;
#581 = CIRCLE ( 'NONE', #427, 57.55000000000001847 ) ;
#582 = LINE ( 'NONE', #475, #772 ) ;
#583 = ADVANCED_FACE ( 'NONE', ( #229 ), #949, .T. ) ;
#584 = AXIS2_PLACEMENT_3D ( 'NONE', #502, #587, #48 ) ;
#585 = VERTEX_POINT ( 'NONE', #932 ) ;
#586 = CARTESIAN_POINT ( 'NONE',  ( 3.799999999999998490, 52.54719999999999658, 0.000000000000000000 ) ) ;
#587 = DIRECTION ( 'NONE',  ( 1.000000000000000000, -0.000000000000000000, -0.000000000000000000 ) ) ;
#588 = VERTEX_POINT ( 'NONE', #224 ) ;
#589 = PLANE ( 'NONE',  #98 ) ;
#590 = EDGE_CURVE ( 'NONE', #588, #495, #622, .T. ) ;
#591 = ORIENTED_EDGE ( 'NONE', *, *, #738, .T. ) ;
#592 = CARTESIAN_POINT ( 'NONE',  ( -4.400000000000006573, 7.274401986935279791E-15, 59.40000000000001279 ) ) ;
#593 = DIRECTION ( 'NONE',  ( 0.000000000000000000, 0.000000000000000000, -1.000000000000000000 ) ) ;
#594 = ORIENTED_EDGE ( 'NONE', *, *, #33, .F. ) ;
#595 = CARTESIAN_POINT ( 'NONE',  ( 4.400000000000001243, 6.123233995736765296E-15, 49.99999999999999289 ) ) ;
#596 = ORIENTED_EDGE ( 'NONE', *, *, #676, .F. ) ;
#597 = DIRECTION ( 'NONE',  ( 0.000000000000000000, 1.224646799147359124E-16, 1.000000000000000000 ) ) ;
#598 = EDGE_CURVE ( 'NONE', #516, #144, #1143, .T. ) ;
#599 = CARTESIAN_POINT ( 'NONE',  ( 5.000000000000004441, 0.000000000000000000, 0.000000000000000000 ) ) ;
#600 = VERTEX_POINT ( 'NONE', #650 ) ;
#601 = AXIS2_PLACEMENT_3D ( 'NONE', #202, #38, #1051 ) ;
#602 = DIRECTION ( 'NONE',  ( 1.000000000000000000, 0.000000000000000000, 0.000000000000000000 ) ) ;
#603 = EDGE_LOOP ( 'NONE', ( #1100, #848, #681, #362 ) ) ;
#604 = CARTESIAN_POINT ( 'NONE',  ( -3.799999999999998046, 0.000000000000000000, 0.000000000000000000 ) ) ;
#605 = AXIS2_PLACEMENT_3D ( 'NONE', #802, #61, #1178 ) ;
#606 = CIRCLE ( 'NONE', #699, 50.60000000000000853 ) ;
#607 = SURFACE_STYLE_USAGE ( .BOTH. , #1002 ) ;
#608 = ORIENTED_EDGE ( 'NONE', *, *, #661, .T. ) ;
#609 = VECTOR ( 'NONE', #840, 1000.000000000000000 ) ;
#610 = ORIENTED_EDGE ( 'NONE', *, *, #13, .F. ) ;
#611 = DIRECTION ( 'NONE',  ( 1.000000000000000000, -0.000000000000000000, -0.000000000000000000 ) ) ;
#612 = DIRECTION ( 'NONE',  ( 1.000000000000000000, 0.000000000000000000, 0.000000000000000000 ) ) ;
#613 = ORIENTED_EDGE ( 'NONE', *, *, #959, .T. ) ;
#614 = EDGE_CURVE ( 'NONE', #585, #941, #257, .T. ) ;
#615 = DIRECTION ( 'NONE',  ( 1.000000000000000000, 0.000000000000000000, 0.000000000000000000 ) ) ;
#616 = EDGE_LOOP ( 'NONE', ( #115, #980, #420, #324 ) ) ;
#617 = DIRECTION ( 'NONE',  ( 0.000000000000000000, 0.000000000000000000, -1.000000000000000000 ) ) ;
#618 = CARTESIAN_POINT ( 'NONE',  ( -3.799999999999998046, 0.000000000000000000, 0.000000000000000000 ) ) ;
#619 = DIRECTION ( 'NONE',  ( 0.000000000000000000, 0.000000000000000000, -1.000000000000000000 ) ) ;
#620 = VERTEX_POINT ( 'NONE', #537 ) ;
#621 = AXIS2_PLACEMENT_3D ( 'NONE', #1189, #184, #169 ) ;
#622 = CIRCLE ( 'NONE', #929, 59.40000000000001279 ) ;
#623 = DIRECTION ( 'NONE',  ( 0.000000000000000000, 0.000000000000000000, -1.000000000000000000 ) ) ;
#624 = AXIS2_PLACEMENT_3D ( 'NONE', #342, #78, #74 ) ;
#625 = DIRECTION ( 'NONE',  ( 0.000000000000000000, -1.000000000000000000, 0.000000000000000000 ) ) ;
#626 = VERTEX_POINT ( 'NONE', #541 ) ;
#627 = CARTESIAN_POINT ( 'NONE',  ( 4.000000000000003553, 0.000000000000000000, -52.45000000000000284 ) ) ;
#628 = EDGE_CURVE ( 'NONE', #689, #111, #102, .T. ) ;
#629 = DIRECTION ( 'NONE',  ( 1.000000000000000000, 0.000000000000000000, 0.000000000000000000 ) ) ;
#630 = CARTESIAN_POINT ( 'NONE',  ( -3.729375306807701129, 0.000000000000000000, 0.000000000000000000 ) ) ;
#631 = DIRECTION ( 'NONE',  ( 0.000000000000000000, 0.000000000000000000, -1.000000000000000000 ) ) ;
#632 = FACE_OUTER_BOUND ( 'NONE', #659, .T. ) ;
#633 = PRODUCT_RELATED_PRODUCT_CATEGORY ( 'part', '', ( #918 ) ) ;
#634 = EDGE_CURVE ( 'NONE', #393, #826, #1089, .T. ) ;
#635 = DIRECTION ( 'NONE',  ( 1.000000000000000000, 0.000000000000000000, 0.000000000000000000 ) ) ;
#636 = VECTOR ( 'NONE', #956, 1000.000000000000000 ) ;
#637 = LINE ( 'NONE', #472, #373 ) ;
#638 = AXIS2_PLACEMENT_3D ( 'NONE', #821, #713, #905 ) ;
#639 = CIRCLE ( 'NONE', #912, 57.45279999999999632 ) ;
#640 = AXIS2_PLACEMENT_3D ( 'NONE', #766, #1133, #673 ) ;
#641 = FACE_OUTER_BOUND ( 'NONE', #500, .T. ) ;
#642 = AXIS2_PLACEMENT_3D ( 'NONE', #261, #1177, #690 ) ;
#643 = ORIENTED_EDGE ( 'NONE', *, *, #959, .F. ) ;
#644 = DIRECTION ( 'NONE',  ( 0.000000000000000000, 1.000000000000000000, -1.224646799147353207E-16 ) ) ;
#645 = CARTESIAN_POINT ( 'NONE',  ( -4.400000000000001243, 0.000000000000000000, 0.000000000000000000 ) ) ;
#646 = FACE_OUTER_BOUND ( 'NONE', #73, .T. ) ;
#647 = APPLICATION_PROTOCOL_DEFINITION ( 'draft international standard', 'automotive_design', 1998, #728 ) ;
#648 = CARTESIAN_POINT ( 'NONE',  ( 3.799999999999998046, 0.000000000000000000, 0.000000000000000000 ) ) ;
#649 = ORIENTED_EDGE ( 'NONE', *, *, #339, .F. ) ;
#650 = CARTESIAN_POINT ( 'NONE',  ( 4.000000000000003553, 6.423272461527868460E-15, 52.45000000000000284 ) ) ;
#651 = DIRECTION ( 'NONE',  ( 1.000000000000000000, 0.000000000000000000, 0.000000000000000000 ) ) ;
#652 = VERTEX_POINT ( 'NONE', #531 ) ;
#653 = FACE_OUTER_BOUND ( 'NONE', #535, .T. ) ;
#654 = ORIENTED_EDGE ( 'NONE', *, *, #598, .F. ) ;
#655 = AXIS2_PLACEMENT_3D ( 'NONE', #352, #830, #1009 ) ;
#656 = DIRECTION ( 'NONE',  ( 0.000000000000000000, 0.000000000000000000, -1.000000000000000000 ) ) ;
#657 = CARTESIAN_POINT ( 'NONE',  ( 5.000000000000004441, 6.345201228082224330E-15, -51.81250000000000711 ) ) ;
#658 = AXIS2_PLACEMENT_3D ( 'NONE', #363, #83, #7 ) ;
#659 = EDGE_LOOP ( 'NONE', ( #1072, #504 ) ) ;
#660 = FACE_BOUND ( 'NONE', #293, .T. ) ;
#661 = EDGE_CURVE ( 'NONE', #752, #652, #778, .T. ) ;
#662 = MANIFOLD_SOLID_BREP ( 'InnerRace', #776 ) ;
#663 = EDGE_CURVE ( 'NONE', #391, #253, #717, .T. ) ;
#664 = EDGE_LOOP ( 'NONE', ( #384, #613 ) ) ;
#665 = CARTESIAN_POINT ( 'NONE',  ( 3.999999999999993339, 56.91250000000001563, 0.000000000000000000 ) ) ;
#666 = ORIENTED_EDGE ( 'NONE', *, *, #52, .T. ) ;
#667 = FACE_BOUND ( 'NONE', #305, .T. ) ;
#668 = EDGE_CURVE ( 'NONE', #433, #327, #1075, .T. ) ;
#669 = EDGE_LOOP ( 'NONE', ( #705, #1000 ) ) ;
#670 = EDGE_CURVE ( 'NONE', #1054, #600, #818, .T. ) ;
#671 = DIRECTION ( 'NONE',  ( 1.000000000000000000, 0.000000000000000000, 0.000000000000000000 ) ) ;
#672 = ORIENTED_EDGE ( 'NONE', *, *, #676, .T. ) ;
#673 = DIRECTION ( 'NONE',  ( 0.000000000000000000, 0.000000000000000000, -1.000000000000000000 ) ) ;
#674 = ORIENTED_EDGE ( 'NONE', *, *, #1136, .T. ) ;
#675 = CIRCLE ( 'NONE', #161, 52.45000000000000284 ) ;
#676 = EDGE_CURVE ( 'NONE', #39, #354, #350, .T. ) ;
#677 = DIRECTION ( 'NONE',  ( 1.000000000000000000, 0.000000000000000000, 0.000000000000000000 ) ) ;
#678 = STYLED_ITEM ( 'NONE', ( #692 ), #662 ) ;
#679 = ORIENTED_EDGE ( 'NONE', *, *, #904, .T. ) ;
#680 = VECTOR ( 'NONE', #788, 1000.000000000000000 ) ;
#681 = ORIENTED_EDGE ( 'NONE', *, *, #896, .T. ) ;
#682 = DIRECTION ( 'NONE',  ( 0.000000000000000000, 1.000000000000000000, -1.224646799147353207E-16 ) ) ;
#683 = VERTEX_POINT ( 'NONE', #887 ) ;
#684 = EDGE_CURVE ( 'NONE', #230, #478, #532, .T. ) ;
#685 = DIRECTION ( 'NONE',  ( 0.000000000000000000, 0.000000000000000000, -1.000000000000000000 ) ) ;
#686 = DIRECTION ( 'NONE',  ( 1.000000000000000000, -0.000000000000000000, -0.000000000000000000 ) ) ;
#687 = ORIENTED_EDGE ( 'NONE', *, *, #1116, .T. ) ;
#688 = DIRECTION ( 'NONE',  ( 0.000000000000000000, 0.000000000000000000, -1.000000000000000000 ) ) ;
#689 = VERTEX_POINT ( 'NONE', #343 ) ;
#690 = DIRECTION ( 'NONE',  ( 0.000000000000000000, 0.000000000000000000, -1.000000000000000000 ) ) ;
#691 = ADVANCED_FACE ( 'NONE', ( #338 ), #1167, .F. ) ;
#692 = PRESENTATION_STYLE_ASSIGNMENT (( #607 ) ) ;
#693 = ORIENTED_EDGE ( 'NONE', *, *, #200, .T. ) ;
#694 = DIRECTION ( 'NONE',  ( 1.000000000000000000, 0.000000000000000000, 0.000000000000000000 ) ) ;
#695 = TOROIDAL_SURFACE ( 'NONE', #736, 57.45279999999999632, 0.1021999999999980424 ) ;
#696 = ORIENTED_EDGE ( 'NONE', *, *, #937, .F. ) ;
#697 = DIRECTION ( 'NONE',  ( 0.000000000000000000, 0.000000000000000000, -1.000000000000000000 ) ) ;
#698 = AXIS2_PLACEMENT_3D ( 'NONE', #255, #1159, #623 ) ;
#699 = AXIS2_PLACEMENT_3D ( 'NONE', #935, #92, #477 ) ;
#700 = DIRECTION ( 'NONE',  ( 0.000000000000000000, 0.000000000000000000, -1.000000000000000000 ) ) ;
#701 = EDGE_CURVE ( 'NONE', #620, #1124, #737, .T. ) ;
#702 = VERTEX_POINT ( 'NONE', #707 ) ;
#703 = CIRCLE ( 'NONE', #513, 57.55000000000001137 ) ;
#704 = CARTESIAN_POINT ( 'NONE',  ( -90.00000000000000000, 0.000000000000000000, 0.000000000000000000 ) ) ;
#705 = ORIENTED_EDGE ( 'NONE', *, *, #375, .T. ) ;
#706 = FACE_OUTER_BOUND ( 'NONE', #209, .T. ) ;
#707 = CARTESIAN_POINT ( 'NONE',  ( -4.000000000000003553, 0.000000000000000000, -57.55000000000001847 ) ) ;
#708 = ADVANCED_FACE ( 'NONE', ( #262 ), #1085, .T. ) ;
#709 = FACE_OUTER_BOUND ( 'NONE', #616, .T. ) ;
#710 = ORIENTED_EDGE ( 'NONE', *, *, #792, .T. ) ;
#711 = CARTESIAN_POINT ( 'NONE',  ( -3.697799999999999088, 0.000000000000000000, 0.000000000000000000 ) ) ;
#712 = CARTESIAN_POINT ( 'NONE',  ( -90.00000000000000000, 0.000000000000000000, 0.000000000000000000 ) ) ;
#713 = DIRECTION ( 'NONE',  ( 1.000000000000000000, 0.000000000000000000, 0.000000000000000000 ) ) ;
#714 = EDGE_CURVE ( 'NONE', #495, #588, #29, .T. ) ;
#715 = CYLINDRICAL_SURFACE ( 'NONE', #994, 57.55000000000001847 ) ;
#716 = CIRCLE ( 'NONE', #28, 57.55000000000001137 ) ;
#717 = CIRCLE ( 'NONE', #430, 56.91250000000001563 ) ;
#718 = DIRECTION ( 'NONE',  ( 1.000000000000000000, -0.000000000000000000, -0.000000000000000000 ) ) ;
#719 = CIRCLE ( 'NONE', #759, 52.45000000000000284 ) ;
#720 = DIRECTION ( 'NONE',  ( 0.000000000000000000, 1.000000000000000000, -1.224646799147353207E-16 ) ) ;
#721 = ADVANCED_FACE ( 'NONE', ( #1022 ), #462, .F. ) ;
#722 = CARTESIAN_POINT ( 'NONE',  ( -3.729375306807627410, 7.047842329093019925E-15, 57.55000000000001847 ) ) ;
#723 =( NAMED_UNIT ( * ) SI_UNIT ( $, .STERADIAN. ) SOLID_ANGLE_UNIT ( ) );
#724 = EDGE_CURVE ( 'NONE', #336, #111, #334, .T. ) ;
#725 = DIRECTION ( 'NONE',  ( 1.000000000000000000, 0.000000000000000000, 0.000000000000000000 ) ) ;
#726 = DIRECTION ( 'NONE',  ( 0.8432271980573250447, 0.000000000000000000, -0.5375573387615434351 ) ) ;
#727 = ORIENTED_EDGE ( 'NONE', *, *, #1136, .F. ) ;
#728 = APPLICATION_CONTEXT ( 'automotive_design' ) ;
#729 = DIRECTION ( 'NONE',  ( 1.000000000000000000, 0.000000000000000000, 0.000000000000000000 ) ) ;
#730 = PRODUCT_DEFINITION_SHAPE ( 'NONE', 'NONE',  #977 ) ;
#731 = DIRECTION ( 'NONE',  ( 0.000000000000000000, 0.000000000000000000, -1.000000000000000000 ) ) ;
#732 = VECTOR ( 'NONE', #769, 1000.000000000000000 ) ;
#733 = EDGE_LOOP ( 'NONE', ( #1157, #1179, #302, #1171 ) ) ;
#734 = CIRCLE ( 'NONE', #212, 60.00000000000002132 ) ;
#735 = DIRECTION ( 'NONE',  ( 1.000000000000000000, -0.000000000000000000, -0.000000000000000000 ) ) ;
#736 = AXIS2_PLACEMENT_3D ( 'NONE', #152, #335, #890 ) ;
#737 = CIRCLE ( 'NONE', #758, 52.45000000000000284 ) ;
#738 = EDGE_CURVE ( 'NONE', #516, #626, #919, .T. ) ;
#739 = CIRCLE ( 'NONE', #218, 57.55000000000001847 ) ;
#740 = CARTESIAN_POINT ( 'NONE',  ( -4.400000000000001243, 6.159973399711186945E-15, 50.00000000000000000 ) ) ;
#741 = CARTESIAN_POINT ( 'NONE',  ( 3.999999999999989786, 0.000000000000000000, 0.000000000000000000 ) ) ;
#742 = CARTESIAN_POINT ( 'NONE',  ( -90.00000000000000000, 0.000000000000000000, -52.45000000000000284 ) ) ;
#743 = DIRECTION ( 'NONE',  ( 1.000000000000000000, 0.000000000000000000, 0.000000000000000000 ) ) ;
#744 = DIRECTION ( 'NONE',  ( 0.000000000000000000, 0.000000000000000000, -1.000000000000000000 ) ) ;
#745 = DIRECTION ( 'NONE',  ( 0.000000000000000000, 0.000000000000000000, -1.000000000000000000 ) ) ;
#746 = SHAPE_DEFINITION_REPRESENTATION ( #730, #438 ) ;
#747 = CARTESIAN_POINT ( 'NONE',  ( 3.697799999999999532, 0.000000000000000000, 0.000000000000000000 ) ) ;
#748 = ORIENTED_EDGE ( 'NONE', *, *, #775, .T. ) ;
#749 = CARTESIAN_POINT ( 'NONE',  ( 3.697799999999999532, 7.035938762205305553E-15, 57.45279999999999632 ) ) ;
#750 = DIRECTION ( 'NONE',  ( 1.000000000000000000, 0.000000000000000000, 0.000000000000000000 ) ) ;
#751 = ADVANCED_FACE ( 'NONE', ( #632, #555 ), #110, .T. ) ;
#752 = VERTEX_POINT ( 'NONE', #288 ) ;
#753 = CARTESIAN_POINT ( 'NONE',  ( -3.697799999999999088, 0.000000000000000000, 0.000000000000000000 ) ) ;
#754 = TOROIDAL_SURFACE ( 'NONE', #256, 50.60000000000000853, 0.6000000000000046407 ) ;
#755 = CIRCLE ( 'NONE', #194, 49.99999999999999289 ) ;
#756 = ORIENTED_EDGE ( 'NONE', *, *, #1042, .T. ) ;
#757 = AXIS2_PLACEMENT_3D ( 'NONE', #313, #844, #1114 ) ;
#758 = AXIS2_PLACEMENT_3D ( 'NONE', #1093, #1080, #250 ) ;
#759 = AXIS2_PLACEMENT_3D ( 'NONE', #1013, #551, #546 ) ;
#760 = CARTESIAN_POINT ( 'NONE',  ( -4.400000000000006573, 0.000000000000000000, 0.000000000000000000 ) ) ;
#761 = VERTEX_POINT ( 'NONE', #199 ) ;
#762 = LINE ( 'NONE', #295, #294 ) ;
#763 = ORIENTED_EDGE ( 'NONE', *, *, #614, .T. ) ;
#764 = DIRECTION ( 'NONE',  ( 1.000000000000000000, 0.000000000000000000, 0.000000000000000000 ) ) ;
#765 = ORIENTED_EDGE ( 'NONE', *, *, #323, .T. ) ;
#766 = CARTESIAN_POINT ( 'NONE',  ( 5.000000000000002665, 50.60000000000000853, 0.000000000000000000 ) ) ;
#767 = EDGE_CURVE ( 'NONE', #963, #495, #800, .T. ) ;
#768 = ORIENTED_EDGE ( 'NONE', *, *, #13, .T. ) ;
#769 = DIRECTION ( 'NONE',  ( 1.000000000000000000, 0.000000000000000000, 0.000000000000000000 ) ) ;
#770 = EDGE_LOOP ( 'NONE', ( #643, #1076, #248, #864 ) ) ;
#771 = DIRECTION ( 'NONE',  ( 0.000000000000000000, 0.000000000000000000, -1.000000000000000000 ) ) ;
#772 = VECTOR ( 'NONE', #1025, 1000.000000000000000 ) ;
#773 = DIRECTION ( 'NONE',  ( 1.000000000000000000, 0.000000000000000000, 0.000000000000000000 ) ) ;
#774 = VERTEX_POINT ( 'NONE', #1097 ) ;
#775 = EDGE_CURVE ( 'NONE', #1023, #683, #606, .T. ) ;
#776 = CLOSED_SHELL ( 'NONE', ( #437, #36, #554, #306, #24, #205, #219, #829, #252, #1098, #265, #1059, #786, #1109, #286, #64, #296, #489, #978, #777, #450, #807, #835, #395, #42, #751, #721, #95, #691, #580, #359, #916, #815, #928, #583, #708, #486, #494, #186, #529, #426, #129, #1003, #1015 ) ) ;
#777 = ADVANCED_FACE ( 'NONE', ( #96, #833 ), #10, .T. ) ;
#778 = CIRCLE ( 'NONE', #562, 56.91250000000001563 ) ;
#779 = CARTESIAN_POINT ( 'NONE',  ( 4.400000000000000355, 6.196712803685608594E-15, 50.60000000000000853 ) ) ;
#780 = TOROIDAL_SURFACE ( 'NONE', #931, 52.54719999999999658, 0.1021999999999947811 ) ;
#781 = ORIENTED_EDGE ( 'NONE', *, *, #880, .T. ) ;
#782 = DIRECTION ( 'NONE',  ( 1.000000000000000000, 0.000000000000000000, 0.000000000000000000 ) ) ;
#783 = CARTESIAN_POINT ( 'NONE',  ( 3.697799999999999532, 6.435176028415578888E-15, 52.54719999999999658 ) ) ;
#784 = ORIENTED_EDGE ( 'NONE', *, *, #668, .T. ) ;
#785 = DIRECTION ( 'NONE',  ( 1.000000000000000000, 0.000000000000000000, 0.000000000000000000 ) ) ;
#786 = ADVANCED_FACE ( 'NONE', ( #89 ), #1194, .F. ) ;
#787 = ORIENTED_EDGE ( 'NONE', *, *, #738, .F. ) ;
#788 = DIRECTION ( 'NONE',  ( 1.000000000000000000, 0.000000000000000000, 0.000000000000000000 ) ) ;
#789 = DIRECTION ( 'NONE',  ( 1.000000000000000000, 0.000000000000000000, 0.000000000000000000 ) ) ;
#790 = ORIENTED_EDGE ( 'NONE', *, *, #344, .F. ) ;
#791 = DIRECTION ( 'NONE',  ( 0.000000000000000000, 0.000000000000000000, -1.000000000000000000 ) ) ;
#792 = EDGE_CURVE ( 'NONE', #54, #600, #637, .T. ) ;
#793 = ORIENTED_EDGE ( 'NONE', *, *, #222, .F. ) ;
#794 = DIRECTION ( 'NONE',  ( 1.000000000000000000, 0.000000000000000000, 0.000000000000000000 ) ) ;
#795 = DIRECTION ( 'NONE',  ( 1.000000000000000000, 0.000000000000000000, 0.000000000000000000 ) ) ;
#796 = EDGE_LOOP ( 'NONE', ( #519, #94 ) ) ;
#797 = CYLINDRICAL_SURFACE ( 'NONE', #177, 60.00000000000002842 ) ;
#798 = ORIENTED_EDGE ( 'NONE', *, *, #246, .T. ) ;
#799 = DIRECTION ( 'NONE',  ( -1.000000000000000000, -0.000000000000000000, -0.000000000000000000 ) ) ;
#800 = CIRCLE ( 'NONE', #162, 0.6000000000000033085 ) ;
#801 = AXIS2_PLACEMENT_3D ( 'NONE', #360, #729, #1101 ) ;
#802 = CARTESIAN_POINT ( 'NONE',  ( -5.000000000000004441, 0.000000000000000000, 0.000000000000000000 ) ) ;
#803 = EDGE_LOOP ( 'NONE', ( #693, #870, #300, #812 ) ) ;
#804 = DIRECTION ( 'NONE',  ( 1.000000000000000000, 0.000000000000000000, 0.000000000000000000 ) ) ;
#805 = ORIENTED_EDGE ( 'NONE', *, *, #966, .T. ) ;
#806 = CARTESIAN_POINT ( 'NONE',  ( -90.00000000000000000, 6.423272461527868460E-15, 52.45000000000000284 ) ) ;
#807 = ADVANCED_FACE ( 'NONE', ( #1029, #458 ), #847, .T. ) ;
#808 = FACE_OUTER_BOUND ( 'NONE', #382, .T. ) ;
#809 = ORIENTED_EDGE ( 'NONE', *, *, #269, .F. ) ;
#810 = DIRECTION ( 'NONE',  ( 0.000000000000000000, 0.000000000000000000, -1.000000000000000000 ) ) ;
#811 = DIRECTION ( 'NONE',  ( 0.000000000000000000, 0.000000000000000000, -1.000000000000000000 ) ) ;
#812 = ORIENTED_EDGE ( 'NONE', *, *, #3, .F. ) ;
#813 = EDGE_CURVE ( 'NONE', #941, #585, #164, .T. ) ;
#814 = DIRECTION ( 'NONE',  ( -1.000000000000000000, -0.000000000000000000, -0.000000000000000000 ) ) ;
#815 = ADVANCED_FACE ( 'NONE', ( #653 ), #1187, .T. ) ;
#816 = DIRECTION ( 'NONE',  ( -0.000000000000000000, -1.000000000000000000, -0.000000000000000000 ) ) ;
#817 = DIRECTION ( 'NONE',  ( 0.000000000000000000, 0.000000000000000000, -1.000000000000000000 ) ) ;
#818 = CIRCLE ( 'NONE', #196, 52.45000000000000284 ) ;
#819 = AXIS2_PLACEMENT_3D ( 'NONE', #648, #841, #1006 ) ;
#820 = CIRCLE ( 'NONE', #1073, 0.6000000000000033085 ) ;
#821 = CARTESIAN_POINT ( 'NONE',  ( -90.00000000000000000, 0.000000000000000000, 0.000000000000000000 ) ) ;
#822 = DIRECTION ( 'NONE',  ( 1.000000000000000000, 0.000000000000000000, 0.000000000000000000 ) ) ;
#823 = DIRECTION ( 'NONE',  ( 0.000000000000000000, 1.000000000000000000, -1.224646799147353207E-16 ) ) ;
#824 = FACE_OUTER_BOUND ( 'NONE', #372, .T. ) ;
#825 = CARTESIAN_POINT ( 'NONE',  ( -4.000000000000003553, 0.000000000000000000, -52.45000000000000284 ) ) ;
#826 = VERTEX_POINT ( 'NONE', #378 ) ;
#827 = EDGE_CURVE ( 'NONE', #910, #761, #719, .T. ) ;
#828 = CARTESIAN_POINT ( 'NONE',  ( -5.000000000000006217, 56.91250000000001563, 0.000000000000000000 ) ) ;
#829 = ADVANCED_FACE ( 'NONE', ( #913 ), #240, .T. ) ;
#830 = DIRECTION ( 'NONE',  ( 1.000000000000000000, -0.000000000000000000, -0.000000000000000000 ) ) ;
#831 = EDGE_LOOP ( 'NONE', ( #1132, #1047, #43, #851 ) ) ;
#832 = CIRCLE ( 'NONE', #1046, 56.91250000000001563 ) ;
#833 = FACE_BOUND ( 'NONE', #157, .T. ) ;
#834 = TOROIDAL_SURFACE ( 'NONE', #311, 50.60000000000000853, 0.6000000000000046407 ) ;
#835 = ADVANCED_FACE ( 'NONE', ( #824 ), #1031, .T. ) ;
#836 = CIRCLE ( 'NONE', #9, 0.1021999999999967379 ) ;
#837 = CIRCLE ( 'NONE', #351, 51.81250000000000711 ) ;
#838 = DIRECTION ( 'NONE',  ( 0.000000000000000000, 1.224646799147366026E-16, 1.000000000000000000 ) ) ;
#839 = LINE ( 'NONE', #1120, #271 ) ;
#840 = DIRECTION ( 'NONE',  ( 1.000000000000000000, 0.000000000000000000, 0.000000000000000000 ) ) ;
#841 = DIRECTION ( 'NONE',  ( 1.000000000000000000, -0.000000000000000000, -0.000000000000000000 ) ) ;
#842 = ORIENTED_EDGE ( 'NONE', *, *, #966, .F. ) ;
#843 = EDGE_CURVE ( 'NONE', #1060, #59, #954, .T. ) ;
#844 = DIRECTION ( 'NONE',  ( 1.000000000000000000, 0.000000000000000000, 0.000000000000000000 ) ) ;
#845 = DIRECTION ( 'NONE',  ( -0.000000000000000000, 0.000000000000000000, 1.000000000000000000 ) ) ;
#846 = EDGE_LOOP ( 'NONE', ( #109, #748 ) ) ;
#847 = PLANE ( 'NONE',  #88 ) ;
#848 = ORIENTED_EDGE ( 'NONE', *, *, #984, .F. ) ;
#849 = EDGE_CURVE ( 'NONE', #6, #568, #448, .T. ) ;
#850 = CARTESIAN_POINT ( 'NONE',  ( -4.999999999999999112, 51.81250000000000711, 0.000000000000000000 ) ) ;
#851 = ORIENTED_EDGE ( 'NONE', *, *, #167, .F. ) ;
#852 = DIRECTION ( 'NONE',  ( 0.000000000000000000, 0.000000000000000000, -1.000000000000000000 ) ) ;
#853 = EDGE_LOOP ( 'NONE', ( #805, #765, #423, #985 ) ) ;
#854 = AXIS2_PLACEMENT_3D ( 'NONE', #116, #319, #1040 ) ;
#855 = DIRECTION ( 'NONE',  ( 0.000000000000000000, 0.000000000000000000, -1.000000000000000000 ) ) ;
#856 =( GEOMETRIC_REPRESENTATION_CONTEXT ( 3 ) GLOBAL_UNCERTAINTY_ASSIGNED_CONTEXT ( ( #451 ) ) GLOBAL_UNIT_ASSIGNED_CONTEXT ( ( #1186, #469, #723 ) ) REPRESENTATION_CONTEXT ( 'NONE', 'WORKASPACE' ) );
#857 = ORIENTED_EDGE ( 'NONE', *, *, #1169, .T. ) ;
#858 = FACE_OUTER_BOUND ( 'NONE', #664, .T. ) ;
#859 = EDGE_LOOP ( 'NONE', ( #77, #610, #982, #404 ) ) ;
#860 = CARTESIAN_POINT ( 'NONE',  ( -90.00000000000000000, 6.969771095647375794E-15, 56.91250000000001563 ) ) ;
#861 = ORIENTED_EDGE ( 'NONE', *, *, #984, .T. ) ;
#862 = DIRECTION ( 'NONE',  ( 1.000000000000000000, -0.000000000000000000, -0.000000000000000000 ) ) ;
#863 = DIRECTION ( 'NONE',  ( 0.000000000000000000, 1.000000000000000000, -1.224646799147353207E-16 ) ) ;
#864 = ORIENTED_EDGE ( 'NONE', *, *, #792, .F. ) ;
#865 = DIRECTION ( 'NONE',  ( 1.000000000000000000, -0.000000000000000000, -0.000000000000000000 ) ) ;
#866 = ORIENTED_EDGE ( 'NONE', *, *, #158, .T. ) ;
#867 = CARTESIAN_POINT ( 'NONE',  ( 4.400000000000001243, 0.000000000000000000, -49.99999999999999289 ) ) ;
#868 = DIRECTION ( 'NONE',  ( 0.000000000000000000, 1.000000000000000000, -1.224646799147353207E-16 ) ) ;
#869 = AXIS2_PLACEMENT_3D ( 'NONE', #665, #574, #845 ) ;
#870 = ORIENTED_EDGE ( 'NONE', *, *, #1174, .T. ) ;
#871 = AXIS2_PLACEMENT_3D ( 'NONE', #1175, #720, #356 ) ;
#872 = DIRECTION ( 'NONE',  ( 0.000000000000000000, 0.000000000000000000, -1.000000000000000000 ) ) ;
#873 = AXIS2_PLACEMENT_3D ( 'NONE', #325, #149, #894 ) ;
#874 = ORIENTED_EDGE ( 'NONE', *, *, #418, .T. ) ;
#875 = CARTESIAN_POINT ( 'NONE',  ( 3.729375306807714008, 6.429224244971724069E-15, 52.45000000000000284 ) ) ;
#876 = DIRECTION ( 'NONE',  ( 1.000000000000000000, 0.000000000000000000, 0.000000000000000000 ) ) ;
#877 = ORIENTED_EDGE ( 'NONE', *, *, #598, .T. ) ;
#878 = EDGE_CURVE ( 'NONE', #415, #275, #72, .T. ) ;
#879 = DIRECTION ( 'NONE',  ( 0.8432271980573250447, 6.583178742724936188E-17, 0.5375573387615434351 ) ) ;
#880 = EDGE_CURVE ( 'NONE', #885, #327, #126, .T. ) ;
#881 = ORIENTED_EDGE ( 'NONE', *, *, #684, .F. ) ;
#882 = DIRECTION ( 'NONE',  ( 0.000000000000000000, 0.000000000000000000, -1.000000000000000000 ) ) ;
#883 = DIRECTION ( 'NONE',  ( 1.000000000000000000, 0.000000000000000000, 0.000000000000000000 ) ) ;
#884 = ORIENTED_EDGE ( 'NONE', *, *, #827, .T. ) ;
#885 = VERTEX_POINT ( 'NONE', #867 ) ;
#886 = DIRECTION ( 'NONE',  ( 1.000000000000000000, 0.000000000000000000, 0.000000000000000000 ) ) ;
#887 = CARTESIAN_POINT ( 'NONE',  ( -5.000000000000004441, 0.000000000000000000, -50.60000000000000853 ) ) ;
#888 = ORIENTED_EDGE ( 'NONE', *, *, #937, .T. ) ;
#889 = CIRCLE ( 'NONE', #366, 50.60000000000000853 ) ;
#890 = DIRECTION ( 'NONE',  ( 0.000000000000000000, 0.000000000000000000, -1.000000000000000000 ) ) ;
#891 = AXIS2_PLACEMENT_3D ( 'NONE', #983, #1077, #1070 ) ;
#892 = AXIS2_PLACEMENT_3D ( 'NONE', #474, #789, #400 ) ;
#893 = ORIENTED_EDGE ( 'NONE', *, *, #1190, .T. ) ;
#894 = DIRECTION ( 'NONE',  ( 0.000000000000000000, 0.000000000000000000, -1.000000000000000000 ) ) ;
#895 = AXIS2_PLACEMENT_3D ( 'NONE', #908, #718, #700 ) ;
#896 = EDGE_CURVE ( 'NONE', #702, #568, #762, .T. ) ;
#897 = CIRCLE ( 'NONE', #873, 0.1021999999999967379 ) ;
#898 = DIRECTION ( 'NONE',  ( 1.000000000000000000, 0.000000000000000000, 0.000000000000000000 ) ) ;
#899 = FACE_OUTER_BOUND ( 'NONE', #170, .T. ) ;
#900 = ORIENTED_EDGE ( 'NONE', *, *, #456, .T. ) ;
#901 = DIRECTION ( 'NONE',  ( 0.000000000000000000, -1.000000000000000000, 0.000000000000000000 ) ) ;
#902 = DIRECTION ( 'NONE',  ( 0.000000000000000000, 0.000000000000000000, -1.000000000000000000 ) ) ;
#903 = EDGE_CURVE ( 'NONE', #478, #225, #182, .T. ) ;
#904 = EDGE_CURVE ( 'NONE', #1124, #620, #276, .T. ) ;
#905 = DIRECTION ( 'NONE',  ( 0.000000000000000000, 0.000000000000000000, -1.000000000000000000 ) ) ;
#906 = CARTESIAN_POINT ( 'NONE',  ( -3.697800000000000420, 0.000000000000000000, -57.45279999999999632 ) ) ;
#907 = CARTESIAN_POINT ( 'NONE',  ( -3.697800000000000420, 7.035938762205305553E-15, 57.45279999999999632 ) ) ;
#908 = CARTESIAN_POINT ( 'NONE',  ( -3.799999999999998046, 0.000000000000000000, 0.000000000000000000 ) ) ;
#909 = CARTESIAN_POINT ( 'NONE',  ( 5.000000000000004441, 6.384236844805046790E-15, -51.81250000000000711 ) ) ;
#910 = VERTEX_POINT ( 'NONE', #508 ) ;
#911 = AXIS2_PLACEMENT_3D ( 'NONE', #178, #548, #1195 ) ;
#912 = AXIS2_PLACEMENT_3D ( 'NONE', #1141, #686, #965 ) ;
#913 = FACE_OUTER_BOUND ( 'NONE', #318, .T. ) ;
#914 = AXIS2_PLACEMENT_3D ( 'NONE', #592, #21, #597 ) ;
#915 = FACE_OUTER_BOUND ( 'NONE', #283, .T. ) ;
#916 = ADVANCED_FACE ( 'NONE', ( #576 ), #533, .T. ) ;
#917 = ORIENTED_EDGE ( 'NONE', *, *, #1007, .F. ) ;
#918 = PRODUCT ( 'radial cylindrical roller bearing_am_AFBMA 20.1 - 17-100 - 54,SI,NC,54', 'radial cylindrical roller bearing_am_AFBMA 20.1 - 17-100 - 54,SI,NC,54', '', ( #287 ) ) ;
#919 = LINE ( 'NONE', #104, #1162 ) ;
#920 = CARTESIAN_POINT ( 'NONE',  ( 3.729375306807628743, 0.000000000000000000, 0.000000000000000000 ) ) ;
#921 = CARTESIAN_POINT ( 'NONE',  ( -4.000000000000003553, 0.000000000000000000, 0.000000000000000000 ) ) ;
#922 = DIRECTION ( 'NONE',  ( 0.000000000000000000, 1.224646799147359124E-16, 1.000000000000000000 ) ) ;
#923 = DIRECTION ( 'NONE',  ( 0.000000000000000000, 0.000000000000000000, -1.000000000000000000 ) ) ;
#924 = CARTESIAN_POINT ( 'NONE',  ( 5.000000000000004441, 0.000000000000000000, 51.81250000000000711 ) ) ;
#925 = AXIS2_PLACEMENT_3D ( 'NONE', #779, #1063, #63 ) ;
#926 = CARTESIAN_POINT ( 'NONE',  ( -90.00000000000000000, 0.000000000000000000, 0.000000000000000000 ) ) ;
#927 = CIRCLE ( 'NONE', #655, 57.45279999999999632 ) ;
#928 = ADVANCED_FACE ( 'NONE', ( #301, #660 ), #46, .T. ) ;
#929 = AXIS2_PLACEMENT_3D ( 'NONE', #599, #414, #923 ) ;
#930 = ORIENTED_EDGE ( 'NONE', *, *, #1081, .F. ) ;
#931 = AXIS2_PLACEMENT_3D ( 'NONE', #711, #1091, #882 ) ;
#932 = CARTESIAN_POINT ( 'NONE',  ( 3.799999999999998046, 6.435176028415578888E-15, 52.54719999999999658 ) ) ;
#933 = FACE_BOUND ( 'NONE', #461, .T. ) ;
#934 = ORIENTED_EDGE ( 'NONE', *, *, #1145, .F. ) ;
#935 = CARTESIAN_POINT ( 'NONE',  ( -5.000000000000004441, 0.000000000000000000, 0.000000000000000000 ) ) ;
#936 = ORIENTED_EDGE ( 'NONE', *, *, #151, .T. ) ;
#937 = EDGE_CURVE ( 'NONE', #600, #1054, #547, .T. ) ;
#938 = FACE_OUTER_BOUND ( 'NONE', #321, .T. ) ;
#939 = ORIENTED_EDGE ( 'NONE', *, *, #880, .F. ) ;
#940 = DIRECTION ( 'NONE',  ( 0.000000000000000000, 0.000000000000000000, -1.000000000000000000 ) ) ;
#941 = VERTEX_POINT ( 'NONE', #571 ) ;
#942 = DIRECTION ( 'NONE',  ( 1.000000000000000000, 0.000000000000000000, 0.000000000000000000 ) ) ;
#943 = ORIENTED_EDGE ( 'NONE', *, *, #843, .F. ) ;
#944 = DIRECTION ( 'NONE',  ( 1.000000000000000000, -0.000000000000000000, -0.000000000000000000 ) ) ;
#945 = AXIS2_PLACEMENT_3D ( 'NONE', #921, #1095, #631 ) ;
#946 = AXIS2_PLACEMENT_3D ( 'NONE', #292, #1034, #1126 ) ;
#947 = ORIENTED_EDGE ( 'NONE', *, *, #903, .T. ) ;
#948 = AXIS2_PLACEMENT_3D ( 'NONE', #173, #814, #543 ) ;
#949 = TOROIDAL_SURFACE ( 'NONE', #70, 57.45279999999999632, 0.1021999999999986947 ) ;
#950 = AXIS2_PLACEMENT_3D ( 'NONE', #419, #337, #1166 ) ;
#951 = DIRECTION ( 'NONE',  ( 0.000000000000000000, 0.000000000000000000, -1.000000000000000000 ) ) ;
#952 = AXIS2_PLACEMENT_3D ( 'NONE', #545, #453, #1192 ) ;
#953 = EDGE_LOOP ( 'NONE', ( #480, #135 ) ) ;
#954 = LINE ( 'NONE', #136, #1050 ) ;
#955 = EDGE_LOOP ( 'NONE', ( #303, #934 ) ) ;
#956 = DIRECTION ( 'NONE',  ( 1.000000000000000000, 0.000000000000000000, 0.000000000000000000 ) ) ;
#957 = EDGE_LOOP ( 'NONE', ( #412, #106, #153, #1057 ) ) ;
#958 = DIRECTION ( 'NONE',  ( 1.000000000000000000, 0.000000000000000000, 0.000000000000000000 ) ) ;
#959 = EDGE_CURVE ( 'NONE', #482, #54, #31, .T. ) ;
#960 = CARTESIAN_POINT ( 'NONE',  ( -3.729375306807627410, 0.000000000000000000, -57.55000000000001847 ) ) ;
#961 = ORIENTED_EDGE ( 'NONE', *, *, #418, .F. ) ;
#962 = FACE_OUTER_BOUND ( 'NONE', #803, .T. ) ;
#963 = VERTEX_POINT ( 'NONE', #1139 ) ;
#964 = DIRECTION ( 'NONE',  ( 0.000000000000000000, 0.000000000000000000, 1.000000000000000000 ) ) ;
#965 = DIRECTION ( 'NONE',  ( 0.000000000000000000, 0.000000000000000000, -1.000000000000000000 ) ) ;
#966 = EDGE_CURVE ( 'NONE', #1168, #433, #431, .T. ) ;
#967 = ORIENTED_EDGE ( 'NONE', *, *, #375, .F. ) ;
#968 = CIRCLE ( 'NONE', #5, 52.45000000000000284 ) ;
#969 = AXIS2_PLACEMENT_3D ( 'NONE', #107, #99, #376 ) ;
#970 = CARTESIAN_POINT ( 'NONE',  ( 4.399999999999987033, 0.000000000000000000, 0.000000000000000000 ) ) ;
#971 = AXIS2_PLACEMENT_3D ( 'NONE', #364, #735, #1107 ) ;
#972 = EDGE_LOOP ( 'NONE', ( #943, #527, #591, #82 ) ) ;
#973 = AXIS2_PLACEMENT_3D ( 'NONE', #907, #823, #16 ) ;
#974 = DIRECTION ( 'NONE',  ( 0.000000000000000000, 0.000000000000000000, 1.000000000000000000 ) ) ;
#975 = DIRECTION ( 'NONE',  ( 0.000000000000000000, 0.000000000000000000, -1.000000000000000000 ) ) ;
#976 = ORIENTED_EDGE ( 'NONE', *, *, #269, .T. ) ;
#977 = PRODUCT_DEFINITION ( 'General', '', #1032, #460 ) ;
#978 = ADVANCED_FACE ( 'NONE', ( #208 ), #223, .F. ) ;
#979 = CARTESIAN_POINT ( 'NONE',  ( -4.000000000000003553, 0.000000000000000000, 0.000000000000000000 ) ) ;
#980 = ORIENTED_EDGE ( 'NONE', *, *, #514, .T. ) ;
#981 = DIRECTION ( 'NONE',  ( 0.000000000000000000, 0.000000000000000000, -1.000000000000000000 ) ) ;
#982 = ORIENTED_EDGE ( 'NONE', *, *, #190, .T. ) ;
#983 = CARTESIAN_POINT ( 'NONE',  ( -90.00000000000000000, 0.000000000000000000, 0.000000000000000000 ) ) ;
#984 = EDGE_CURVE ( 'NONE', #702, #774, #739, .T. ) ;
#985 = ORIENTED_EDGE ( 'NONE', *, *, #1129, .F. ) ;
#986 = CARTESIAN_POINT ( 'NONE',  ( 3.729375306807628743, 7.047842329093019925E-15, 57.55000000000001847 ) ) ;
#987 = CARTESIAN_POINT ( 'NONE',  ( -4.000000000000003553, 0.000000000000000000, 0.000000000000000000 ) ) ;
#988 = VECTOR ( 'NONE', #750, 1000.000000000000000 ) ;
#989 = CARTESIAN_POINT ( 'NONE',  ( -4.000000000000003553, 0.000000000000000000, 0.000000000000000000 ) ) ;
#990 = CIRCLE ( 'NONE', #1088, 0.6000000000000033085 ) ;
#991 = AXIS2_PLACEMENT_3D ( 'NONE', #511, #41, #18 ) ;
#992 = ORIENTED_EDGE ( 'NONE', *, *, #1190, .F. ) ;
#993 = CARTESIAN_POINT ( 'NONE',  ( 3.729375306807628743, 0.000000000000000000, 0.000000000000000000 ) ) ;
#994 = AXIS2_PLACEMENT_3D ( 'NONE', #1065, #517, #66 ) ;
#995 = AXIS2_PLACEMENT_3D ( 'NONE', #1036, #40, #399 ) ;
#996 = CARTESIAN_POINT ( 'NONE',  ( 5.000000000000004441, 0.000000000000000000, 0.000000000000000000 ) ) ;
#997 = TOROIDAL_SURFACE ( 'NONE', #642, 59.40000000000001279, 0.6000000000000050848 ) ;
#998 = ORIENTED_EDGE ( 'NONE', *, *, #813, .F. ) ;
#999 = CARTESIAN_POINT ( 'NONE',  ( 5.000000000000004441, 0.000000000000000000, -50.60000000000000853 ) ) ;
#1000 = ORIENTED_EDGE ( 'NONE', *, *, #549, .T. ) ;
#1001 = CARTESIAN_POINT ( 'NONE',  ( -90.00000000000000000, 0.000000000000000000, -56.91250000000001563 ) ) ;
#1002 = SURFACE_SIDE_STYLE ('',( #435 ) ) ;
#1003 = ADVANCED_FACE ( 'NONE', ( #858, #667 ), #35, .T. ) ;
#1004 = DIRECTION ( 'NONE',  ( -1.000000000000000000, 0.000000000000000000, 0.000000000000000000 ) ) ;
#1005 = CARTESIAN_POINT ( 'NONE',  ( -4.400000000000006573, 0.000000000000000000, -59.40000000000001279 ) ) ;
#1006 = DIRECTION ( 'NONE',  ( 0.000000000000000000, 0.000000000000000000, -1.000000000000000000 ) ) ;
#1007 = EDGE_CURVE ( 'NONE', #354, #39, #407, .T. ) ;
#1008 = VECTOR ( 'NONE', #651, 1000.000000000000000 ) ;
#1009 = DIRECTION ( 'NONE',  ( 0.000000000000000000, 0.000000000000000000, -1.000000000000000000 ) ) ;
#1010 = UNCERTAINTY_MEASURE_WITH_UNIT (LENGTH_MEASURE( 1.000000000000000082E-05 ), #236, 'distance_accuracy_value', 'NONE');
#1011 = FACE_OUTER_BOUND ( 'NONE', #298, .T. ) ;
#1012 = AXIS2_PLACEMENT_3D ( 'NONE', #926, #355, #567 ) ;
#1013 = CARTESIAN_POINT ( 'NONE',  ( -4.000000000000003553, 0.000000000000000000, 0.000000000000000000 ) ) ;
#1014 = CIRCLE ( 'NONE', #353, 57.55000000000001847 ) ;
#1015 = ADVANCED_FACE ( 'NONE', ( #159 ), #1163, .T. ) ;
#1016 = CARTESIAN_POINT ( 'NONE',  ( -3.799999999999998934, 57.45279999999999632, 0.000000000000000000 ) ) ;
#1017 = ORIENTED_EDGE ( 'NONE', *, *, #410, .T. ) ;
#1018 = DIRECTION ( 'NONE',  ( 0.000000000000000000, 0.000000000000000000, -1.000000000000000000 ) ) ;
#1019 = CARTESIAN_POINT ( 'NONE',  ( 5.000000000000004441, 7.311141390909699073E-15, 59.40000000000001279 ) ) ;
#1020 = EDGE_LOOP ( 'NONE', ( #201, #165 ) ) ;
#1021 = EDGE_CURVE ( 'NONE', #54, #482, #490, .T. ) ;
#1022 = FACE_OUTER_BOUND ( 'NONE', #859, .T. ) ;
#1023 = VERTEX_POINT ( 'NONE', #171 ) ;
#1024 = CARTESIAN_POINT ( 'NONE',  ( 3.799999999999998046, 0.000000000000000000, 0.000000000000000000 ) ) ;
#1025 = DIRECTION ( 'NONE',  ( 1.000000000000000000, 0.000000000000000000, 0.000000000000000000 ) ) ;
#1026 = EDGE_CURVE ( 'NONE', #941, #620, #897, .T. ) ;
#1027 = TOROIDAL_SURFACE ( 'NONE', #506, 52.54719999999999658, 0.1021999999999984726 ) ;
#1028 = ORIENTED_EDGE ( 'NONE', *, *, #542, .T. ) ;
#1029 = FACE_BOUND ( 'NONE', #1122, .T. ) ;
#1030 = ORIENTED_EDGE ( 'NONE', *, *, #573, .T. ) ;
#1031 = TOROIDAL_SURFACE ( 'NONE', #146, 59.40000000000001279, 0.6000000000000050848 ) ;
#1032 = PRODUCT_DEFINITION_FORMATION_WITH_SPECIFIED_SOURCE ( 'Symmetric', '', #918, .NOT_KNOWN. ) ;
#1033 = CARTESIAN_POINT ( 'NONE',  ( -3.729375306807701129, 0.000000000000000000, 0.000000000000000000 ) ) ;
#1034 = DIRECTION ( 'NONE',  ( 1.000000000000000000, -0.000000000000000000, -0.000000000000000000 ) ) ;
#1035 = ORIENTED_EDGE ( 'NONE', *, *, #113, .F. ) ;
#1036 = CARTESIAN_POINT ( 'NONE',  ( 4.000000000000003553, 0.000000000000000000, 0.000000000000000000 ) ) ;
#1037 = ORIENTED_EDGE ( 'NONE', *, *, #365, .F. ) ;
#1038 = CARTESIAN_POINT ( 'NONE',  ( -90.00000000000000000, 0.000000000000000000, 0.000000000000000000 ) ) ;
#1039 = ORIENTED_EDGE ( 'NONE', *, *, #634, .T. ) ;
#1040 = DIRECTION ( 'NONE',  ( 0.000000000000000000, 0.000000000000000000, -1.000000000000000000 ) ) ;
#1041 = ORIENTED_EDGE ( 'NONE', *, *, #454, .T. ) ;
#1042 = EDGE_CURVE ( 'NONE', #752, #39, #413, .T. ) ;
#1043 = FACE_OUTER_BOUND ( 'NONE', #572, .T. ) ;
#1044 = EDGE_LOOP ( 'NONE', ( #1164, #1105, #1064, #512 ) ) ;
#1045 = CARTESIAN_POINT ( 'NONE',  ( 3.729375306807714008, 0.000000000000000000, 0.000000000000000000 ) ) ;
#1046 = AXIS2_PLACEMENT_3D ( 'NONE', #741, #86, #539 ) ;
#1047 = ORIENTED_EDGE ( 'NONE', *, *, #112, .T. ) ;
#1048 = AXIS2_PLACEMENT_3D ( 'NONE', #1154, #876, #593 ) ;
#1049 = VECTOR ( 'NONE', #523, 1000.000000000000000 ) ;
#1050 = VECTOR ( 'NONE', #310, 1000.000000000000000 ) ;
#1051 = DIRECTION ( 'NONE',  ( 0.000000000000000000, 0.000000000000000000, -1.000000000000000000 ) ) ;
#1052 = EDGE_CURVE ( 'NONE', #68, #203, #837, .T. ) ;
#1053 = AXIS2_PLACEMENT_3D ( 'NONE', #60, #330, #697 ) ;
#1054 = VERTEX_POINT ( 'NONE', #627 ) ;
#1055 = CARTESIAN_POINT ( 'NONE',  ( -4.400000000000001243, 0.000000000000000000, 0.000000000000000000 ) ) ;
#1056 = DIRECTION ( 'NONE',  ( -1.000000000000000000, 0.000000000000000000, 0.000000000000000000 ) ) ;
#1057 = ORIENTED_EDGE ( 'NONE', *, *, #410, .F. ) ;
#1058 = DIRECTION ( 'NONE',  ( 0.000000000000000000, 1.224646799147359124E-16, 1.000000000000000000 ) ) ;
#1059 = ADVANCED_FACE ( 'NONE', ( #706 ), #715, .F. ) ;
#1060 = VERTEX_POINT ( 'NONE', #986 ) ;
#1061 = DIRECTION ( 'NONE',  ( -1.000000000000000000, 0.000000000000000000, 0.000000000000000000 ) ) ;
#1062 = ORIENTED_EDGE ( 'NONE', *, *, #237, .T. ) ;
#1063 = DIRECTION ( 'NONE',  ( 0.000000000000000000, 1.000000000000000000, -1.224646799147353207E-16 ) ) ;
#1064 = ORIENTED_EDGE ( 'NONE', *, *, #1129, .T. ) ;
#1065 = CARTESIAN_POINT ( 'NONE',  ( -90.00000000000000000, 0.000000000000000000, 0.000000000000000000 ) ) ;
#1066 = CARTESIAN_POINT ( 'NONE',  ( 4.000000000000003553, 0.000000000000000000, 0.000000000000000000 ) ) ;
#1067 = ORIENTED_EDGE ( 'NONE', *, *, #137, .T. ) ;
#1068 = AXIS2_PLACEMENT_3D ( 'NONE', #449, #4, #163 ) ;
#1069 = AXIS2_PLACEMENT_3D ( 'NONE', #987, #883, #811 ) ;
#1070 = DIRECTION ( 'NONE',  ( 0.000000000000000000, 0.000000000000000000, -1.000000000000000000 ) ) ;
#1071 = AXIS2_PLACEMENT_3D ( 'NONE', #405, #496, #685 ) ;
#1072 = ORIENTED_EDGE ( 'NONE', *, *, #590, .T. ) ;
#1073 = AXIS2_PLACEMENT_3D ( 'NONE', #536, #901, #233 ) ;
#1074 = CARTESIAN_POINT ( 'NONE',  ( 4.999999999999990230, 0.000000000000000000, 0.000000000000000000 ) ) ;
#1075 = LINE ( 'NONE', #168, #1049 ) ;
#1076 = ORIENTED_EDGE ( 'NONE', *, *, #113, .T. ) ;
#1077 = DIRECTION ( 'NONE',  ( 1.000000000000000000, 0.000000000000000000, 0.000000000000000000 ) ) ;
#1078 = EDGE_LOOP ( 'NONE', ( #881, #17 ) ) ;
#1079 = DIRECTION ( 'NONE',  ( 0.000000000000000000, 0.000000000000000000, -1.000000000000000000 ) ) ;
#1080 = DIRECTION ( 'NONE',  ( 1.000000000000000000, -0.000000000000000000, -0.000000000000000000 ) ) ;
#1081 = EDGE_CURVE ( 'NONE', #225, #1, #315, .T. ) ;
#1082 = CYLINDRICAL_SURFACE ( 'NONE', #891, 56.91250000000001563 ) ;
#1083 = EDGE_CURVE ( 'NONE', #652, #752, #1144, .T. ) ;
#1084 = ORIENTED_EDGE ( 'NONE', *, *, #1183, .T. ) ;
#1085 = CYLINDRICAL_SURFACE ( 'NONE', #698, 52.45000000000000284 ) ;
#1086 = AXIS2_PLACEMENT_3D ( 'NONE', #1191, #557, #91 ) ;
#1087 = CARTESIAN_POINT ( 'NONE',  ( 4.399999999999993250, 0.000000000000000000, -59.40000000000001279 ) ) ;
#1088 = AXIS2_PLACEMENT_3D ( 'NONE', #140, #682, #1058 ) ;
#1089 = CIRCLE ( 'NONE', #895, 57.45279999999999632 ) ;
#1090 = CARTESIAN_POINT ( 'NONE',  ( 4.400000000000000355, 0.000000000000000000, 0.000000000000000000 ) ) ;
#1091 = DIRECTION ( 'NONE',  ( 1.000000000000000000, -0.000000000000000000, -0.000000000000000000 ) ) ;
#1092 = AXIS2_PLACEMENT_3D ( 'NONE', #501, #131, #228 ) ;
#1093 = CARTESIAN_POINT ( 'NONE',  ( 3.729375306807714008, 0.000000000000000000, 0.000000000000000000 ) ) ;
#1094 = CARTESIAN_POINT ( 'NONE',  ( -3.799999999999998046, 7.041890545649163528E-15, 57.45279999999999632 ) ) ;
#1095 = DIRECTION ( 'NONE',  ( 1.000000000000000000, 0.000000000000000000, 0.000000000000000000 ) ) ;
#1096 = EDGE_CURVE ( 'NONE', #910, #524, #434, .T. ) ;
#1097 = CARTESIAN_POINT ( 'NONE',  ( -4.000000000000003553, 7.047842329093019925E-15, 57.55000000000001847 ) ) ;
#1098 = ADVANCED_FACE ( 'NONE', ( #1158 ), #780, .T. ) ;
#1099 = PLANE ( 'NONE',  #123 ) ;
#1100 = ORIENTED_EDGE ( 'NONE', *, *, #158, .F. ) ;
#1101 = DIRECTION ( 'NONE',  ( 0.000000000000000000, 0.000000000000000000, -1.000000000000000000 ) ) ;
#1102 = ORIENTED_EDGE ( 'NONE', *, *, #514, .F. ) ;
#1103 = DIRECTION ( 'NONE',  ( 0.000000000000000000, 0.000000000000000000, -1.000000000000000000 ) ) ;
#1104 = VECTOR ( 'NONE', #114, 1000.000000000000000 ) ;
#1105 = ORIENTED_EDGE ( 'NONE', *, *, #463, .T. ) ;
#1106 = TOROIDAL_SURFACE ( 'NONE', #584, 57.45279999999999632, 0.1021999999999980424 ) ;
#1107 = DIRECTION ( 'NONE',  ( 0.000000000000000000, 0.000000000000000000, -1.000000000000000000 ) ) ;
#1108 = AXIS2_PLACEMENT_3D ( 'NONE', #268, #374, #1112 ) ;
#1109 = ADVANCED_FACE ( 'NONE', ( #254 ), #997, .T. ) ;
#1110 = DIRECTION ( 'NONE',  ( 1.000000000000000000, -0.000000000000000000, -0.000000000000000000 ) ) ;
#1111 = DIRECTION ( 'NONE',  ( 0.000000000000000000, 0.000000000000000000, -1.000000000000000000 ) ) ;
#1112 = DIRECTION ( 'NONE',  ( 0.000000000000000000, 0.000000000000000000, -1.000000000000000000 ) ) ;
#1113 = ORIENTED_EDGE ( 'NONE', *, *, #904, .F. ) ;
#1114 = DIRECTION ( 'NONE',  ( 0.000000000000000000, 0.000000000000000000, -1.000000000000000000 ) ) ;
#1115 = LINE ( 'NONE', #23, #636 ) ;
#1116 = EDGE_CURVE ( 'NONE', #516, #1060, #1014, .T. ) ;
#1117 = DIRECTION ( 'NONE',  ( -0.000000000000000000, -1.000000000000000000, -0.000000000000000000 ) ) ;
#1118 = ORIENTED_EDGE ( 'NONE', *, *, #454, .F. ) ;
#1119 = DIRECTION ( 'NONE',  ( 1.000000000000000000, 0.000000000000000000, 0.000000000000000000 ) ) ;
#1120 = CARTESIAN_POINT ( 'NONE',  ( -90.00000000000000000, 0.000000000000000000, -56.91250000000001563 ) ) ;
#1121 = AXIS2_PLACEMENT_3D ( 'NONE', #1005, #550, #1111 ) ;
#1122 = EDGE_LOOP ( 'NONE', ( #608, #49 ) ) ;
#1123 = DIRECTION ( 'NONE',  ( 1.000000000000000000, 0.000000000000000000, -0.000000000000000000 ) ) ;
#1124 = VERTEX_POINT ( 'NONE', #875 ) ;
#1125 = AXIS2_PLACEMENT_3D ( 'NONE', #1045, #862, #964 ) ;
#1126 = DIRECTION ( 'NONE',  ( 0.000000000000000000, 0.000000000000000000, -1.000000000000000000 ) ) ;
#1127 = ORIENTED_EDGE ( 'NONE', *, *, #80, .T. ) ;
#1128 = DIRECTION ( 'NONE',  ( 0.000000000000000000, 0.000000000000000000, -1.000000000000000000 ) ) ;
#1129 = EDGE_CURVE ( 'NONE', #1168, #683, #820, .T. ) ;
#1130 = EDGE_LOOP ( 'NONE', ( #649, #204, #185, #1142 ) ) ;
#1131 = PLANE ( 'NONE',  #869 ) ;
#1132 = ORIENTED_EDGE ( 'NONE', *, *, #97, .T. ) ;
#1133 = DIRECTION ( 'NONE',  ( 1.000000000000000000, 0.000000000000000000, 0.000000000000000000 ) ) ;
#1134 = EDGE_CURVE ( 'NONE', #111, #689, #470, .T. ) ;
#1135 = ORIENTED_EDGE ( 'NONE', *, *, #614, .F. ) ;
#1136 = EDGE_CURVE ( 'NONE', #275, #415, #297, .T. ) ;
#1137 = LINE ( 'NONE', #564, #988 ) ;
#1138 = EDGE_LOOP ( 'NONE', ( #314, #866, #1150, #1152 ) ) ;
#1139 = CARTESIAN_POINT ( 'NONE',  ( 4.399999999999987033, 7.347880794884123089E-15, 60.00000000000002842 ) ) ;
#1140 = AXIS2_PLACEMENT_3D ( 'NONE', #760, #677, #381 ) ;
#1141 = CARTESIAN_POINT ( 'NONE',  ( 3.800000000000001155, 0.000000000000000000, 0.000000000000000000 ) ) ;
#1142 = ORIENTED_EDGE ( 'NONE', *, *, #827, .F. ) ;
#1143 = CIRCLE ( 'NONE', #969, 0.1021999999999967379 ) ;
#1144 = CIRCLE ( 'NONE', #624, 56.91250000000001563 ) ;
#1145 = EDGE_CURVE ( 'NONE', #253, #391, #565, .T. ) ;
#1146 = DIRECTION ( 'NONE',  ( 0.000000000000000000, 0.000000000000000000, -1.000000000000000000 ) ) ;
#1147 = ORIENTED_EDGE ( 'NONE', *, *, #843, .T. ) ;
#1148 = DIRECTION ( 'NONE',  ( -0.000000000000000000, 0.000000000000000000, -1.000000000000000000 ) ) ;
#1149 = FACE_OUTER_BOUND ( 'NONE', #1044, .T. ) ;
#1150 = ORIENTED_EDGE ( 'NONE', *, *, #52, .F. ) ;
#1151 = LINE ( 'NONE', #322, #560 ) ;
#1152 = ORIENTED_EDGE ( 'NONE', *, *, #896, .F. ) ;
#1153 = DIRECTION ( 'NONE',  ( 1.000000000000000000, 0.000000000000000000, 0.000000000000000000 ) ) ;
#1154 = CARTESIAN_POINT ( 'NONE',  ( -4.000000000000003553, 0.000000000000000000, 0.000000000000000000 ) ) ;
#1155 = EDGE_LOOP ( 'NONE', ( #26, #884, #309, #874 ) ) ;
#1156 = DIRECTION ( 'NONE',  ( 0.000000000000000000, 0.000000000000000000, -1.000000000000000000 ) ) ;
#1157 = ORIENTED_EDGE ( 'NONE', *, *, #573, .F. ) ;
#1158 = FACE_OUTER_BOUND ( 'NONE', #733, .T. ) ;
#1159 = DIRECTION ( 'NONE',  ( 1.000000000000000000, 0.000000000000000000, 0.000000000000000000 ) ) ;
#1160 = ORIENTED_EDGE ( 'NONE', *, *, #1174, .F. ) ;
#1161 = CIRCLE ( 'NONE', #1180, 51.81250000000000711 ) ;
#1162 = VECTOR ( 'NONE', #743, 1000.000000000000000 ) ;
#1163 = CONICAL_SURFACE ( 'NONE', #11, 51.81250000000000711, 0.5675376247847495614 ) ;
#1164 = ORIENTED_EDGE ( 'NONE', *, *, #323, .F. ) ;
#1165 = VECTOR ( 'NONE', #87, 1000.000000000000000 ) ;
#1166 = DIRECTION ( 'NONE',  ( 0.000000000000000000, 0.000000000000000000, -1.000000000000000000 ) ) ;
#1167 = CYLINDRICAL_SURFACE ( 'NONE', #274, 57.55000000000001847 ) ;
#1168 = VERTEX_POINT ( 'NONE', #154 ) ;
#1169 = EDGE_CURVE ( 'NONE', #59, #626, #703, .T. ) ;
#1170 = DIRECTION ( 'NONE',  ( 1.000000000000000000, 0.000000000000000000, 0.000000000000000000 ) ) ;
#1171 = ORIENTED_EDGE ( 'NONE', *, *, #724, .F. ) ;
#1172 = DIRECTION ( 'NONE',  ( 1.000000000000000000, 0.000000000000000000, 0.000000000000000000 ) ) ;
#1173 =( NAMED_UNIT ( * ) SI_UNIT ( $, .STERADIAN. ) SOLID_ANGLE_UNIT ( ) );
#1174 = EDGE_CURVE ( 'NONE', #393, #6, #1188, .T. ) ;
#1175 = CARTESIAN_POINT ( 'NONE',  ( -3.697799999999999088, 6.435176028415578888E-15, 52.54719999999999658 ) ) ;
#1176 = CARTESIAN_POINT ( 'NONE',  ( -5.000000000000004441, 0.000000000000000000, -51.81250000000000711 ) ) ;
#1177 = DIRECTION ( 'NONE',  ( 1.000000000000000000, 0.000000000000000000, 0.000000000000000000 ) ) ;
#1178 = DIRECTION ( 'NONE',  ( 0.000000000000000000, 0.000000000000000000, -1.000000000000000000 ) ) ;
#1179 = ORIENTED_EDGE ( 'NONE', *, *, #365, .T. ) ;
#1180 = AXIS2_PLACEMENT_3D ( 'NONE', #71, #694, #872 ) ;
#1181 = CARTESIAN_POINT ( 'NONE',  ( -4.000000000000003553, 6.969771095647375794E-15, 56.91250000000001563 ) ) ;
#1182 = CIRCLE ( 'NONE', #1068, 56.91250000000001563 ) ;
#1183 = EDGE_CURVE ( 'NONE', #415, #885, #471, .T. ) ;
#1184 = MECHANICAL_DESIGN_GEOMETRIC_PRESENTATION_REPRESENTATION (  '', ( #678 ), #145 ) ;
#1185 = ORIENTED_EDGE ( 'NONE', *, *, #668, .F. ) ;
#1186 =( LENGTH_UNIT ( ) NAMED_UNIT ( * ) SI_UNIT ( .MILLI., .METRE. ) );
#1187 = TOROIDAL_SURFACE ( 'NONE', #258, 52.54719999999999658, 0.1021999999999984726 ) ;
#1188 = CIRCLE ( 'NONE', #973, 0.1021999999999967379 ) ;
#1189 = CARTESIAN_POINT ( 'NONE',  ( -90.00000000000000000, 0.000000000000000000, 0.000000000000000000 ) ) ;
#1190 = EDGE_CURVE ( 'NONE', #1168, #885, #281, .T. ) ;
#1191 = CARTESIAN_POINT ( 'NONE',  ( -3.729375306807627410, 0.000000000000000000, 0.000000000000000000 ) ) ;
#1192 = DIRECTION ( 'NONE',  ( 1.000000000000000000, 0.000000000000000000, 0.000000000000000000 ) ) ;
#1193 = EDGE_CURVE ( 'NONE', #761, #336, #175, .T. ) ;
#1194 = CYLINDRICAL_SURFACE ( 'NONE', #801, 56.91250000000001563 ) ;
#1195 = DIRECTION ( 'NONE',  ( 0.000000000000000000, 0.000000000000000000, -1.000000000000000000 ) ) ;
ENDSEC;
END-ISO-10303-21;
