ISO-10303-21;
HEADER;
FILE_DESCRIPTION (( 'STEP AP214' ),
    '1' );
FILE_NAME ('socket head cap screw_am.STEP',
    '2026-09-17T14:21:09',
    ( '' ),
    ( '' ),
    'SwSTEP 2.0',
    'SolidWorks 2025',
    '' );
FILE_SCHEMA (( 'AUTOMOTIVE_DESIGN' ));
ENDSEC;

DATA;
#1 = CARTESIAN_POINT ( 'NONE',  ( 1.300000000000000044, -0.7390083445627225744, 1.280000000000000693 ) ) ;
#2 = ORIENTED_EDGE ( 'NONE', *, *, #195, .F. ) ;
#3 = CONICAL_SURFACE ( 'NONE', #414, 1.279999999999999805, 1.047197551196595633 ) ;
#4 = FACE_BOUND ( 'NONE', #428, .T. ) ;
#5 = VECTOR ( 'NONE', #103, 999.9999999999998863 ) ;
#6 = VECTOR ( 'NONE', #528, 999.9999999999998863 ) ;
#7 = ORIENTED_EDGE ( 'NONE', *, *, #230, .T. ) ;
#8 = EDGE_CURVE ( 'NONE', #544, #339, #672, .T. ) ;
#9 = CARTESIAN_POINT ( 'NONE',  ( 1.300000000000000044, 0.7390083445627190217, -1.280000000000000693 ) ) ;
#10 = ORIENTED_EDGE ( 'NONE', *, *, #438, .T. ) ;
#11 = CARTESIAN_POINT ( 'NONE',  ( 1.300000000000000044, 1.478016689125442484, -1.409462824231155764E-15 ) ) ;
#12 = DIRECTION ( 'NONE',  ( 0.000000000000000000, 0.5000000000000003331, -0.8660254037844383745 ) ) ;
#13 = ORIENTED_EDGE ( 'NONE', *, *, #259, .T. ) ;
#14 = DIRECTION ( 'NONE',  ( -1.000000000000000000, -0.000000000000000000, -0.000000000000000000 ) ) ;
#15 = CIRCLE ( 'NONE', #549, 1.500000000000011768 ) ;
#16 = CARTESIAN_POINT ( 'NONE',  ( 0.000000000000000000, 3.184081677783117698E-16, 2.449999999999998845 ) ) ;
#17 = AXIS2_PLACEMENT_3D ( 'NONE', #626, #223, #59 ) ;
#18 = CARTESIAN_POINT ( 'NONE',  ( 0.000000000000000000, -0.7390083445627225744, 1.280000000000000693 ) ) ;
#19 = ORIENTED_EDGE ( 'NONE', *, *, #738, .T. ) ;
#20 = CARTESIAN_POINT ( 'NONE',  ( 1.300000000000002709, 0.000000000000000000, 0.000000000000000000 ) ) ;
#21 = CYLINDRICAL_SURFACE ( 'NONE', #632, 2.750000000000000000 ) ;
#22 = EDGE_CURVE ( 'NONE', #183, #104, #406, .T. ) ;
#23 = EDGE_LOOP ( 'NONE', ( #241, #46, #423 ) ) ;
#24 = CARTESIAN_POINT ( 'NONE',  ( 1.300000000000000044, 1.502314598737158440E-15, 1.279999999999999805 ) ) ;
#25 = CARTESIAN_POINT ( 'NONE',  ( 1.300000000000000044, -0.7390083445627235736, -1.279999999999999138 ) ) ;
#26 = EDGE_CURVE ( 'NONE', #494, #434, #523, .T. ) ;
#27 = VERTEX_POINT ( 'NONE', #125 ) ;
#28 = DIRECTION ( 'NONE',  ( -1.000000000000000000, -0.000000000000000000, -0.000000000000000000 ) ) ;
#29 = VECTOR ( 'NONE', #558, 1000.000000000000114 ) ;
#30 = DIRECTION ( 'NONE',  ( -1.000000000000000000, -0.000000000000000000, -0.000000000000000000 ) ) ;
#31 = ORIENTED_EDGE ( 'NONE', *, *, #511, .F. ) ;
#32 = EDGE_CURVE ( 'NONE', #444, #181, #413, .T. ) ;
#33 = FACE_OUTER_BOUND ( 'NONE', #329, .T. ) ;
#34 = DIRECTION ( 'NONE',  ( 0.000000000000000000, 0.5000000000000014433, 0.8660254037844379305 ) ) ;
#35 = ORIENTED_EDGE ( 'NONE', *, *, #341, .T. ) ;
#36 = CARTESIAN_POINT ( 'NONE',  ( 0.000000000000000000, 0.000000000000000000, 0.000000000000000000 ) ) ;
#37 = FACE_OUTER_BOUND ( 'NONE', #323, .T. ) ;
#38 = CARTESIAN_POINT ( 'NONE',  ( 1.300000000000000044, -0.7390083445627225744, 1.280000000000000693 ) ) ;
#39 = ORIENTED_EDGE ( 'NONE', *, *, #462, .T. ) ;
#40 = CARTESIAN_POINT ( 'NONE',  ( 1.300000000000000044, 1.478016689125442484, -1.409462824231155764E-15 ) ) ;
#41 = PRODUCT_RELATED_PRODUCT_CATEGORY ( 'part', '', ( #178 ) ) ;
#42 = DIRECTION ( 'NONE',  ( 1.000000000000000000, 0.000000000000000000, 0.000000000000000000 ) ) ;
#43 = EDGE_CURVE ( 'NONE', #352, #107, #464, .T. ) ;
#44 = DIRECTION ( 'NONE',  ( -1.000000000000000000, -0.000000000000000000, -0.000000000000000000 ) ) ;
#45 = VECTOR ( 'NONE', #82, 1000.000000000000114 ) ;
#46 = ORIENTED_EDGE ( 'NONE', *, *, #355, .T. ) ;
#47 = AXIS2_PLACEMENT_3D ( 'NONE', #20, #192, #520 ) ;
#48 = DIRECTION ( 'NONE',  ( -1.000000000000000000, -0.000000000000000000, -0.000000000000000000 ) ) ;
#49 = LINE ( 'NONE', #425, #237 ) ;
#50 = ORIENTED_EDGE ( 'NONE', *, *, #65, .T. ) ;
#51 = DIRECTION ( 'NONE',  ( 0.000000000000000000, 1.000000000000000000, -1.224646799147353207E-16 ) ) ;
#52 = ORIENTED_EDGE ( 'NONE', *, *, #173, .F. ) ;
#53 = DIRECTION ( 'NONE',  ( -1.000000000000000000, 0.000000000000000000, -0.000000000000000000 ) ) ;
#54 = VERTEX_POINT ( 'NONE', #578 ) ;
#55 = CIRCLE ( 'NONE', #720, 2.750000000000000000 ) ;
#56 = AXIS2_PLACEMENT_3D ( 'NONE', #210, #435, #205 ) ;
#57 = DIRECTION ( 'NONE',  ( 0.000000000000000000, -0.5000000000000005551, 0.8660254037844382635 ) ) ;
#58 = ORIENTED_EDGE ( 'NONE', *, *, #389, .F. ) ;
#59 = DIRECTION ( 'NONE',  ( 0.000000000000000000, 0.000000000000000000, -1.000000000000000000 ) ) ;
#60 = ORIENTED_EDGE ( 'NONE', *, *, #621, .F. ) ;
#61 = DIRECTION ( 'NONE',  ( -0.000000000000000000, 0.000000000000000000, 1.000000000000000000 ) ) ;
#62 = ORIENTED_EDGE ( 'NONE', *, *, #139, .T. ) ;
#63 = AXIS2_PLACEMENT_3D ( 'NONE', #650, #408, #361 ) ;
#64 = CARTESIAN_POINT ( 'NONE',  ( 1.300000000000000044, -0.7390083445627225744, 1.280000000000000693 ) ) ;
#65 = EDGE_CURVE ( 'NONE', #331, #731, #15, .T. ) ;
#66 = VERTEX_POINT ( 'NONE', #409 ) ;
#67 = DIRECTION ( 'NONE',  ( 0.000000000000000000, -1.026972870230479595E-15, -1.000000000000000000 ) ) ;
#68 = DIRECTION ( 'NONE',  ( -1.000000000000000000, -0.000000000000000000, -0.000000000000000000 ) ) ;
#69 = ADVANCED_FACE ( 'NONE', ( #147 ), #152, .F. ) ;
#70 = LINE ( 'NONE', #702, #88 ) ;
#71 = DIRECTION ( 'NONE',  ( 0.000000000000000000, -0.8660254037844383745, -0.5000000000000006661 ) ) ;
#72 = EDGE_LOOP ( 'NONE', ( #220, #363, #348, #736 ) ) ;
#73 = AXIS2_PLACEMENT_3D ( 'NONE', #481, #261, #418 ) ;
#74 = DIRECTION ( 'NONE',  ( -1.000000000000000000, -0.000000000000000000, -0.000000000000000000 ) ) ;
#75 = VECTOR ( 'NONE', #372, 1000.000000000000000 ) ;
#76 = AXIS2_PLACEMENT_3D ( 'NONE', #9, #67, #589 ) ;
#77 = VECTOR ( 'NONE', #79, 999.9999999999998863 ) ;
#78 = ORIENTED_EDGE ( 'NONE', *, *, #32, .F. ) ;
#79 = DIRECTION ( 'NONE',  ( 0.000000000000000000, -0.5000000000000014433, -0.8660254037844379305 ) ) ;
#80 = EDGE_LOOP ( 'NONE', ( #167, #35, #327, #232 ) ) ;
#81 = CARTESIAN_POINT ( 'NONE',  ( 1.300000000000000044, 0.7390083445627201320, 1.279999999999998916 ) ) ;
#82 = DIRECTION ( 'NONE',  ( 0.000000000000000000, -0.5000000000000011102, -0.8660254037844379305 ) ) ;
#83 = CYLINDRICAL_SURFACE ( 'NONE', #491, 2.750000000000000000 ) ;
#84 = ORIENTED_EDGE ( 'NONE', *, *, #94, .F. ) ;
#85 = DIRECTION ( 'NONE',  ( 0.000000000000000000, 0.000000000000000000, 1.000000000000000000 ) ) ;
#86 = DIRECTION ( 'NONE',  ( 0.000000000000000000, 0.000000000000000000, -1.000000000000000000 ) ) ;
#87 = CARTESIAN_POINT ( 'NONE',  ( 0.000000000000000000, 1.478016689125442484, -1.409462824231155764E-15 ) ) ;
#88 = VECTOR ( 'NONE', #14, 1000.000000000000000 ) ;
#89 = VERTEX_POINT ( 'NONE', #87 ) ;
#90 = CARTESIAN_POINT ( 'NONE',  ( 1.300000000000000044, -1.478016689125445371, 1.192622389734054877E-15 ) ) ;
#91 = CARTESIAN_POINT ( 'NONE',  ( 18.71950000000002845, 0.000000000000000000, 1.500000000000023315 ) ) ;
#92 = ORIENTED_EDGE ( 'NONE', *, *, #195, .T. ) ;
#93 = CARTESIAN_POINT ( 'NONE',  ( 3.099999999999998757, 1.836970198721044232E-16, -1.500000000000011768 ) ) ;
#94 = EDGE_CURVE ( 'NONE', #236, #701, #670, .T. ) ;
#95 = CARTESIAN_POINT ( 'NONE',  ( 1.300000000000000044, -1.108512516844083029, -0.6400000000000014566 ) ) ;
#96 = CARTESIAN_POINT ( 'NONE',  ( 0.3000000000000016542, 0.000000000000000000, 2.750000000000000000 ) ) ;
#97 = VERTEX_POINT ( 'NONE', #485 ) ;
#98 = DIRECTION ( 'NONE',  ( 0.000000000000000000, 0.5000000000000003331, -0.8660254037844383745 ) ) ;
#99 = ADVANCED_FACE ( 'NONE', ( #605 ), #478, .T. ) ;
#100 = VECTOR ( 'NONE', #332, 1000.000000000000000 ) ;
#101 = ORIENTED_EDGE ( 'NONE', *, *, #734, .T. ) ;
#102 = VECTOR ( 'NONE', #525, 999.9999999999998863 ) ;
#103 = DIRECTION ( 'NONE',  ( -0.5000000000000017764, 0.000000000000000000, 0.8660254037844377084 ) ) ;
#104 = VERTEX_POINT ( 'NONE', #96 ) ;
#105 = DIRECTION ( 'NONE',  ( -1.000000000000000000, -0.000000000000000000, -0.000000000000000000 ) ) ;
#106 = EDGE_CURVE ( 'NONE', #339, #104, #654, .T. ) ;
#107 = VERTEX_POINT ( 'NONE', #91 ) ;
#108 = CARTESIAN_POINT ( 'NONE',  ( 0.000000000000000000, 0.000000000000000000, -2.449999999999998845 ) ) ;
#109 = PRODUCT_DEFINITION_SHAPE ( 'NONE', 'NONE',  #133 ) ;
#110 = ORIENTED_EDGE ( 'NONE', *, *, #139, .F. ) ;
#111 = MECHANICAL_DESIGN_GEOMETRIC_PRESENTATION_REPRESENTATION (  '', ( #309 ), #212 ) ;
#112 = AXIS2_PLACEMENT_3D ( 'NONE', #1, #456, #176 ) ;
#113 = DIRECTION ( 'NONE',  ( -1.000000000000000000, -0.000000000000000000, -0.000000000000000000 ) ) ;
#114 = ORIENTED_EDGE ( 'NONE', *, *, #725, .T. ) ;
#115 = CARTESIAN_POINT ( 'NONE',  ( -31.74999999999995737, 0.000000000000000000, 0.000000000000000000 ) ) ;
#116 = EDGE_CURVE ( 'NONE', #215, #676, #493, .T. ) ;
#117 = ORIENTED_EDGE ( 'NONE', *, *, #621, .T. ) ;
#118 = CARTESIAN_POINT ( 'NONE',  ( 0.000000000000000000, 0.7390083445627190217, -1.280000000000000693 ) ) ;
#119 = EDGE_CURVE ( 'NONE', #97, #27, #532, .T. ) ;
#120 = VERTEX_POINT ( 'NONE', #306 ) ;
#121 = AXIS2_PLACEMENT_3D ( 'NONE', #694, #247, #186 ) ;
#122 = LINE ( 'NONE', #471, #102 ) ;
#123 =( NAMED_UNIT ( * ) PLANE_ANGLE_UNIT ( ) SI_UNIT ( $, .RADIAN. ) );
#124 = ADVANCED_FACE ( 'NONE', ( #539 ), #83, .T. ) ;
#125 = CARTESIAN_POINT ( 'NONE',  ( 19.00000000000000355, 1.665213485140627925E-16, -1.219500000000000028 ) ) ;
#126 = DIRECTION ( 'NONE',  ( 0.000000000000000000, 0.000000000000000000, 1.000000000000000000 ) ) ;
#127 = LINE ( 'NONE', #347, #280 ) ;
#128 = DIRECTION ( 'NONE',  ( 0.000000000000000000, 0.000000000000000000, 1.000000000000000000 ) ) ;
#129 = EDGE_CURVE ( 'NONE', #273, #447, #581, .T. ) ;
#130 = PLANE ( 'NONE',  #402 ) ;
#131 = CARTESIAN_POINT ( 'NONE',  ( 0.000000000000000000, -0.7390083445627225744, 1.280000000000000693 ) ) ;
#132 = ORIENTED_EDGE ( 'NONE', *, *, #166, .T. ) ;
#133 = PRODUCT_DEFINITION ( 'General', '', #513, #514 ) ;
#134 = LINE ( 'NONE', #585, #77 ) ;
#135 = AXIS2_PLACEMENT_3D ( 'NONE', #592, #362, #34 ) ;
#136 = DIRECTION ( 'NONE',  ( 0.000000000000000000, 0.000000000000000000, 1.000000000000000000 ) ) ;
#137 = ORIENTED_EDGE ( 'NONE', *, *, #22, .T. ) ;
#138 = FACE_OUTER_BOUND ( 'NONE', #80, .T. ) ;
#139 = EDGE_CURVE ( 'NONE', #691, #610, #257, .T. ) ;
#140 = DIRECTION ( 'NONE',  ( 0.000000000000000000, 0.000000000000000000, 1.000000000000000000 ) ) ;
#141 = DIRECTION ( 'NONE',  ( 1.000000000000000000, 0.000000000000000000, 0.000000000000000000 ) ) ;
#142 = DIRECTION ( 'NONE',  ( -1.000000000000000000, -0.000000000000000000, -0.000000000000000000 ) ) ;
#143 = ORIENTED_EDGE ( 'NONE', *, *, #462, .F. ) ;
#144 = AXIS2_PLACEMENT_3D ( 'NONE', #687, #68, #128 ) ;
#145 = CARTESIAN_POINT ( 'NONE',  ( 1.300000000000000044, -0.7390083445627225744, 1.280000000000000693 ) ) ;
#146 = AXIS2_PLACEMENT_3D ( 'NONE', #328, #141, #86 ) ;
#147 = FACE_OUTER_BOUND ( 'NONE', #593, .T. ) ;
#148 = EDGE_CURVE ( 'NONE', #544, #181, #427, .T. ) ;
#149 = ORIENTED_EDGE ( 'NONE', *, *, #734, .F. ) ;
#150 = DIRECTION ( 'NONE',  ( -1.000000000000000000, -0.000000000000000000, -0.000000000000000000 ) ) ;
#151 = CARTESIAN_POINT ( 'NONE',  ( 1.300000000000000044, -0.7390083445627225744, 1.280000000000000693 ) ) ;
#152 = PLANE ( 'NONE',  #135 ) ;
#153 = EDGE_LOOP ( 'NONE', ( #646, #667, #368, #177, #739 ) ) ;
#154 = ADVANCED_FACE ( 'NONE', ( #489 ), #709, .F. ) ;
#155 = CARTESIAN_POINT ( 'NONE',  ( 1.300000000000000044, 1.478016689125442484, -1.409462824231155764E-15 ) ) ;
#156 = ORIENTED_EDGE ( 'NONE', *, *, #148, .T. ) ;
#157 = DIRECTION ( 'NONE',  ( 0.000000000000000000, 0.000000000000000000, 1.000000000000000000 ) ) ;
#158 = CARTESIAN_POINT ( 'NONE',  ( 1.300000000000002709, 0.000000000000000000, 1.279999999999999805 ) ) ;
#159 = CIRCLE ( 'NONE', #430, 1.600000000000011857 ) ;
#160 = AXIS2_PLACEMENT_3D ( 'NONE', #600, #658, #140 ) ;
#161 = EDGE_LOOP ( 'NONE', ( #62, #460, #386 ) ) ;
#162 = PLANE ( 'NONE',  #76 ) ;
#163 = ADVANCED_FACE ( 'NONE', ( #318 ), #719, .F. ) ;
#164 = EDGE_LOOP ( 'NONE', ( #498, #188, #39, #627, #286 ) ) ;
#165 = CARTESIAN_POINT ( 'NONE',  ( 1.300000000000000044, -1.478016689125445371, 1.192622389734054877E-15 ) ) ;
#166 = EDGE_CURVE ( 'NONE', #352, #731, #422, .T. ) ;
#167 = ORIENTED_EDGE ( 'NONE', *, *, #119, .T. ) ;
#168 = CYLINDRICAL_SURFACE ( 'NONE', #535, 1.500000000000011768 ) ;
#169 = EDGE_CURVE ( 'NONE', #54, #194, #433, .T. ) ;
#170 = AXIS2_PLACEMENT_3D ( 'NONE', #301, #636, #251 ) ;
#171 = ORIENTED_EDGE ( 'NONE', *, *, #325, .F. ) ;
#172 = CIRCLE ( 'NONE', #245, 0.1000000000000000472 ) ;
#173 = EDGE_CURVE ( 'NONE', #731, #236, #476, .T. ) ;
#174 = AXIS2_PLACEMENT_3D ( 'NONE', #461, #706, #515 ) ;
#175 = AXIS2_PLACEMENT_3D ( 'NONE', #692, #403, #126 ) ;
#176 = DIRECTION ( 'NONE',  ( 0.000000000000000000, -1.000000000000000000, 1.173683280263405167E-15 ) ) ;
#177 = ORIENTED_EDGE ( 'NONE', *, *, #521, .F. ) ;
#178 = PRODUCT ( 'socket head cap screw_am_B18.3.1M - 3 x 0.5 x 16 Hex SHCS -- 16NHX', 'socket head cap screw_am_B18.3.1M - 3 x 0.5 x 16 Hex SHCS -- 16NHX', '', ( #267 ) ) ;
#179 = ADVANCED_FACE ( 'NONE', ( #703 ), #21, .T. ) ;
#180 = CARTESIAN_POINT ( 'NONE',  ( 0.000000000000000000, -0.7390083445627225744, 1.280000000000000693 ) ) ;
#181 = VERTEX_POINT ( 'NONE', #529 ) ;
#182 = LINE ( 'NONE', #400, #674 ) ;
#183 = VERTEX_POINT ( 'NONE', #16 ) ;
#184 = VECTOR ( 'NONE', #105, 1000.000000000000000 ) ;
#185 = DIRECTION ( 'NONE',  ( 0.000000000000000000, -0.5000000000000005551, 0.8660254037844382635 ) ) ;
#186 = DIRECTION ( 'NONE',  ( 0.000000000000000000, 0.000000000000000000, -1.000000000000000000 ) ) ;
#187 = ADVANCED_FACE ( 'NONE', ( #475 ), #198, .T. ) ;
#188 = ORIENTED_EDGE ( 'NONE', *, *, #235, .F. ) ;
#189 = FACE_OUTER_BOUND ( 'NONE', #399, .T. ) ;
#190 = CARTESIAN_POINT ( 'NONE',  ( -31.74999999999995737, 0.000000000000000000, 0.000000000000000000 ) ) ;
#191 = DIRECTION ( 'NONE',  ( 1.000000000000000000, 0.000000000000000000, 0.000000000000000000 ) ) ;
#192 = DIRECTION ( 'NONE',  ( -1.000000000000000000, -0.000000000000000000, -0.000000000000000000 ) ) ;
#193 = CARTESIAN_POINT ( 'NONE',  ( 1.300000000000002709, -1.314525273895013684E-15, -1.279999999999999805 ) ) ;
#194 = VERTEX_POINT ( 'NONE', #193 ) ;
#195 = EDGE_CURVE ( 'NONE', #701, #236, #159, .T. ) ;
#196 = LINE ( 'NONE', #415, #584 ) ;
#197 = AXIS2_PLACEMENT_3D ( 'NONE', #735, #291, #227 ) ;
#198 = CYLINDRICAL_SURFACE ( 'NONE', #63, 1.500000000000011768 ) ;
#199 = VECTOR ( 'NONE', #662, 1000.000000000000114 ) ;
#200 = CARTESIAN_POINT ( 'NONE',  ( -31.74999999999995737, 3.367778697655221012E-16, -2.750000000000000000 ) ) ;
#201 = EDGE_CURVE ( 'NONE', #288, #342, #580, .T. ) ;
#202 = DIRECTION ( 'NONE',  ( -1.000000000000000000, -0.000000000000000000, -0.000000000000000000 ) ) ;
#203 = CARTESIAN_POINT ( 'NONE',  ( 0.000000000000000000, 0.000000000000000000, 0.000000000000000000 ) ) ;
#204 = ORIENTED_EDGE ( 'NONE', *, *, #355, .F. ) ;
#205 = DIRECTION ( 'NONE',  ( 0.000000000000000000, 0.000000000000000000, 1.000000000000000000 ) ) ;
#206 = DIRECTION ( 'NONE',  ( -0.7071067811864871766, 8.659560562355674880E-17, -0.7071067811866079689 ) ) ;
#207 = EDGE_CURVE ( 'NONE', #494, #314, #468, .T. ) ;
#208 = DIRECTION ( 'NONE',  ( -1.000000000000000000, -0.000000000000000000, -0.000000000000000000 ) ) ;
#209 = EDGE_LOOP ( 'NONE', ( #486, #685, #373, #568, #292 ) ) ;
#210 = CARTESIAN_POINT ( 'NONE',  ( 0.000000000000000000, 0.000000000000000000, 0.000000000000000000 ) ) ;
#211 = CARTESIAN_POINT ( 'NONE',  ( 3.000000000000002665, 0.000000000000000000, 0.000000000000000000 ) ) ;
#212 =( GEOMETRIC_REPRESENTATION_CONTEXT ( 3 ) GLOBAL_UNCERTAINTY_ASSIGNED_CONTEXT ( ( #455 ) ) GLOBAL_UNIT_ASSIGNED_CONTEXT ( ( #710, #123, #253 ) ) REPRESENTATION_CONTEXT ( 'NONE', 'WORKASPACE' ) );
#213 = CARTESIAN_POINT ( 'NONE',  ( 1.300000000000000044, 1.478016689125442484, -1.409462824231155764E-15 ) ) ;
#214 = AXIS2_PLACEMENT_3D ( 'NONE', #537, #424, #157 ) ;
#215 = VERTEX_POINT ( 'NONE', #25 ) ;
#216 = CARTESIAN_POINT ( 'NONE',  ( 1.300000000000000044, -0.7390083445627225744, 1.280000000000000693 ) ) ;
#217 = CARTESIAN_POINT ( 'NONE',  ( 1.300000000000000044, -1.478016689125445371, 1.192622389734054877E-15 ) ) ;
#218 = ORIENTED_EDGE ( 'NONE', *, *, #483, .F. ) ;
#219 = FACE_OUTER_BOUND ( 'NONE', #258, .T. ) ;
#220 = ORIENTED_EDGE ( 'NONE', *, *, #341, .F. ) ;
#221 = ADVANCED_FACE ( 'NONE', ( #350 ), #531, .T. ) ;
#222 = MANIFOLD_SOLID_BREP ( 'Hex', #693 ) ;
#223 = DIRECTION ( 'NONE',  ( 1.000000000000000000, 0.000000000000000000, 0.000000000000000000 ) ) ;
#224 = CIRCLE ( 'NONE', #634, 1.279999999999999805 ) ;
#225 = EDGE_LOOP ( 'NONE', ( #659, #665, #401, #262 ) ) ;
#226 = CIRCLE ( 'NONE', #571, 1.279999999999999805 ) ;
#227 = DIRECTION ( 'NONE',  ( 0.000000000000000000, 0.000000000000000000, -1.000000000000000000 ) ) ;
#228 = ORIENTED_EDGE ( 'NONE', *, *, #405, .T. ) ;
#229 = FACE_OUTER_BOUND ( 'NONE', #239, .T. ) ;
#230 = EDGE_CURVE ( 'NONE', #314, #676, #518, .T. ) ;
#231 = ADVANCED_FACE ( 'NONE', ( #243 ), #463, .F. ) ;
#232 = ORIENTED_EDGE ( 'NONE', *, *, #616, .F. ) ;
#233 = LINE ( 'NONE', #628, #100 ) ;
#234 = AXIS2_PLACEMENT_3D ( 'NONE', #203, #543, #547 ) ;
#235 = EDGE_CURVE ( 'NONE', #519, #314, #127, .T. ) ;
#236 = VERTEX_POINT ( 'NONE', #522 ) ;
#237 = VECTOR ( 'NONE', #382, 1000.000000000000000 ) ;
#238 = LINE ( 'NONE', #396, #733 ) ;
#239 = EDGE_LOOP ( 'NONE', ( #319, #453, #358, #50 ) ) ;
#240 = FACE_OUTER_BOUND ( 'NONE', #161, .T. ) ;
#241 = ORIENTED_EDGE ( 'NONE', *, *, #426, .F. ) ;
#242 = DIRECTION ( 'NONE',  ( 1.000000000000000000, 0.000000000000000000, 0.000000000000000000 ) ) ;
#243 = FACE_OUTER_BOUND ( 'NONE', #503, .T. ) ;
#244 = ORIENTED_EDGE ( 'NONE', *, *, #207, .T. ) ;
#245 = AXIS2_PLACEMENT_3D ( 'NONE', #599, #51, #420 ) ;
#246 = CARTESIAN_POINT ( 'NONE',  ( 0.000000000000000000, -0.7390083445627235736, -1.279999999999999138 ) ) ;
#247 = DIRECTION ( 'NONE',  ( 1.000000000000000000, 0.000000000000000000, 0.000000000000000000 ) ) ;
#248 = ORIENTED_EDGE ( 'NONE', *, *, #499, .F. ) ;
#249 = FACE_OUTER_BOUND ( 'NONE', #553, .T. ) ;
#250 = SURFACE_STYLE_USAGE ( .BOTH. , #633 ) ;
#251 = DIRECTION ( 'NONE',  ( 0.000000000000000000, 0.000000000000000000, 1.000000000000000000 ) ) ;
#252 = CARTESIAN_POINT ( 'NONE',  ( 1.300000000000002709, 0.000000000000000000, 0.000000000000000000 ) ) ;
#253 =( NAMED_UNIT ( * ) SI_UNIT ( $, .STERADIAN. ) SOLID_ANGLE_UNIT ( ) );
#254 = DIRECTION ( 'NONE',  ( 0.7071067811865486830, 8.659560562354921765E-17, 0.7071067811865464625 ) ) ;
#255 = COLOUR_RGB ( '',0.7921568627450980005, 0.8196078431372548767, 0.9333333333333333481 ) ;
#256 = CARTESIAN_POINT ( 'NONE',  ( 1.300000000000000044, 0.7390083445627190217, -1.280000000000000693 ) ) ;
#257 = LINE ( 'NONE', #38, #391 ) ;
#258 = EDGE_LOOP ( 'NONE', ( #333, #619, #470, #13 ) ) ;
#259 = EDGE_CURVE ( 'NONE', #181, #104, #55, .T. ) ;
#260 = CARTESIAN_POINT ( 'NONE',  ( 1.300000000000000044, 0.7390083445627190217, -1.280000000000000693 ) ) ;
#261 = DIRECTION ( 'NONE',  ( 1.000000000000000000, 0.000000000000000000, 0.000000000000000000 ) ) ;
#262 = ORIENTED_EDGE ( 'NONE', *, *, #259, .F. ) ;
#263 = DIRECTION ( 'NONE',  ( 0.000000000000000000, 0.8660254037844380415, -0.5000000000000012212 ) ) ;
#264 = EDGE_CURVE ( 'NONE', #331, #701, #172, .T. ) ;
#265 = DIRECTION ( 'NONE',  ( 0.000000000000000000, 1.000000000000000000, -1.173683280263405167E-15 ) ) ;
#266 = EDGE_LOOP ( 'NONE', ( #19, #132, #284, #671 ) ) ;
#267 = PRODUCT_CONTEXT ( 'NONE', #458, 'mechanical' ) ;
#268 = VECTOR ( 'NONE', #254, 999.9999999999998863 ) ;
#269 = PLANE ( 'NONE',  #310 ) ;
#270 = CONICAL_SURFACE ( 'NONE', #146, 2.449999999999998845, 0.7853981633974468357 ) ;
#271 = VECTOR ( 'NONE', #206, 999.9999999999998863 ) ;
#272 = DIRECTION ( 'NONE',  ( -1.000000000000000000, -0.000000000000000000, -0.000000000000000000 ) ) ;
#273 = VERTEX_POINT ( 'NONE', #95 ) ;
#274 = FACE_OUTER_BOUND ( 'NONE', #72, .T. ) ;
#275 = ADVANCED_FACE ( 'NONE', ( #219 ), #270, .T. ) ;
#276 = EDGE_LOOP ( 'NONE', ( #380, #712, #244, #7, #248, #218 ) ) ;
#277 = DIRECTION ( 'NONE',  ( -0.000000000000000000, 0.8660254037844384856, 0.5000000000000004441 ) ) ;
#278 = ORIENTED_EDGE ( 'NONE', *, *, #483, .T. ) ;
#279 = LINE ( 'NONE', #165, #597 ) ;
#280 = VECTOR ( 'NONE', #577, 1000.000000000000000 ) ;
#281 = ORIENTED_EDGE ( 'NONE', *, *, #389, .T. ) ;
#282 = CARTESIAN_POINT ( 'NONE',  ( 2.959353746763713226E-18, 0.000000000000000000, 0.000000000000000000 ) ) ;
#283 = ADVANCED_FACE ( 'NONE', ( #37 ), #560, .F. ) ;
#284 = ORIENTED_EDGE ( 'NONE', *, *, #446, .T. ) ;
#285 = CARTESIAN_POINT ( 'NONE',  ( 1.300000000000000044, -1.478016689125445371, 1.192622389734054877E-15 ) ) ;
#286 = ORIENTED_EDGE ( 'NONE', *, *, #116, .T. ) ;
#287 = FACE_OUTER_BOUND ( 'NONE', #153, .T. ) ;
#288 = VERTEX_POINT ( 'NONE', #260 ) ;
#289 = VECTOR ( 'NONE', #622, 1000.000000000000000 ) ;
#290 = AXIS2_PLACEMENT_3D ( 'NONE', #429, #150, #381 ) ;
#291 = DIRECTION ( 'NONE',  ( 1.000000000000000000, 0.000000000000000000, 0.000000000000000000 ) ) ;
#292 = ORIENTED_EDGE ( 'NONE', *, *, #649, .T. ) ;
#293 = CARTESIAN_POINT ( 'NONE',  ( 1.300000000000002709, 0.000000000000000000, 0.000000000000000000 ) ) ;
#294 = ORIENTED_EDGE ( 'NONE', *, *, #8, .F. ) ;
#295 = DIRECTION ( 'NONE',  ( 0.000000000000000000, 0.000000000000000000, 1.000000000000000000 ) ) ;
#296 = VERTEX_POINT ( 'NONE', #375 ) ;
#297 = VECTOR ( 'NONE', #272, 1000.000000000000000 ) ;
#298 = VECTOR ( 'NONE', #12, 1000.000000000000114 ) ;
#299 = CARTESIAN_POINT ( 'NONE',  ( 0.000000000000000000, -1.478016689125445371, 1.192622389734054877E-15 ) ) ;
#300 = ADVANCED_FACE ( 'NONE', ( #324 ), #718, .T. ) ;
#301 = CARTESIAN_POINT ( 'NONE',  ( 3.000000000000002665, 0.000000000000000000, 0.000000000000000000 ) ) ;
#302 = DIRECTION ( 'NONE',  ( 1.000000000000000000, 0.000000000000000000, 0.000000000000000000 ) ) ;
#303 = FILL_AREA_STYLE ('',( #412 ) ) ;
#304 = CARTESIAN_POINT ( 'NONE',  ( 0.000000000000000000, 3.000384657911014384E-16, 2.449999999999998845 ) ) ;
#305 = CARTESIAN_POINT ( 'NONE',  ( 3.000000000000000000, 0.000000000000000000, 0.000000000000000000 ) ) ;
#306 = CARTESIAN_POINT ( 'NONE',  ( 1.300000000000000044, 1.108512516844080364, -0.6400000000000017897 ) ) ;
#307 = ORIENTED_EDGE ( 'NONE', *, *, #169, .F. ) ;
#308 = APPLICATION_PROTOCOL_DEFINITION ( 'draft international standard', 'automotive_design', 1998, #689 ) ;
#309 = STYLED_ITEM ( 'NONE', ( #472 ), #222 ) ;
#310 = AXIS2_PLACEMENT_3D ( 'NONE', #155, #714, #555 ) ;
#311 = CARTESIAN_POINT ( 'NONE',  ( 3.000000000000002665, 0.000000000000000000, 2.750000000000000000 ) ) ;
#312 = CIRCLE ( 'NONE', #290, 1.500000000000023315 ) ;
#313 = CARTESIAN_POINT ( 'NONE',  ( -31.74999999999995737, 0.000000000000000000, 2.750000000000000000 ) ) ;
#314 = VERTEX_POINT ( 'NONE', #594 ) ;
#315 = EDGE_CURVE ( 'NONE', #273, #215, #604, .T. ) ;
#316 =( NAMED_UNIT ( * ) PLANE_ANGLE_UNIT ( ) SI_UNIT ( $, .RADIAN. ) );
#317 = CARTESIAN_POINT ( 'NONE',  ( 19.00000000000000355, 1.493456771560197319E-16, -1.219500000000000028 ) ) ;
#318 = FACE_OUTER_BOUND ( 'NONE', #23, .T. ) ;
#319 = ORIENTED_EDGE ( 'NONE', *, *, #166, .F. ) ;
#320 = LINE ( 'NONE', #216, #199 ) ;
#321 = CARTESIAN_POINT ( 'NONE',  ( 3.099999999999998757, 0.000000000000000000, 1.500000000000011768 ) ) ;
#322 = CARTESIAN_POINT ( 'NONE',  ( 1.300000000000002709, 0.000000000000000000, 0.000000000000000000 ) ) ;
#323 = EDGE_LOOP ( 'NONE', ( #655, #630, #336, #2 ) ) ;
#324 = FACE_OUTER_BOUND ( 'NONE', #527, .T. ) ;
#325 = EDGE_CURVE ( 'NONE', #339, #544, #326, .T. ) ;
#326 = CIRCLE ( 'NONE', #550, 2.750000000000000000 ) ;
#327 = ORIENTED_EDGE ( 'NONE', *, *, #738, .F. ) ;
#328 = CARTESIAN_POINT ( 'NONE',  ( 0.000000000000000000, 0.000000000000000000, 0.000000000000000000 ) ) ;
#329 = EDGE_LOOP ( 'NONE', ( #614, #465, #696 ) ) ;
#330 = DIRECTION ( 'NONE',  ( -1.000000000000000000, -0.000000000000000000, -0.000000000000000000 ) ) ;
#331 = VERTEX_POINT ( 'NONE', #321 ) ;
#332 = DIRECTION ( 'NONE',  ( -1.000000000000000000, -0.000000000000000000, -0.000000000000000000 ) ) ;
#333 = ORIENTED_EDGE ( 'NONE', *, *, #22, .F. ) ;
#334 = ADVANCED_FACE ( 'NONE', ( #33 ), #723, .F. ) ;
#335 = LINE ( 'NONE', #565, #184 ) ;
#336 = ORIENTED_EDGE ( 'NONE', *, *, #173, .T. ) ;
#337 = DIRECTION ( 'NONE',  ( 0.000000000000000000, -1.000000000000000000, 1.026972870230479595E-15 ) ) ;
#338 = ADVANCED_FACE ( 'NONE', ( #484 ), #269, .F. ) ;
#339 = VERTEX_POINT ( 'NONE', #311 ) ;
#340 = LINE ( 'NONE', #507, #353 ) ;
#341 = EDGE_CURVE ( 'NONE', #27, #352, #370, .T. ) ;
#342 = VERTEX_POINT ( 'NONE', #538 ) ;
#343 = CONICAL_SURFACE ( 'NONE', #647, 1.219500000000000028, 0.7853981633975337662 ) ;
#344 = DIRECTION ( 'NONE',  ( 0.000000000000000000, -0.5000000000000005551, 0.8660254037844382635 ) ) ;
#345 = DIRECTION ( 'NONE',  ( 0.7071067811865486830, 0.000000000000000000, -0.7071067811865464625 ) ) ;
#346 = CARTESIAN_POINT ( 'NONE',  ( 1.300000000000002709, 0.000000000000000000, 0.000000000000000000 ) ) ;
#347 = CARTESIAN_POINT ( 'NONE',  ( 1.300000000000000044, -1.478016689125445371, 1.192622389734054877E-15 ) ) ;
#348 = ORIENTED_EDGE ( 'NONE', *, *, #616, .T. ) ;
#349 = CARTESIAN_POINT ( 'NONE',  ( 1.300000000000000044, 1.478016689125442484, -1.409462824231155764E-15 ) ) ;
#350 = FACE_OUTER_BOUND ( 'NONE', #501, .T. ) ;
#351 = VECTOR ( 'NONE', #590, 999.9999999999998863 ) ;
#352 = VERTEX_POINT ( 'NONE', #379 ) ;
#353 = VECTOR ( 'NONE', #57, 1000.000000000000227 ) ;
#354 = DIRECTION ( 'NONE',  ( -1.000000000000000000, -0.000000000000000000, -0.000000000000000000 ) ) ;
#355 = EDGE_CURVE ( 'NONE', #377, #691, #49, .T. ) ;
#356 = AXIS2_PLACEMENT_3D ( 'NONE', #467, #643, #697 ) ;
#357 = CARTESIAN_POINT ( 'NONE',  ( 3.099999999999998757, 0.000000000000000000, -1.600000000000011857 ) ) ;
#358 = ORIENTED_EDGE ( 'NONE', *, *, #657, .T. ) ;
#359 = CARTESIAN_POINT ( 'NONE',  ( 3.000000000000002665, 3.367778697655221012E-16, -2.750000000000000000 ) ) ;
#360 = ADVANCED_FACE ( 'NONE', ( #663 ), #492, .T. ) ;
#361 = DIRECTION ( 'NONE',  ( 0.000000000000000000, 0.000000000000000000, 1.000000000000000000 ) ) ;
#362 = DIRECTION ( 'NONE',  ( 0.000000000000000000, 0.8660254037844379305, -0.5000000000000014433 ) ) ;
#363 = ORIENTED_EDGE ( 'NONE', *, *, #635, .T. ) ;
#364 = DIRECTION ( 'NONE',  ( 0.000000000000000000, 0.5000000000000011102, 0.8660254037844379305 ) ) ;
#365 = ADVANCED_FACE ( 'NONE', ( #274 ), #343, .T. ) ;
#366 = CARTESIAN_POINT ( 'NONE',  ( -31.74999999999995737, 0.000000000000000000, 0.000000000000000000 ) ) ;
#367 = VECTOR ( 'NONE', #142, 1000.000000000000000 ) ;
#368 = ORIENTED_EDGE ( 'NONE', *, *, #591, .F. ) ;
#369 = AXIS2_PLACEMENT_3D ( 'NONE', #497, #202, #445 ) ;
#370 = LINE ( 'NONE', #317, #271 ) ;
#371 = CIRCLE ( 'NONE', #356, 2.449999999999998845 ) ;
#372 = DIRECTION ( 'NONE',  ( -1.000000000000000000, -0.000000000000000000, -0.000000000000000000 ) ) ;
#373 = ORIENTED_EDGE ( 'NONE', *, *, #668, .T. ) ;
#374 =( NAMED_UNIT ( * ) SI_UNIT ( $, .STERADIAN. ) SOLID_ANGLE_UNIT ( ) );
#375 = CARTESIAN_POINT ( 'NONE',  ( 1.300000000000000044, 1.478016689125442484, -1.409462824231155764E-15 ) ) ;
#376 = DIRECTION ( 'NONE',  ( -1.000000000000000000, -0.000000000000000000, -0.000000000000000000 ) ) ;
#377 = VERTEX_POINT ( 'NONE', #151 ) ;
#378 = EDGE_CURVE ( 'NONE', #54, #691, #653, .T. ) ;
#379 = CARTESIAN_POINT ( 'NONE',  ( 18.71950000000002845, 1.836970198721058530E-16, -1.500000000000023315 ) ) ;
#380 = ORIENTED_EDGE ( 'NONE', *, *, #432, .T. ) ;
#381 = DIRECTION ( 'NONE',  ( 0.000000000000000000, 0.000000000000000000, 1.000000000000000000 ) ) ;
#382 = DIRECTION ( 'NONE',  ( 0.000000000000000000, 1.000000000000000000, -1.173683280263405167E-15 ) ) ;
#383 = AXIS2_PLACEMENT_3D ( 'NONE', #145, #263, #364 ) ;
#384 = EDGE_LOOP ( 'NONE', ( #143, #149, #390 ) ) ;
#385 = DIRECTION ( 'NONE',  ( 0.000000000000000000, 0.000000000000000000, 1.000000000000000000 ) ) ;
#386 = ORIENTED_EDGE ( 'NONE', *, *, #699, .F. ) ;
#387 = ADVANCED_BREP_SHAPE_REPRESENTATION ( 'socket head cap screw_am_B18.3.1M - 3 x 0.5 x 16 Hex SHCS -- 16NHX', ( #222, #536 ), #524 ) ;
#388 = PLANE ( 'NONE',  #112 ) ;
#389 = EDGE_CURVE ( 'NONE', #104, #181, #611, .T. ) ;
#390 = ORIENTED_EDGE ( 'NONE', *, *, #129, .F. ) ;
#391 = VECTOR ( 'NONE', #265, 1000.000000000000000 ) ;
#392 = DIRECTION ( 'NONE',  ( -1.000000000000000000, -0.000000000000000000, -0.000000000000000000 ) ) ;
#393 = CONICAL_SURFACE ( 'NONE', #174, 1.219500000000000028, 0.7853981633975337662 ) ;
#394 = ORIENTED_EDGE ( 'NONE', *, *, #26, .T. ) ;
#395 = CIRCLE ( 'NONE', #563, 1.279999999999999805 ) ;
#396 = CARTESIAN_POINT ( 'NONE',  ( 1.300000000000000044, 0.7390083445627190217, -1.280000000000000693 ) ) ;
#397 = ORIENTED_EDGE ( 'NONE', *, *, #432, .F. ) ;
#398 = FACE_OUTER_BOUND ( 'NONE', #534, .T. ) ;
#399 = EDGE_LOOP ( 'NONE', ( #473, #516 ) ) ;
#400 = CARTESIAN_POINT ( 'NONE',  ( 1.300000000000000044, 1.478016689125442484, -1.409462824231155764E-15 ) ) ;
#401 = ORIENTED_EDGE ( 'NONE', *, *, #106, .T. ) ;
#402 = AXIS2_PLACEMENT_3D ( 'NONE', #576, #242, #688 ) ;
#403 = DIRECTION ( 'NONE',  ( -1.000000000000000000, -0.000000000000000000, -0.000000000000000000 ) ) ;
#404 = CARTESIAN_POINT ( 'NONE',  ( 1.300000000000002709, 1.567547902908611839E-16, -1.279999999999999805 ) ) ;
#405 = EDGE_CURVE ( 'NONE', #610, #434, #335, .T. ) ;
#406 = LINE ( 'NONE', #304, #268 ) ;
#407 = DIRECTION ( 'NONE',  ( 0.000000000000000000, 0.000000000000000000, -1.000000000000000000 ) ) ;
#408 = DIRECTION ( 'NONE',  ( -1.000000000000000000, -0.000000000000000000, -0.000000000000000000 ) ) ;
#409 = CARTESIAN_POINT ( 'NONE',  ( 1.300000000000000044, 1.108512516844080364, 0.6400000000000003464 ) ) ;
#410 = ADVANCED_FACE ( 'NONE', ( #398 ), #3, .F. ) ;
#411 = DIRECTION ( 'NONE',  ( 1.000000000000000000, 0.000000000000000000, 0.000000000000000000 ) ) ;
#412 = FILL_AREA_STYLE_COLOUR ( '', #255 ) ;
#413 = LINE ( 'NONE', #583, #508 ) ;
#414 = AXIS2_PLACEMENT_3D ( 'NONE', #677, #330, #385 ) ;
#415 = CARTESIAN_POINT ( 'NONE',  ( 1.300000000000000044, 1.478016689125442484, -1.409462824231155764E-15 ) ) ;
#416 = CIRCLE ( 'NONE', #552, 1.279999999999999805 ) ;
#417 = DIRECTION ( 'NONE',  ( -1.000000000000000000, -0.000000000000000000, -0.000000000000000000 ) ) ;
#418 = DIRECTION ( 'NONE',  ( 0.000000000000000000, 0.000000000000000000, -1.000000000000000000 ) ) ;
#419 =( LENGTH_UNIT ( ) NAMED_UNIT ( * ) SI_UNIT ( .MILLI., .METRE. ) );
#420 = DIRECTION ( 'NONE',  ( 0.000000000000000000, 1.224646799147353207E-16, 1.000000000000000000 ) ) ;
#421 = ADVANCED_FACE ( 'NONE', ( #567 ), #388, .F. ) ;
#422 = LINE ( 'NONE', #595, #609 ) ;
#423 = ORIENTED_EDGE ( 'NONE', *, *, #649, .F. ) ;
#424 = DIRECTION ( 'NONE',  ( -1.000000000000000000, -0.000000000000000000, -0.000000000000000000 ) ) ;
#425 = CARTESIAN_POINT ( 'NONE',  ( 1.300000000000000044, -0.7390083445627225744, 1.280000000000000693 ) ) ;
#426 = EDGE_CURVE ( 'NONE', #377, #447, #683, .T. ) ;
#427 = LINE ( 'NONE', #200, #367 ) ;
#428 = EDGE_LOOP ( 'NONE', ( #704, #92 ) ) ;
#429 = CARTESIAN_POINT ( 'NONE',  ( 18.71950000000002845, 0.000000000000000000, 0.000000000000000000 ) ) ;
#430 = AXIS2_PLACEMENT_3D ( 'NONE', #305, #28, #707 ) ;
#431 = DIRECTION ( 'NONE',  ( 0.000000000000000000, 0.000000000000000000, 1.000000000000000000 ) ) ;
#432 = EDGE_CURVE ( 'NONE', #89, #434, #340, .T. ) ;
#433 = LINE ( 'NONE', #404, #351 ) ;
#434 = VERTEX_POINT ( 'NONE', #561 ) ;
#435 = DIRECTION ( 'NONE',  ( -1.000000000000000000, -0.000000000000000000, -0.000000000000000000 ) ) ;
#436 = DIRECTION ( 'NONE',  ( 1.000000000000000000, 0.000000000000000000, 0.000000000000000000 ) ) ;
#437 = ORIENTED_EDGE ( 'NONE', *, *, #690, .T. ) ;
#438 = EDGE_CURVE ( 'NONE', #377, #494, #233, .T. ) ;
#439 = DIRECTION ( 'NONE',  ( -1.000000000000000000, -0.000000000000000000, -0.000000000000000000 ) ) ;
#440 = ORIENTED_EDGE ( 'NONE', *, *, #587, .T. ) ;
#441 = CARTESIAN_POINT ( 'NONE',  ( 1.300000000000002709, 0.000000000000000000, 0.000000000000000000 ) ) ;
#442 = VECTOR ( 'NONE', #680, 999.9999999999998863 ) ;
#443 = TOROIDAL_SURFACE ( 'NONE', #598, 1.600000000000011857, 0.1000000000000000056 ) ;
#444 = VERTEX_POINT ( 'NONE', #108 ) ;
#445 = DIRECTION ( 'NONE',  ( 0.000000000000000000, 0.000000000000000000, 1.000000000000000000 ) ) ;
#446 = EDGE_CURVE ( 'NONE', #731, #331, #509, .T. ) ;
#447 = VERTEX_POINT ( 'NONE', #504 ) ;
#448 = PLANE ( 'NONE',  #197 ) ;
#449 = ORIENTED_EDGE ( 'NONE', *, *, #106, .F. ) ;
#450 = AXIS2_PLACEMENT_3D ( 'NONE', #357, #644, #638 ) ;
#451 = FACE_OUTER_BOUND ( 'NONE', #642, .T. ) ;
#452 = AXIS2_PLACEMENT_3D ( 'NONE', #586, #71, #480 ) ;
#453 = ORIENTED_EDGE ( 'NONE', *, *, #43, .T. ) ;
#454 = ADVANCED_FACE ( 'NONE', ( #618, #569 ), #615, .T. ) ;
#455 = UNCERTAINTY_MEASURE_WITH_UNIT (LENGTH_MEASURE( 1.000000000000000082E-05 ), #710, 'distance_accuracy_value', 'NONE');
#456 = DIRECTION ( 'NONE',  ( -0.000000000000000000, 1.173683280263405167E-15, 1.000000000000000000 ) ) ;
#457 = ORIENTED_EDGE ( 'NONE', *, *, #378, .T. ) ;
#458 = APPLICATION_CONTEXT ( 'automotive_design' ) ;
#459 = CARTESIAN_POINT ( 'NONE',  ( 3.099999999999998757, 0.000000000000000000, 0.000000000000000000 ) ) ;
#460 = ORIENTED_EDGE ( 'NONE', *, *, #587, .F. ) ;
#461 = CARTESIAN_POINT ( 'NONE',  ( 19.00000000000000355, 0.000000000000000000, 0.000000000000000000 ) ) ;
#462 = EDGE_CURVE ( 'NONE', #519, #273, #279, .T. ) ;
#463 = PLANE ( 'NONE',  #121 ) ;
#464 = CIRCLE ( 'NONE', #144, 1.500000000000023315 ) ;
#465 = ORIENTED_EDGE ( 'NONE', *, *, #315, .F. ) ;
#466 = CONICAL_SURFACE ( 'NONE', #214, 1.279999999999999805, 1.047197551196595633 ) ;
#467 = CARTESIAN_POINT ( 'NONE',  ( 0.000000000000000000, 0.000000000000000000, 0.000000000000000000 ) ) ;
#468 = LINE ( 'NONE', #131, #45 ) ;
#469 = CARTESIAN_POINT ( 'NONE',  ( 3.099999999999998757, 0.000000000000000000, 0.000000000000000000 ) ) ;
#470 = ORIENTED_EDGE ( 'NONE', *, *, #32, .T. ) ;
#471 = CARTESIAN_POINT ( 'NONE',  ( 19.00000000000000355, 0.000000000000000000, 1.219500000000000028 ) ) ;
#472 = PRESENTATION_STYLE_ASSIGNMENT (( #250 ) ) ;
#473 = ORIENTED_EDGE ( 'NONE', *, *, #119, .F. ) ;
#474 = DIRECTION ( 'NONE',  ( -1.000000000000000000, -0.000000000000000000, -0.000000000000000000 ) ) ;
#475 = FACE_OUTER_BOUND ( 'NONE', #266, .T. ) ;
#476 = CIRCLE ( 'NONE', #450, 0.1000000000000000472 ) ;
#477 = DIRECTION ( 'NONE',  ( 0.000000000000000000, 0.000000000000000000, 1.000000000000000000 ) ) ;
#478 = CONICAL_SURFACE ( 'NONE', #234, 2.449999999999998845, 0.7853981633974468357 ) ;
#479 = ADVANCED_FACE ( 'NONE', ( #4, #451 ), #448, .T. ) ;
#480 = DIRECTION ( 'NONE',  ( 0.000000000000000000, 0.5000000000000005551, -0.8660254037844382635 ) ) ;
#481 = CARTESIAN_POINT ( 'NONE',  ( 1.300000000000000044, 1.478016689125442484, -1.409462824231155764E-15 ) ) ;
#482 = ORIENTED_EDGE ( 'NONE', *, *, #690, .F. ) ;
#483 = EDGE_CURVE ( 'NONE', #89, #342, #502, .T. ) ;
#484 = FACE_OUTER_BOUND ( 'NONE', #384, .T. ) ;
#485 = CARTESIAN_POINT ( 'NONE',  ( 19.00000000000000355, 0.000000000000000000, 1.219500000000000028 ) ) ;
#486 = ORIENTED_EDGE ( 'NONE', *, *, #378, .F. ) ;
#487 = CARTESIAN_POINT ( 'NONE',  ( 2.999999999999999112, 1.959434878635779775E-16, 1.600000000000011857 ) ) ;
#488 = DIRECTION ( 'NONE',  ( 0.000000000000000000, 0.000000000000000000, -1.000000000000000000 ) ) ;
#489 = FACE_OUTER_BOUND ( 'NONE', #540, .T. ) ;
#490 = ORIENTED_EDGE ( 'NONE', *, *, #729, .T. ) ;
#491 = AXIS2_PLACEMENT_3D ( 'NONE', #366, #30, #724 ) ;
#492 = PLANE ( 'NONE',  #660 ) ;
#493 = LINE ( 'NONE', #664, #75 ) ;
#494 = VERTEX_POINT ( 'NONE', #180 ) ;
#495 = DIRECTION ( 'NONE',  ( -1.000000000000000000, -0.000000000000000000, -0.000000000000000000 ) ) ;
#496 = ORIENTED_EDGE ( 'NONE', *, *, #511, .T. ) ;
#497 = CARTESIAN_POINT ( 'NONE',  ( 0.3000000000000016542, 0.000000000000000000, 0.000000000000000000 ) ) ;
#498 = ORIENTED_EDGE ( 'NONE', *, *, #230, .F. ) ;
#499 = EDGE_CURVE ( 'NONE', #342, #676, #737, .T. ) ;
#500 = DIRECTION ( 'NONE',  ( 0.000000000000000000, 0.5000000000000003331, -0.8660254037844383745 ) ) ;
#501 = EDGE_LOOP ( 'NONE', ( #397, #596, #566, #440, #228 ) ) ;
#502 = LINE ( 'NONE', #686, #442 ) ;
#503 = EDGE_LOOP ( 'NONE', ( #572, #716, #31 ) ) ;
#504 = CARTESIAN_POINT ( 'NONE',  ( 1.300000000000000044, -1.108512516844083251, 0.6400000000000030109 ) ) ;
#505 = ADVANCED_FACE ( 'NONE', ( #229 ), #168, .T. ) ;
#506 = ORIENTED_EDGE ( 'NONE', *, *, #438, .F. ) ;
#507 = CARTESIAN_POINT ( 'NONE',  ( 0.000000000000000000, 1.478016689125442484, -1.409462824231155764E-15 ) ) ;
#508 = VECTOR ( 'NONE', #345, 999.9999999999998863 ) ;
#509 = CIRCLE ( 'NONE', #17, 1.500000000000011768 ) ;
#510 = CIRCLE ( 'NONE', #47, 1.279999999999999805 ) ;
#511 = EDGE_CURVE ( 'NONE', #66, #120, #224, .T. ) ;
#512 = ORIENTED_EDGE ( 'NONE', *, *, #325, .T. ) ;
#513 = PRODUCT_DEFINITION_FORMATION_WITH_SPECIFIED_SOURCE ( 'Symmetric', '', #178, .NOT_KNOWN. ) ;
#514 = PRODUCT_DEFINITION_CONTEXT ( 'detailed design', #689, 'design' ) ;
#515 = DIRECTION ( 'NONE',  ( 0.000000000000000000, 0.000000000000000000, 1.000000000000000000 ) ) ;
#516 = ORIENTED_EDGE ( 'NONE', *, *, #635, .F. ) ;
#517 = LINE ( 'NONE', #11, #6 ) ;
#518 = LINE ( 'NONE', #299, #298 ) ;
#519 = VERTEX_POINT ( 'NONE', #285 ) ;
#520 = DIRECTION ( 'NONE',  ( 0.000000000000000000, 0.000000000000000000, 1.000000000000000000 ) ) ;
#521 = EDGE_CURVE ( 'NONE', #288, #194, #238, .T. ) ;
#522 = CARTESIAN_POINT ( 'NONE',  ( 2.999999999999999112, 0.000000000000000000, -1.600000000000011857 ) ) ;
#523 = LINE ( 'NONE', #18, #682 ) ;
#524 =( GEOMETRIC_REPRESENTATION_CONTEXT ( 3 ) GLOBAL_UNCERTAINTY_ASSIGNED_CONTEXT ( ( #554 ) ) GLOBAL_UNIT_ASSIGNED_CONTEXT ( ( #419, #316, #374 ) ) REPRESENTATION_CONTEXT ( 'NONE', 'WORKASPACE' ) );
#525 = DIRECTION ( 'NONE',  ( -0.7071067811864871766, 0.000000000000000000, 0.7071067811866079689 ) ) ;
#526 = SURFACE_STYLE_FILL_AREA ( #303 ) ;
#527 = EDGE_LOOP ( 'NONE', ( #726, #506, #530, #101, #574 ) ) ;
#528 = DIRECTION ( 'NONE',  ( 0.000000000000000000, -0.5000000000000014433, -0.8660254037844379305 ) ) ;
#529 = CARTESIAN_POINT ( 'NONE',  ( 0.3000000000000016542, 3.367778697655221012E-16, -2.750000000000000000 ) ) ;
#530 = ORIENTED_EDGE ( 'NONE', *, *, #426, .T. ) ;
#531 = PLANE ( 'NONE',  #452 ) ;
#532 = CIRCLE ( 'NONE', #160, 1.219500000000000028 ) ;
#533 = DIRECTION ( 'NONE',  ( 0.000000000000000000, 0.000000000000000000, -1.000000000000000000 ) ) ;
#534 = EDGE_LOOP ( 'NONE', ( #307, #457, #601, #496, #117 ) ) ;
#535 = AXIS2_PLACEMENT_3D ( 'NONE', #115, #392, #730 ) ;
#536 = AXIS2_PLACEMENT_3D ( 'NONE', #36, #545, #603 ) ;
#537 = CARTESIAN_POINT ( 'NONE',  ( 1.300000000000002709, 0.000000000000000000, 0.000000000000000000 ) ) ;
#538 = CARTESIAN_POINT ( 'NONE',  ( 0.000000000000000000, 0.7390083445627190217, -1.280000000000000693 ) ) ;
#539 = FACE_OUTER_BOUND ( 'NONE', #721, .T. ) ;
#540 = EDGE_LOOP ( 'NONE', ( #437, #679, #60 ) ) ;
#541 = ADVANCED_FACE ( 'NONE', ( #287 ), #162, .F. ) ;
#542 = CARTESIAN_POINT ( 'NONE',  ( 3.099999999999998757, 0.000000000000000000, 0.000000000000000000 ) ) ;
#543 = DIRECTION ( 'NONE',  ( 1.000000000000000000, 0.000000000000000000, 0.000000000000000000 ) ) ;
#544 = VERTEX_POINT ( 'NONE', #359 ) ;
#545 = DIRECTION ( 'NONE',  ( 0.000000000000000000, 0.000000000000000000, 1.000000000000000000 ) ) ;
#546 = CARTESIAN_POINT ( 'NONE',  ( 1.300000000000000044, 1.478016689125442484, -1.409462824231155764E-15 ) ) ;
#547 = DIRECTION ( 'NONE',  ( 0.000000000000000000, 0.000000000000000000, -1.000000000000000000 ) ) ;
#548 = EDGE_LOOP ( 'NONE', ( #394, #606, #110, #204, #10 ) ) ;
#549 = AXIS2_PLACEMENT_3D ( 'NONE', #469, #191, #700 ) ;
#550 = AXIS2_PLACEMENT_3D ( 'NONE', #211, #551, #431 ) ;
#551 = DIRECTION ( 'NONE',  ( -1.000000000000000000, -0.000000000000000000, -0.000000000000000000 ) ) ;
#552 = AXIS2_PLACEMENT_3D ( 'NONE', #252, #474, #85 ) ;
#553 = EDGE_LOOP ( 'NONE', ( #564, #625, #84, #52 ) ) ;
#554 = UNCERTAINTY_MEASURE_WITH_UNIT (LENGTH_MEASURE( 1.000000000000000082E-05 ), #419, 'distance_accuracy_value', 'NONE');
#555 = DIRECTION ( 'NONE',  ( 0.000000000000000000, 0.000000000000000000, -1.000000000000000000 ) ) ;
#556 = ADVANCED_FACE ( 'NONE', ( #189 ), #130, .T. ) ;
#557 = EDGE_LOOP ( 'NONE', ( #588, #137, #281, #78 ) ) ;
#558 = DIRECTION ( 'NONE',  ( 0.000000000000000000, -0.5000000000000011102, -0.8660254037844379305 ) ) ;
#559 = ORIENTED_EDGE ( 'NONE', *, *, #678, .T. ) ;
#560 = TOROIDAL_SURFACE ( 'NONE', #582, 1.600000000000011857, 0.1000000000000000056 ) ;
#561 = CARTESIAN_POINT ( 'NONE',  ( 0.000000000000000000, 0.7390083445627201320, 1.279999999999998916 ) ) ;
#562 = VECTOR ( 'NONE', #573, 1000.000000000000000 ) ;
#563 = AXIS2_PLACEMENT_3D ( 'NONE', #346, #74, #295 ) ;
#564 = ORIENTED_EDGE ( 'NONE', *, *, #65, .F. ) ;
#565 = CARTESIAN_POINT ( 'NONE',  ( 1.300000000000000044, 0.7390083445627201320, 1.279999999999998916 ) ) ;
#566 = ORIENTED_EDGE ( 'NONE', *, *, #607, .T. ) ;
#567 = FACE_OUTER_BOUND ( 'NONE', #548, .T. ) ;
#568 = ORIENTED_EDGE ( 'NONE', *, *, #129, .T. ) ;
#569 = FACE_OUTER_BOUND ( 'NONE', #681, .T. ) ;
#570 = VECTOR ( 'NONE', #417, 1000.000000000000000 ) ;
#571 = AXIS2_PLACEMENT_3D ( 'NONE', #293, #354, #640 ) ;
#572 = ORIENTED_EDGE ( 'NONE', *, *, #607, .F. ) ;
#573 = DIRECTION ( 'NONE',  ( 0.000000000000000000, -1.000000000000000000, 1.026972870230479595E-15 ) ) ;
#574 = ORIENTED_EDGE ( 'NONE', *, *, #235, .T. ) ;
#575 = ADVANCED_FACE ( 'NONE', ( #138 ), #393, .T. ) ;
#576 = CARTESIAN_POINT ( 'NONE',  ( 19.00000000000000000, 1.219500000000000028, 0.000000000000000000 ) ) ;
#577 = DIRECTION ( 'NONE',  ( -1.000000000000000000, -0.000000000000000000, -0.000000000000000000 ) ) ;
#578 = CARTESIAN_POINT ( 'NONE',  ( 2.039008344562727615, 0.000000000000000000, 0.000000000000000000 ) ) ;
#579 = PLANE ( 'NONE',  #661 ) ;
#580 = LINE ( 'NONE', #256, #570 ) ;
#581 = CIRCLE ( 'NONE', #645, 1.279999999999999805 ) ;
#582 = AXIS2_PLACEMENT_3D ( 'NONE', #542, #436, #656 ) ;
#583 = CARTESIAN_POINT ( 'NONE',  ( 0.000000000000000000, 0.000000000000000000, -2.449999999999998845 ) ) ;
#584 = VECTOR ( 'NONE', #344, 1000.000000000000227 ) ;
#585 = CARTESIAN_POINT ( 'NONE',  ( 1.300000000000000044, 1.478016689125442484, -1.409462824231155764E-15 ) ) ;
#586 = CARTESIAN_POINT ( 'NONE',  ( 1.300000000000000044, 1.478016689125442484, -1.409462824231155764E-15 ) ) ;
#587 = EDGE_CURVE ( 'NONE', #66, #610, #196, .T. ) ;
#588 = ORIENTED_EDGE ( 'NONE', *, *, #678, .F. ) ;
#589 = DIRECTION ( 'NONE',  ( 0.000000000000000000, 1.000000000000000000, -1.026972870230479595E-15 ) ) ;
#590 = DIRECTION ( 'NONE',  ( -0.5000000000000017764, 1.060575238724905682E-16, -0.8660254037844377084 ) ) ;
#591 = EDGE_CURVE ( 'NONE', #194, #215, #648, .T. ) ;
#592 = CARTESIAN_POINT ( 'NONE',  ( 1.300000000000000044, 1.478016689125442484, -1.409462824231155764E-15 ) ) ;
#593 = EDGE_LOOP ( 'NONE', ( #278, #728, #482, #617, #490 ) ) ;
#594 = CARTESIAN_POINT ( 'NONE',  ( 0.000000000000000000, -1.478016689125445371, 1.192622389734054877E-15 ) ) ;
#595 = CARTESIAN_POINT ( 'NONE',  ( -31.74999999999995737, 1.836970198721044232E-16, -1.500000000000011768 ) ) ;
#596 = ORIENTED_EDGE ( 'NONE', *, *, #729, .F. ) ;
#597 = VECTOR ( 'NONE', #500, 1000.000000000000114 ) ;
#598 = AXIS2_PLACEMENT_3D ( 'NONE', #459, #411, #631 ) ;
#599 = CARTESIAN_POINT ( 'NONE',  ( 3.099999999999998757, 1.959434878635779775E-16, 1.600000000000011857 ) ) ;
#600 = CARTESIAN_POINT ( 'NONE',  ( 19.00000000000000355, 0.000000000000000000, 0.000000000000000000 ) ) ;
#601 = ORIENTED_EDGE ( 'NONE', *, *, #699, .T. ) ;
#602 = ADVANCED_FACE ( 'NONE', ( #240 ), #579, .F. ) ;
#603 = DIRECTION ( 'NONE',  ( 1.000000000000000000, 0.000000000000000000, 0.000000000000000000 ) ) ;
#604 = LINE ( 'NONE', #90, #623 ) ;
#605 = FACE_OUTER_BOUND ( 'NONE', #557, .T. ) ;
#606 = ORIENTED_EDGE ( 'NONE', *, *, #405, .F. ) ;
#607 = EDGE_CURVE ( 'NONE', #296, #66, #182, .T. ) ;
#608 = DIRECTION ( 'NONE',  ( 0.000000000000000000, -0.5000000000000003331, 0.8660254037844383745 ) ) ;
#609 = VECTOR ( 'NONE', #208, 1000.000000000000000 ) ;
#610 = VERTEX_POINT ( 'NONE', #81 ) ;
#611 = CIRCLE ( 'NONE', #369, 2.750000000000000000 ) ;
#612 = CARTESIAN_POINT ( 'NONE',  ( 19.00000000000000355, 0.000000000000000000, 0.000000000000000000 ) ) ;
#613 = ADVANCED_FACE ( 'NONE', ( #249 ), #443, .F. ) ;
#614 = ORIENTED_EDGE ( 'NONE', *, *, #591, .T. ) ;
#615 = PLANE ( 'NONE',  #673 ) ;
#616 = EDGE_CURVE ( 'NONE', #97, #107, #122, .T. ) ;
#617 = ORIENTED_EDGE ( 'NONE', *, *, #629, .F. ) ;
#618 = FACE_BOUND ( 'NONE', #276, .T. ) ;
#619 = ORIENTED_EDGE ( 'NONE', *, *, #725, .F. ) ;
#620 = AXIS2_PLACEMENT_3D ( 'NONE', #213, #651, #711 ) ;
#621 = EDGE_CURVE ( 'NONE', #120, #194, #226, .T. ) ;
#622 = DIRECTION ( 'NONE',  ( 0.000000000000000000, -1.000000000000000000, 1.026972870230479595E-15 ) ) ;
#623 = VECTOR ( 'NONE', #98, 1000.000000000000114 ) ;
#624 = CIRCLE ( 'NONE', #56, 2.449999999999998845 ) ;
#625 = ORIENTED_EDGE ( 'NONE', *, *, #264, .T. ) ;
#626 = CARTESIAN_POINT ( 'NONE',  ( 3.099999999999998757, 0.000000000000000000, 0.000000000000000000 ) ) ;
#627 = ORIENTED_EDGE ( 'NONE', *, *, #315, .T. ) ;
#628 = CARTESIAN_POINT ( 'NONE',  ( 1.300000000000000044, -0.7390083445627225744, 1.280000000000000693 ) ) ;
#629 = EDGE_CURVE ( 'NONE', #296, #120, #517, .T. ) ;
#630 = ORIENTED_EDGE ( 'NONE', *, *, #446, .F. ) ;
#631 = DIRECTION ( 'NONE',  ( 0.000000000000000000, 0.000000000000000000, -1.000000000000000000 ) ) ;
#632 = AXIS2_PLACEMENT_3D ( 'NONE', #190, #641, #136 ) ;
#633 = SURFACE_SIDE_STYLE ('',( #526 ) ) ;
#634 = AXIS2_PLACEMENT_3D ( 'NONE', #441, #113, #675 ) ;
#635 = EDGE_CURVE ( 'NONE', #27, #97, #695, .T. ) ;
#636 = DIRECTION ( 'NONE',  ( -1.000000000000000000, -0.000000000000000000, -0.000000000000000000 ) ) ;
#637 = CARTESIAN_POINT ( 'NONE',  ( 1.300000000000000044, 0.7390083445627190217, -1.280000000000000693 ) ) ;
#638 = DIRECTION ( 'NONE',  ( 0.000000000000000000, 0.000000000000000000, -1.000000000000000000 ) ) ;
#639 = DIRECTION ( 'NONE',  ( 0.000000000000000000, 1.000000000000000000, -1.173683280263405167E-15 ) ) ;
#640 = DIRECTION ( 'NONE',  ( 0.000000000000000000, 0.000000000000000000, 1.000000000000000000 ) ) ;
#641 = DIRECTION ( 'NONE',  ( -1.000000000000000000, -0.000000000000000000, -0.000000000000000000 ) ) ;
#642 = EDGE_LOOP ( 'NONE', ( #171, #294 ) ) ;
#643 = DIRECTION ( 'NONE',  ( -1.000000000000000000, -0.000000000000000000, -0.000000000000000000 ) ) ;
#644 = DIRECTION ( 'NONE',  ( 0.000000000000000000, -1.000000000000000000, 0.000000000000000000 ) ) ;
#645 = AXIS2_PLACEMENT_3D ( 'NONE', #322, #44, #477 ) ;
#646 = ORIENTED_EDGE ( 'NONE', *, *, #499, .T. ) ;
#647 = AXIS2_PLACEMENT_3D ( 'NONE', #612, #495, #727 ) ;
#648 = LINE ( 'NONE', #637, #562 ) ;
#649 = EDGE_CURVE ( 'NONE', #447, #691, #395, .T. ) ;
#650 = CARTESIAN_POINT ( 'NONE',  ( -31.74999999999995737, 0.000000000000000000, 0.000000000000000000 ) ) ;
#651 = DIRECTION ( 'NONE',  ( 1.000000000000000000, 0.000000000000000000, 0.000000000000000000 ) ) ;
#652 = APPLICATION_PROTOCOL_DEFINITION ( 'draft international standard', 'automotive_design', 1998, #458 ) ;
#653 = LINE ( 'NONE', #158, #5 ) ;
#654 = LINE ( 'NONE', #313, #297 ) ;
#655 = ORIENTED_EDGE ( 'NONE', *, *, #264, .F. ) ;
#656 = DIRECTION ( 'NONE',  ( 0.000000000000000000, 0.000000000000000000, -1.000000000000000000 ) ) ;
#657 = EDGE_CURVE ( 'NONE', #107, #331, #70, .T. ) ;
#658 = DIRECTION ( 'NONE',  ( -1.000000000000000000, -0.000000000000000000, -0.000000000000000000 ) ) ;
#659 = ORIENTED_EDGE ( 'NONE', *, *, #148, .F. ) ;
#660 = AXIS2_PLACEMENT_3D ( 'NONE', #217, #277, #608 ) ;
#661 = AXIS2_PLACEMENT_3D ( 'NONE', #349, #302, #407 ) ;
#662 = DIRECTION ( 'NONE',  ( 0.000000000000000000, -0.5000000000000011102, -0.8660254037844379305 ) ) ;
#663 = FACE_OUTER_BOUND ( 'NONE', #164, .T. ) ;
#664 = CARTESIAN_POINT ( 'NONE',  ( 1.300000000000000044, -0.7390083445627235736, -1.279999999999999138 ) ) ;
#665 = ORIENTED_EDGE ( 'NONE', *, *, #8, .T. ) ;
#666 = SHAPE_DEFINITION_REPRESENTATION ( #109, #387 ) ;
#667 = ORIENTED_EDGE ( 'NONE', *, *, #116, .F. ) ;
#668 = EDGE_CURVE ( 'NONE', #194, #273, #510, .T. ) ;
#669 = DIRECTION ( 'NONE',  ( 0.000000000000000000, 0.000000000000000000, 1.000000000000000000 ) ) ;
#670 = CIRCLE ( 'NONE', #708, 1.600000000000011857 ) ;
#671 = ORIENTED_EDGE ( 'NONE', *, *, #657, .F. ) ;
#672 = CIRCLE ( 'NONE', #170, 2.750000000000000000 ) ;
#673 = AXIS2_PLACEMENT_3D ( 'NONE', #282, #53, #61 ) ;
#674 = VECTOR ( 'NONE', #185, 1000.000000000000227 ) ;
#675 = DIRECTION ( 'NONE',  ( 0.000000000000000000, 0.000000000000000000, 1.000000000000000000 ) ) ;
#676 = VERTEX_POINT ( 'NONE', #246 ) ;
#677 = CARTESIAN_POINT ( 'NONE',  ( 1.300000000000002709, 0.000000000000000000, 0.000000000000000000 ) ) ;
#678 = EDGE_CURVE ( 'NONE', #183, #444, #371, .T. ) ;
#679 = ORIENTED_EDGE ( 'NONE', *, *, #521, .T. ) ;
#680 = DIRECTION ( 'NONE',  ( 0.000000000000000000, -0.5000000000000014433, -0.8660254037844379305 ) ) ;
#681 = EDGE_LOOP ( 'NONE', ( #114, #559 ) ) ;
#682 = VECTOR ( 'NONE', #639, 1000.000000000000000 ) ;
#683 = LINE ( 'NONE', #64, #29 ) ;
#684 = VECTOR ( 'NONE', #48, 1000.000000000000000 ) ;
#685 = ORIENTED_EDGE ( 'NONE', *, *, #169, .T. ) ;
#686 = CARTESIAN_POINT ( 'NONE',  ( 0.000000000000000000, 1.478016689125442484, -1.409462824231155764E-15 ) ) ;
#687 = CARTESIAN_POINT ( 'NONE',  ( 18.71950000000002845, 0.000000000000000000, 0.000000000000000000 ) ) ;
#688 = DIRECTION ( 'NONE',  ( 0.000000000000000000, 0.000000000000000000, -1.000000000000000000 ) ) ;
#689 = APPLICATION_CONTEXT ( 'automotive_design' ) ;
#690 = EDGE_CURVE ( 'NONE', #120, #288, #134, .T. ) ;
#691 = VERTEX_POINT ( 'NONE', #24 ) ;
#692 = CARTESIAN_POINT ( 'NONE',  ( 19.00000000000000355, 0.000000000000000000, 0.000000000000000000 ) ) ;
#693 = CLOSED_SHELL ( 'NONE', ( #705, #613, #99, #124, #187, #575, #454, #556, #365, #505, #479, #179, #275, #283, #221, #421, #300, #360, #541, #69, #334, #338, #163, #602, #231, #154, #410 ) ) ;
#694 = CARTESIAN_POINT ( 'NONE',  ( 1.300000000000000044, 1.478016689125442484, -1.409462824231155764E-15 ) ) ;
#695 = CIRCLE ( 'NONE', #175, 1.219500000000000028 ) ;
#696 = ORIENTED_EDGE ( 'NONE', *, *, #668, .F. ) ;
#697 = DIRECTION ( 'NONE',  ( 0.000000000000000000, 0.000000000000000000, 1.000000000000000000 ) ) ;
#698 = CARTESIAN_POINT ( 'NONE',  ( 0.3000000000000016542, 0.000000000000000000, 0.000000000000000000 ) ) ;
#699 = EDGE_CURVE ( 'NONE', #691, #66, #416, .T. ) ;
#700 = DIRECTION ( 'NONE',  ( 0.000000000000000000, 0.000000000000000000, -1.000000000000000000 ) ) ;
#701 = VERTEX_POINT ( 'NONE', #487 ) ;
#702 = CARTESIAN_POINT ( 'NONE',  ( -31.74999999999995737, 0.000000000000000000, 1.500000000000011768 ) ) ;
#703 = FACE_OUTER_BOUND ( 'NONE', #225, .T. ) ;
#704 = ORIENTED_EDGE ( 'NONE', *, *, #94, .T. ) ;
#705 = ADVANCED_FACE ( 'NONE', ( #717 ), #466, .F. ) ;
#706 = DIRECTION ( 'NONE',  ( -1.000000000000000000, -0.000000000000000000, -0.000000000000000000 ) ) ;
#707 = DIRECTION ( 'NONE',  ( 0.000000000000000000, 0.000000000000000000, -1.000000000000000000 ) ) ;
#708 = AXIS2_PLACEMENT_3D ( 'NONE', #715, #376, #533 ) ;
#709 = PLANE ( 'NONE',  #73 ) ;
#710 =( LENGTH_UNIT ( ) NAMED_UNIT ( * ) SI_UNIT ( .MILLI., .METRE. ) );
#711 = DIRECTION ( 'NONE',  ( 0.000000000000000000, 0.000000000000000000, -1.000000000000000000 ) ) ;
#712 = ORIENTED_EDGE ( 'NONE', *, *, #26, .F. ) ;
#713 = LINE ( 'NONE', #40, #684 ) ;
#714 = DIRECTION ( 'NONE',  ( 1.000000000000000000, 0.000000000000000000, 0.000000000000000000 ) ) ;
#715 = CARTESIAN_POINT ( 'NONE',  ( 3.000000000000000000, 0.000000000000000000, 0.000000000000000000 ) ) ;
#716 = ORIENTED_EDGE ( 'NONE', *, *, #629, .T. ) ;
#717 = FACE_OUTER_BOUND ( 'NONE', #209, .T. ) ;
#718 = PLANE ( 'NONE',  #383 ) ;
#719 = PLANE ( 'NONE',  #620 ) ;
#720 = AXIS2_PLACEMENT_3D ( 'NONE', #698, #439, #669 ) ;
#721 = EDGE_LOOP ( 'NONE', ( #512, #156, #58, #449 ) ) ;
#722 = AXIS2_PLACEMENT_3D ( 'NONE', #546, #42, #488 ) ;
#723 = PLANE ( 'NONE',  #722 ) ;
#724 = DIRECTION ( 'NONE',  ( 0.000000000000000000, 0.000000000000000000, 1.000000000000000000 ) ) ;
#725 = EDGE_CURVE ( 'NONE', #444, #183, #624, .T. ) ;
#726 = ORIENTED_EDGE ( 'NONE', *, *, #207, .F. ) ;
#727 = DIRECTION ( 'NONE',  ( 0.000000000000000000, 0.000000000000000000, 1.000000000000000000 ) ) ;
#728 = ORIENTED_EDGE ( 'NONE', *, *, #201, .F. ) ;
#729 = EDGE_CURVE ( 'NONE', #296, #89, #713, .T. ) ;
#730 = DIRECTION ( 'NONE',  ( 0.000000000000000000, 0.000000000000000000, 1.000000000000000000 ) ) ;
#731 = VERTEX_POINT ( 'NONE', #93 ) ;
#732 = PRESENTATION_LAYER_ASSIGNMENT (  '', '', ( #309 ) ) ;
#733 = VECTOR ( 'NONE', #337, 1000.000000000000000 ) ;
#734 = EDGE_CURVE ( 'NONE', #447, #519, #320, .T. ) ;
#735 = CARTESIAN_POINT ( 'NONE',  ( 3.000000000000000000, 2.750000000000000000, 0.000000000000000000 ) ) ;
#736 = ORIENTED_EDGE ( 'NONE', *, *, #43, .F. ) ;
#737 = LINE ( 'NONE', #118, #289 ) ;
#738 = EDGE_CURVE ( 'NONE', #107, #352, #312, .T. ) ;
#739 = ORIENTED_EDGE ( 'NONE', *, *, #201, .T. ) ;
ENDSEC;
END-ISO-10303-21;
